<svg width="380" height="219" viewBox="0 0 380 219" fill="none" xmlns="http://www.w3.org/2000/svg">
<path d="M189.999 218.268C271.382 218.268 337.355 215.309 337.355 211.659C337.355 208.008 271.382 205.049 189.999 205.049C108.616 205.049 42.6426 208.008 42.6426 211.659C42.6426 215.309 108.616 218.268 189.999 218.268Z" fill="#F5F5F5"/>
<path d="M294.738 122.895H84.0054C83.3348 122.893 82.6923 122.688 82.2181 122.324C81.7439 121.959 81.4766 121.466 81.4746 120.95C81.4766 120.435 81.7439 119.942 82.2181 119.577C82.6923 119.213 83.3348 119.008 84.0054 119.006H294.738C295.409 119.008 296.051 119.213 296.526 119.577C297 119.942 297.267 120.435 297.269 120.95C297.267 121.466 297 121.959 296.526 122.324C296.051 122.688 295.409 122.893 294.738 122.895Z" fill="#246DFF"/>
<path opacity="0.3" d="M294.739 122.895H245.408C244.737 122.893 244.095 122.688 243.62 122.324C243.146 121.959 242.879 121.466 242.877 120.95C242.879 120.435 243.146 119.942 243.62 119.577C244.095 119.213 244.737 119.008 245.408 119.006H294.739C295.41 119.008 296.053 119.213 296.527 119.577C297.001 119.942 297.268 120.435 297.27 120.95C297.268 121.466 297.001 121.959 296.527 122.324C296.053 122.688 295.41 122.893 294.739 122.895Z" fill="#263238"/>
<path d="M289.388 127.77H127.318V141.322H289.388V127.77Z" fill="#263238"/>
<path opacity="0.1" d="M289.388 127.77H127.318V141.322H289.388V127.77Z" fill="white"/>
<path d="M287.033 208.961H291.882L291.684 122.895H284.966L287.033 208.961Z" fill="#263238"/>
<path opacity="0.1" d="M287.033 208.961H291.882L291.684 122.895H284.966L287.033 208.961Z" fill="white"/>
<path d="M242.346 208.961H237.489L248.464 122.895H255.182L242.346 208.961Z" fill="#263238"/>
<path opacity="0.2" d="M242.346 208.961H237.489L248.464 122.895H255.182L242.346 208.961Z" fill="white"/>
<path d="M125.635 208.961H130.483L130.286 122.895H123.567L125.635 208.961Z" fill="#263238"/>
<path opacity="0.1" d="M125.635 208.961H130.483L130.286 122.895H123.567L125.635 208.961Z" fill="white"/>
<path d="M80.9443 208.961H76.0879L87.0623 122.895H93.7807L80.9443 208.961Z" fill="#263238"/>
<path opacity="0.2" d="M80.9443 208.961H76.0879L87.0623 122.895H93.7807L80.9443 208.961Z" fill="white"/>
<path d="M217.44 119.006H206.253L201.776 102.202H212.964L217.44 119.006Z" fill="#263238"/>
<path d="M232.283 115.543H183.75C183.372 115.546 182.998 115.489 182.651 115.376C182.303 115.262 181.99 115.094 181.732 114.883C181.473 114.672 181.275 114.422 181.148 114.148C181.022 113.875 180.971 113.584 180.998 113.295L182.853 89.6883C182.91 89.0834 183.26 88.517 183.834 88.1008C184.408 87.6846 185.164 87.4489 185.954 87.4403H234.495C234.872 87.4379 235.246 87.4956 235.592 87.6095C235.939 87.7234 236.252 87.8912 236.51 88.1023C236.768 88.3134 236.967 88.5633 237.094 88.8362C237.22 89.1091 237.272 89.3992 237.246 89.6883L235.392 113.295C235.333 113.901 234.981 114.467 234.406 114.883C233.83 115.299 233.073 115.535 232.283 115.543Z" fill="#263238"/>
<path d="M231.524 115.543H182.991C182.613 115.546 182.239 115.489 181.892 115.376C181.545 115.262 181.232 115.094 180.973 114.883C180.715 114.672 180.516 114.422 180.39 114.148C180.263 113.875 180.212 113.584 180.24 113.295L182.094 89.6883C182.151 89.0834 182.501 88.517 183.075 88.1008C183.649 87.6846 184.406 87.4489 185.195 87.4403H233.736C234.113 87.4379 234.487 87.4956 234.834 87.6095C235.18 87.7234 235.493 87.8912 235.751 88.1023C236.009 88.3134 236.208 88.5633 236.335 88.8362C236.462 89.1091 236.513 89.3992 236.487 89.6883L234.633 113.295C234.574 113.901 234.222 114.467 233.647 114.883C233.072 115.299 232.314 115.535 231.524 115.543Z" fill="#246DFF"/>
<path d="M182.982 114.375C182.813 114.376 182.646 114.351 182.491 114.301C182.335 114.25 182.195 114.176 182.077 114.083C181.963 113.987 181.875 113.873 181.819 113.75C181.763 113.626 181.74 113.496 181.751 113.365L183.605 89.7582C183.633 89.4467 183.812 89.1544 184.105 88.9384C184.399 88.7225 184.787 88.5984 185.193 88.5904H233.735C233.904 88.5884 234.073 88.6136 234.229 88.6645C234.385 88.7154 234.526 88.7909 234.642 88.886C234.757 88.9811 234.846 89.0939 234.902 89.2169C234.958 89.34 234.98 89.4707 234.966 89.6006L233.111 113.208C233.085 113.52 232.907 113.813 232.613 114.029C232.319 114.245 231.93 114.369 231.523 114.375H182.982Z" fill="white"/>
<path opacity="0.2" d="M204.3 87.4402L207.454 95.7374L216.817 87.4402H204.3Z" fill="black"/>
<path d="M128.861 67.2966C128.937 67.7462 129.302 68.0849 129.689 68.0615C130.077 68.0381 130.32 67.6528 130.244 67.2032C130.168 66.7536 129.803 66.4149 129.423 66.4383C129.043 66.4616 128.792 66.8587 128.861 67.2966Z" fill="#263238"/>
<path d="M129.498 67.968C130.182 69.1336 131.067 70.2235 132.128 71.2086C131.292 71.8568 129.764 71.594 129.764 71.594L129.498 67.968Z" fill="#A02724"/>
<path d="M126.923 65.5852C126.865 65.5934 126.806 65.5934 126.748 65.5852C126.664 65.5569 126.597 65.5046 126.562 65.4393C126.526 65.3741 126.525 65.3008 126.558 65.2349C126.756 64.8459 127.073 64.4997 127.484 64.2261C127.894 63.9525 128.385 63.7596 128.914 63.6642C128.959 63.6583 129.004 63.6593 129.048 63.667C129.092 63.6747 129.134 63.689 129.17 63.7091C129.207 63.7291 129.238 63.7546 129.262 63.784C129.286 63.8133 129.302 63.8461 129.309 63.8802C129.325 63.9498 129.304 64.0214 129.251 64.0793C129.199 64.1372 129.119 64.1769 129.028 64.1897C128.614 64.2666 128.231 64.4209 127.912 64.6389C127.594 64.8569 127.351 65.1318 127.204 65.4392C127.176 65.4792 127.136 65.5134 127.087 65.5389C127.038 65.5643 126.982 65.5802 126.923 65.5852Z" fill="#263238"/>
<path d="M111.639 74.344L116.199 77.0299L122.424 80.6909C122.083 81.2411 121.876 81.835 121.816 82.4426C121.595 83.7856 121.375 84.7782 125.259 85.6015C125.671 85.6771 126.047 85.8423 126.34 86.0773C126.634 86.3123 126.834 86.6072 126.915 86.9269C127.067 87.721 126.437 88.6786 122.849 89.1516C119.375 89.5504 115.825 89.086 112.719 87.8262C111.199 87.2423 111.199 86.5416 111.837 85.3563C113.752 81.9872 112.825 77.6897 111.639 74.344Z" fill="#B55B52"/>
<path d="M106.401 86.4183C107.277 85.1239 107.999 83.7716 108.56 82.3778C108.56 82.3778 120.112 81.8931 123.927 82.769C127.742 83.6448 130.113 87.4401 130.113 87.4401L106.401 86.4183Z" fill="#246DFF"/>
<path d="M111.236 93.0229C110.955 93.6769 110.644 94.4768 110.347 95.2125L109.488 97.4897C108.956 99.0079 108.44 100.532 108.037 102.05C107.608 103.534 107.281 105.035 107.056 106.546C106.822 107.934 106.766 109.336 106.889 110.732C106.934 111.324 107.051 111.91 107.239 112.484C107.284 112.601 107.322 112.729 107.376 112.84L107.528 113.156C107.492 113.099 107.451 113.045 107.406 112.992C107.328 112.907 107.245 112.825 107.155 112.747C107.057 112.657 106.945 112.576 106.821 112.508C106.669 112.426 106.646 112.437 106.676 112.467C106.899 112.59 107.139 112.693 107.391 112.776C107.733 112.893 108.151 113.01 108.569 113.121C109.428 113.342 110.378 113.547 111.358 113.745C115.28 114.504 119.558 115.094 123.731 115.777L123.594 119.824C121.365 120.052 119.123 120.195 116.876 120.25C114.595 120.314 112.312 120.284 110.036 120.162C108.83 120.1 107.63 119.987 106.441 119.824C105.818 119.736 105.172 119.637 104.488 119.491C103.701 119.335 102.937 119.118 102.208 118.843C101.668 118.643 101.158 118.398 100.688 118.113C100.355 117.909 100.047 117.683 99.768 117.436C99.5938 117.277 99.4314 117.112 99.2816 116.939C99.2056 116.84 99.122 116.741 99.0536 116.642L98.9548 116.501L98.4304 115.678C98.2708 115.404 98.1416 115.135 98.0048 114.861C97.5253 113.838 97.179 112.782 96.9712 111.708C96.2112 107.65 96.8116 104.029 97.602 100.508C98.0276 98.7568 98.5292 97.0051 99.122 95.341C99.426 94.4943 99.7452 93.6477 100.087 92.8127C100.429 91.9777 100.794 91.172 101.235 90.2552L111.236 93.0229Z" fill="#B55B52"/>
<path d="M104.205 85.695C111.387 84.2352 115.651 88.7546 113.219 96.2051C110.787 103.656 109.974 103.936 109.974 103.936L95.1611 102.038C96.9851 94.7395 96.8407 87.1839 104.205 85.695Z" fill="#246DFF"/>
<path d="M127.409 114.159L126.292 114.083C123.115 114.083 122.568 114.749 120.614 116.145L119.854 119.216C124.984 121.23 127.736 119.017 127.743 119.017H132.493L130.821 116.098C130.53 115.57 130.059 115.112 129.459 114.771C128.859 114.43 128.151 114.219 127.409 114.159Z" fill="#B55B52"/>
<path d="M109.677 68.5343C110.969 73.8536 111.372 77.0183 115.339 79.3947C121.298 82.9623 129.506 79.5699 130.311 74.0346C131.033 69.0539 128.791 61.1889 121.632 59.7933C120.035 59.4904 118.365 59.5014 116.775 59.8253C115.186 60.1492 113.728 60.7757 112.537 61.6467C111.345 62.5178 110.459 63.6054 109.959 64.8092C109.459 66.013 109.362 67.2941 109.677 68.5343Z" fill="#B55B52"/>
<path d="M123.395 70.3908C128.335 70.0872 126.891 66.0875 125.363 65.2525C127.681 64.5752 129.277 61.7491 127.05 59.8106C128.358 57.1889 124.618 54.03 118.06 54.503C113.272 54.8416 112.74 56.786 112.74 56.786C112.74 56.786 107.002 56.3247 104.615 59.9624C102.578 63.0804 105.048 64.7445 105.048 64.7445C105.048 64.7445 100.762 65.7021 101.948 69.9996C103.209 74.6357 107.845 73.5613 107.845 73.5613C107.845 73.5613 106.804 77.8121 113.074 77.8705C118.493 77.9231 118.561 74.805 118.561 74.805C118.561 74.805 125.584 74.3029 123.395 70.3908Z" fill="#263238"/>
<path d="M119.719 70.7C120.273 71.8411 121.356 72.785 122.759 73.3509C124.568 74.0633 125.951 72.586 125.632 71.0679C125.343 69.7074 123.801 67.9616 121.893 67.8798C119.985 67.7981 119.043 69.287 119.719 70.7Z" fill="#B55B52"/>
<path d="M193.402 202.276L200.158 200.168L195.385 187.702L188.629 189.804L193.402 202.276Z" fill="#B55B52"/>
<path opacity="0.2" d="M190.947 195.853L197.772 193.926L195.385 187.702L188.629 189.804L190.947 195.853Z" fill="black"/>
<path d="M199.57 198.09L191.84 200.151C191.776 200.166 191.715 200.191 191.663 200.224C191.611 200.258 191.567 200.299 191.536 200.345C191.504 200.391 191.484 200.441 191.478 200.493C191.471 200.545 191.478 200.597 191.498 200.647L193.246 205.447C193.359 205.694 193.593 205.897 193.899 206.013C194.204 206.129 194.557 206.148 194.88 206.066C197.548 205.307 198.627 204.898 201.926 203.8C205.172 202.757 208.348 201.587 211.441 200.297C214.017 199.129 212.467 197.138 211.213 197.465C208.241 198.236 203.37 198.738 200.9 198.084C200.468 197.972 200 197.974 199.57 198.09Z" fill="#263238"/>
<path d="M139.136 130.357C139.136 130.357 190.2 133.86 191.523 145.147C194.183 168.112 198.264 190.253 198.264 190.253L187.875 193.172C187.875 193.172 175.16 167.948 175.327 149.964C160.598 146.77 121.869 151.459 115.538 142.73C109.944 135.022 114.854 129.487 114.854 129.487L139.136 130.357Z" fill="#263238"/>
<path d="M187.1 194.989L200.035 191.632L199.473 187.106L184.889 190.715L187.1 194.989Z" fill="#246DFF"/>
<path d="M202.42 198.329C201.798 198.482 201.155 198.582 200.504 198.626C200.471 198.63 200.438 198.625 200.408 198.614C200.378 198.603 200.354 198.584 200.337 198.562C200.32 198.541 200.312 198.517 200.312 198.492C200.312 198.467 200.32 198.443 200.337 198.422C200.504 198.247 201.994 196.705 202.944 196.729C203.053 196.734 203.158 196.759 203.251 196.803C203.344 196.847 203.421 196.908 203.476 196.98C203.575 197.083 203.636 197.204 203.654 197.332C203.671 197.459 203.644 197.587 203.575 197.704C203.303 198.014 202.892 198.237 202.42 198.329ZM200.9 198.329C202.214 198.189 203.111 197.92 203.316 197.587C203.359 197.511 203.374 197.427 203.359 197.345C203.345 197.262 203.301 197.185 203.233 197.12C203.209 197.082 203.173 197.051 203.127 197.028C203.081 197.005 203.029 196.993 202.974 196.992C202.427 196.974 201.485 197.727 200.862 198.329H200.9Z" fill="#246DFF"/>
<path d="M200.543 198.62C200.516 198.626 200.487 198.626 200.459 198.62C200.431 198.616 200.405 198.607 200.382 198.594C200.36 198.581 200.342 198.564 200.33 198.544C200.33 198.48 199.456 197.003 199.912 196.302C199.971 196.212 200.055 196.134 200.16 196.073C200.264 196.013 200.384 195.971 200.512 195.952C200.652 195.916 200.804 195.917 200.942 195.957C201.08 195.996 201.197 196.07 201.272 196.168C201.69 196.705 201.166 198.077 200.626 198.573C200.605 198.595 200.576 198.611 200.543 198.62ZM200.543 196.226C200.478 196.243 200.418 196.27 200.368 196.305C200.317 196.34 200.275 196.383 200.246 196.43C199.973 196.845 200.307 197.732 200.558 198.229C200.976 197.68 201.28 196.658 201.006 196.308C200.953 196.243 200.862 196.168 200.619 196.208L200.543 196.226Z" fill="#246DFF"/>
<path d="M157.247 205.983L164.467 205.721L165.645 192.624L158.425 192.887L157.247 205.983Z" fill="#B55B52"/>
<path d="M164.634 204.776L156.457 204.577C156.389 204.573 156.321 204.579 156.256 204.596C156.191 204.612 156.131 204.638 156.08 204.672C156.028 204.707 155.986 204.748 155.956 204.795C155.925 204.842 155.907 204.893 155.902 204.945L155.302 209.902C155.296 210.034 155.323 210.165 155.384 210.288C155.444 210.412 155.535 210.525 155.652 210.621C155.77 210.717 155.911 210.794 156.067 210.848C156.223 210.902 156.392 210.932 156.563 210.936C159.413 210.965 160.774 210.871 164.368 210.936C166.58 210.988 170.935 211.239 173.967 210.936C177 210.632 176.536 208.349 175.214 208.261C172.09 208.069 167.902 206.411 165.904 205.12C165.544 204.897 165.096 204.775 164.634 204.776Z" fill="#263238"/>
<path d="M167.202 205.809C166.549 205.78 165.902 205.698 165.272 205.564C165.24 205.558 165.21 205.545 165.188 205.527C165.165 205.509 165.15 205.485 165.144 205.461C165.138 205.436 165.142 205.41 165.156 205.387C165.169 205.363 165.191 205.344 165.219 205.33C165.454 205.207 167.56 204.162 168.441 204.466C168.541 204.499 168.628 204.552 168.695 204.618C168.761 204.685 168.805 204.763 168.821 204.845C168.865 204.968 168.866 205.098 168.823 205.221C168.78 205.344 168.696 205.456 168.578 205.546C168.18 205.766 167.688 205.86 167.202 205.809ZM165.743 205.383C167.035 205.616 168.023 205.61 168.35 205.383C168.425 205.321 168.477 205.246 168.501 205.163C168.525 205.081 168.52 204.996 168.487 204.916C168.48 204.875 168.459 204.837 168.427 204.804C168.395 204.771 168.353 204.745 168.304 204.729C167.803 204.554 166.572 204.991 165.682 205.383H165.743Z" fill="#246DFF"/>
<path d="M165.28 205.569C165.252 205.574 165.224 205.574 165.196 205.569C165.172 205.557 165.152 205.541 165.137 205.521C165.122 205.502 165.114 205.48 165.113 205.458C165.113 205.394 165.014 203.782 165.766 203.257C165.865 203.183 165.986 203.129 166.119 203.1C166.252 203.072 166.392 203.069 166.526 203.093C166.672 203.099 166.81 203.143 166.919 203.217C167.028 203.292 167.101 203.392 167.127 203.502C167.263 204.115 166.131 205.254 165.394 205.569C165.357 205.58 165.316 205.58 165.28 205.569ZM166.367 203.344C166.298 203.341 166.23 203.348 166.166 203.366C166.102 203.385 166.043 203.413 165.994 203.449C165.546 203.759 165.447 204.681 165.447 205.201C166.093 204.804 166.853 203.934 166.762 203.531C166.762 203.455 166.686 203.368 166.443 203.339L166.367 203.344Z" fill="#246DFF"/>
<path opacity="0.2" d="M158.425 192.887L165.653 192.624L164.969 200.115L157.771 200.109L158.425 192.887Z" fill="black"/>
<path d="M122.174 129.733C122.174 129.733 177.198 136.196 176.324 145.93C174.751 163.447 167.105 197.681 167.105 197.681L156.267 197.797C156.267 197.797 153.706 162.682 157.787 149.883C144.252 149.883 106.069 149.521 100.863 144.178C95.1026 138.275 101.023 128.997 101.023 128.997L122.174 129.733Z" fill="#263238"/>
<path d="M154.988 198.452L168.106 198.294L168.752 192.969L154.357 193.401L154.988 198.452Z" fill="#246DFF"/>
<path d="M131.862 85.1049C127.431 84.4393 107.451 84.632 107.451 84.632C105.453 84.59 103.508 85.1252 102 86.1317C100.491 87.1382 99.529 88.5429 99.3033 90.0681C98.6041 94.8035 102.518 105.384 102.655 110.779C102.822 117.406 101.173 120.092 101.006 129.014L139.135 130.357C139.135 112.414 138.117 97.5594 137.197 90.4359C136.87 87.931 136.292 85.7647 131.862 85.1049Z" fill="#246DFF"/>
<path opacity="0.3" d="M131.862 85.1049C127.431 84.4393 107.451 84.632 107.451 84.632C105.453 84.59 103.508 85.1252 102 86.1317C100.491 87.1382 99.529 88.5429 99.3033 90.0681C98.6041 94.8035 102.518 105.384 102.655 110.779C102.822 117.406 101.173 120.092 101.006 129.014L139.135 130.357C139.135 112.414 138.117 97.5594 137.197 90.4359C136.87 87.931 136.292 85.7647 131.862 85.1049Z" fill="white"/>
<path d="M137.085 90.7571C138.278 93.9101 139.479 97.1507 140.717 100.315C141.956 103.48 143.225 106.662 144.654 109.658C145.004 110.423 145.414 111.135 145.749 111.871L146.334 112.904L146.41 113.033V113.097V113.132V113.091C146.278 112.911 146.115 112.746 145.923 112.601C145.665 112.408 145.566 112.39 145.543 112.39C145.713 112.508 145.908 112.601 146.121 112.665C146.493 112.803 146.876 112.922 147.269 113.021C148.127 113.249 149.093 113.453 150.073 113.657C154.048 114.434 158.387 115.03 162.613 115.724L162.476 119.771C160.208 120.006 157.924 120.148 155.636 120.197C153.32 120.266 151.001 120.232 148.69 120.098C147.461 120.03 146.238 119.909 145.027 119.736C144.388 119.642 143.727 119.526 143.013 119.368C142.165 119.186 141.349 118.927 140.581 118.597C139.968 118.327 139.406 117.995 138.909 117.61C138.529 117.31 138.202 116.972 137.936 116.606L137.677 116.238L136.819 114.989C136.317 114.171 135.77 113.348 135.299 112.536C134.364 110.896 133.543 109.272 132.722 107.643C131.901 106.014 131.202 104.385 130.495 102.75C129.089 99.463 127.82 96.2107 126.695 92.8241L137.085 90.7571Z" fill="#B55B52"/>
<path d="M126.255 87.5054C131.468 83.4182 138.134 85.6487 140.999 93.0291C143.864 100.41 143.347 100.947 143.347 100.947L129.34 105.122C126.034 98.0915 120.92 91.6686 126.255 87.5054Z" fill="#246DFF"/>
<path d="M166.337 114.159L165.22 114.083C162.043 114.083 161.503 114.749 159.55 116.145L158.79 119.216C163.92 121.23 166.671 119.017 166.671 119.017H171.429L169.749 116.098C169.459 115.569 168.989 115.111 168.389 114.77C167.788 114.429 167.08 114.218 166.337 114.159Z" fill="#B55B52"/>
<path d="M102.678 152.019H151.378C152.449 152.019 153.316 151.352 153.316 150.53V148.124C153.316 147.302 152.449 146.636 151.378 146.636H102.678C101.607 146.636 100.74 147.302 100.74 148.124V150.53C100.74 151.352 101.607 152.019 102.678 152.019Z" fill="#246DFF"/>
<path d="M102.901 211.956H100.742L103.227 152.013H106.214L102.901 211.956Z" fill="#246DFF"/>
<path opacity="0.4" d="M102.901 211.956H100.742L103.227 152.013H106.214L102.901 211.956Z" fill="white"/>
<path d="M122.748 211.956H124.907L122.429 152.013H119.442L122.748 211.956Z" fill="#246DFF"/>
<path opacity="0.4" d="M122.748 211.956H124.907L122.429 152.013H119.442L122.748 211.956Z" fill="white"/>
<path d="M131.309 211.956H129.15L131.636 152.013H134.622L131.309 211.956Z" fill="#246DFF"/>
<path opacity="0.4" d="M131.309 211.956H129.15L131.636 152.013H134.622L131.309 211.956Z" fill="white"/>
<path d="M151.158 211.956H153.316L150.838 152.013H147.852L151.158 211.956Z" fill="#246DFF"/>
<path opacity="0.4" d="M151.158 211.956H153.316L150.838 152.013H147.852L151.158 211.956Z" fill="white"/>
<g opacity="0.3">
<path opacity="0.3" d="M103.228 152.013H106.214L106.07 154.559H103.121L103.228 152.013Z" fill="#246DFF"/>
<path opacity="0.3" d="M122.531 154.559H119.582L119.445 152.013H122.425L122.531 154.559Z" fill="#246DFF"/>
<path opacity="0.3" d="M134.616 152.013L134.479 154.559H131.53L131.637 152.013H134.616Z" fill="#246DFF"/>
<path opacity="0.3" d="M150.949 154.559H147.992L147.855 152.013H150.842L150.949 154.559Z" fill="#246DFF"/>
</g>
<path d="M295.64 78.7459H173.911C172.965 78.7534 172.028 78.6102 171.158 78.3252C170.287 78.0402 169.504 77.6197 168.856 77.0901C168.208 76.5606 167.71 75.9336 167.394 75.2488C167.078 74.5639 166.95 73.8361 167.018 73.1113L171.661 13.9217C171.808 12.4053 172.687 10.9858 174.128 9.94285C175.568 8.89996 177.465 8.30927 179.444 8.28715H301.143C302.089 8.2796 303.026 8.42284 303.896 8.70783C304.766 8.99282 305.55 9.41337 306.198 9.94289C306.846 10.4724 307.343 11.0994 307.66 11.7843C307.976 12.4691 308.104 13.1969 308.036 13.9217L303.385 73.1346C303.234 74.6425 302.357 76.053 300.925 77.0906C299.492 78.1282 297.608 78.7184 295.64 78.7459Z" fill="#246DFF"/>
<path d="M190.199 66.2327L201.424 95.7369L234.728 66.2327H190.199Z" fill="#246DFF"/>
<path opacity="0.1" d="M289.704 54.9285H221.487C220.956 54.9328 220.43 54.8525 219.942 54.6928C219.454 54.5331 219.015 54.2974 218.651 54.0005C218.288 53.7037 218.008 53.3522 217.83 52.9682C217.653 52.5843 217.58 52.1761 217.618 51.7696L220.225 18.5926C220.307 17.7425 220.8 16.9466 221.607 16.3619C222.415 15.7772 223.478 15.4461 224.587 15.4338H292.805C293.337 15.425 293.866 15.5023 294.356 15.6604C294.847 15.8186 295.289 16.0542 295.654 16.352C296.019 16.6498 296.298 17.0032 296.473 17.3892C296.649 17.7751 296.717 18.1851 296.673 18.5926L294.067 51.7696C293.985 52.6198 293.492 53.4157 292.684 54.0004C291.877 54.5851 290.814 54.9162 289.704 54.9285Z" fill="white"/>
<path opacity="0.1" d="M253.211 69.2401H184.986C184.456 69.2436 183.931 69.1627 183.444 69.0027C182.957 68.8426 182.518 68.6068 182.155 68.31C181.793 68.0133 181.514 67.6621 181.337 67.2785C181.159 66.8949 181.087 66.4873 181.125 66.0813L183.732 32.9043C183.813 32.0551 184.305 31.2601 185.111 30.6755C185.917 30.0909 186.978 29.7592 188.087 29.7454H256.312C256.843 29.7375 257.371 29.8153 257.861 29.9739C258.351 30.1324 258.792 30.3682 259.156 30.6659C259.519 30.9636 259.798 31.3166 259.973 31.7022C260.148 32.0878 260.216 32.4973 260.173 32.9043L257.566 66.0813C257.484 66.9305 256.992 67.7255 256.186 68.3101C255.381 68.8946 254.319 69.2264 253.211 69.2401Z" fill="white"/>
<g opacity="0.5">
<path opacity="0.5" d="M184.081 13.4375C184.067 13.8858 183.836 14.314 183.432 14.6381C183.029 14.9622 182.482 15.1587 181.9 15.1892C181.623 15.1786 181.352 15.1235 181.105 15.0273C180.858 14.9311 180.639 14.796 180.465 14.6308C180.29 14.4656 180.162 14.274 180.09 14.0684C180.018 13.8628 180.002 13.6478 180.045 13.4375C180.063 12.9899 180.295 12.5632 180.698 12.2397C181.101 11.9161 181.645 11.7188 182.227 11.6858C182.503 11.6963 182.774 11.7515 183.022 11.8477C183.269 11.9439 183.487 12.079 183.662 12.2442C183.837 12.4094 183.964 12.601 184.037 12.8066C184.109 13.0121 184.124 13.2271 184.081 13.4375Z" fill="white"/>
<path opacity="0.5" d="M191.519 13.4374C191.504 13.8853 191.272 14.3128 190.869 14.6366C190.465 14.9604 189.92 15.1573 189.338 15.189C189.061 15.1793 188.789 15.1247 188.541 15.0289C188.292 14.933 188.073 14.7981 187.898 14.6328C187.722 14.4675 187.594 14.2756 187.521 14.0696C187.448 13.8636 187.433 13.6482 187.476 13.4374C187.493 12.9898 187.726 12.5631 188.129 12.2395C188.531 11.916 189.076 11.7187 189.657 11.6857C189.934 11.6963 190.205 11.7515 190.453 11.8476C190.701 11.9437 190.919 12.0787 191.095 12.2438C191.27 12.4089 191.399 12.6004 191.472 12.806C191.545 13.0116 191.561 13.2267 191.519 13.4374Z" fill="white"/>
<path opacity="0.5" d="M199.013 13.4375C198.999 13.8858 198.767 14.314 198.364 14.6381C197.96 14.9622 197.414 15.1587 196.831 15.1892C196.555 15.1786 196.284 15.1235 196.036 15.0273C195.789 14.9311 195.571 14.796 195.396 14.6308C195.221 14.4656 195.094 14.274 195.021 14.0684C194.949 13.8628 194.934 13.6478 194.977 13.4375C194.994 12.9899 195.227 12.5632 195.63 12.2397C196.032 11.9161 196.577 11.7188 197.158 11.6858C197.435 11.6963 197.706 11.7515 197.953 11.8477C198.2 11.9439 198.419 12.079 198.594 12.2442C198.768 12.4094 198.896 12.601 198.968 12.8066C199.041 13.0121 199.056 13.2271 199.013 13.4375Z" fill="white"/>
</g>
<path opacity="0.3" d="M294.7 78.197H173.001C172.029 78.2029 171.067 78.0543 170.174 77.7607C169.281 77.467 168.476 77.0346 167.811 76.4907C167.146 75.9467 166.634 75.3029 166.308 74.5998C165.983 73.8966 165.85 73.1493 165.918 72.4047L170.569 13.2152C170.715 11.6615 171.614 10.2065 173.089 9.13732C174.564 8.06819 176.506 7.46272 178.534 7.44047H300.202C301.174 7.43461 302.136 7.58317 303.029 7.87682C303.922 8.17046 304.727 8.60285 305.392 9.14681C306.057 9.69078 306.569 10.3346 306.895 11.0377C307.22 11.7409 307.354 12.4882 307.285 13.2327L302.642 72.4223C302.494 73.9725 301.598 75.4244 300.128 76.4928C298.659 77.5612 296.723 78.1691 294.7 78.197ZM178.534 7.73826C176.6 7.75638 174.746 8.33176 173.338 9.35043C171.931 10.3691 171.073 11.7568 170.934 13.2386L166.283 72.4281C166.215 73.1332 166.339 73.8415 166.646 74.5079C166.954 75.1744 167.438 75.7846 168.068 76.3C168.698 76.8153 169.46 77.2246 170.307 77.5019C171.153 77.7792 172.066 77.9184 172.986 77.9109H294.7C296.633 77.8914 298.486 77.3156 299.893 76.2972C301.3 75.2788 302.159 73.8919 302.3 72.4106L306.943 13.221C307.009 12.5138 306.882 11.8039 306.572 11.1362C306.261 10.4685 305.774 9.85756 305.14 9.34215C304.506 8.82673 303.74 8.41804 302.89 8.14195C302.04 7.86586 301.125 7.7284 300.202 7.73826H178.534Z" fill="#263238"/>
<path d="M228.802 43.5952C228.285 44.436 227.814 45.1542 227.282 45.9308C226.75 46.7073 226.218 47.408 225.67 48.1379C224.553 49.5918 223.39 51.0574 222.144 52.4237C221.516 53.1244 220.872 53.8192 220.214 54.5082C219.522 55.1855 218.868 55.8745 218.131 56.5343C216.693 57.9018 215.142 59.1968 213.488 60.4114C213.07 60.7267 212.614 60.9953 212.173 61.3281C211.736 61.6433 211.274 61.9377 210.79 62.2098L209.33 63.0564L208.882 63.2958C208.684 63.3925 208.478 63.4802 208.266 63.5586C207.849 63.7125 207.411 63.83 206.959 63.9089C206.067 64.069 205.14 64.0746 204.245 63.9251C203.349 63.7756 202.509 63.4749 201.784 63.0448C201.424 62.8268 201.095 62.5802 200.803 62.309L200.598 62.0988L200.499 61.9937L200.461 61.947L200.324 61.7602L199.777 61.0011C199.61 60.7559 199.496 60.5223 199.359 60.2829C198.88 59.4019 198.489 58.4942 198.189 57.5678C197.66 55.8796 197.289 54.1644 197.079 52.4354C196.857 50.7516 196.761 49.0594 196.79 47.3671C196.807 46.887 197.045 46.4271 197.464 46.0704C197.883 45.7136 198.453 45.4835 199.073 45.4215C199.693 45.3595 200.321 45.4697 200.845 45.7322C201.368 45.9948 201.752 46.3924 201.928 46.8533V46.9234C202.935 49.8993 204.181 52.8244 205.66 55.6818C205.998 56.2864 206.392 56.8717 206.838 57.4335C206.936 57.5503 207.035 57.6904 207.134 57.7897L207.423 58.0583L207.491 58.1283L207.453 58.0816L207.37 57.9941C207.251 57.8744 207.113 57.7665 206.959 57.6729C206.656 57.4849 206.303 57.3495 205.926 57.2759C205.547 57.2144 205.156 57.2144 204.778 57.2759C204.581 57.3077 204.39 57.3567 204.208 57.4218C204.109 57.4218 204.026 57.4977 203.934 57.5328C203.843 57.5678 203.706 57.6554 203.805 57.5912L204.755 56.8788C205.074 56.6569 205.386 56.3883 205.698 56.1314C206.009 55.8745 206.328 55.6234 206.632 55.349C209.138 53.0402 211.419 50.5929 213.457 48.0269C214.498 46.7249 215.524 45.3994 216.497 44.0564L217.964 42.0362L219.355 40.0626L219.431 39.9575C220.09 39.0504 221.181 38.3742 222.474 38.07C223.767 37.7659 225.163 37.8574 226.371 38.3254C227.578 38.7933 228.504 39.6017 228.954 40.5815C229.404 41.5613 229.344 42.6369 228.786 43.5835L228.802 43.5952Z" fill="#263238"/>
<path d="M197.502 47.1098L193.801 45.4808L197.783 42.3569C198.95 43.0214 200.032 43.7702 201.013 44.5933C201.244 44.7816 201.415 45.0089 201.511 45.2569C201.607 45.5049 201.627 45.7668 201.568 46.0216C201.508 46.2764 201.373 46.517 201.171 46.7243C200.969 46.9315 200.707 47.0995 200.405 47.2149C199.946 47.3785 199.442 47.4544 198.937 47.4361C198.431 47.4178 197.939 47.3059 197.502 47.1098Z" fill="#FFC3BD"/>
<path d="M192.958 42.1356L194.972 41.0321C195.234 40.8858 195.56 40.8247 195.88 40.8618C196.2 40.899 196.488 41.0315 196.682 41.2306L197.784 42.3575L193.802 45.4813L192.548 43.2859C192.434 43.0871 192.412 42.8643 192.487 42.6548C192.562 42.4453 192.728 42.262 192.958 42.1356Z" fill="#FFC3BD"/>
<path d="M220.827 40.9793C221.129 40.2163 221.699 39.532 222.474 39.0015C223.249 38.471 224.199 38.1149 225.22 37.9722C226.695 37.7217 228.191 37.5462 229.696 37.4467C234.229 37.3108 238.769 37.3732 243.293 37.6335C245.664 37.7562 248.088 38.0131 250.019 38.2583H250.087C251.109 38.3886 252.023 38.825 252.627 39.4719C253.231 40.1188 253.476 40.9234 253.31 41.7091C252.36 45.9249 249.57 53.2586 249.266 60.1778C248.864 69.2632 249.046 74.4949 248.841 76.6845L218.403 76.2349C216.282 54.0294 218.92 46.0066 220.827 40.9793Z" fill="white"/>
<path d="M250.899 37.9141H250.801C248.764 37.6572 246.241 37.3828 243.71 37.2543L242.357 37.1959C241.027 41.4233 233.1 48.5352 230.698 59.3139C229.771 50.3044 229.057 40.8861 230.417 37.2134C228.266 37.2637 226.12 37.4021 223.988 37.628C222.86 37.824 221.82 38.246 220.974 38.8512C220.127 39.4563 219.505 40.2229 219.169 41.073C217.3 45.3004 213.728 54.7712 215.924 78.057H249.752C249.972 75.7214 249.182 70.8167 250.405 63.2669C251.583 55.9565 253.278 46.0069 254.274 41.5635C254.452 40.7361 254.198 39.8882 253.565 39.2045C252.933 38.5208 251.975 38.057 250.899 37.9141Z" fill="#263238"/>
<path opacity="0.2" d="M229.979 76.8423C229.927 76.8439 229.877 76.8302 229.839 76.8041C229.801 76.778 229.777 76.7414 229.773 76.7022C229.059 70.1334 230.397 60.7034 230.412 60.6042C230.415 60.5842 230.423 60.5648 230.435 60.5472C230.448 60.5296 230.465 60.5141 230.485 60.5016C230.506 60.4891 230.529 60.4799 230.555 60.4744C230.58 60.469 230.606 60.4674 230.632 60.4699C230.685 60.4743 230.734 60.4945 230.768 60.5261C230.802 60.5577 230.819 60.5983 230.815 60.6392C230.815 60.7326 229.462 70.1392 230.176 76.673C230.179 76.6934 230.177 76.7141 230.169 76.7338C230.162 76.7535 230.149 76.7718 230.132 76.7877C230.115 76.8035 230.094 76.8165 230.07 76.8259C230.046 76.8353 230.02 76.8409 229.994 76.8423H229.979Z" fill="white"/>
<path opacity="0.3" d="M249.706 47.1574C248.452 51.5249 249.121 57.5741 250.466 63.0919C251.462 56.8967 252.822 48.8565 253.818 43.8817C252.427 43.1693 250.702 43.6715 249.706 47.1574Z" fill="black"/>
<path d="M230.344 37.4176C234.289 36.7519 234.973 34.8835 234.692 32.8165C234.622 32.3001 234.513 31.7873 234.365 31.2808L239.29 28.1862L242.915 25.9207C241.927 29.2722 240.84 35.3856 243.819 37.6686C243.819 37.6686 241.387 40.7341 234.623 40.3604C228.908 40.0451 230.344 37.4176 230.344 37.4176Z" fill="#FFC3BD"/>
<path d="M236.34 39.5903L235.245 40.3844L238.741 41.3946L238.285 40.3728L236.34 39.5903Z" fill="#E0E0E0"/>
<path d="M239.015 42.8182C239.015 42.8182 237.639 40.1498 236.34 39.5834C238.896 39.1151 241.237 38.1199 243.111 36.7048L245.186 37.3413C245.186 37.3413 245.84 40.4359 239.015 42.8182Z" fill="#F5F5F5"/>
<path d="M234.424 39.3794L235.245 40.3837L231.566 40.6289L232.304 39.7356L234.424 39.3794Z" fill="#E0E0E0"/>
<path d="M229.72 42.0654C231.068 40.9623 232.661 40.0527 234.425 39.3794C232.426 38.924 232.304 36.8103 232.304 36.8103L230.366 37.0964C230.366 37.0964 226.81 39.7531 229.72 42.0654Z" fill="#F5F5F5"/>
<path opacity="0.2" d="M234.362 31.2752C234.51 31.7837 234.619 32.2984 234.689 32.8167C236.528 32.5598 238.991 31.065 239.249 29.6345C239.336 29.1548 239.354 28.6691 239.302 28.1864L234.362 31.2752Z" fill="black"/>
<path d="M228.382 15.9941C226.619 17.6582 226.786 23.6782 230.518 23.7482C234.249 23.8183 231.589 12.9578 228.382 15.9941Z" fill="#263238"/>
<path d="M244.455 20.3736C244.083 24.9339 244.159 27.614 241.165 29.9729C236.665 33.5171 229.369 31.4793 227.963 26.9425C226.709 22.8552 227.53 16.0879 233.329 14.2369C234.595 13.8206 235.98 13.6624 237.349 13.7777C238.718 13.8929 240.026 14.2778 241.145 14.8949C242.263 15.512 243.156 16.3406 243.736 17.3004C244.316 18.2602 244.564 19.3187 244.455 20.3736Z" fill="#FFC3BD"/>
<path d="M241.535 16.5785C237.804 19.4221 242.653 21.5066 240.775 23.0364C244.294 24.4494 243.002 25.4888 243.002 25.4888C242.638 26.2662 242.638 27.117 243.002 27.8944C246.969 27.112 254.334 16.9872 246.293 15.4341C241.482 17.0807 241.535 16.5785 241.535 16.5785Z" fill="#263238"/>
<path d="M243.067 18.6223C239.533 19.0427 235.087 17.7464 232.328 16.6487C229.569 15.551 229.166 17.6238 230.185 18.2544C228.414 18.3011 226.172 17.2267 226.727 14.8269C227.236 12.6373 230.967 10.5645 236.28 12.4154C240.042 13.7234 244.678 12.0009 246.487 13.5132C248.295 15.0255 245.423 18.3361 243.067 18.6223Z" fill="#263238"/>
<path d="M245.481 15.6502C247.853 15.4108 247.951 14.2605 247.29 12.2461C249.851 15.043 248.81 15.9013 247.29 16.5786C245.595 16.1407 245.481 15.6502 245.481 15.6502Z" fill="#263238"/>
<path d="M246.052 23.8712C245.527 24.7632 244.609 25.4846 243.46 25.909C241.994 26.417 241.249 25.3777 241.644 24.1573C242.001 23.0538 243.164 21.4656 244.684 21.4772C246.204 21.4889 246.713 22.7443 246.052 23.8712Z" fill="#FFC3BD"/>
<path d="M235.192 21.7518C235.192 22.1197 234.933 22.4233 234.622 22.4291C234.31 22.435 234.082 22.1313 234.082 21.7518C234.082 21.3723 234.34 21.0803 234.652 21.0803C234.964 21.0803 235.192 21.3781 235.192 21.7518Z" fill="#263238"/>
<path d="M229.75 21.7866C229.75 22.1603 229.491 22.4581 229.172 22.4639C228.853 22.4698 228.602 22.1661 228.61 21.7925C228.617 21.4188 228.86 21.121 229.18 21.121C229.499 21.121 229.75 21.4188 229.75 21.7866Z" fill="#263238"/>
<path d="M231.802 21.915C231.234 23.0523 230.467 24.1248 229.522 25.1031C229.85 25.2798 230.223 25.4 230.617 25.4554C231.01 25.5109 231.415 25.5002 231.802 25.4243V21.915Z" fill="#ED847E"/>
<path d="M233.718 26.4232C234.27 26.3758 234.803 26.2407 235.283 26.0266C235.763 25.8125 236.18 25.524 236.507 25.1795C236.527 25.1555 236.534 25.1263 236.526 25.0984C236.519 25.0705 236.497 25.0461 236.465 25.0306C236.434 25.0151 236.396 25.0098 236.36 25.0158C236.323 25.0219 236.292 25.0387 236.272 25.0627C235.906 25.4299 235.434 25.7265 234.893 25.9292C234.352 26.1319 233.757 26.2351 233.156 26.2305C233.137 26.2305 233.119 26.2334 233.101 26.2391C233.084 26.2447 233.069 26.253 233.056 26.2634C233.043 26.2737 233.033 26.286 233.027 26.2995C233.02 26.3129 233.018 26.3272 233.019 26.3415C233.019 26.3558 233.023 26.3699 233.03 26.3831C233.037 26.3962 233.048 26.4081 233.061 26.4179C233.075 26.4278 233.091 26.4354 233.108 26.4403C233.126 26.4452 233.145 26.4474 233.163 26.4466C233.361 26.4232 233.543 26.4232 233.718 26.4232Z" fill="#263238"/>
<path d="M237.832 20.2745C237.879 20.2725 237.925 20.2581 237.961 20.2337C237.991 20.217 238.017 20.1957 238.036 20.1711C238.055 20.1465 238.068 20.1191 238.073 20.0907C238.078 20.0622 238.075 20.0333 238.065 20.0057C238.055 19.9781 238.038 19.9523 238.014 19.93C237.753 19.6535 237.41 19.4288 237.014 19.2745C236.617 19.1201 236.179 19.0406 235.734 19.0425C235.697 19.0447 235.662 19.0525 235.629 19.0655C235.596 19.0786 235.567 19.0965 235.544 19.1183C235.521 19.1401 235.503 19.1653 235.493 19.1924C235.482 19.2195 235.479 19.248 235.483 19.2761C235.491 19.3344 235.528 19.3882 235.586 19.4263C235.644 19.4643 235.719 19.4837 235.795 19.4804C236.148 19.4779 236.496 19.5414 236.81 19.6655C237.124 19.7897 237.394 19.9706 237.596 20.1928C237.624 20.2199 237.66 20.2415 237.701 20.2557C237.742 20.2699 237.787 20.2764 237.832 20.2745Z" fill="#263238"/>
<path d="M227.546 20.4559C227.592 20.4511 227.634 20.438 227.672 20.4176C227.709 20.3973 227.739 20.3703 227.759 20.3391C227.904 20.0864 228.126 19.8637 228.404 19.6892C228.683 19.5146 229.011 19.3932 229.363 19.3348C229.4 19.3321 229.436 19.3234 229.469 19.3093C229.501 19.2951 229.53 19.2758 229.552 19.2527C229.574 19.2295 229.59 19.203 229.598 19.1749C229.606 19.1468 229.606 19.1177 229.598 19.0896C229.585 19.0333 229.545 18.9829 229.486 18.9483C229.427 18.9137 229.353 18.8974 229.279 18.9027C228.836 18.9699 228.42 19.1172 228.066 19.3325C227.712 19.5477 227.429 19.8248 227.242 20.1406C227.21 20.1926 227.206 20.2521 227.23 20.3066C227.254 20.3611 227.305 20.4062 227.372 20.4325C227.426 20.452 227.486 20.46 227.546 20.4559Z" fill="#263238"/>
<path d="M255.179 40.5529C256.106 42.0535 256.881 43.4723 257.641 44.9321C258.401 46.3918 259.078 47.8808 259.754 49.3697C261.081 52.4043 262.153 55.5015 262.961 58.642C263.136 59.4536 263.334 60.2477 263.463 61.0826L263.562 61.7016L263.615 62.011V62.1687V62.3847C263.691 62.9886 263.691 63.5967 263.615 64.2006C263.439 65.5221 262.847 66.7907 261.89 67.8967C260.993 68.9097 259.814 69.7573 258.439 70.3783C257.294 70.8951 256.061 71.2881 254.776 71.5461C253.632 71.7867 252.462 71.947 251.28 72.0249C249.052 72.1868 246.805 72.1181 244.6 71.8205C244.002 71.7434 243.457 71.509 243.059 71.1574C242.661 70.8058 242.435 70.3588 242.419 69.8931C242.403 69.4274 242.598 68.9718 242.971 68.6044C243.344 68.237 243.871 67.9807 244.463 67.8792L244.737 67.8325C245.497 67.6982 246.492 67.5347 247.343 67.3595C248.195 67.1844 249.061 66.98 249.867 66.7756C251.273 66.4295 252.577 65.874 253.705 65.1407C254.003 64.9285 254.229 64.6641 254.366 64.37C254.42 64.1638 254.42 63.9514 254.366 63.7452C254.34 63.5879 254.302 63.4319 254.252 63.2781L253.978 62.3263C253.803 61.6607 253.553 60.9717 253.325 60.2944C252.853 58.9222 252.321 57.5501 251.713 56.1721C251.105 54.7941 250.482 53.4219 249.821 52.0498C249.16 50.6776 248.461 49.3055 247.754 47.9625C247.047 46.6195 246.302 45.2065 245.595 43.9278V43.8694C245.027 42.8953 244.985 41.7877 245.48 40.7901C245.975 39.7926 246.965 38.9868 248.233 38.5501C249.5 38.1134 250.942 38.0815 252.241 38.4615C253.539 38.8415 254.588 39.6022 255.156 40.5762L255.179 40.5529Z" fill="#263238"/>
<path d="M242.199 69.5613L238.848 70.7992L244.639 72.3816C244.639 72.3816 248.5 71.4356 246.63 69.7891L245.589 69.538C243.917 69.1176 243.096 69.1643 242.199 69.5613Z" fill="#FFC3BD"/>
<path d="M239.296 73.9404L241.842 74.3141C242.206 74.3655 242.582 74.3284 242.917 74.2081C243.252 74.0877 243.53 73.8901 243.712 73.6426L244.639 72.3639L238.848 70.7991L238.088 72.0194C237.97 72.204 237.908 72.4067 237.907 72.6123C237.906 72.8179 237.966 73.021 238.083 73.2061C238.199 73.3912 238.369 73.5535 238.579 73.6808C238.79 73.808 239.035 73.8968 239.296 73.9404Z" fill="#FFC3BD"/>
</svg>
