<svg width="361" height="219" viewBox="0 0 361 219" fill="none" xmlns="http://www.w3.org/2000/svg">
<path d="M180.503 218.268C257.817 218.268 320.492 215.309 320.492 211.659C320.492 208.008 257.817 205.049 180.503 205.049C103.19 205.049 40.5146 208.008 40.5146 211.659C40.5146 215.309 103.19 218.268 180.503 218.268Z" fill="#F5F5F5"/>
<path d="M118.408 27.813C112.957 23.6732 103.968 22.8791 100.604 27.1882C97.2393 31.4974 99.1598 36.0518 92.2575 40.828C87.5645 44.092 91.0445 54.0941 117.816 53.1774C130.487 52.7453 126.199 42.0834 125.859 37.0444C125.52 32.0054 125.498 25.8394 118.408 27.813Z" fill="#263238"/>
<path d="M107.859 203.589L101.376 203.793L101.253 198.117L107.736 197.913L107.859 203.589Z" fill="#B55B52"/>
<path d="M100.972 202.707H108.3C108.429 202.706 108.555 202.741 108.656 202.806C108.757 202.87 108.828 202.961 108.856 203.063L110.127 207.764C110.156 207.878 110.153 207.997 110.118 208.11C110.083 208.224 110.017 208.33 109.925 208.42C109.833 208.51 109.717 208.582 109.586 208.631C109.454 208.681 109.311 208.705 109.166 208.704C106.603 208.669 105.361 208.546 102.134 208.546C100.149 208.546 95.0008 208.715 92.2572 208.715C89.5136 208.715 89.167 206.52 90.2861 206.322C95.3401 205.428 98.2787 204.202 99.8959 203.028C100.193 202.817 100.576 202.702 100.972 202.707Z" fill="#263238"/>
<path opacity="0.2" d="M101.253 198.124L101.311 200.763L107.794 200.535L107.736 197.919L101.253 198.124Z" fill="black"/>
<path d="M91.6941 89.2797C90.2501 95.5741 91.9107 126.34 94.1128 139.927C97.0441 157.969 100.077 199.864 100.077 199.864L108.741 199.443C108.741 199.443 110.907 155.324 109.138 140.838C110.141 122.194 112.625 89.63 112.625 89.63L91.6941 89.2797Z" fill="#246DFF"/>
<path opacity="0.2" d="M111.191 109.92C111.494 105.197 107.357 100.998 105.689 109.92C104.635 115.59 106.815 125.528 109.674 132.546C110.115 125.242 110.678 117.108 111.191 109.92Z" fill="black"/>
<path d="M155.495 185.938L151.278 189.196L145.567 184.244L149.777 180.992L155.495 185.938Z" fill="#B55B52"/>
<path d="M150.175 189.283L154.507 184.484C154.577 184.4 154.684 184.342 154.806 184.32C154.929 184.298 155.056 184.315 155.164 184.367L160.218 186.773C160.342 186.839 160.449 186.926 160.531 187.027C160.613 187.127 160.669 187.241 160.696 187.359C160.723 187.478 160.72 187.6 160.688 187.718C160.655 187.836 160.593 187.947 160.506 188.045C158.969 189.698 158.124 190.428 156.225 192.541C155.055 193.838 153.705 195.624 152.095 197.423C150.485 199.221 148.283 197.931 148.759 197.061C150.925 193.155 150.009 192.069 149.893 190.206C149.856 189.882 149.955 189.557 150.175 189.283Z" fill="#263238"/>
<path opacity="0.2" d="M145.567 184.25L148.513 186.796L152.694 183.515L149.784 180.992L145.567 184.25Z" fill="black"/>
<path d="M101.746 89.4485C101.746 89.4485 111.074 129.153 113.5 144.568C114.944 153.776 146.784 186.906 146.784 186.906L152.221 182.276C152.221 182.276 140.568 158.021 126.532 143.634C125.976 126.771 128.345 99.0127 120.287 89.758L101.746 89.4485Z" fill="#246DFF"/>
<path d="M93.5557 59.0048C93.5557 62.4148 93.3608 65.7605 93.0503 69.1413C92.7399 72.522 92.3283 75.8852 91.6569 79.2718L91.5341 79.9083L91.3681 80.6265C91.2429 81.0975 91.1057 81.5588 90.9565 82.0103C90.6388 82.9037 90.2345 83.762 89.8735 84.5911C89.0836 86.2168 88.187 87.8072 87.1877 89.3557C85.2199 92.3835 82.9779 95.2895 80.4803 98.0499C80.2167 98.3361 79.8316 98.5334 79.3991 98.6041C78.9665 98.6748 78.517 98.6138 78.1366 98.4329C77.7563 98.2519 77.4719 97.9638 77.3382 97.6237C77.2044 97.2836 77.2306 96.9156 77.4118 96.5902V96.5551C79.1085 93.5889 80.7547 90.5469 82.1914 87.534C82.9134 86.0275 83.556 84.5035 84.1047 83.0088C84.3647 82.2614 84.5957 81.5198 84.7762 80.7958C84.8701 80.4338 84.935 80.0776 85 79.7273L85.0722 79.2076L85.1444 78.6237C85.5126 75.3889 85.7292 72.1074 85.9314 68.8201C86.1336 65.5328 86.2274 62.2163 86.3429 58.9581V58.9289C86.3583 58.1546 86.7533 57.417 87.4411 56.8782C88.129 56.3395 89.0533 56.0438 90.0107 56.0562C90.9681 56.0685 91.8803 56.388 92.5464 56.9443C93.2126 57.5006 93.5783 58.2481 93.5629 59.0223L93.5557 59.0048Z" fill="#B55B52"/>
<path d="M91.2038 54.7363C82.3377 56.8325 83.4784 69.8767 83.4784 69.8767L96.0846 72.621C96.0846 72.621 98.1784 63.0685 97.9906 59.641C97.8029 56.0793 96.0918 53.5861 91.2038 54.7363Z" fill="#246DFF"/>
<path d="M78.3524 95.8365L73.9121 98.8903L80.1357 100.946C80.1357 100.946 82.0635 98.5692 81.1682 96.3153L78.3524 95.8365Z" fill="#B55B52"/>
<path d="M74.6981 103.55L77.5356 103.836C77.8508 103.868 78.1702 103.815 78.4443 103.685C78.7184 103.555 78.9319 103.356 79.0518 103.118L80.1348 100.946L73.9111 98.8905L73.4418 102.26C73.399 102.565 73.5069 102.872 73.7421 103.114C73.9773 103.355 74.3208 103.512 74.6981 103.55Z" fill="#B55B52"/>
<path d="M88.3363 58.1284C87.9392 71.2077 91.6575 80.7544 91.7008 89.2793L120.285 89.7581C120.075 81.2215 120.162 75.6511 124.703 60.3531C124.901 59.6868 124.924 58.9945 124.772 58.3204C124.62 57.6464 124.296 57.0053 123.821 56.4383C123.345 55.8713 122.728 55.3907 122.01 55.0272C121.292 54.6637 120.488 54.4253 119.649 54.3273C117.938 54.1229 116.039 53.9302 114.112 53.8251C109.792 53.5014 105.449 53.4273 101.116 53.6033C98.0689 53.7784 94.791 54.1404 92.4517 54.4266C91.3405 54.5602 90.3216 55.003 89.5704 55.6787C88.8193 56.3543 88.3829 57.2206 88.3363 58.1284Z" fill="#246DFF"/>
<path d="M114.979 70.2155L106.503 70.1688C106.418 70.1718 106.334 70.1599 106.256 70.1341C106.178 70.1082 106.108 70.069 106.05 70.019C105.992 69.9691 105.949 69.9096 105.922 69.8448C105.896 69.7799 105.887 69.7112 105.896 69.6433L106.366 66.3969C106.396 66.252 106.489 66.1204 106.628 66.0254C106.766 65.9303 106.942 65.8779 107.124 65.8772L115.593 65.9239C115.677 65.9201 115.761 65.9311 115.839 65.9563C115.917 65.9815 115.988 66.0202 116.045 66.0697C116.103 66.1192 116.147 66.1783 116.173 66.2429C116.2 66.3074 116.209 66.3759 116.199 66.4436L115.73 69.6959C115.701 69.8403 115.61 69.9717 115.472 70.0669C115.335 70.162 115.16 70.2147 114.979 70.2155Z" fill="white"/>
<path opacity="0.4" d="M101.16 53.6095C101.16 53.6095 96.4959 56.2487 101.427 62.8701C105.476 59.6853 109.719 56.6667 114.142 53.8255L101.16 53.6095Z" fill="white"/>
<path d="M113.158 41.984C112.256 45.3472 111.274 51.5249 114.14 53.8254C109.633 55.2612 105.477 57.3332 101.866 59.9446C98.6964 55.2384 101.144 53.6035 101.144 53.6035C105.823 52.7861 105.779 49.9892 105.036 47.35L113.158 41.984Z" fill="#B55B52"/>
<path opacity="0.2" d="M112.279 42.5685C112.166 44.5781 111.524 46.545 110.395 48.3374C109.608 49.5694 107.507 50.089 105.391 50.1883C105.461 49.2339 105.346 48.2765 105.052 47.3506L112.279 42.5685Z" fill="black"/>
<path d="M119.925 37.8675C117.759 43.2511 117.037 45.5633 112.705 47.6653C106.243 50.8242 98.5396 47.5252 98.6406 41.7388C98.7417 36.5304 102.251 28.607 109.521 27.7954C111.131 27.6068 112.774 27.7548 114.293 28.225C115.813 28.6953 117.158 29.4723 118.201 30.482C119.244 31.4917 119.95 32.7005 120.252 33.9933C120.554 35.2861 120.441 36.6198 119.925 37.8675Z" fill="#B55B52"/>
<path d="M102.271 30.7965C105.881 31.6198 114.674 32.2329 116.436 31.3804C114.783 33.4357 116.357 39.0528 118.913 40.4133C122.357 38.177 123.122 32.7701 119.938 30.09C116.754 27.4099 106.689 24.2044 102.271 30.7965Z" fill="#263238"/>
<path d="M120.935 41.1611C120.707 41.674 120.355 42.1449 119.899 42.546C119.442 42.9471 118.891 43.2703 118.278 43.4967C116.647 44.0806 115.564 42.9595 115.795 41.599C116.004 40.3787 117.109 38.5978 118.856 38.5745C119.233 38.5787 119.603 38.6579 119.933 38.8052C120.263 38.9525 120.544 39.1633 120.749 39.419C120.955 39.6747 121.079 39.9674 121.112 40.2712C121.144 40.5751 121.084 40.8807 120.935 41.1611Z" fill="#B55B52"/>
<path d="M120.747 88.4096L121.989 90.5058C122.083 90.6635 121.844 90.827 121.512 90.8211L91.5277 90.3131C91.275 90.3131 91.0656 90.2022 91.0512 90.0679L90.8418 87.9951C90.8418 87.8549 91.0584 87.7382 91.34 87.7382L120.292 88.2286C120.381 88.2243 120.469 88.2388 120.549 88.2705C120.629 88.3022 120.697 88.3502 120.747 88.4096Z" fill="#263238"/>
<path d="M116.797 90.9609H117.57C117.722 90.9609 117.844 90.8966 117.837 90.8207L117.541 88.1231C117.541 88.0472 117.397 87.9772 117.245 87.9772H116.465C116.314 87.9772 116.198 88.0356 116.205 88.1173L116.494 90.8091C116.509 90.8967 116.639 90.9609 116.797 90.9609Z" fill="#246DFF"/>
<path d="M93.7002 90.5753H94.48C94.6316 90.5753 94.7544 90.5169 94.7471 90.4351L94.4511 87.7375C94.4511 87.6616 94.3067 87.5974 94.1551 87.5916H93.3753C93.2237 87.5916 93.101 87.6499 93.1154 87.7317L93.4042 90.4234C93.4186 90.5052 93.5486 90.5694 93.7002 90.5753Z" fill="#246DFF"/>
<path d="M105.244 90.7688H106.024C106.176 90.7688 106.298 90.7104 106.291 90.6286L105.995 87.9369C105.995 87.8551 105.851 87.7909 105.699 87.7909H104.919C104.768 87.7909 104.652 87.8551 104.66 87.931L104.948 90.6286C104.963 90.6987 105.093 90.7688 105.244 90.7688Z" fill="#246DFF"/>
<path d="M109.535 37.4172C109.391 37.8609 108.987 38.1645 108.626 38.0886C108.265 38.0127 108.091 37.5923 108.229 37.1486C108.366 36.7048 108.777 36.4012 109.138 36.4771C109.499 36.553 109.673 36.9734 109.535 37.4172Z" fill="#263238"/>
<path d="M103.311 36.1337C103.174 36.5833 102.77 36.8811 102.409 36.8051C102.048 36.7292 101.867 36.3147 102.012 35.8651C102.156 35.4155 102.553 35.1235 102.914 35.1936C103.275 35.2637 103.456 35.6899 103.311 36.1337Z" fill="#263238"/>
<path d="M103.066 35.2514L101.839 34.6675C101.839 34.6675 102.258 35.6484 103.066 35.2514Z" fill="#263238"/>
<path d="M104.691 37.2372C103.882 38.1523 102.923 38.9735 101.839 39.6779C102.068 39.8971 102.353 40.0734 102.675 40.1944C102.996 40.3155 103.347 40.3783 103.702 40.3785L104.691 37.2372Z" fill="#A02724"/>
<path d="M105.036 42.1238C105.01 42.1062 104.991 42.0832 104.981 42.0575C104.971 42.0317 104.97 42.0041 104.978 41.9778C104.985 41.9609 104.995 41.9452 105.009 41.9317C105.023 41.9181 105.041 41.9069 105.06 41.8988C105.08 41.8907 105.101 41.8857 105.123 41.8842C105.144 41.8828 105.166 41.8848 105.187 41.8903C105.862 42.0612 106.576 42.1017 107.274 42.0083C107.971 41.915 108.631 41.6906 109.202 41.3531C109.235 41.3298 109.279 41.3183 109.323 41.3211C109.367 41.3238 109.408 41.3406 109.436 41.3677C109.465 41.3948 109.479 41.43 109.476 41.4656C109.472 41.5012 109.452 41.5342 109.418 41.5574C108.808 41.9299 108.095 42.1776 107.341 42.2793C106.587 42.3809 105.813 42.3336 105.086 42.1413L105.036 42.1238Z" fill="#263238"/>
<path d="M112.928 35.3686C112.884 35.337 112.847 35.2995 112.819 35.2577C112.67 34.9412 112.43 34.658 112.119 34.4316C111.807 34.2051 111.434 34.042 111.029 33.9556C110.942 33.9432 110.864 33.9033 110.813 33.8447C110.763 33.7862 110.743 33.7137 110.758 33.6432C110.773 33.5727 110.823 33.5101 110.895 33.469C110.967 33.428 111.057 33.4119 111.144 33.4242C111.659 33.5273 112.136 33.7283 112.536 34.0107C112.935 34.2931 113.245 34.6485 113.44 35.0475C113.466 35.1024 113.469 35.1624 113.449 35.2188C113.429 35.2752 113.388 35.325 113.33 35.361C113.273 35.3969 113.203 35.417 113.131 35.4184C113.058 35.4197 112.987 35.4023 112.928 35.3686Z" fill="#263238"/>
<path d="M102.084 33.296L102.04 33.2609C101.978 33.2106 101.943 33.1423 101.943 33.0712C101.943 33 101.978 32.9318 102.04 32.8814C102.422 32.5921 102.882 32.3795 103.384 32.2608C103.885 32.1422 104.415 32.1207 104.928 32.1983C104.971 32.2071 105.012 32.2227 105.047 32.2443C105.082 32.2659 105.112 32.293 105.134 32.324C105.157 32.3551 105.171 32.3894 105.176 32.4249C105.182 32.4605 105.179 32.4966 105.167 32.5311C105.145 32.6 105.09 32.6589 105.014 32.6951C104.938 32.7312 104.848 32.7415 104.762 32.7238C104.35 32.661 103.926 32.6785 103.524 32.775C103.122 32.8715 102.755 33.0441 102.452 33.2785C102.4 33.3105 102.337 33.3292 102.271 33.3324C102.206 33.3355 102.14 33.3228 102.084 33.296Z" fill="#263238"/>
<path d="M124.698 58.4556C126.799 60.7036 128.762 62.9691 130.669 65.3222C131.614 66.49 132.553 67.6578 133.441 68.919C134.398 70.1946 135.256 71.5167 136.011 72.8778C136.24 73.3021 136.438 73.7369 136.603 74.1799C136.724 74.5216 136.806 74.8714 136.849 75.225C136.861 75.367 136.861 75.5094 136.849 75.6513V75.914C136.836 76.0298 136.814 76.1448 136.784 76.2585L136.733 76.4395V76.5213V76.5855L136.676 76.714C136.336 77.4146 136.069 78.1212 135.665 78.7985C134.933 80.1866 134.053 81.5209 133.037 82.7865C131.99 84.0641 130.764 85.2397 129.383 86.2899C128.68 86.8233 127.924 87.3095 127.124 87.7438C126.712 87.9598 126.293 88.17 125.86 88.3627L125.174 88.6313C124.914 88.7247 124.726 88.7889 124.351 88.8999L122.979 86.2373C123.077 86.16 123.181 86.0878 123.29 86.0213L123.687 85.741C123.954 85.5483 124.214 85.3381 124.467 85.1221C124.981 84.6758 125.463 84.206 125.911 83.7149C126.792 82.712 127.561 81.6469 128.207 80.5326C128.51 79.9487 128.842 79.3999 129.095 78.781C129.347 78.162 129.629 77.6132 129.86 77.0293C130.091 76.4454 130.271 75.8031 130.495 75.1958V75.0849V75.0265V75.0791V75.1958C130.495 75.2659 130.459 75.371 130.452 75.4119C130.448 75.4566 130.448 75.5015 130.452 75.5462V75.7155C130.452 75.8498 130.452 75.8089 130.452 75.7505C130.452 75.6922 130.25 75.3768 130.098 75.1316C129.441 74.1332 128.56 72.9829 127.658 71.8852C126.755 70.7874 125.817 69.6605 124.856 68.557C122.943 66.344 120.972 64.1077 119.037 61.9122L124.698 58.4556Z" fill="#B55B52"/>
<path d="M126.264 88.2109L120.697 91.3931L118.199 86.792C118.199 86.792 121.578 85.3264 124.242 86.3074L126.264 88.2109Z" fill="#B55B52"/>
<path d="M116.82 91.7724L115.426 90.2017C115.162 89.8987 115.054 89.5243 115.125 89.1579C115.196 88.7916 115.442 88.4622 115.809 88.2398L118.199 86.7917L120.697 91.3928L119.166 92.1577C118.787 92.3458 118.334 92.4106 117.899 92.3391C117.463 92.2676 117.078 92.065 116.82 91.7724Z" fill="#B55B52"/>
<path d="M113.556 57.0662C111.664 63.1445 123.332 73.5495 123.332 73.5495L133.144 65.3108C133.144 65.3108 128.66 57.5683 122.805 55.1393C118.718 53.446 114.394 54.3861 113.556 57.0662Z" fill="#246DFF"/>
<path d="M109.288 36.5364L108.061 35.9525C108.061 35.9525 108.472 36.9335 109.288 36.5364Z" fill="#263238"/>
<path d="M96.7488 73.3041C96.696 73.3038 96.6446 73.2909 96.6009 73.267C96.5572 73.2431 96.5232 73.2093 96.5033 73.1698C96.4798 73.1179 96.4826 73.0606 96.511 73.0103C96.5393 72.9601 96.591 72.9209 96.6549 72.9012L97.7812 72.5508C98.8362 72.2358 99.7472 71.6678 100.392 70.9228C101.037 70.1778 101.386 69.2913 101.391 68.3818L101.471 59.8453C101.493 59.1954 101.24 58.5589 100.752 58.0422C100.264 57.5255 99.5712 57.16 98.7898 57.0068C98.0085 56.8536 97.1859 56.9221 96.4595 57.2007C95.7331 57.4793 95.1471 57.9511 94.7994 58.5374L89.9186 66.128C89.3943 66.9293 89.1826 67.8404 89.3115 68.741C89.4404 69.6417 89.9038 70.4896 90.6406 71.1729L91.4348 71.9027C91.4616 71.9228 91.4828 71.9472 91.4971 71.9743C91.5115 72.0014 91.5186 72.0307 91.518 72.0602C91.5174 72.0897 91.5092 72.1187 91.4938 72.1455C91.4784 72.1722 91.4563 72.196 91.4288 72.2154C91.4012 72.2348 91.369 72.2492 91.3341 72.2579C91.2992 72.2665 91.2625 72.2691 91.2263 72.2655C91.1901 72.2619 91.1553 72.2521 91.124 72.2369C91.0928 72.2217 91.0658 72.2013 91.045 72.1772L90.2508 71.3831C89.4376 70.6405 88.9239 69.715 88.7781 68.7301C88.6323 67.7453 88.8615 66.7479 89.4349 65.8711L94.3156 58.2804C94.7328 57.6326 95.4075 57.1172 96.231 56.8173C97.0545 56.5173 97.9789 56.4503 98.8552 56.627C99.7315 56.8036 100.509 57.2137 101.062 57.7912C101.615 58.3687 101.911 59.0799 101.904 59.8102L101.824 68.3468C101.819 69.337 101.441 70.3025 100.743 71.1157C100.044 71.9288 99.0567 72.5514 97.9112 72.9012L96.7849 73.2457L96.7488 73.3041Z" fill="#263238"/>
<path d="M101.653 61.7488C101.586 61.7474 101.522 61.7256 101.474 61.6877C101.425 61.6498 101.397 61.5987 101.393 61.5444C101.291 60.8697 100.938 60.236 100.381 59.7267C99.8246 59.2174 99.0902 58.8564 98.2748 58.6914C97.4595 58.5264 96.6014 58.5651 95.8138 58.8023C95.0261 59.0396 94.3458 59.4643 93.8626 60.0204C93.846 60.0446 93.8237 60.0659 93.7969 60.0831C93.7702 60.1002 93.7395 60.113 93.7066 60.1206C93.6738 60.1282 93.6394 60.1304 93.6055 60.1273C93.5715 60.1241 93.5387 60.1156 93.5088 60.1022C93.4789 60.0888 93.4526 60.0707 93.4314 60.0491C93.4102 60.0274 93.3944 60.0026 93.385 59.9761C93.3756 59.9495 93.3728 59.9217 93.3767 59.8942C93.3806 59.8668 93.3911 59.8402 93.4077 59.8161C93.945 59.1739 94.7132 58.6808 95.6084 58.4033C96.5036 58.1258 97.4826 58.0775 98.4129 58.2648C99.3432 58.4521 100.18 58.866 100.81 59.4505C101.44 60.035 101.832 60.7618 101.935 61.5327C101.935 61.5881 101.909 61.6413 101.861 61.6815C101.814 61.7217 101.75 61.7458 101.682 61.7488H101.653Z" fill="#263238"/>
<path d="M98.8347 57.0835C98.792 57.083 98.7501 57.0743 98.7124 57.0581C98.6747 57.0418 98.6424 57.0185 98.6181 56.9901C98.4862 56.7533 98.418 56.4965 98.418 56.2368C98.418 55.9771 98.4862 55.7204 98.6181 55.4836C98.8055 55.0127 99.1215 54.5818 99.5427 54.223C99.9639 53.8642 100.479 53.5866 101.051 53.4108C101.083 53.4007 101.117 53.3961 101.151 53.3973C101.185 53.3984 101.218 53.4052 101.249 53.4173C101.279 53.4293 101.306 53.4464 101.328 53.4674C101.35 53.4884 101.367 53.5129 101.376 53.5392C101.397 53.5911 101.392 53.6476 101.363 53.6966C101.333 53.7456 101.281 53.7834 101.217 53.802C100.728 53.9644 100.287 54.2109 99.9272 54.5244C99.5669 54.8379 99.2951 55.2111 99.1307 55.6179C99.0231 55.7987 98.9606 55.995 98.947 56.1954C98.9334 56.3958 98.9688 56.5964 99.0513 56.7857C99.07 56.809 99.0828 56.8351 99.0889 56.8625C99.095 56.8898 99.0944 56.9179 99.087 56.9451C99.0796 56.9722 99.0656 56.9979 99.0459 57.0207C99.0261 57.0434 99.001 57.0628 98.9719 57.0776C98.9274 57.0883 98.8804 57.0903 98.8347 57.0835Z" fill="#263238"/>
<path d="M96.1567 72.9832C96.034 73.3627 96.1567 73.7247 96.5033 73.7889C96.8498 73.8531 97.1675 73.5904 97.2831 73.205C97.3986 72.8197 97.2397 72.4576 96.9293 72.3993C96.6188 72.3409 96.2722 72.5978 96.1567 72.9832Z" fill="#263238"/>
<path d="M116.647 62.8987C116.878 63.7804 117.658 64.3876 118.373 64.265C119.088 64.1424 119.477 63.3191 119.239 62.4433C119.001 61.5674 118.228 60.9485 117.514 61.0769C116.799 61.2054 116.409 62.0404 116.647 62.8987Z" fill="#263238"/>
<path d="M118.907 62.6243C118.874 62.6251 118.841 62.6205 118.809 62.611C118.778 62.6014 118.75 62.587 118.726 62.5686C118.702 62.5501 118.682 62.528 118.669 62.5035C118.655 62.479 118.648 62.4526 118.647 62.4258C118.495 59.1968 116.979 55.1855 114.026 54.0001C113.965 53.9751 113.919 53.9316 113.897 53.8792C113.876 53.8267 113.88 53.7695 113.911 53.7199C113.925 53.6949 113.946 53.6726 113.971 53.6543C113.997 53.6359 114.027 53.622 114.059 53.6133C114.091 53.6045 114.126 53.6012 114.16 53.6035C114.194 53.6057 114.227 53.6136 114.257 53.6265C117.419 54.8935 119.001 58.9516 119.159 62.3849C119.162 62.4124 119.158 62.4401 119.147 62.4662C119.136 62.4924 119.119 62.5164 119.096 62.5367C119.073 62.5571 119.044 62.5733 119.013 62.5843C118.982 62.5954 118.948 62.601 118.914 62.6009L118.907 62.6243Z" fill="#263238"/>
<path d="M115.873 62.9753C116.025 63.7285 116.696 64.2657 117.375 64.1781C118.054 64.0905 118.487 63.4074 118.335 62.6483C118.184 61.8892 117.505 61.3579 116.826 61.4455C116.148 61.5331 115.722 62.2162 115.873 62.9753Z" fill="white"/>
<path d="M115.816 63.0395C116.033 63.9737 116.639 64.6627 117.166 64.581C117.693 64.4992 117.932 63.6818 117.715 62.7475C117.498 61.8133 116.892 61.1243 116.365 61.206C115.838 61.2878 115.592 62.1052 115.816 63.0395Z" fill="#263238"/>
<path d="M90.6959 71.8793C90.5804 72.2647 90.7392 72.6267 91.0497 72.6851C91.3602 72.7434 91.7067 72.4924 91.8295 72.1012C91.9522 71.71 91.7861 71.3596 91.4757 71.2954C91.1652 71.2312 90.8187 71.4998 90.6959 71.8793Z" fill="#263238"/>
<path d="M169.788 24.3329C165.218 24.9927 164.64 24.654 164.583 21.9973C164.525 19.3406 162.864 14.9088 165.175 13.5191C165.333 13.3975 165.528 13.3117 165.741 13.2702C165.953 13.2286 166.175 13.2329 166.385 13.2826C166.595 13.3322 166.785 13.4255 166.936 13.553C167.087 13.6806 167.194 13.8381 167.247 14.0096C167.388 13.7182 167.663 13.482 168.014 13.3504C168.365 13.2188 168.765 13.2018 169.131 13.3031C169.225 12.7542 169.333 11.347 170.575 10.9675C171.817 10.588 172.958 11.4989 172.958 11.4989C172.958 11.4989 172.864 9.3326 174.669 9.54281C175.208 9.61245 175.708 9.81182 176.105 10.1149C176.502 10.418 176.776 10.8108 176.893 11.2419C176.893 11.2419 177.932 10.0158 179.34 10.5004C180.748 10.985 180.452 12.4097 180.452 12.4097C180.452 12.4097 181.947 11.8258 183.059 12.4856C184.171 13.1454 183.362 14.2023 183.362 14.2023C183.362 14.2023 184.373 12.1003 186.3 13.2622C188.033 14.3132 186.459 15.9598 186.459 15.9598C186.459 15.9598 188.365 15.7087 188.827 16.4853C190.387 19.1304 184.445 22.0849 184.25 26.5517C175.124 29.3427 169.788 24.3329 169.788 24.3329Z" fill="#263238"/>
<path d="M136.847 95.323L133.801 94.8676L129.772 97.9797C129.553 98.1486 129.38 98.3527 129.264 98.579C129.148 98.8053 129.093 99.0487 129.1 99.2935L129.158 101.839C129.165 102.275 129.372 102.692 129.74 103.011C130.107 103.329 130.607 103.526 131.144 103.562L132.544 103.661C133.054 103.7 133.564 103.592 133.984 103.356C134.404 103.119 134.708 102.77 134.84 102.371L135.562 100.292C135.562 100.292 139.54 96.4908 136.847 95.323Z" fill="#FFB573"/>
<path d="M167.62 48.7636C165.577 53.0436 163.541 57.341 161.577 61.6502C159.613 65.9593 157.664 70.286 155.837 74.5426L155.512 75.3308L155.289 75.8447C155.202 76.0374 155.115 76.2359 155.036 76.3877C154.697 77.0825 154.357 77.6547 154.018 78.2328C153.339 79.4006 152.653 80.4458 151.96 81.5026C150.567 83.6046 149.13 85.6308 147.679 87.651C144.791 91.6974 141.903 95.6504 138.914 99.6618L129.723 95.0373C132.755 91.2245 135.679 87.289 138.481 83.3594C139.86 81.3858 141.217 79.4064 142.48 77.4445C143.109 76.4636 143.715 75.4827 144.249 74.5251C144.502 74.0638 144.755 73.5908 144.921 73.2055C144.979 73.0945 145 73.0186 145.036 72.9427L145.152 72.6391L145.484 71.7866C147.224 67.3023 149.051 62.9698 150.812 58.573L156.097 45.4296L167.62 48.7636Z" fill="#246DFF"/>
<path opacity="0.6" d="M167.62 48.7636C165.577 53.0436 163.541 57.341 161.577 61.6502C159.613 65.9593 157.664 70.286 155.837 74.5426L155.512 75.3308L155.289 75.8447C155.202 76.0374 155.115 76.2359 155.036 76.3877C154.697 77.0825 154.357 77.6547 154.018 78.2328C153.339 79.4006 152.653 80.4458 151.96 81.5026C150.567 83.6046 149.13 85.6308 147.679 87.651C144.791 91.6974 141.903 95.6504 138.914 99.6618L129.723 95.0373C132.755 91.2245 135.679 87.289 138.481 83.3594C139.86 81.3858 141.217 79.4064 142.48 77.4445C143.109 76.4636 143.715 75.4827 144.249 74.5251C144.502 74.0638 144.755 73.5908 144.921 73.2055C144.979 73.0945 145 73.0186 145.036 72.9427L145.152 72.6391L145.484 71.7866C147.224 67.3023 149.051 62.9698 150.812 58.573L156.097 45.4296L167.62 48.7636Z" fill="white"/>
<path d="M140.084 205.043L133.607 205.299L136.669 191.66L142.827 192.804L140.084 205.043Z" fill="#FFB573"/>
<path d="M186.544 205.241H180.067L180.089 193.114H186.558L186.544 205.241Z" fill="#FFB573"/>
<path d="M179.454 204.634H187.346C187.473 204.632 187.596 204.667 187.694 204.732C187.792 204.798 187.858 204.889 187.88 204.99L188.92 209.661C188.943 209.777 188.934 209.895 188.895 210.008C188.856 210.12 188.787 210.225 188.693 210.314C188.599 210.403 188.482 210.474 188.35 210.523C188.218 210.571 188.075 210.596 187.931 210.595C185.389 210.56 183.541 210.438 180.342 210.438C178.378 210.438 172.4 210.601 169.714 210.601C167.029 210.601 166.754 208.429 167.873 208.231C172.927 207.349 176.732 206.134 178.386 204.973C178.679 204.758 179.059 204.637 179.454 204.634Z" fill="#263238"/>
<path opacity="0.2" d="M136.67 191.666L135.255 197.972L141.414 199.117L142.829 192.81L136.67 191.666Z" fill="black"/>
<path opacity="0.2" d="M186.56 193.114H180.084V199.361H186.56V193.114Z" fill="black"/>
<path d="M191.771 48.6123C186.717 66.9991 188.06 85.1466 187.518 89.0762L152.956 87.2311C149.346 65.0431 153.375 50.8895 155.664 45.0855C156.036 44.1275 156.739 43.2757 157.691 42.6311C158.643 41.9864 159.804 41.5758 161.035 41.4479C166.175 40.9923 171.35 40.8615 176.515 41.0567C180.011 41.2258 183.482 41.6519 186.883 42.3295C188.56 42.64 190.017 43.4758 190.933 44.6536C191.849 45.8314 192.151 47.2551 191.771 48.6123Z" fill="#246DFF"/>
<path d="M181.352 28.5955C180.211 32.058 178.861 38.1889 181.035 41.2893C181.374 41.774 180.724 42.1885 180.695 42.7491C180.616 44.4657 177.742 44.9796 172.602 45.0029C167.461 45.0263 165.259 43.2921 166.66 41.6572C166.874 41.408 167.201 41.2362 167.569 41.1784C172.385 40.3084 172.479 37.2546 171.822 34.341L181.352 28.5955Z" fill="#FFB573"/>
<path opacity="0.4" d="M172.236 44.0513C173.587 45.5701 174.443 47.339 174.727 49.1954C179.861 47.2452 182.308 42.5099 182.308 42.5099L180.763 41.1727C180.763 41.1727 175.059 42.0427 172.236 44.0513Z" fill="black"/>
<path opacity="0.4" d="M171.73 44.0686C169.839 45.3129 168.244 46.8244 167.022 48.5296C163.434 46.7312 164.618 41.6046 164.618 41.6046L167.542 41.1375C167.542 41.1375 168.849 42.1126 171.73 44.0686Z" fill="black"/>
<path d="M171.959 43.9403L170.854 44.0279L168.984 45.0264C168.865 45.6278 168.997 46.2442 169.36 46.778C170.446 46.9496 171.554 47.0104 172.659 46.959C173.4 46.6695 173.991 46.1773 174.327 45.5694L172.955 44.1505L171.959 43.9403Z" fill="#263238"/>
<path d="M171.959 43.9406C173.346 45.3445 174.41 46.9386 175.1 48.6468C180.233 46.6966 183.222 42.0371 183.222 42.0371L180.746 40.2854C180.746 40.2854 174.782 41.9437 171.959 43.9406Z" fill="#246DFF"/>
<path d="M171.96 43.9408C169.978 44.9517 168.245 46.2503 166.848 47.7711C163.238 45.9785 164.617 41.1497 164.617 41.1497L167.541 40.6826C167.541 40.6826 169.086 41.9964 171.96 43.9408Z" fill="#246DFF"/>
<path opacity="0.2" d="M177.469 30.9368L171.837 34.335C172.008 35.0374 172.102 35.7506 172.118 36.4663C174.147 36.3436 177.064 34.7146 177.418 33.0096C177.588 32.3266 177.605 31.6246 177.469 30.9368Z" fill="black"/>
<path d="M182.385 22.8733C181.569 28.0291 181.417 31.0478 177.966 33.5644C172.775 37.2955 165.071 34.5045 163.967 29.2553C162.97 24.5316 164.472 16.8942 170.905 15.1717C172.321 14.7857 173.836 14.6989 175.306 14.9197C176.775 15.1405 178.151 15.6615 179.301 16.4333C180.451 17.205 181.339 18.2018 181.878 19.329C182.418 20.4562 182.592 21.6763 182.385 22.8733Z" fill="#FFB573"/>
<path d="M180.828 27.5325C179.384 26.4056 180.286 21.0104 181.015 19.4631C177.405 19.7433 165.738 19.7317 166.178 17.1275C166.619 14.5233 170.864 12.3103 177.802 14.1379C183.578 15.6619 185.022 17.9917 185.022 19.8951C185.109 23.8072 180.828 27.5325 180.828 27.5325Z" fill="#263238"/>
<path d="M184.622 27.5914C183.936 28.6511 182.765 29.4517 181.358 29.8218C179.517 30.2831 178.608 28.911 179.127 27.4396C179.589 26.12 181.113 24.2807 182.954 24.4675C184.795 24.6544 185.467 26.2776 184.622 27.5914Z" fill="#FFB573"/>
<path d="M133.146 196.372L143.854 198.281C143.854 198.281 154.265 165.285 157.355 149.158C158.301 144.253 160.496 137.252 162.496 129.89C165.016 120.606 168.185 110.563 170.784 102.698C173.528 94.4121 175.564 88.4563 175.564 88.4563L152.958 87.2477C152.958 87.2477 142.439 130.403 140.316 146.291C138.099 162.804 133.146 196.372 133.146 196.372Z" fill="#263238"/>
<path opacity="0.2" d="M162.493 129.878C165.013 120.594 168.182 110.551 170.782 102.686L168.406 98.5989C162.796 104.017 161.36 120.781 162.493 129.878Z" fill="black"/>
<path d="M163.729 87.808C163.729 87.808 168.407 131.91 170.227 147.178C172.248 163.901 177.67 198.158 177.67 198.158H188.544C188.544 198.158 189.035 161.677 187.1 145.526C186.825 113.774 187.511 89.0809 187.511 89.0809L163.729 87.808Z" fill="#263238"/>
<path d="M176.287 198.363H190.25V194.988L175.745 194.34L176.287 198.363Z" fill="#246DFF"/>
<path d="M131.742 196.337L144.5 198.614L145.41 195.28L132.053 192.559L131.742 196.337Z" fill="#246DFF"/>
<path d="M173.064 23.7957C173.064 24.2162 172.725 24.5431 172.386 24.5256C172.046 24.5081 171.794 24.1519 171.83 23.7315C171.866 23.3111 172.169 22.9841 172.508 23.0016C172.848 23.0192 173.1 23.3753 173.064 23.7957Z" fill="#263238"/>
<path d="M167.174 23.504C167.174 23.9244 166.834 24.2514 166.495 24.2339C166.156 24.2164 165.903 23.8602 165.939 23.4398C165.975 23.0194 166.278 22.6924 166.618 22.7099C166.957 22.7274 167.21 23.0602 167.174 23.504Z" fill="#263238"/>
<path d="M168.522 23.7959C167.794 25.0485 166.859 26.2153 165.742 27.2642C166.601 28.0116 168.197 27.7781 168.197 27.7781L168.522 23.7959Z" fill="#ED893E"/>
<path d="M170.307 29.022C170.893 28.9954 171.465 28.8729 171.99 28.6622C172.515 28.4514 172.982 28.1567 173.362 27.7959C173.388 27.773 173.403 27.7427 173.403 27.7112C173.403 27.6797 173.388 27.6493 173.362 27.6265C173.332 27.6044 173.293 27.592 173.253 27.592C173.213 27.592 173.174 27.6044 173.145 27.6265C172.716 28.0222 172.179 28.3308 171.575 28.5276C170.972 28.7243 170.32 28.8037 169.672 28.7593C169.652 28.7577 169.632 28.7593 169.613 28.764C169.594 28.7687 169.576 28.7764 169.56 28.7868C169.545 28.7971 169.532 28.8098 169.523 28.8241C169.514 28.8384 169.508 28.8541 169.506 28.8702C169.504 28.9034 169.518 28.9358 169.545 28.9609C169.572 28.9859 169.61 29.0015 169.65 29.0045C169.869 29.0211 170.088 29.0269 170.307 29.022Z" fill="#263238"/>
<path d="M174.501 22.3358C174.552 22.331 174.602 22.317 174.645 22.2949C174.714 22.259 174.762 22.2027 174.78 22.1382C174.797 22.0737 174.783 22.0063 174.739 21.9504C174.481 21.6144 174.128 21.3332 173.709 21.1301C173.289 20.9269 172.816 20.8078 172.328 20.7826C172.254 20.7917 172.188 20.8218 172.139 20.8673C172.091 20.9128 172.064 20.9708 172.064 21.0308C172.064 21.0907 172.091 21.1487 172.139 21.1942C172.188 21.2397 172.254 21.2698 172.328 21.2789C172.713 21.3019 173.086 21.3986 173.416 21.561C173.746 21.7235 174.024 21.947 174.227 22.2131C174.254 22.2523 174.294 22.2845 174.342 22.3062C174.391 22.3279 174.446 22.3381 174.501 22.3358Z" fill="#263238"/>
<path d="M164.263 21.7113C164.313 21.7085 164.361 21.6958 164.404 21.6745C164.447 21.6531 164.483 21.6237 164.508 21.5887C164.692 21.3173 164.953 21.085 165.269 20.9105C165.585 20.736 165.948 20.6242 166.328 20.5844C166.408 20.5785 166.483 20.548 166.536 20.4992C166.59 20.4504 166.619 20.3869 166.616 20.3216C166.611 20.2561 166.574 20.1949 166.513 20.1512C166.452 20.1075 166.373 20.0849 166.292 20.0881C165.807 20.1354 165.343 20.2763 164.94 20.4989C164.537 20.7214 164.205 21.0191 163.974 21.3668C163.935 21.4234 163.925 21.4901 163.947 21.5525C163.968 21.6148 164.02 21.6677 164.089 21.6996C164.144 21.7195 164.205 21.7236 164.263 21.7113Z" fill="#263238"/>
<path d="M177.267 205.545C177.841 205.534 178.413 205.471 178.97 205.358C179 205.352 179.026 205.34 179.047 205.322C179.067 205.305 179.081 205.283 179.086 205.259C179.094 205.236 179.092 205.212 179.082 205.19C179.071 205.168 179.053 205.149 179.028 205.136C178.797 205.013 176.761 203.968 176.025 204.272C175.945 204.306 175.878 204.356 175.829 204.417C175.781 204.479 175.754 204.549 175.75 204.622C175.725 204.742 175.737 204.866 175.786 204.981C175.836 205.097 175.92 205.2 176.032 205.282C176.394 205.482 176.83 205.575 177.267 205.545ZM178.53 205.183C177.425 205.364 176.581 205.329 176.241 205.089C176.164 205.034 176.107 204.963 176.074 204.885C176.041 204.806 176.034 204.721 176.054 204.64C176.054 204.546 176.111 204.511 176.155 204.494C176.537 204.342 177.707 204.786 178.53 205.183Z" fill="#246DFF"/>
<path d="M178.935 205.364C178.961 205.373 178.989 205.373 179.014 205.364C179.039 205.354 179.06 205.338 179.074 205.318C179.088 205.298 179.095 205.276 179.094 205.254C179.094 205.189 179.014 203.677 178.285 203.181C178.197 203.118 178.094 203.072 177.982 203.045C177.869 203.017 177.751 203.01 177.635 203.023C177.52 203.023 177.408 203.055 177.317 203.113C177.227 203.172 177.163 203.253 177.137 203.344C176.971 203.928 178.206 205.096 178.863 205.37C178.887 205.374 178.912 205.372 178.935 205.364ZM177.737 203.239C177.865 203.24 177.989 203.28 178.083 203.35C178.545 203.665 178.711 204.547 178.762 204.991C178.119 204.582 177.318 203.712 177.433 203.368C177.433 203.338 177.433 203.262 177.664 203.245H177.737V203.239Z" fill="#246DFF"/>
<path d="M132.64 202.993L140.235 204.745C140.356 204.773 140.462 204.835 140.533 204.919C140.604 205.003 140.636 205.105 140.625 205.206L140.062 209.918C140.043 210.034 139.994 210.146 139.918 210.245C139.841 210.344 139.739 210.429 139.619 210.493C139.498 210.557 139.361 210.6 139.219 210.617C139.076 210.635 138.93 210.628 138.791 210.596C136.358 210.012 134.625 209.481 131.571 208.774C129.679 208.342 123.521 206.555 121.275 205.317C119.03 204.079 120.351 202.17 121.412 202.52C126.185 204.085 129.542 203.834 131.52 203.104C131.866 202.962 132.262 202.922 132.64 202.993Z" fill="#263238"/>
<path d="M130.22 203.391C130.779 203.503 131.35 203.568 131.924 203.583C131.955 203.585 131.986 203.579 132.013 203.567C132.04 203.554 132.062 203.536 132.076 203.513C132.093 203.494 132.102 203.47 132.102 203.446C132.102 203.422 132.093 203.399 132.076 203.379C131.895 203.216 130.285 201.768 129.484 201.89C129.395 201.906 129.312 201.94 129.244 201.989C129.176 202.038 129.124 202.101 129.094 202.17C129.032 202.28 129.004 202.4 129.012 202.52C129.021 202.64 129.067 202.757 129.145 202.859C129.42 203.129 129.799 203.316 130.22 203.391ZM131.563 203.321C130.437 203.251 129.636 203.029 129.397 202.737C129.349 202.664 129.323 202.583 129.323 202.5C129.323 202.418 129.349 202.336 129.397 202.264C129.441 202.17 129.498 202.153 129.549 202.147C129.961 202.071 130.899 202.76 131.563 203.344V203.321Z" fill="#246DFF"/>
<path d="M131.891 203.577C131.92 203.583 131.949 203.583 131.978 203.577C132.006 203.571 132.031 203.56 132.052 203.543C132.072 203.527 132.086 203.506 132.093 203.484C132.093 203.425 132.541 201.954 132.014 201.311C131.949 201.233 131.865 201.167 131.767 201.117C131.669 201.066 131.559 201.033 131.444 201.02C131.332 200.994 131.213 201 131.105 201.036C130.998 201.072 130.909 201.136 130.852 201.218C130.491 201.744 131.299 203.122 131.826 203.554C131.845 203.566 131.868 203.574 131.891 203.577ZM131.451 201.271C131.574 201.298 131.68 201.363 131.747 201.452C132.093 201.86 131.949 202.748 131.855 203.203C131.371 202.672 130.909 201.662 131.133 201.352C131.133 201.323 131.198 201.259 131.4 201.282L131.451 201.271Z" fill="#246DFF"/>
<path d="M181.461 40.8345C181.385 40.8245 181.306 40.8288 181.232 40.847C181.157 40.8653 181.089 40.897 181.032 40.9397C180.975 40.9825 180.93 41.0352 180.902 41.0938C180.874 41.1525 180.863 41.2155 180.869 41.2782C181.122 44.4079 175.093 50.0366 173.649 66.8937C172.79 77.1469 172.003 109.115 172.581 125.745C172.589 125.963 172.659 126.176 172.785 126.37C172.911 126.563 173.089 126.73 173.307 126.859C173.525 126.988 173.776 127.075 174.042 127.114C174.308 127.152 174.581 127.141 174.841 127.082C185.497 124.676 190.53 130.509 192.58 123.631C192.472 115.392 189.389 85.8119 190.183 78.7993C190.977 71.7867 194.277 52.7342 195.1 47.6544C195.829 43.2401 184.443 41.2724 181.461 40.8345Z" fill="#246DFF"/>
<path opacity="0.7" d="M181.461 40.8345C181.385 40.8245 181.306 40.8288 181.232 40.847C181.157 40.8653 181.089 40.897 181.032 40.9397C180.975 40.9825 180.93 41.0352 180.902 41.0938C180.874 41.1525 180.863 41.2155 180.869 41.2782C181.122 44.4079 175.093 50.0366 173.649 66.8937C172.79 77.1469 172.003 109.115 172.581 125.745C172.589 125.963 172.659 126.176 172.785 126.37C172.911 126.563 173.089 126.73 173.307 126.859C173.525 126.988 173.776 127.075 174.042 127.114C174.308 127.152 174.581 127.141 174.841 127.082C185.497 124.676 190.53 130.509 192.58 123.631C192.472 115.392 189.389 85.8119 190.183 78.7993C190.977 71.7867 194.277 52.7342 195.1 47.6544C195.829 43.2401 184.443 41.2724 181.461 40.8345Z" fill="white"/>
<path opacity="0.2" d="M188.486 55.1226C188.017 57.7267 187.836 68.2485 190.933 73.3109C191.453 69.8075 192.132 65.6444 192.789 61.633L188.486 55.1226Z" fill="#246DFF"/>
<path d="M192.91 100.625L189.834 100.917L187.112 104.847C186.963 105.06 186.87 105.295 186.841 105.538C186.811 105.782 186.844 106.028 186.939 106.26L187.921 108.677C188.088 109.091 188.439 109.44 188.906 109.655C189.373 109.871 189.923 109.939 190.448 109.845L191.82 109.611C192.324 109.529 192.775 109.303 193.093 108.976C193.41 108.648 193.573 108.24 193.553 107.825L193.466 105.676C193.466 105.676 195.906 101.116 192.91 100.625Z" fill="#FFB573"/>
<path d="M194.601 45.6923C195.582 48.0278 196.492 50.3342 197.395 52.6698C198.297 55.0054 199.2 57.341 200.052 59.6766C200.904 62.0121 201.727 64.4003 202.485 66.8351C202.86 68.0555 203.207 69.2875 203.539 70.5779C203.69 71.226 203.842 71.8858 203.965 72.5865C204.023 72.9485 204.088 73.2813 204.124 73.6842L204.189 74.2681L204.225 74.9279C204.239 75.1496 204.239 75.3718 204.225 75.5935C204.225 75.8271 204.225 76.049 204.189 76.23L204.124 76.8139L204.044 77.3394C203.943 78.0459 203.813 78.6882 203.683 79.3305C203.423 80.6034 203.12 81.8295 202.81 83.044C202.189 85.473 201.496 87.8495 200.795 90.2143C200.095 92.5791 199.351 94.938 198.629 97.2911L196.463 104.35L186.009 102.056C187.626 97.4954 189.099 92.8535 190.463 88.2407C191.128 85.9051 191.749 83.6163 192.305 81.3332C192.579 80.1654 192.839 79.056 193.027 77.9583C193.135 77.4094 193.221 76.8664 193.279 76.376C193.335 75.9885 193.355 75.5981 193.337 75.2082V74.9629L193.286 74.6476C193.286 74.4491 193.2 74.1864 193.157 73.9586C193.055 73.4682 192.925 72.9485 192.781 72.4172C192.485 71.3545 192.131 70.2567 191.749 69.1532C191.027 66.9402 190.11 64.698 189.178 62.4676C187.337 58.0066 185.265 53.5165 183.128 49.1489L194.601 45.6923Z" fill="#246DFF"/>
<path opacity="0.7" d="M194.601 45.6923C195.582 48.0278 196.492 50.3342 197.395 52.6698C198.297 55.0054 199.2 57.341 200.052 59.6766C200.904 62.0121 201.727 64.4003 202.485 66.8351C202.86 68.0555 203.207 69.2875 203.539 70.5779C203.69 71.226 203.842 71.8858 203.965 72.5865C204.023 72.9485 204.088 73.2813 204.124 73.6842L204.189 74.2681L204.225 74.9279C204.239 75.1496 204.239 75.3718 204.225 75.5935C204.225 75.8271 204.225 76.049 204.189 76.23L204.124 76.8139L204.044 77.3394C203.943 78.0459 203.813 78.6882 203.683 79.3305C203.423 80.6034 203.12 81.8295 202.81 83.044C202.189 85.473 201.496 87.8495 200.795 90.2143C200.095 92.5791 199.351 94.938 198.629 97.2911L196.463 104.35L186.009 102.056C187.626 97.4954 189.099 92.8535 190.463 88.2407C191.128 85.9051 191.749 83.6163 192.305 81.3332C192.579 80.1654 192.839 79.056 193.027 77.9583C193.135 77.4094 193.221 76.8664 193.279 76.376C193.335 75.9885 193.355 75.5981 193.337 75.2082V74.9629L193.286 74.6476C193.286 74.4491 193.2 74.1864 193.157 73.9586C193.055 73.4682 192.925 72.9485 192.781 72.4172C192.485 71.3545 192.131 70.2567 191.749 69.1532C191.027 66.9402 190.11 64.698 189.178 62.4676C187.337 58.0066 185.265 53.5165 183.128 49.1489L194.601 45.6923Z" fill="white"/>
<path d="M167.418 40.3963C167.577 40.3953 167.733 40.4309 167.867 40.4987C168.002 40.5666 168.11 40.6641 168.179 40.7797C168.248 40.8954 168.274 41.0245 168.256 41.1519C168.238 41.2794 168.175 41.4001 168.075 41.4998C166.357 43.1114 165.274 45.3243 163.238 52.4245C160.783 60.9902 155.556 104.088 154.574 125.207C154.569 125.383 154.517 125.555 154.422 125.713C154.326 125.87 154.19 126.01 154.022 126.121C153.854 126.232 153.658 126.312 153.448 126.356C153.238 126.4 153.018 126.406 152.805 126.375C147.707 125.616 144.213 127.613 143.657 124.968C143.043 122.048 145.332 94.1613 149.614 81.047C148.942 69.4159 151.368 46.0834 156.213 42.9829C158.841 41.2604 164.429 40.4371 167.418 40.3963Z" fill="#246DFF"/>
<path opacity="0.7" d="M167.418 40.3963C167.577 40.3953 167.733 40.4309 167.867 40.4987C168.002 40.5666 168.11 40.6641 168.179 40.7797C168.248 40.8954 168.274 41.0245 168.256 41.1519C168.238 41.2794 168.175 41.4001 168.075 41.4998C166.357 43.1114 165.274 45.3243 163.238 52.4245C160.783 60.9902 155.556 104.088 154.574 125.207C154.569 125.383 154.517 125.555 154.422 125.713C154.326 125.87 154.19 126.01 154.022 126.121C153.854 126.232 153.658 126.312 153.448 126.356C153.238 126.4 153.018 126.406 152.805 126.375C147.707 125.616 144.213 127.613 143.657 124.968C143.043 122.048 145.332 94.1613 149.614 81.047C148.942 69.4159 151.368 46.0834 156.213 42.9829C158.841 41.2604 164.429 40.4371 167.418 40.3963Z" fill="white"/>
<path d="M170.229 46.1819C170.229 46.1819 163.991 60.353 161.796 72.2295C161.623 75.4584 163.522 81.7119 165.06 84.4387C168.273 78.7808 170.28 75.4467 170.597 72.2295C171.11 67.389 171.955 46.2753 171.955 46.2753L170.229 46.1819Z" fill="#263238"/>
<path d="M183.282 63.0396C183.219 63.0379 183.158 63.0194 183.109 62.9871C183.06 62.9548 183.026 62.9104 183.011 62.8606C182.996 62.8109 183.002 62.7586 183.028 62.7119C183.053 62.6651 183.097 62.6263 183.152 62.6016L184.336 62.0995C185.442 61.6397 186.348 60.9183 186.933 60.0317C187.519 59.145 187.756 58.135 187.614 57.1364L186.329 47.724C186.234 47.0224 185.85 46.367 185.239 45.8635C184.627 45.36 183.824 45.0378 182.958 44.9488C182.092 44.8597 181.214 45.0091 180.466 45.3727C179.718 45.7364 179.144 46.2931 178.835 46.9532L174.676 55.7993C174.228 56.7368 174.144 57.7623 174.434 58.7396C174.724 59.7168 175.375 60.5995 176.301 61.2704L177.297 62.0002C177.35 62.0439 177.38 62.1026 177.38 62.1637C177.38 62.2249 177.35 62.2836 177.297 62.3272C177.243 62.37 177.17 62.394 177.095 62.394C177.019 62.394 176.947 62.37 176.893 62.3272L175.896 61.6032C174.888 60.867 174.181 59.9004 173.867 58.8315C173.554 57.7627 173.65 56.6421 174.142 55.6183L178.337 46.7898C178.695 46.0355 179.356 45.4002 180.213 44.9857C181.071 44.5713 182.076 44.4016 183.067 44.5039C184.058 44.6062 184.978 44.9745 185.679 45.5499C186.381 46.1253 186.823 46.8744 186.936 47.6773L188.221 57.0838C188.373 58.1784 188.109 59.2845 187.464 60.2546C186.819 61.2248 185.824 62.0129 184.611 62.5141L183.427 63.0104C183.384 63.0327 183.333 63.043 183.282 63.0396Z" fill="#263238"/>
<path d="M186.863 49.7791C186.794 49.7795 186.728 49.7596 186.676 49.723C186.624 49.6864 186.59 49.6357 186.582 49.5805C186.414 48.8235 185.938 48.1334 185.231 47.6194C184.523 47.1055 183.624 46.797 182.676 46.7428C181.073 46.5793 178.892 46.988 178.019 48.693C178.006 48.7232 177.986 48.751 177.96 48.7748C177.933 48.7985 177.901 48.8176 177.865 48.8309C177.83 48.8442 177.791 48.8514 177.751 48.8522C177.712 48.8529 177.673 48.8471 177.636 48.8351C177.6 48.8231 177.567 48.8053 177.539 48.7825C177.511 48.7598 177.49 48.7328 177.476 48.703C177.461 48.6733 177.455 48.6416 177.456 48.6097C177.458 48.5779 177.467 48.5466 177.484 48.5178C177.973 47.7543 178.739 47.1305 179.68 46.7311C180.622 46.3317 181.692 46.176 182.746 46.2849C183.801 46.3939 184.788 46.7623 185.575 47.3404C186.362 47.9184 186.91 48.678 187.145 49.5163C187.155 49.5759 187.136 49.6364 187.091 49.6845C187.046 49.7326 186.98 49.7645 186.906 49.7732L186.863 49.7791Z" fill="#263238"/>
<path d="M182.976 44.9506C182.938 44.9491 182.901 44.9416 182.867 44.9284C182.834 44.9152 182.803 44.8966 182.778 44.8737C182.753 44.8508 182.734 44.8241 182.722 44.7952C182.711 44.7663 182.706 44.7358 182.709 44.7054C182.795 43.5668 182.593 41.494 181.265 40.9568C181.197 40.9281 181.146 40.8788 181.123 40.8197C181.1 40.7605 181.107 40.6964 181.142 40.6415C181.178 40.5865 181.238 40.5451 181.312 40.5265C181.385 40.5079 181.464 40.5136 181.532 40.5422C183.452 41.3421 183.279 44.3901 183.25 44.7346C183.247 44.7919 183.216 44.8461 183.166 44.8861C183.115 44.9262 183.047 44.9492 182.976 44.9506Z" fill="#263238"/>
<path d="M177.741 62.2335C177.669 62.6714 177.33 62.9926 176.976 62.9517C176.622 62.9108 176.391 62.5371 176.463 62.1051C176.536 61.673 176.868 61.346 177.222 61.3869C177.575 61.4277 177.806 61.8014 177.741 62.2335Z" fill="#263238"/>
<path d="M160.956 52.7693C160.501 53.6977 159.512 54.2582 158.79 54.0188C158.068 53.7794 157.786 52.8511 158.241 51.8993C158.696 50.9476 159.685 50.4104 160.407 50.6498C161.129 50.8892 161.403 51.8409 160.956 52.7693Z" fill="#263238"/>
<path d="M158.582 52.1678H158.524C158.45 52.1551 158.385 52.1192 158.343 52.0678C158.301 52.0164 158.286 51.9537 158.301 51.8933C159.254 48.0572 163.196 41.9671 166.669 40.2154C166.7 40.1934 166.737 40.1772 166.777 40.1679C166.817 40.1585 166.859 40.1563 166.9 40.1613C166.941 40.1663 166.981 40.1784 167.016 40.1969C167.05 40.2154 167.08 40.2397 167.102 40.2682C167.124 40.2967 167.138 40.3288 167.144 40.3622C167.149 40.3955 167.145 40.4295 167.133 40.4616C167.121 40.4938 167.1 40.5234 167.072 40.5484C167.044 40.5734 167.01 40.5933 166.972 40.6067C163.614 42.3175 159.795 48.1973 158.864 51.9751C158.852 52.0287 158.817 52.0773 158.766 52.1125C158.714 52.1477 158.649 52.1673 158.582 52.1678Z" fill="#263238"/>
<path d="M161.783 52.9622C161.45 53.7621 160.598 54.2584 159.876 54.0657C159.154 53.873 158.83 53.0614 159.154 52.2556C159.479 51.4499 160.339 50.9594 161.061 51.1521C161.783 51.3448 162.115 52.1564 161.783 52.9622Z" fill="white"/>
<path d="M161.83 53.0433C161.39 54.03 160.574 54.7015 160.018 54.538C159.462 54.3745 159.368 53.4403 159.816 52.4477C160.263 51.4551 161.072 50.7894 161.628 50.9529C162.184 51.1164 162.278 52.0506 161.83 53.0433Z" fill="#263238"/>
<path d="M183.922 62.8762C183.857 63.3083 183.51 63.6294 183.157 63.5944C182.803 63.5594 182.572 63.174 182.644 62.7419C182.716 62.3098 183.056 61.9887 183.409 62.0237C183.763 62.0588 183.994 62.4383 183.922 62.8762Z" fill="#263238"/>
<path d="M224.862 37.5754C227.273 42.9064 220.862 45.5865 216.66 53.4399C212.458 61.2933 222.595 70.659 238.154 70.8633C253.713 71.0677 254.204 59.0161 251.792 50.3686C249.381 41.7211 254.42 40.3139 253.352 33.7101C251.98 25.0334 236.522 18.4587 230.385 26.423C224.927 26.0085 222.753 32.916 224.862 37.5754Z" fill="#263238"/>
<path d="M270.944 109.336V108.658C270.93 108.333 270.829 108.015 270.648 107.724L268.035 103.555L264.973 103.088C262.807 104.974 264.973 108.734 264.973 108.734V109.336C264.974 109.829 265.173 110.308 265.54 110.701C265.908 111.094 266.423 111.379 267.009 111.514L267.421 111.613C267.845 111.703 268.289 111.712 268.718 111.639C269.147 111.566 269.549 111.412 269.891 111.191C270.233 110.97 270.507 110.687 270.69 110.365C270.873 110.042 270.96 109.69 270.944 109.336Z" fill="#FFC3BD"/>
<path d="M257.97 55.7054L259.096 62.0933L260.281 68.4636C260.67 70.5948 261.082 72.7143 261.501 74.8397L262.75 81.1691L262.901 81.7939C262.952 81.9983 263.039 82.261 263.104 82.4887L263.32 83.2069L263.573 83.9485C263.898 84.9294 264.295 85.9454 264.641 86.9497C265.363 88.9641 266.194 91.0019 267.01 93.028C268.67 97.0744 270.403 101.138 272.251 105.132L262.042 108.052L256.93 95.7081C256.086 93.647 255.227 91.5858 254.411 89.4838C254.006 88.4269 253.602 87.3818 253.219 86.2899L252.923 85.4783L252.642 84.6316C252.548 84.3397 252.447 84.0828 252.36 83.7616L252.093 82.804L250.584 76.3812C250.103 74.2636 249.6 72.146 249.075 70.0284L247.53 63.6756L245.92 57.3695L257.97 55.7054Z" fill="#246DFF"/>
<path opacity="0.6" d="M257.97 55.7054L259.096 62.0933L260.281 68.4636C260.67 70.5948 261.082 72.7143 261.501 74.8397L262.75 81.1691L262.901 81.7939C262.952 81.9983 263.039 82.261 263.104 82.4887L263.32 83.2069L263.573 83.9485C263.898 84.9294 264.295 85.9454 264.641 86.9497C265.363 88.9641 266.194 91.0019 267.01 93.028C268.67 97.0744 270.403 101.138 272.251 105.132L262.042 108.052L256.93 95.7081C256.086 93.647 255.227 91.5858 254.411 89.4838C254.006 88.4269 253.602 87.3818 253.219 86.2899L252.923 85.4783L252.642 84.6316C252.548 84.3397 252.447 84.0828 252.36 83.7616L252.093 82.804L250.584 76.3812C250.103 74.2636 249.6 72.146 249.075 70.0284L247.53 63.6756L245.92 57.3695L257.97 55.7054Z" fill="white"/>
<path d="M256.345 55.2147C256.684 58.3268 256.381 66.0693 252.519 85.2619H225.805C226.231 76.9239 226.259 71.6104 221.834 55.6993C221.733 55.3415 221.724 54.9708 221.808 54.6102C221.891 54.2495 222.065 53.9065 222.319 53.6023C222.572 53.2981 222.9 53.0392 223.283 52.8415C223.665 52.6438 224.093 52.5115 224.541 52.4528C227.149 52.1064 229.779 51.8744 232.418 51.758C236.461 51.5242 240.519 51.5242 244.562 51.758C247.883 52.0032 251.486 52.4879 253.666 52.809C254.377 52.9181 255.023 53.2124 255.507 53.6468C255.991 54.0813 256.285 54.632 256.345 55.2147Z" fill="#263238"/>
<path d="M233.594 40.6993C234.36 43.8582 235.125 49.6505 232.389 51.7583C232.389 51.7583 235.811 55.1216 241.053 55.1216C246.294 55.1216 244.54 51.7583 244.54 51.7583C240.208 50.9175 240.295 48.3017 241.053 45.8493L233.594 40.6993Z" fill="#FFC3BD"/>
<path opacity="0.2" d="M236.634 42.8015L241.046 45.8436C240.858 46.4177 240.733 47.0037 240.67 47.5953C239.002 47.4026 236.389 46.2523 236.028 44.7868C235.862 44.0919 236.49 43.1285 236.634 42.8015Z" fill="black"/>
<path d="M228.996 34.4978C230.014 39.7178 230.31 41.9425 233.905 44.3832C239.32 48.0559 247.024 45.9013 247.955 40.5411C248.793 35.7182 246.981 27.9874 240.382 26.3934C238.928 26.0358 237.385 25.9846 235.9 26.2446C234.415 26.5047 233.036 27.0674 231.896 27.8793C230.755 28.6913 229.89 29.7255 229.382 30.8838C228.875 32.0422 228.742 33.2862 228.996 34.4978Z" fill="#FFC3BD"/>
<path d="M230.073 38.2583C233.77 35.2979 235.041 31.1815 234.694 29.4999C238.254 30.2998 240.867 29.167 240.708 28.6766C243.221 30.6618 247.777 32.2325 247.264 30.0954C246.751 27.9584 243.38 24.0171 236.347 25.4243C229.315 26.8315 226.608 32.6704 226.709 35.041C226.81 37.4116 230.073 38.2583 230.073 38.2583Z" fill="#263238"/>
<path d="M238.26 35.0879C238.31 35.52 238.628 35.8411 238.982 35.8178C239.336 35.7944 239.567 35.4207 239.516 34.9945C239.465 34.5682 239.141 34.2412 238.794 34.2646C238.447 34.288 238.26 34.6617 238.26 35.0879Z" fill="#263238"/>
<path d="M244.26 34.6267C244.31 35.053 244.635 35.3799 244.982 35.3507C245.328 35.3216 245.567 34.9595 245.516 34.5333C245.465 34.107 245.141 33.7801 244.794 33.8034C244.447 33.8268 244.209 34.2005 244.26 34.6267Z" fill="#263238"/>
<path d="M244.648 33.8393L245.883 33.4471C245.883 33.4471 245.32 34.3016 244.648 33.8393Z" fill="#263238"/>
<path d="M242.513 35.5374C243.096 36.4772 243.837 37.3476 244.715 38.124C244.464 38.2999 244.168 38.4296 243.849 38.5042C243.53 38.5788 243.195 38.5965 242.866 38.5561L242.513 35.5374Z" fill="#ED847E"/>
<path d="M240.18 40.4367C240.442 40.4511 240.705 40.4511 240.967 40.4367C241.008 40.4323 241.045 40.4152 241.071 40.3891C241.096 40.3629 241.108 40.3297 241.104 40.2965C241.103 40.2801 241.098 40.264 241.089 40.2493C241.08 40.2345 241.067 40.2215 241.052 40.211C241.036 40.2005 241.018 40.1929 240.998 40.1885C240.979 40.1841 240.958 40.1831 240.938 40.1856C240.281 40.2471 239.615 40.183 238.995 39.9984C238.374 39.8139 237.815 39.514 237.364 39.1229C237.336 39.1024 237.3 39.0907 237.263 39.0897C237.225 39.0887 237.188 39.0985 237.159 39.1175C237.129 39.1364 237.109 39.1632 237.102 39.1931C237.094 39.2229 237.1 39.2539 237.119 39.2806C237.509 39.6272 237.981 39.9079 238.506 40.1063C239.032 40.3048 239.601 40.417 240.18 40.4367Z" fill="#263238"/>
<path d="M227.566 38.7425C228.048 39.6876 228.972 40.4409 230.137 40.8387C231.682 41.3525 232.656 40.2548 232.389 39.0111C232.151 37.8433 231.053 36.2259 229.422 36.2493C229.067 36.2633 228.721 36.3478 228.416 36.4954C228.111 36.643 227.855 36.8491 227.672 37.0956C227.488 37.342 227.383 37.6212 227.364 37.9084C227.346 38.1956 227.415 38.4821 227.566 38.7425Z" fill="#FFC3BD"/>
<path d="M236.199 32.8462C236.261 32.8639 236.329 32.8656 236.392 32.8509C236.456 32.8363 236.512 32.806 236.553 32.7644C237.463 31.8594 239.318 31.947 239.333 31.947C239.415 31.9502 239.495 31.9278 239.557 31.8842C239.619 31.8407 239.657 31.7795 239.665 31.7134C239.669 31.6802 239.664 31.6468 239.652 31.6151C239.639 31.5834 239.619 31.554 239.592 31.5289C239.565 31.5038 239.532 31.4833 239.495 31.4689C239.457 31.4544 239.417 31.4462 239.376 31.4448C239.289 31.4448 237.174 31.3397 236.069 32.4491C236.018 32.5014 235.993 32.5678 236.002 32.6343C236.01 32.7008 236.049 32.7621 236.112 32.8053L236.199 32.8462Z" fill="#263238"/>
<path d="M246.433 32.3142C246.502 32.3175 246.57 32.3025 246.626 32.2713C246.683 32.2402 246.725 32.1947 246.747 32.1421C246.768 32.0894 246.768 32.0324 246.745 31.9801C246.722 31.9278 246.678 31.8831 246.621 31.8529C246.217 31.6223 245.751 31.4728 245.261 31.417C244.771 31.3611 244.272 31.4005 243.805 31.5318C243.729 31.5587 243.669 31.6086 243.638 31.6708C243.607 31.733 243.608 31.8025 243.639 31.8646C243.655 31.8955 243.678 31.9235 243.707 31.9471C243.737 31.9706 243.772 31.9892 243.81 32.0017C243.848 32.0142 243.889 32.0204 243.931 32.0199C243.972 32.0194 244.013 32.0123 244.051 31.9989C244.422 31.8989 244.817 31.8717 245.203 31.9194C245.59 31.9671 245.957 32.0884 246.274 32.2733C246.322 32.2981 246.377 32.3122 246.433 32.3142Z" fill="#263238"/>
<path d="M269.116 206.139L275.766 205.883L273.795 193.738L267.152 194L269.116 206.139Z" fill="#FFC3BD"/>
<g opacity="0.2">
<path opacity="0.2" d="M273.797 193.744L274.815 200.004L268.165 200.261L267.147 194.001L273.797 193.744Z" fill="black"/>
</g>
<path d="M252.52 85.2622C252.52 85.2622 260.888 126.281 264.295 142.274C267.848 158.903 275.847 198.042 275.847 198.042L267.053 199.209C267.053 199.209 255.198 160.03 250.447 143.739C245.292 125.96 232.802 102.119 232.932 85.3089L252.52 85.2622Z" fill="#246DFF"/>
<path opacity="0.2" d="M239.082 97.8512C237.826 96.374 235.407 94.3012 233.552 92.5962C235.234 103.048 240.05 115.175 244.447 126.596C245.616 117.896 244.952 104.7 239.082 97.8512Z" fill="black"/>
<path d="M228.095 205.317H234.679L235.12 192.985H228.528L228.095 205.317Z" fill="#FFC3BD"/>
<path d="M234.988 204.511H227.587C227.459 204.51 227.335 204.547 227.238 204.614C227.141 204.682 227.078 204.776 227.06 204.879L226.215 209.608C226.2 209.728 226.216 209.85 226.263 209.964C226.309 210.079 226.385 210.185 226.485 210.274C226.585 210.364 226.707 210.436 226.843 210.485C226.98 210.534 227.127 210.56 227.277 210.56C229.854 210.519 231.096 210.396 234.352 210.396C236.352 210.396 240.489 210.566 243.255 210.566C246.02 210.566 246.143 208.359 245.016 208.154C239.854 207.261 237.796 206.023 236.085 204.838C235.777 204.629 235.389 204.514 234.988 204.511Z" fill="#263238"/>
<g opacity="0.2">
<path opacity="0.2" d="M235.115 192.99L234.891 199.349H228.307L228.53 192.99H235.115Z" fill="black"/>
</g>
<path d="M245.003 85.2622C245.003 85.2622 242.332 126.806 240.527 142.98C238.642 159.808 236.375 197.942 236.375 197.942H227.466C227.466 197.942 225.877 159.954 226.498 143.36C227.17 125.259 221.791 102.073 225.423 85.2622H245.003Z" fill="#246DFF"/>
<path d="M226.695 198.199L237.142 198.357L237.301 193.207L226.651 193.744L226.695 198.199Z" fill="#263238"/>
<path d="M237.46 205.463C238.022 205.505 238.586 205.389 239.056 205.136C239.162 205.059 239.243 204.963 239.292 204.855C239.341 204.747 239.357 204.631 239.337 204.517C239.332 204.448 239.305 204.382 239.26 204.324C239.214 204.265 239.152 204.217 239.077 204.184C238.269 203.822 235.64 204.908 235.344 205.037C235.317 205.049 235.295 205.068 235.28 205.091C235.266 205.114 235.261 205.14 235.265 205.165C235.269 205.191 235.283 205.215 235.305 205.234C235.327 205.253 235.356 205.265 235.388 205.27C236.069 205.388 236.763 205.452 237.46 205.463ZM238.637 204.359C238.736 204.357 238.835 204.373 238.926 204.406C238.956 204.419 238.981 204.438 238.999 204.462C239.017 204.485 239.027 204.513 239.027 204.54C239.042 204.614 239.034 204.69 239.002 204.761C238.971 204.832 238.917 204.895 238.846 204.943C238.449 205.235 237.366 205.288 235.908 205.089C236.759 204.721 237.682 204.475 238.637 204.359Z" fill="#246DFF"/>
<path d="M235.416 205.276H235.481C236.268 204.99 237.82 203.839 237.698 203.238C237.698 203.092 237.546 202.917 237.113 202.882C236.958 202.867 236.801 202.879 236.651 202.916C236.502 202.953 236.364 203.015 236.246 203.098C235.423 203.653 235.272 205.089 235.264 205.147C235.262 205.17 235.266 205.192 235.278 205.213C235.289 205.233 235.307 205.251 235.329 205.264C235.357 205.274 235.386 205.278 235.416 205.276ZM236.99 203.115H237.084C237.365 203.115 237.387 203.226 237.387 203.261C237.467 203.623 236.412 204.523 235.611 204.914C235.673 204.31 235.966 203.736 236.449 203.273C236.599 203.169 236.792 203.113 236.99 203.115Z" fill="#246DFF"/>
<path d="M275.687 204.51H268.287C268.227 204.507 268.168 204.515 268.112 204.533C268.057 204.551 268.007 204.578 267.967 204.613C267.926 204.648 267.895 204.69 267.877 204.736C267.859 204.782 267.853 204.83 267.861 204.878L268.236 209.608C268.28 209.865 268.434 210.101 268.672 210.275C268.91 210.449 269.215 210.55 269.536 210.56C272.106 210.519 273.319 210.396 276.568 210.396C278.575 210.396 282.756 210.565 285.521 210.565C288.286 210.565 287.86 208.358 286.662 208.154C281.268 207.261 278.915 206.023 276.871 204.837C276.527 204.633 276.114 204.519 275.687 204.51Z" fill="#263238"/>
<path d="M278.157 205.463C278.721 205.505 279.287 205.389 279.76 205.136C279.865 205.059 279.945 204.962 279.994 204.854C280.043 204.747 280.059 204.631 280.041 204.517C280.035 204.448 280.007 204.381 279.96 204.323C279.913 204.265 279.849 204.217 279.774 204.184C278.965 203.822 276.344 204.908 276.048 205.037C276.02 205.048 275.996 205.067 275.98 205.09C275.965 205.113 275.958 205.139 275.962 205.165C275.968 205.19 275.982 205.213 276.004 205.232C276.026 205.251 276.054 205.264 276.085 205.27C276.766 205.388 277.46 205.452 278.157 205.463ZM279.334 204.359C279.433 204.356 279.532 204.372 279.622 204.406C279.654 204.418 279.68 204.438 279.699 204.461C279.718 204.485 279.729 204.512 279.731 204.54C279.743 204.614 279.733 204.69 279.702 204.76C279.67 204.83 279.618 204.893 279.55 204.943C279.146 205.235 278.063 205.288 276.604 205.089C277.456 204.722 278.379 204.475 279.334 204.359Z" fill="#246DFF"/>
<path d="M276.122 205.276H276.187C276.967 204.99 278.519 203.839 278.396 203.238C278.396 203.092 278.244 202.917 277.811 202.882C277.657 202.867 277.501 202.879 277.353 202.916C277.206 202.953 277.069 203.015 276.952 203.098C276.122 203.652 275.97 205.089 275.963 205.147C275.962 205.169 275.968 205.191 275.979 205.212C275.99 205.232 276.007 205.25 276.028 205.264C276.058 205.274 276.09 205.278 276.122 205.276ZM277.689 203.115H277.782C278.064 203.115 278.086 203.226 278.093 203.261C278.165 203.623 277.111 204.522 276.31 204.914C276.374 204.31 276.667 203.737 277.147 203.273C277.299 203.17 277.491 203.114 277.689 203.115Z" fill="#246DFF"/>
<path d="M266.315 199.541L276.632 198.199L275.47 193.738L265.246 195.688L266.315 199.541Z" fill="#263238"/>
<path d="M238.673 34.3008L239.907 33.9087C239.907 33.9087 239.352 34.7632 238.673 34.3008Z" fill="#263238"/>
<path d="M225.371 83.9945L224.692 85.9331C224.598 86.079 224.815 86.2367 225.125 86.2367H252.648C252.893 86.2367 253.088 86.1374 253.103 86.0148L253.348 84.0821C253.348 83.9478 253.153 83.8311 252.893 83.8311H225.811C225.727 83.8252 225.641 83.8371 225.564 83.8658C225.487 83.8944 225.42 83.9388 225.371 83.9945Z" fill="#263238"/>
<path d="M229.104 86.4416H228.382C228.237 86.4416 228.129 86.3832 228.136 86.3131L228.475 83.7965C228.475 83.7206 228.613 83.6622 228.757 83.6622H229.479C229.623 83.6622 229.732 83.7206 229.724 83.7965L229.378 86.3131C229.371 86.3832 229.248 86.4416 229.104 86.4416Z" fill="#246DFF"/>
<path d="M250.61 86.4416H249.888C249.744 86.4416 249.628 86.3832 249.643 86.3131L249.982 83.7965C249.982 83.7206 250.119 83.6622 250.264 83.6622H250.986C251.13 83.6622 251.238 83.7206 251.231 83.7965L250.892 86.3131C250.877 86.3832 250.755 86.4416 250.61 86.4416Z" fill="#246DFF"/>
<path d="M239.9 86.4416H239.178C239.034 86.4416 238.926 86.3832 238.933 86.3131L239.272 83.7965C239.272 83.7206 239.409 83.6622 239.554 83.6622H240.276C240.42 83.6622 240.529 83.7206 240.514 83.7965L240.175 86.3131C240.175 86.3832 240.045 86.4416 239.9 86.4416Z" fill="#246DFF"/>
<path d="M231.236 51.583C227.041 51.8925 220.629 51.2502 220.824 56.4527C221.019 61.6552 219.77 75.4351 220.102 81.8872C220.434 88.3392 218.355 130.117 221.72 142.227C222.312 144.358 244.044 144.084 246.672 143.879V141.958C246.672 141.958 262.462 140.242 266.368 140.791C266.029 133.515 257.285 96.7648 256.946 86.4416C256.607 76.1183 258.043 58.3796 257.957 55.5652C257.87 52.7508 250.953 51.5129 246.715 51.583C247.654 54.123 245.582 58.8934 242.268 64.2127C234.116 57.7898 231.712 54.6017 231.236 51.583Z" fill="#246DFF"/>
<path opacity="0.7" d="M231.236 51.583C227.041 51.8925 220.629 51.2502 220.824 56.4527C221.019 61.6552 219.77 75.4351 220.102 81.8872C220.434 88.3392 218.355 130.117 221.72 142.227C222.312 144.358 244.044 144.084 246.672 143.879V141.958C246.672 141.958 262.462 140.242 266.368 140.791C266.029 133.515 257.285 96.7648 256.946 86.4416C256.607 76.1183 258.043 58.3796 257.957 55.5652C257.87 52.7508 250.953 51.5129 246.715 51.583C247.654 54.123 245.582 58.8934 242.268 64.2127C234.116 57.7898 231.712 54.6017 231.236 51.583Z" fill="white"/>
<path opacity="0.2" d="M223.249 63.9204L220.563 65.4561C220.353 69.9521 220.072 74.9911 220.043 78.8856C222.541 74.4188 223.949 67.9726 223.249 63.9204Z" fill="#246DFF"/>
<path d="M231.805 59.2547C231.669 59.4186 231.522 59.5765 231.365 59.7277L231.213 59.8678L231.134 59.9379L230.989 60.0605L230.701 60.3116L230.123 60.8313C229.733 61.1758 229.358 61.5319 228.982 61.894C228.231 62.618 227.509 63.3556 226.816 64.1069C225.4 65.6073 224.082 67.1664 222.867 68.7781C220.479 71.7533 218.754 75.0436 217.77 78.4999C217.588 79.2709 217.474 80.0514 217.43 80.8355C217.475 81.2256 217.615 81.6046 217.842 81.9508C218.758 83.5203 219.861 85.0143 221.134 86.4117C222.47 87.9532 223.986 89.4538 225.538 90.9369C226.318 91.6843 227.127 92.4083 227.943 93.1265C228.758 93.8447 229.61 94.5804 230.405 95.2169L222.621 101.301C221.676 100.466 220.838 99.707 219.965 98.9071L217.416 96.4956C215.726 94.8782 214.102 93.1966 212.499 91.4332C210.759 89.5707 209.254 87.5715 208.008 85.4658C207.644 84.8135 207.333 84.1425 207.077 83.4572C206.927 83.0491 206.808 82.6337 206.723 82.2135C206.668 81.9722 206.629 81.7285 206.608 81.4836C206.579 81.2274 206.566 80.9701 206.571 80.7129C206.588 79.4591 206.721 78.208 206.969 76.9701C207.468 74.6317 208.277 72.3434 209.38 70.1444C210.418 68.0624 211.624 66.0377 212.99 64.0836C214.318 62.1567 215.777 60.3174 217.286 58.519C218.051 57.6198 218.831 56.7382 219.647 55.8681L220.881 54.5661L221.524 53.9121L221.849 53.5851L222.015 53.4275L222.087 53.3516L221.986 53.445C221.856 53.5793 221.733 53.7136 221.618 53.8537L231.805 59.2547Z" fill="#246DFF"/>
<path opacity="0.7" d="M231.805 59.2547C231.669 59.4186 231.522 59.5765 231.365 59.7277L231.213 59.8678L231.134 59.9379L230.989 60.0605L230.701 60.3116L230.123 60.8313C229.733 61.1758 229.358 61.5319 228.982 61.894C228.231 62.618 227.509 63.3556 226.816 64.1069C225.4 65.6073 224.082 67.1664 222.867 68.7781C220.479 71.7533 218.754 75.0436 217.77 78.4999C217.588 79.2709 217.474 80.0514 217.43 80.8355C217.475 81.2256 217.615 81.6046 217.842 81.9508C218.758 83.5203 219.861 85.0143 221.134 86.4117C222.47 87.9532 223.986 89.4538 225.538 90.9369C226.318 91.6843 227.127 92.4083 227.943 93.1265C228.758 93.8447 229.61 94.5804 230.405 95.2169L222.621 101.301C221.676 100.466 220.838 99.707 219.965 98.9071L217.416 96.4956C215.726 94.8782 214.102 93.1966 212.499 91.4332C210.759 89.5707 209.254 87.5715 208.008 85.4658C207.644 84.8135 207.333 84.1425 207.077 83.4572C206.927 83.0491 206.808 82.6337 206.723 82.2135C206.668 81.9722 206.629 81.7285 206.608 81.4836C206.579 81.2274 206.566 80.9701 206.571 80.7129C206.588 79.4591 206.721 78.208 206.969 76.9701C207.468 74.6317 208.277 72.3434 209.38 70.1444C210.418 68.0624 211.624 66.0377 212.99 64.0836C214.318 62.1567 215.777 60.3174 217.286 58.519C218.051 57.6198 218.831 56.7382 219.647 55.8681L220.881 54.5661L221.524 53.9121L221.849 53.5851L222.015 53.4275L222.087 53.3516L221.986 53.445C221.856 53.5793 221.733 53.7136 221.618 53.8537L231.805 59.2547Z" fill="white"/>
<path opacity="0.3" d="M242.275 64.2126C243.033 76.673 247.149 120.126 246.68 141.958L247.936 141.824C247.936 141.824 245.986 108.25 245.106 93.5592C244.225 78.8684 242.275 64.2126 242.275 64.2126Z" fill="#246DFF"/>
<path opacity="0.3" d="M229.799 95.3221L222.088 102.072C222.088 104.337 220.131 108.869 225.315 110.515C230.499 112.162 230.636 100.215 229.799 95.3221Z" fill="#246DFF"/>
<path opacity="0.3" d="M254.94 95.1122L258.333 101.99C258.434 104.326 259.423 108.997 257.416 110.778C255.409 112.559 254.824 100.175 254.94 95.1122Z" fill="#246DFF"/>
<path d="M246.512 68.551L254.981 68.5043C255.065 68.5072 255.15 68.4954 255.228 68.4695C255.306 68.4437 255.376 68.4044 255.434 68.3545C255.491 68.3045 255.535 68.2451 255.562 68.1802C255.588 68.1154 255.597 68.0466 255.587 67.9788L255.118 64.7323C255.09 64.5917 255.003 64.4633 254.871 64.3686C254.74 64.274 254.572 64.2189 254.396 64.2126L245.92 64.2535C245.836 64.2515 245.752 64.264 245.675 64.2902C245.597 64.3164 245.527 64.3557 245.47 64.4054C245.412 64.4551 245.369 64.5142 245.342 64.5786C245.315 64.643 245.305 64.7113 245.313 64.779L245.783 68.0313C245.812 68.1724 245.901 68.3009 246.034 68.3955C246.166 68.4901 246.335 68.545 246.512 68.551Z" fill="white" stroke="#246DFF" stroke-width="0.5" stroke-miterlimit="10"/>
</svg>
