<svg width="359" height="220" viewBox="0 0 359 220" fill="none" xmlns="http://www.w3.org/2000/svg">
<path d="M179.496 219.268C256.381 219.268 318.709 216.289 318.709 212.614C318.709 208.939 256.381 205.96 179.496 205.96C102.611 205.96 40.2832 208.939 40.2832 212.614C40.2832 216.289 102.611 219.268 179.496 219.268Z" fill="#F5F5F5"/>
<path d="M149.844 61.437C145.785 59.3222 142.583 56.2695 140.643 52.6648C138.703 49.0601 138.112 45.0654 138.946 41.1859C139.779 37.3064 141.999 33.7163 145.324 30.8697C148.65 28.023 152.932 26.0477 157.629 25.1934C162.325 24.3392 167.226 24.6445 171.711 26.0706C176.196 27.4967 180.064 29.9796 182.825 33.2054C185.586 36.4312 187.117 40.2549 187.224 44.1929C187.331 48.131 186.009 52.0066 183.425 55.3295C179.954 59.7786 174.471 62.9199 168.176 64.0647C161.882 65.2095 155.289 64.2646 149.844 61.437Z" fill="#246DFF"/>
<path d="M166.506 68.1848C166.419 68.1852 166.335 68.1589 166.269 68.1111C166.204 68.0633 166.163 67.9974 166.155 67.9262C166.142 67.849 166.168 67.7711 166.226 67.7094C166.284 67.6477 166.369 67.6073 166.463 67.597C166.93 67.55 167.397 67.4912 167.899 67.4265C167.946 67.4196 167.995 67.4203 168.042 67.4287C168.088 67.437 168.133 67.4528 168.172 67.4752C168.211 67.4976 168.245 67.5261 168.271 67.5591C168.297 67.5921 168.314 67.629 168.323 67.6676C168.331 67.7062 168.331 67.7457 168.32 67.7841C168.31 67.8224 168.291 67.8587 168.263 67.8909C168.236 67.9231 168.201 67.9506 168.161 67.9718C168.121 67.9929 168.076 68.0074 168.029 68.0144C167.547 68.0849 167.074 68.1437 166.593 68.1966L166.506 68.1848ZM155.801 67.6499H155.715C154.539 67.4049 153.384 67.1006 152.254 66.7388C152.167 66.7088 152.097 66.6522 152.059 66.5809C152.022 66.5097 152.02 66.4293 152.053 66.3567C152.07 66.3203 152.095 66.287 152.128 66.2588C152.161 66.2307 152.2 66.2082 152.243 66.1929C152.287 66.1775 152.334 66.1695 152.382 66.1694C152.429 66.1692 152.476 66.177 152.52 66.1921C153.619 66.5445 154.744 66.8429 155.887 67.0856C155.982 67.095 156.069 67.1349 156.128 67.1966C156.188 67.2584 156.215 67.3368 156.203 67.4148C156.192 67.4927 156.143 67.5638 156.067 67.6123C155.992 67.6608 155.896 67.6828 155.801 67.6734V67.6499ZM174.742 66.2685C174.673 66.2683 174.605 66.2515 174.548 66.2202C174.49 66.1888 174.446 66.1443 174.419 66.0922C174.38 66.0212 174.377 65.9406 174.411 65.8678C174.444 65.7951 174.512 65.7363 174.598 65.7042C177.83 64.5015 180.753 62.808 183.214 60.7136C183.246 60.6824 183.285 60.6569 183.329 60.6386C183.373 60.6203 183.421 60.6096 183.47 60.6072C183.519 60.6049 183.569 60.6109 183.615 60.6248C183.662 60.6388 183.704 60.6605 183.74 60.6884C183.775 60.7164 183.803 60.7501 183.822 60.7874C183.841 60.8247 183.851 60.8649 183.85 60.9053C183.849 60.9457 183.838 60.9856 183.818 61.0224C183.797 61.0592 183.768 61.0921 183.731 61.1192C181.205 63.2713 178.2 65.009 174.878 66.2391C174.842 66.2538 174.803 66.2637 174.763 66.2685H174.742ZM150.416 66.0334C150.364 66.0444 150.31 66.0444 150.258 66.0334C149.245 65.6297 148.26 65.1803 147.307 64.6873C145.192 63.5837 143.261 62.2598 141.563 60.7489C141.524 60.7221 141.492 60.6887 141.469 60.6509C141.447 60.6132 141.435 60.5719 141.433 60.53C141.432 60.4881 141.442 60.4464 141.462 60.4078C141.482 60.3692 141.512 60.3345 141.55 60.3062C141.587 60.2778 141.632 60.2564 141.681 60.2434C141.73 60.2303 141.781 60.226 141.832 60.2306C141.883 60.2352 141.932 60.2487 141.976 60.2702C142.02 60.2916 142.058 60.3206 142.087 60.355C143.749 61.8252 145.637 63.1134 147.702 64.1876C148.626 64.674 149.585 65.1137 150.574 65.5044C150.616 65.5213 150.654 65.5449 150.686 65.5739C150.717 65.6029 150.741 65.6366 150.756 65.6732C150.772 65.7098 150.778 65.7485 150.775 65.7871C150.772 65.8257 150.76 65.8635 150.739 65.8982C150.708 65.9404 150.663 65.9751 150.61 65.9988C150.557 66.0225 150.498 66.0345 150.438 66.0334H150.416ZM184.923 59.8965C184.839 59.8963 184.757 59.8713 184.693 59.826C184.62 59.7766 184.574 59.7057 184.565 59.6287C184.555 59.5516 184.584 59.4747 184.643 59.4145C185.397 58.6661 186.095 57.8809 186.732 57.0632L186.962 56.7634C186.986 56.7303 187.017 56.7013 187.055 56.6783C187.092 56.6553 187.135 56.6386 187.181 56.6293C187.226 56.62 187.273 56.6182 187.32 56.6241C187.366 56.6299 187.411 56.6433 187.45 56.6635C187.531 56.7048 187.589 56.7703 187.612 56.846C187.635 56.9217 187.621 57.0017 187.572 57.0691L187.336 57.3747C186.678 58.2132 185.959 59.0181 185.182 59.7848C185.123 59.8457 185.038 59.8857 184.945 59.8965H184.923ZM137.664 56.0404C137.6 56.0412 137.536 56.0273 137.48 56.0003C137.424 55.9734 137.379 55.9343 137.348 55.8875C137.119 55.5348 136.896 55.1821 136.695 54.8236C136.674 54.7888 136.662 54.7511 136.659 54.7125C136.656 54.6739 136.662 54.6352 136.678 54.5986C136.693 54.562 136.717 54.5282 136.748 54.4993C136.78 54.4703 136.818 54.4467 136.86 54.4297C136.947 54.3973 137.046 54.3939 137.136 54.4202C137.226 54.4466 137.299 54.5006 137.341 54.5708C137.542 54.9235 137.758 55.2644 137.98 55.6054C138.003 55.6393 138.017 55.6766 138.022 55.7151C138.027 55.7536 138.023 55.7925 138.01 55.8297C137.997 55.8668 137.974 55.9014 137.945 55.9315C137.915 55.9616 137.878 55.9867 137.837 56.0051C137.79 56.0253 137.739 56.0373 137.686 56.0404H137.664ZM191.098 49.057H191.04C190.947 49.0427 190.864 48.999 190.809 48.9354C190.754 48.8717 190.731 48.7931 190.746 48.7161C190.832 48.334 190.897 47.9519 190.961 47.5404C190.967 47.5018 190.982 47.4645 191.005 47.4306C191.029 47.3967 191.06 47.3669 191.097 47.3429C191.134 47.3189 191.177 47.3011 191.223 47.2907C191.269 47.2802 191.316 47.2771 191.364 47.2818C191.411 47.2864 191.456 47.2986 191.498 47.3176C191.539 47.3367 191.575 47.3622 191.605 47.3928C191.634 47.4234 191.656 47.4584 191.669 47.4958C191.681 47.5332 191.685 47.5724 191.679 47.611C191.622 48.0048 191.543 48.3986 191.464 48.7866C191.455 48.8609 191.413 48.9298 191.345 48.9798C191.277 49.0299 191.189 49.0574 191.098 49.057ZM134.333 46.5411C134.241 46.5413 134.153 46.5127 134.086 46.4614C134.02 46.41 133.979 46.3397 133.974 46.2648C133.931 45.7299 133.909 45.1832 133.909 44.6424C133.909 44.1957 133.909 43.7431 133.952 43.2904C133.961 43.2136 134.006 43.1423 134.076 43.0911C134.147 43.0398 134.238 43.0123 134.333 43.0142C134.38 43.0164 134.426 43.0263 134.469 43.0432C134.511 43.06 134.549 43.0836 134.581 43.1126C134.612 43.1415 134.636 43.1752 134.651 43.2118C134.667 43.2484 134.673 43.2871 134.67 43.3257C134.67 43.7666 134.627 44.2016 134.627 44.6424C134.627 45.0833 134.627 45.7005 134.692 46.2237C134.696 46.2628 134.69 46.3021 134.675 46.3394C134.66 46.3766 134.636 46.4111 134.605 46.4406C134.573 46.4702 134.535 46.4943 134.492 46.5116C134.449 46.5289 134.402 46.5389 134.354 46.5411H134.333ZM191.306 42.0031C191.219 42.0022 191.136 41.9755 191.071 41.9279C191.006 41.8803 190.965 41.8151 190.954 41.7445C190.508 38.8589 189.405 36.0674 187.702 33.5149C187.678 33.4812 187.663 33.4438 187.657 33.4051C187.652 33.3665 187.656 33.3273 187.669 33.2899C187.683 33.2525 187.705 33.2178 187.735 33.1878C187.766 33.1577 187.803 33.133 187.845 33.1152C187.886 33.0967 187.931 33.0851 187.978 33.081C188.024 33.0769 188.071 33.0804 188.116 33.0914C188.161 33.1023 188.202 33.1204 188.239 33.1447C188.275 33.169 188.305 33.1989 188.326 33.2328C190.092 35.8468 191.237 38.711 191.701 41.6739C191.707 41.7118 191.704 41.7503 191.691 41.7871C191.679 41.8239 191.658 41.8584 191.629 41.8885C191.601 41.9186 191.565 41.9437 191.524 41.9623C191.483 41.981 191.439 41.9929 191.392 41.9972L191.306 42.0031ZM134.519 41.8209H134.469C134.375 41.8106 134.29 41.7702 134.232 41.7085C134.174 41.6468 134.148 41.5688 134.16 41.4917C134.641 38.5337 135.804 35.6773 137.585 33.074C137.632 33.0063 137.71 32.9565 137.801 32.9356C137.893 32.9147 137.991 32.9243 138.074 32.9624C138.115 32.9808 138.152 33.0058 138.182 33.0359C138.211 33.066 138.234 33.1006 138.247 33.1378C138.26 33.1749 138.264 33.2139 138.259 33.2524C138.254 33.2908 138.24 33.3281 138.217 33.3621C136.472 35.906 135.337 38.6991 134.871 41.5916C134.853 41.6569 134.809 41.7152 134.745 41.7569C134.681 41.7986 134.601 41.8212 134.519 41.8209ZM186.933 32.1453C186.874 32.1453 186.816 32.1336 186.763 32.1111C186.711 32.0885 186.666 32.0559 186.632 32.016C185.989 31.1967 185.284 30.4113 184.521 29.6647C184.455 29.6087 184.418 29.5339 184.418 29.456C184.418 29.3781 184.455 29.3032 184.521 29.2473C184.595 29.1975 184.689 29.1734 184.785 29.18C184.88 29.1866 184.968 29.2234 185.031 29.2826C185.81 30.0401 186.529 30.8372 187.185 31.6691C187.236 31.7346 187.254 31.8141 187.233 31.8902C187.213 31.9662 187.157 32.0326 187.077 32.0747C187.032 32.111 186.974 32.1355 186.912 32.1453H186.933ZM142.159 28.7829C142.066 28.7822 141.976 28.7528 141.908 28.7006C141.874 28.6733 141.847 28.6408 141.829 28.605C141.811 28.5692 141.802 28.5307 141.802 28.4919C141.802 28.4531 141.811 28.4147 141.829 28.3789C141.847 28.3431 141.874 28.3106 141.908 28.2833C142.245 27.9952 142.59 27.6954 142.934 27.4427C142.967 27.4126 143.008 27.3885 143.053 27.3717C143.098 27.355 143.146 27.346 143.196 27.3453C143.245 27.3447 143.294 27.3524 143.34 27.368C143.385 27.3836 143.426 27.4067 143.461 27.4359C143.495 27.465 143.521 27.4997 143.538 27.5376C143.555 27.5756 143.563 27.616 143.56 27.6564C143.557 27.6967 143.544 27.7362 143.522 27.7722C143.499 27.8083 143.468 27.8402 143.43 27.8659C143.092 28.1304 142.755 28.4067 142.432 28.6889C142.397 28.7189 142.354 28.7428 142.307 28.759C142.26 28.7752 142.21 28.7833 142.159 28.7829ZM176.458 24.2802C176.4 24.2805 176.343 24.2683 176.293 24.2449C175.876 24.0568 175.453 23.8805 175.029 23.7159C174.986 23.7001 174.948 23.6774 174.916 23.6492C174.884 23.621 174.859 23.5878 174.843 23.5517C174.827 23.5155 174.82 23.4771 174.822 23.4386C174.824 23.4002 174.836 23.3626 174.857 23.3279C174.877 23.2926 174.905 23.2609 174.94 23.2347C174.975 23.2084 175.016 23.1882 175.061 23.175C175.106 23.1619 175.153 23.1562 175.201 23.1582C175.248 23.1602 175.295 23.17 175.338 23.1868C175.769 23.3573 176.207 23.5336 176.63 23.7276C176.672 23.7449 176.709 23.769 176.74 23.7985C176.77 23.828 176.792 23.8622 176.806 23.8991C176.819 23.936 176.823 23.9748 176.818 24.013C176.812 24.0513 176.797 24.0882 176.774 24.1215C176.743 24.1707 176.695 24.2118 176.637 24.2399C176.578 24.268 176.511 24.2819 176.444 24.2802H176.458ZM152.154 23.1927C152.082 23.194 152.012 23.1772 151.953 23.1446C151.894 23.112 151.849 23.0651 151.823 23.0105C151.789 22.9386 151.791 22.8588 151.827 22.7877C151.863 22.7165 151.931 22.6595 152.017 22.6284C153.141 22.257 154.292 21.9429 155.464 21.6879C155.557 21.6681 155.656 21.6792 155.739 21.7188C155.823 21.7584 155.883 21.8234 155.909 21.8995C155.921 21.9369 155.923 21.9759 155.917 22.0142C155.91 22.0525 155.894 22.0894 155.87 22.1227C155.846 22.156 155.815 22.1851 155.777 22.2083C155.739 22.2316 155.696 22.2485 155.65 22.2581C154.507 22.5101 153.384 22.8223 152.29 23.1927C152.245 23.1983 152.199 23.1983 152.154 23.1927ZM168.366 21.9054H168.294C164.802 21.3646 161.217 21.3646 157.725 21.9054C157.632 21.9191 157.536 21.9021 157.458 21.858C157.38 21.814 157.326 21.7465 157.309 21.6702C157.292 21.5932 157.312 21.5137 157.366 21.4489C157.42 21.3841 157.502 21.3391 157.596 21.3234C161.176 20.7708 164.851 20.7708 168.431 21.3234C168.524 21.3391 168.607 21.3841 168.661 21.4489C168.714 21.5137 168.735 21.5932 168.718 21.6702C168.703 21.7377 168.659 21.7987 168.595 21.8427C168.531 21.8868 168.45 21.911 168.366 21.9112V21.9054Z" fill="#246DFF"/>
<path opacity="0.8" d="M149.844 61.437C145.785 59.3222 142.583 56.2695 140.643 52.6648C138.703 49.0601 138.112 45.0654 138.946 41.1859C139.779 37.3064 141.999 33.7163 145.324 30.8697C148.65 28.023 152.932 26.0477 157.629 25.1934C162.325 24.3392 167.226 24.6445 171.711 26.0706C176.196 27.4967 180.064 29.9796 182.825 33.2054C185.586 36.4312 187.117 40.2549 187.224 44.1929C187.331 48.131 186.009 52.0066 183.425 55.3295C179.954 59.7786 174.471 62.9199 168.176 64.0647C161.882 65.2095 155.289 64.2646 149.844 61.437Z" fill="white"/>
<path d="M245.194 40.2399C245.099 40.2399 245.007 40.209 244.94 40.1538C244.873 40.0987 244.835 40.024 244.835 39.946C244.835 39.8681 244.873 39.7933 244.94 39.7382C245.007 39.6831 245.099 39.6521 245.194 39.6521C245.653 39.6521 246.127 39.6109 246.594 39.5639C246.641 39.559 246.688 39.5619 246.734 39.5723C246.779 39.5828 246.822 39.6006 246.858 39.6247C246.895 39.6488 246.926 39.6788 246.948 39.7128C246.971 39.7468 246.985 39.7841 246.989 39.8226C246.995 39.8604 246.992 39.8989 246.979 39.9357C246.967 39.9726 246.946 40.007 246.917 40.0371C246.889 40.0672 246.853 40.0923 246.812 40.111C246.771 40.1297 246.727 40.1415 246.68 40.1459C246.192 40.1929 245.697 40.2282 245.244 40.2399H245.194ZM253.336 38.2002C253.259 38.1988 253.185 38.1772 253.124 38.1387C253.064 38.1002 253.019 38.0468 252.999 37.9863C252.978 37.9257 252.981 37.8613 253.008 37.8025C253.035 37.7436 253.085 37.6935 253.149 37.6594C256.144 36.1122 258.433 33.8005 259.662 31.0816C259.696 31.0104 259.763 30.953 259.848 30.9215C259.933 30.89 260.03 30.8869 260.118 30.913C260.206 30.939 260.278 30.992 260.319 31.0609C260.359 31.1297 260.366 31.2088 260.337 31.2815C259.052 34.1238 256.66 36.5408 253.53 38.159C253.473 38.1911 253.405 38.2094 253.336 38.2119V38.2002ZM235.085 37.7123C235.009 37.7132 234.935 37.6924 234.876 37.6535C233.882 37.0689 232.972 36.3946 232.162 35.6431C232.128 35.6167 232.101 35.5849 232.082 35.5495C232.063 35.5141 232.053 35.476 232.053 35.4374C232.053 35.3988 232.063 35.3607 232.082 35.3253C232.101 35.2899 232.128 35.258 232.162 35.2317C232.196 35.2041 232.235 35.1822 232.279 35.1673C232.323 35.1524 232.37 35.1447 232.417 35.1447C232.465 35.1447 232.511 35.1524 232.555 35.1673C232.599 35.1822 232.639 35.2041 232.672 35.2317C233.45 35.948 234.319 36.5944 235.264 37.1597C235.324 37.1964 235.368 37.2475 235.391 37.3058C235.413 37.3641 235.413 37.4268 235.39 37.485C235.367 37.5433 235.323 37.5942 235.263 37.6308C235.203 37.6673 235.131 37.6876 235.056 37.6888L235.085 37.7123ZM231.107 34.3617C231.048 34.3623 230.991 34.3508 230.939 34.3282C230.888 34.3055 230.844 34.2726 230.812 34.2323C228.941 31.9785 227.94 29.316 227.94 26.5906C227.94 26.2967 227.94 26.0028 227.976 25.703C227.984 25.6256 228.027 25.5535 228.098 25.502C228.169 25.4504 228.262 25.4235 228.357 25.4267C228.404 25.429 228.45 25.4388 228.493 25.4557C228.535 25.4726 228.573 25.4962 228.605 25.5251C228.636 25.5541 228.66 25.5878 228.675 25.6244C228.691 25.661 228.697 25.6997 228.694 25.7383C228.694 26.0204 228.658 26.3261 228.658 26.5906C228.653 29.1995 229.606 31.7495 231.394 33.909C231.446 33.9748 231.465 34.0547 231.446 34.1316C231.428 34.2085 231.373 34.2763 231.293 34.3205C231.238 34.3492 231.173 34.3635 231.107 34.3617ZM260.631 29.7943H260.552C260.506 29.7859 260.462 29.7702 260.423 29.7479C260.384 29.7256 260.351 29.6973 260.326 29.6645C260.3 29.6317 260.283 29.5951 260.275 29.5568C260.267 29.5186 260.269 29.4794 260.279 29.4416C260.532 28.5054 260.66 27.5494 260.66 26.5906C260.662 26.5131 260.7 26.4393 260.767 26.3845C260.834 26.3297 260.924 26.2982 261.019 26.2967C261.114 26.2967 261.205 26.3277 261.273 26.3828C261.34 26.4379 261.378 26.5127 261.378 26.5906C261.38 27.5929 261.248 28.5923 260.983 29.5709C260.963 29.6351 260.918 29.6921 260.854 29.7326C260.79 29.7732 260.712 29.7949 260.631 29.7943ZM260.021 22.2584C259.946 22.2601 259.873 22.2422 259.813 22.2072C259.752 22.1723 259.706 22.1222 259.683 22.0644C259.518 21.7058 259.339 21.3531 259.138 21.0063C259.117 20.9716 259.105 20.934 259.103 20.8956C259.101 20.8571 259.108 20.8187 259.124 20.7825C259.14 20.7464 259.164 20.7132 259.196 20.685C259.228 20.6568 259.267 20.6341 259.31 20.6183C259.352 20.6013 259.398 20.5912 259.446 20.5888C259.493 20.5864 259.54 20.5916 259.585 20.6041C259.629 20.6167 259.671 20.6364 259.706 20.662C259.741 20.6876 259.77 20.7187 259.791 20.7535C259.999 21.118 260.186 21.4883 260.358 21.8645C260.39 21.9378 260.386 22.0186 260.346 22.0891C260.305 22.1597 260.232 22.2142 260.143 22.2407L260.021 22.2584ZM230.374 20.4126C230.314 20.4121 230.255 20.4 230.202 20.3773C230.16 20.3589 230.124 20.3339 230.094 20.3036C230.065 20.2734 230.043 20.2385 230.03 20.2012C230.017 20.1639 230.014 20.1248 230.02 20.0864C230.026 20.048 230.042 20.011 230.066 19.9776C230.295 19.6308 230.554 19.284 230.827 18.9548C230.881 18.8899 230.964 18.845 231.058 18.8296C231.152 18.8142 231.249 18.8296 231.329 18.8725C231.369 18.8943 231.402 18.9223 231.429 18.9549C231.455 18.9875 231.472 19.024 231.481 19.0622C231.49 19.1005 231.489 19.1398 231.479 19.1779C231.469 19.216 231.45 19.252 231.423 19.284C231.164 19.6014 230.92 19.9306 230.705 20.2597C230.671 20.3124 230.619 20.3553 230.555 20.3826C230.49 20.41 230.418 20.4204 230.346 20.4126H230.374ZM255.095 16.5741C255.011 16.5739 254.929 16.5489 254.865 16.5035C252.141 14.6494 248.736 13.596 245.194 13.5115C245.145 13.5125 245.096 13.5049 245.05 13.4894C245.005 13.4738 244.964 13.4506 244.93 13.4212C244.896 13.3918 244.87 13.357 244.854 13.3188C244.837 13.2807 244.831 13.2402 244.835 13.2C244.834 13.1609 244.843 13.1221 244.861 13.0859C244.879 13.0498 244.906 13.0171 244.941 12.9901C244.975 12.963 245.016 12.9421 245.061 12.9286C245.106 12.9152 245.154 12.9095 245.201 12.9119C248.904 12.9966 252.465 14.098 255.311 16.0392C255.383 16.0904 255.428 16.1627 255.436 16.2407C255.444 16.3186 255.414 16.3961 255.354 16.4565C255.321 16.4934 255.277 16.5232 255.227 16.5437C255.177 16.5641 255.122 16.5745 255.066 16.5741H255.095ZM239.522 14.1816C239.427 14.1941 239.329 14.1751 239.251 14.1288C239.173 14.0825 239.121 14.0127 239.105 13.9347C239.09 13.8568 239.113 13.7771 239.17 13.7131C239.226 13.6492 239.312 13.6063 239.407 13.5938C240.573 13.2809 241.776 13.072 242.997 12.9707C243.044 12.9669 243.092 12.9706 243.137 12.9818C243.182 12.993 243.225 13.0115 243.261 13.036C243.298 13.0606 243.328 13.0908 243.351 13.125C243.373 13.1592 243.387 13.1966 243.392 13.2352C243.396 13.2738 243.392 13.3128 243.378 13.3499C243.365 13.3871 243.342 13.4217 243.312 13.4517C243.282 13.4817 243.245 13.5066 243.203 13.5249C243.162 13.5433 243.116 13.5547 243.069 13.5585C241.904 13.6507 240.756 13.8478 239.644 14.1464C239.606 14.1647 239.565 14.1767 239.522 14.1816Z" fill="#246DFF"/>
<path d="M254.017 34.254C259.191 30.0187 259.191 23.1517 254.017 18.9164C248.844 14.681 240.456 14.681 235.283 18.9164C230.11 23.1517 230.11 30.0187 235.283 34.254C240.456 38.4894 248.844 38.4894 254.017 34.254Z" fill="#246DFF"/>
<path opacity="0.8" d="M254.017 34.254C259.191 30.0187 259.191 23.1517 254.017 18.9164C248.844 14.681 240.456 14.681 235.283 18.9164C230.11 23.1517 230.11 30.0187 235.283 34.254C240.456 38.4894 248.844 38.4894 254.017 34.254Z" fill="white"/>
<path d="M244.657 20.7536C245.712 20.751 246.739 21.0355 247.575 21.5623C248.411 22.0892 249.01 22.8285 249.277 23.6643C249.544 24.5 249.464 25.3847 249.051 26.1793C248.637 26.974 247.912 27.6335 246.991 28.0544C246.889 28.102 246.803 28.1692 246.741 28.2501C246.678 28.3311 246.641 28.4233 246.632 28.5188H242.683C242.673 28.4227 242.634 28.3301 242.57 28.2492C242.507 28.1682 242.419 28.1013 242.316 28.0544C241.4 27.6302 240.681 26.9697 240.271 26.1758C239.862 25.382 239.784 24.4994 240.052 23.6658C240.319 22.8323 240.916 22.0945 241.749 21.5677C242.582 21.0409 243.604 20.7547 244.657 20.7536ZM244.657 20.1658C243.446 20.1672 242.27 20.4967 241.311 21.1029C240.353 21.7091 239.667 22.5578 239.359 23.5168C239.052 24.4758 239.141 25.4911 239.612 26.4044C240.083 27.3177 240.911 28.0777 241.965 28.5658L242.008 29.1066H247.299L247.342 28.5658C248.402 28.081 249.234 27.322 249.71 26.4079C250.185 25.4939 250.276 24.4764 249.969 23.5153C249.662 22.5542 248.974 21.7037 248.012 21.0975C247.051 20.4913 245.871 20.1636 244.657 20.1658Z" fill="#246DFF"/>
<path d="M247.141 29.4182H242.165C241.975 29.4182 241.82 29.5447 241.82 29.7008V29.8185C241.82 29.9746 241.975 30.1011 242.165 30.1011H247.141C247.331 30.1011 247.485 29.9746 247.485 29.8185V29.7008C247.485 29.5447 247.331 29.4182 247.141 29.4182Z" fill="#246DFF"/>
<path d="M246.974 30.3525H242.329C242.139 30.3525 241.984 30.4791 241.984 30.6351V30.7529C241.984 30.9089 242.139 31.0354 242.329 31.0354H246.974C247.165 31.0354 247.319 30.9089 247.319 30.7529V30.6351C247.319 30.4791 247.165 30.3525 246.974 30.3525Z" fill="#246DFF"/>
<path d="M246.768 31.2927H242.539C242.349 31.2927 242.194 31.4192 242.194 31.5753V31.693C242.194 31.8491 242.349 31.9756 242.539 31.9756H246.768C246.958 31.9756 247.113 31.8491 247.113 31.693V31.5753C247.113 31.4192 246.958 31.2927 246.768 31.2927Z" fill="#246DFF"/>
<path d="M242.997 32.2744C243.176 32.5004 243.422 32.686 243.711 32.8146C244 32.9431 244.323 33.0104 244.652 33.0104C244.981 33.0104 245.304 32.9431 245.593 32.8146C245.882 32.686 246.128 32.5004 246.307 32.2744H242.997Z" fill="#246DFF"/>
<path d="M245.554 29.1122C245.53 29.1124 245.507 29.1084 245.485 29.1005C245.464 29.0926 245.444 29.0811 245.429 29.0666C245.413 29.0521 245.401 29.035 245.394 29.0165C245.388 28.998 245.386 28.9785 245.389 28.9594C245.389 28.8653 245.561 26.8079 246.236 25.8204H245.863C245.827 25.82 245.792 25.8108 245.762 25.7941C245.733 25.7773 245.71 25.7537 245.697 25.7263L245.597 25.5323L245.274 26.1966C245.261 26.224 245.238 26.2476 245.209 26.2643C245.179 26.2811 245.145 26.2902 245.109 26.2906C245.073 26.2895 245.039 26.28 245.009 26.2634C244.98 26.2467 244.957 26.2235 244.944 26.1966L244.628 25.55L244.319 26.1966C244.302 26.221 244.277 26.2414 244.248 26.2555C244.218 26.2697 244.184 26.2771 244.15 26.2771C244.116 26.2771 244.082 26.2697 244.052 26.2555C244.023 26.2414 243.998 26.221 243.981 26.1966L243.687 25.5441L243.594 25.7263C243.581 25.7537 243.558 25.7773 243.529 25.7941C243.499 25.8108 243.464 25.82 243.429 25.8204H243.062C243.73 26.8079 243.902 28.8653 243.91 28.9594C243.912 28.9788 243.909 28.9985 243.901 29.017C243.893 29.0355 243.881 29.0524 243.864 29.0668C243.848 29.0812 243.829 29.0926 243.807 29.1004C243.785 29.1083 243.761 29.1123 243.737 29.1122C243.714 29.1147 243.69 29.1131 243.667 29.1074C243.645 29.1018 243.624 29.0922 243.606 29.0794C243.589 29.0666 243.574 29.0508 243.565 29.0332C243.555 29.0155 243.55 28.9963 243.551 28.977C243.551 28.977 243.35 26.5375 242.588 25.7616C242.57 25.7391 242.56 25.7124 242.56 25.6852C242.56 25.6579 242.57 25.6313 242.588 25.6088C242.602 25.584 242.625 25.5631 242.653 25.5485C242.681 25.5339 242.713 25.5263 242.746 25.5265H243.328L243.543 25.0915C243.557 25.0647 243.58 25.0419 243.609 25.0261C243.639 25.0104 243.673 25.0024 243.709 25.0033C243.744 25.0032 243.778 25.0115 243.807 25.0272C243.837 25.0428 243.86 25.0652 243.874 25.0915L244.19 25.744L244.498 25.0915C244.512 25.0652 244.535 25.0428 244.565 25.0272C244.594 25.0115 244.628 25.0032 244.664 25.0033C244.7 25.0028 244.735 25.0109 244.766 25.0265C244.796 25.0422 244.821 25.0647 244.836 25.0915L245.145 25.744L245.46 25.0915C245.472 25.0652 245.494 25.0426 245.522 25.0268C245.551 25.011 245.584 25.0028 245.618 25.0033C245.655 25.0011 245.691 25.0085 245.722 25.0244C245.753 25.0402 245.777 25.0637 245.791 25.0915L246.021 25.5265H246.602C246.635 25.5265 246.668 25.5341 246.696 25.5484C246.725 25.5628 246.748 25.5833 246.763 25.6077C246.778 25.6321 246.784 25.6594 246.781 25.6866C246.778 25.7138 246.766 25.7398 246.746 25.7616C245.977 26.5375 245.784 28.9535 245.784 28.977C245.781 28.9989 245.773 29.0201 245.76 29.0392C245.747 29.0584 245.728 29.0749 245.707 29.0877C245.685 29.1006 245.66 29.1094 245.633 29.1136C245.607 29.1178 245.58 29.1174 245.554 29.1122Z" fill="#246DFF"/>
<path d="M91.1818 115.399C89.9694 115.327 88.7676 115.164 87.5918 114.911C87.5012 114.888 87.4247 114.837 87.3781 114.77C87.3314 114.702 87.318 114.622 87.3405 114.547C87.3657 114.472 87.4259 114.409 87.5079 114.37C87.5899 114.332 87.6871 114.321 87.7785 114.341C88.9134 114.588 90.0747 114.746 91.2465 114.811C91.3424 114.817 91.4315 114.854 91.4946 114.913C91.5578 114.973 91.5899 115.05 91.5839 115.129C91.5804 115.168 91.567 115.207 91.5446 115.242C91.5223 115.278 91.4913 115.309 91.4537 115.334C91.4161 115.36 91.3726 115.379 91.3259 115.39C91.2791 115.401 91.2301 115.404 91.1818 115.399ZM85.5958 114.37H85.4666C82.0288 113.275 79.0411 111.404 76.8506 108.974C76.796 108.91 76.7738 108.832 76.7885 108.755C76.8032 108.679 76.8538 108.609 76.9295 108.563C76.9677 108.54 77.011 108.523 77.0569 108.514C77.1029 108.505 77.1505 108.503 77.1972 108.509C77.2439 108.515 77.2887 108.529 77.329 108.549C77.3693 108.569 77.4044 108.596 77.4321 108.627C79.5315 110.965 82.4004 112.766 85.7035 113.818C85.7987 113.832 85.8832 113.876 85.9384 113.941C85.9936 114.006 86.015 114.087 85.9979 114.165C85.9807 114.243 85.9265 114.312 85.847 114.357C85.7676 114.402 85.6695 114.42 85.5743 114.406L85.5958 114.37ZM101.571 113.571C101.506 113.57 101.442 113.555 101.386 113.527C101.331 113.5 101.285 113.46 101.255 113.412C101.233 113.379 101.219 113.342 101.214 113.304C101.209 113.266 101.213 113.227 101.226 113.191C101.24 113.154 101.262 113.12 101.291 113.09C101.321 113.061 101.358 113.036 101.399 113.018C101.815 112.836 102.225 112.636 102.612 112.431C102.692 112.393 102.787 112.382 102.876 112.4C102.965 112.418 103.043 112.464 103.092 112.527C103.142 112.59 103.16 112.667 103.143 112.741C103.126 112.815 103.075 112.88 103 112.924C102.591 113.142 102.167 113.342 101.736 113.512C101.685 113.546 101.623 113.566 101.557 113.571H101.571ZM107.983 108.956C107.907 108.957 107.834 108.936 107.775 108.898C107.736 108.875 107.703 108.847 107.678 108.814C107.652 108.781 107.635 108.745 107.627 108.707C107.619 108.668 107.62 108.629 107.631 108.591C107.641 108.554 107.661 108.518 107.689 108.486C109.765 106.134 110.98 103.347 111.192 100.451C111.194 100.412 111.206 100.374 111.226 100.338C111.246 100.303 111.275 100.272 111.311 100.246C111.346 100.22 111.388 100.2 111.433 100.188C111.478 100.176 111.526 100.171 111.573 100.174C111.62 100.177 111.666 100.186 111.709 100.203C111.751 100.22 111.789 100.244 111.821 100.273C111.852 100.302 111.876 100.335 111.892 100.372C111.907 100.409 111.913 100.447 111.91 100.486C111.692 103.494 110.432 106.389 108.277 108.833C108.242 108.872 108.195 108.904 108.141 108.926C108.088 108.947 108.028 108.958 107.969 108.956H107.983ZM74.0934 103.801C74.0136 103.802 73.9357 103.781 73.8719 103.742C73.8082 103.703 73.7624 103.647 73.7416 103.584L73.6698 103.349C73.5765 103.037 73.4975 102.726 73.4257 102.414C73.4086 102.336 73.4299 102.256 73.4851 102.191C73.5404 102.126 73.6249 102.081 73.7201 102.067C73.8153 102.053 73.9134 102.071 73.9929 102.116C74.0723 102.161 74.1266 102.23 74.1437 102.308C74.2155 102.606 74.2945 102.906 74.3806 103.208L74.4524 103.437C74.4767 103.512 74.4638 103.591 74.4168 103.658C74.3697 103.725 74.2923 103.775 74.2011 103.795L74.0934 103.801ZM111.544 99.0222C111.453 99.0224 111.365 98.9938 111.298 98.9425C111.231 98.8911 111.191 98.8208 111.185 98.7459C111.118 97.7844 110.943 96.83 110.661 95.895C110.168 94.2441 109.34 92.6725 108.213 91.2453C108.167 91.1799 108.154 91.1027 108.176 91.0296C108.198 90.9566 108.253 90.8931 108.33 90.8524C108.408 90.8117 108.501 90.7969 108.592 90.8109C108.682 90.8249 108.762 90.8668 108.816 90.9279C110.651 93.2591 111.713 95.9414 111.896 98.7107C111.899 98.7493 111.893 98.788 111.877 98.8246C111.862 98.8611 111.838 98.8949 111.806 98.9238C111.775 98.9527 111.737 98.9764 111.695 98.9932C111.652 99.0101 111.606 99.02 111.559 99.0222H111.544ZM74.833 94.0257C74.7881 94.0345 74.7414 94.0345 74.6966 94.0257C74.6527 94.0115 74.6127 93.9903 74.5788 93.9633C74.545 93.9364 74.5179 93.9043 74.4993 93.8688C74.4806 93.8333 74.4706 93.7952 74.47 93.7565C74.4694 93.7179 74.478 93.6795 74.4955 93.6436C74.9531 92.7189 75.5156 91.8313 76.1756 90.9925C76.1998 90.9579 76.2323 90.9276 76.2712 90.9035C76.3101 90.8795 76.3546 90.8622 76.4019 90.8527C76.4493 90.8432 76.4985 90.8417 76.5466 90.8483C76.5947 90.8548 76.6406 90.8693 76.6816 90.8909C76.7226 90.9125 76.7578 90.9407 76.7851 90.9738C76.8123 91.0069 76.8311 91.0441 76.8402 91.0833C76.8493 91.1225 76.8485 91.1629 76.8379 91.2018C76.8274 91.2408 76.8072 91.2776 76.7788 91.31C76.1432 92.1188 75.6023 92.9749 75.1633 93.867C75.1278 93.9115 75.0785 93.9474 75.0205 93.9712C74.9624 93.9949 74.8977 94.0056 74.833 94.0022V94.0257ZM77.705 89.9932C77.6221 89.9916 77.5418 89.969 77.4752 89.9286C77.4034 89.8774 77.3582 89.8056 77.3489 89.7281C77.3395 89.6505 77.3667 89.5729 77.425 89.5112C79.7513 87.1753 82.8419 85.43 86.3353 84.4794C86.4258 84.4553 86.5242 84.4616 86.609 84.4969C86.6939 84.5321 86.7581 84.5935 86.7877 84.6675C86.8175 84.7408 86.8108 84.8208 86.7691 84.8901C86.7275 84.9594 86.6542 85.0125 86.5651 85.0379C83.185 85.9453 80.1944 87.6286 77.9491 89.8874C77.8924 89.9325 77.8193 89.9614 77.7409 89.9697L77.705 89.9932ZM107.208 89.958C107.155 89.9584 107.104 89.9491 107.056 89.9308C107.009 89.9125 106.967 89.8856 106.935 89.8521C106.187 89.1102 105.357 88.4255 104.458 87.8065C104.421 87.7826 104.39 87.7528 104.368 87.7189C104.345 87.6851 104.331 87.6479 104.326 87.6095C104.321 87.5711 104.326 87.5324 104.34 87.4955C104.354 87.4587 104.377 87.4245 104.407 87.395C104.437 87.3652 104.474 87.3406 104.516 87.3227C104.557 87.3047 104.603 87.2938 104.65 87.2905C104.696 87.2872 104.744 87.2916 104.788 87.3035C104.833 87.3154 104.874 87.3346 104.91 87.3598C105.85 87.996 106.713 88.7047 107.488 89.4759C107.546 89.5376 107.573 89.6152 107.564 89.6928C107.554 89.7704 107.509 89.8421 107.437 89.8933C107.378 89.9207 107.311 89.9349 107.243 89.9344L107.208 89.958ZM94.9513 84.3795H94.9083C94.4416 84.3325 93.9677 84.2913 93.4723 84.2737C93.3777 84.2677 93.2896 84.2318 93.2267 84.1737C93.1637 84.1156 93.1308 84.0397 93.1348 83.9621C93.1375 83.9235 93.1496 83.8857 93.1702 83.8509C93.1908 83.8161 93.2196 83.785 93.255 83.7593C93.2903 83.7336 93.3315 83.7139 93.3762 83.7013C93.4209 83.6887 93.4682 83.6835 93.5153 83.6859C93.9964 83.6859 94.4846 83.7446 94.9513 83.7976C95.0465 83.803 95.1352 83.8392 95.1978 83.8982C95.2604 83.9572 95.2919 84.0341 95.2852 84.112C95.2785 84.19 95.2343 84.2626 95.1623 84.3138C95.0903 84.3651 94.9963 84.3908 94.9011 84.3854L94.9513 84.3795Z" fill="#246DFF"/>
<path d="M92.509 112.189C101.043 112.189 107.96 106.526 107.96 99.5394C107.96 92.553 101.043 86.8894 92.509 86.8894C83.9754 86.8894 77.0576 92.553 77.0576 99.5394C77.0576 106.526 83.9754 112.189 92.509 112.189Z" fill="#246DFF"/>
<path opacity="0.8" d="M92.509 112.189C101.043 112.189 107.96 106.526 107.96 99.5394C107.96 92.553 101.043 86.8894 92.509 86.8894C83.9754 86.8894 77.0576 92.553 77.0576 99.5394C77.0576 106.526 83.9754 112.189 92.509 112.189Z" fill="white"/>
<path d="M78.7854 49.2693C78.6902 49.2787 78.5943 49.2567 78.5189 49.2082C78.4435 49.1597 78.3948 49.0886 78.3833 49.0107C78.3719 48.9327 78.3988 48.8543 78.458 48.7925C78.5173 48.7308 78.604 48.6909 78.6993 48.6815C79.1516 48.5875 79.6039 48.4758 80.0491 48.3523C80.0948 48.3344 80.1447 48.3246 80.1954 48.3236C80.2462 48.3226 80.2966 48.3304 80.3433 48.3465C80.3901 48.3625 80.4321 48.3866 80.4667 48.417C80.5013 48.4473 80.5277 48.4834 80.544 48.5227C80.5604 48.562 80.5664 48.6037 80.5616 48.645C80.5568 48.6864 80.5414 48.7264 80.5163 48.7626C80.4913 48.7987 80.4572 48.83 80.4162 48.8546C80.3753 48.8791 80.3285 48.8962 80.2789 48.9049C79.8193 49.0342 79.3455 49.1518 78.8429 49.2517L78.7854 49.2693ZM68.1662 49.0107H68.0585C66.8979 48.7065 65.7752 48.3128 64.7054 47.835C64.6216 47.7976 64.5594 47.7345 64.5325 47.6595C64.5056 47.5846 64.5161 47.5039 64.5618 47.4353C64.6075 47.3667 64.6847 47.3158 64.7762 47.2937C64.8678 47.2717 64.9663 47.2803 65.0501 47.3177C66.0784 47.7833 67.1577 48.169 68.2739 48.4699C68.3193 48.4813 68.3615 48.4999 68.3981 48.5247C68.4346 48.5496 68.4648 48.5801 68.4868 48.6145C68.5089 48.649 68.5223 48.6867 68.5264 48.7254C68.5306 48.7641 68.5253 48.8032 68.5108 48.8402C68.4808 48.8936 68.4319 48.9383 68.3705 48.9687C68.309 48.9991 68.2379 49.0137 68.1662 49.0107ZM63.0469 46.918C62.9747 46.9185 62.9042 46.8999 62.8458 46.8651C59.8342 45.1303 57.4862 42.731 56.0751 39.9464C56.0389 39.8739 56.0394 39.7926 56.0764 39.7204C56.1134 39.6482 56.184 39.591 56.2725 39.5614C56.3611 39.5318 56.4604 39.5322 56.5486 39.5625C56.6368 39.5928 56.7066 39.6506 56.7428 39.7231C58.0974 42.4041 60.3562 44.7142 63.2551 46.3831C63.3179 46.419 63.3651 46.4704 63.3896 46.5299C63.4142 46.5893 63.4149 46.6536 63.3917 46.7134C63.3684 46.7731 63.3224 46.8253 63.2603 46.8621C63.1983 46.8989 63.1235 46.9185 63.0469 46.918ZM86.3675 46.0481C86.2962 46.0441 86.228 46.0229 86.1716 45.987C86.1151 45.9512 86.073 45.9023 86.0507 45.8468C86.0283 45.7913 86.0267 45.7315 86.0461 45.6752C86.0654 45.6189 86.1048 45.5686 86.1593 45.5308C88.8605 43.6524 90.8528 41.1833 91.9033 38.4122C91.9309 38.3342 91.9952 38.2685 92.082 38.2293C92.1689 38.1902 92.2712 38.1809 92.3664 38.2035C92.4616 38.2261 92.5419 38.2788 92.5897 38.3499C92.6375 38.421 92.6489 38.5047 92.6213 38.5827C91.5256 41.461 89.454 44.0254 86.6475 45.9775C86.6098 46.005 86.5652 46.0256 86.5169 46.0378C86.4686 46.05 86.4176 46.0535 86.3675 46.0481ZM92.7433 37.0778H92.6787C92.585 37.0622 92.5025 37.0171 92.4488 36.9523C92.3951 36.8875 92.3746 36.8081 92.3915 36.731C92.613 35.7876 92.7236 34.829 92.7218 33.8683C92.7237 32.1661 92.3791 30.4755 91.7022 28.8659C91.6688 28.7933 91.6711 28.7129 91.7086 28.6417C91.7461 28.5704 91.8159 28.5138 91.9033 28.4838C91.9928 28.4595 92.0904 28.4649 92.1751 28.499C92.2597 28.5331 92.3246 28.5931 92.3556 28.6661C93.061 30.3376 93.4201 32.0939 93.4183 33.8624C93.4177 34.8603 93.3047 35.856 93.0808 36.8368C93.0662 36.9024 93.0249 36.9619 92.9636 37.0057C92.9023 37.0495 92.8246 37.0749 92.7433 37.0778ZM54.9694 34.4032C54.9225 34.404 54.876 34.3971 54.8325 34.383C54.789 34.3689 54.7494 34.3478 54.7159 34.321C54.6825 34.2942 54.6559 34.2621 54.6378 34.2268C54.6197 34.1915 54.6103 34.1535 54.6104 34.1152V33.8683C54.6104 33.5509 54.6104 33.2335 54.6104 32.9219C54.6177 32.8445 54.6615 32.7724 54.7325 32.7209C54.8035 32.6693 54.8961 32.6424 54.9909 32.6456C55.0384 32.6471 55.085 32.6564 55.128 32.673C55.171 32.6897 55.2094 32.7132 55.241 32.7424C55.2725 32.7715 55.2965 32.8055 55.3115 32.8424C55.3265 32.8794 55.3323 32.9184 55.3284 32.9572C55.3284 33.257 55.3284 33.545 55.3284 33.8683V34.1093C55.3284 34.1873 55.2905 34.262 55.2232 34.3171C55.1559 34.3723 55.0646 34.4032 54.9694 34.4032ZM91.2212 27.4316C91.1539 27.4317 91.0879 27.4164 91.0308 27.3873C90.9737 27.3582 90.9277 27.3165 90.8981 27.267C90.393 26.3985 89.7871 25.5718 89.0887 24.7982C89.0608 24.7669 89.0407 24.7315 89.0296 24.6939C89.0184 24.6563 89.0165 24.6172 89.0238 24.579C89.0311 24.5408 89.0476 24.5041 89.0723 24.4711C89.097 24.4381 89.1294 24.4094 89.1677 24.3867C89.2053 24.364 89.248 24.3477 89.2934 24.3386C89.3387 24.3296 89.3858 24.328 89.432 24.334C89.4781 24.34 89.5223 24.3535 89.5619 24.3737C89.6016 24.3938 89.636 24.4202 89.6631 24.4514C90.3895 25.2541 91.0195 26.1124 91.5443 27.0143C91.565 27.0486 91.5771 27.0859 91.58 27.1241C91.5829 27.1622 91.5764 27.2005 91.5611 27.2366C91.5457 27.2727 91.5217 27.306 91.4904 27.3344C91.4592 27.3628 91.4214 27.3859 91.3791 27.4022C91.3305 27.4231 91.2761 27.4332 91.2212 27.4316ZM58.5594 25.0392C58.4838 25.0397 58.4103 25.0189 58.3511 24.9804C58.3121 24.9582 58.2789 24.9297 58.2536 24.8968C58.2284 24.8638 58.2116 24.8269 58.2042 24.7885C58.1968 24.75 58.199 24.7107 58.2107 24.673C58.2224 24.6353 58.2433 24.5999 58.2722 24.5689C58.9839 23.7589 59.7894 23.0069 60.6775 22.3234C60.7095 22.2906 60.7499 22.2638 60.7957 22.2448C60.8415 22.2258 60.8917 22.2151 60.943 22.2134C60.9944 22.2117 61.0455 22.219 61.0931 22.2348C61.1406 22.2507 61.1835 22.2747 61.2187 22.3053C61.254 22.3358 61.2808 22.3722 61.2974 22.412C61.314 22.4518 61.32 22.494 61.315 22.5359C61.31 22.5777 61.2941 22.6182 61.2683 22.6545C61.2425 22.6909 61.2076 22.7223 61.1657 22.7467C60.3234 23.4113 59.5568 24.1373 58.8753 24.9157C58.8404 24.9571 58.7928 24.9902 58.7374 25.0119C58.682 25.0336 58.6206 25.043 58.5594 25.0392ZM62.5658 21.6886C62.4901 21.6908 62.4155 21.6729 62.3532 21.6376C62.2908 21.6023 62.2441 21.5515 62.2199 21.4927C62.1957 21.4339 62.1953 21.3703 62.2188 21.3113C62.2423 21.2524 62.2885 21.2012 62.3504 21.1654C65.2851 19.3455 68.7965 18.254 72.467 18.0205C72.5142 18.0173 72.5617 18.0218 72.6067 18.0337C72.6518 18.0455 72.6936 18.0646 72.7296 18.0897C72.7656 18.1148 72.7952 18.1456 72.8167 18.1801C72.8382 18.2146 72.8511 18.2523 72.8547 18.2909C72.8608 18.3686 72.8297 18.4451 72.768 18.5044C72.7064 18.5636 72.6191 18.6009 72.5245 18.6084C68.9923 18.8381 65.6129 19.886 62.7812 21.6298C62.7193 21.6683 62.6436 21.689 62.5658 21.6886ZM80.9466 19.6194C80.9038 19.625 80.8602 19.625 80.8174 19.6194C80.3794 19.4784 79.9342 19.349 79.4891 19.2373C79.4438 19.2265 79.4016 19.2085 79.3648 19.1844C79.3281 19.1602 79.2975 19.1304 79.2748 19.0965C79.229 19.0282 79.2183 18.9477 79.2449 18.8729C79.258 18.8353 79.2802 18.8002 79.3104 18.7698C79.3405 18.7395 79.3778 18.7144 79.4202 18.6963C79.4625 18.6781 79.5089 18.6672 79.5565 18.6643C79.6042 18.6613 79.6521 18.6662 79.6973 18.6789C80.1568 18.7906 80.6235 18.9258 81.0758 19.0728C81.164 19.1004 81.2353 19.1554 81.2743 19.2259C81.3132 19.2963 81.3168 19.3764 81.2841 19.449C81.2537 19.5009 81.2058 19.5446 81.146 19.5748C81.0861 19.6051 81.0169 19.6205 80.9466 19.6194Z" fill="#246DFF"/>
<path d="M79.9357 45.5478C87.816 42.8754 91.5582 35.479 88.294 29.0274C85.0299 22.5759 75.9955 19.5122 68.1152 22.1845C60.2349 24.8568 56.4928 32.2532 59.7569 38.7048C63.021 45.1564 72.0554 48.2201 79.9357 45.5478Z" fill="#246DFF"/>
<path opacity="0.8" d="M79.9357 45.5478C87.816 42.8754 91.5582 35.479 88.294 29.0274C85.0299 22.5759 75.9955 19.5122 68.1152 22.1845C60.2349 24.8568 56.4928 32.2532 59.7569 38.7048C63.021 45.1564 72.0554 48.2201 79.9357 45.5478Z" fill="white"/>
<path d="M98.4157 101.374H96.2617C96.2165 101.374 96.1729 101.36 96.1396 101.335C96.1064 101.31 96.0859 101.276 96.0822 101.239L95.9889 100.445C95.3543 100.334 94.7474 100.135 94.1939 99.8574L93.44 100.369C93.4061 100.393 93.3628 100.406 93.3179 100.406C93.2731 100.406 93.2298 100.393 93.1959 100.369L91.6809 99.1285C91.6506 99.1023 91.6337 99.0676 91.6337 99.0315C91.6337 98.9954 91.6506 98.9607 91.6809 98.9345L92.3056 98.3467C91.9689 97.8905 91.7264 97.392 91.5876 96.8712L90.6183 96.8007C90.5738 96.7965 90.5326 96.7793 90.5023 96.7523C90.472 96.7254 90.4546 96.6904 90.4531 96.6537V94.8903C90.4547 94.8543 90.4725 94.82 90.5029 94.794C90.5333 94.768 90.5744 94.752 90.6183 94.7492L91.5876 94.6728C91.7264 94.152 91.9689 93.6535 92.3056 93.1973L91.6809 92.5801C91.6506 92.5539 91.6337 92.5192 91.6337 92.4831C91.6337 92.447 91.6506 92.4123 91.6809 92.3861L93.1959 91.1458C93.2298 91.1218 93.2731 91.1086 93.3179 91.1086C93.3628 91.1086 93.4061 91.1218 93.44 91.1458L94.1939 91.6572C94.7506 91.3849 95.3564 91.1865 95.9889 91.0694L96.0822 90.2758C96.0859 90.2389 96.1064 90.2045 96.1396 90.1794C96.1729 90.1544 96.2165 90.1405 96.2617 90.1406H98.4157C98.461 90.1405 98.5046 90.1544 98.5379 90.1794C98.5711 90.2045 98.5916 90.2389 98.5952 90.2758L98.6886 91.0694C99.3211 91.1865 99.9269 91.3849 100.484 91.6572L101.237 91.1458C101.271 91.1218 101.315 91.1086 101.36 91.1086C101.404 91.1086 101.448 91.1218 101.482 91.1458L102.997 92.3861C103.025 92.4129 103.041 92.4474 103.041 92.4831C103.041 92.5188 103.025 92.5533 102.997 92.5801L102.372 93.1973C102.712 93.6522 102.954 94.1512 103.09 94.6728L104.066 94.7492C104.11 94.7521 104.15 94.7683 104.179 94.7944C104.208 94.8206 104.225 94.8548 104.224 94.8903V96.6537C104.225 96.6898 104.209 96.7248 104.18 96.7519C104.15 96.779 104.11 96.7964 104.066 96.8007L103.09 96.8712C102.954 97.3928 102.712 97.8917 102.372 98.3467L102.997 98.9345C103.025 98.9613 103.041 98.9958 103.041 99.0315C103.041 99.0672 103.025 99.1017 102.997 99.1285L101.482 100.369C101.448 100.393 101.404 100.406 101.36 100.406C101.315 100.406 101.271 100.393 101.237 100.369L100.484 99.8574C99.9301 100.135 99.3232 100.334 98.6886 100.445L98.5952 101.239C98.5916 101.276 98.5711 101.31 98.5379 101.335C98.5046 101.36 98.461 101.374 98.4157 101.374ZM96.4412 101.08H98.2506L98.3439 100.31C98.3474 100.279 98.3624 100.251 98.3868 100.227C98.4113 100.204 98.444 100.188 98.4804 100.181C99.1638 100.064 99.8142 99.8425 100.397 99.5282C100.429 99.51 100.467 99.5002 100.505 99.5002C100.544 99.5002 100.581 99.51 100.613 99.5282L101.331 100.022L102.616 98.9698L102.013 98.3819C101.99 98.3574 101.978 98.3275 101.978 98.2967C101.978 98.2659 101.99 98.236 102.013 98.2115C102.4 97.7353 102.67 97.2023 102.81 96.642C102.817 96.6111 102.837 96.583 102.865 96.5619C102.894 96.5407 102.93 96.5276 102.968 96.5244L103.908 96.4539V94.9667L102.961 94.9079C102.922 94.9047 102.886 94.8916 102.858 94.8704C102.83 94.8493 102.81 94.8212 102.803 94.7903C102.662 94.2303 102.391 93.6976 102.006 93.2208C101.983 93.1963 101.971 93.1664 101.971 93.1356C101.971 93.1048 101.983 93.0749 102.006 93.0504L102.609 92.4625L101.338 91.3809L100.62 91.8747C100.588 91.8929 100.551 91.9027 100.512 91.9027C100.474 91.9027 100.436 91.8929 100.405 91.8747C99.8214 91.5604 99.171 91.3391 98.4875 91.2222C98.4512 91.215 98.4185 91.1987 98.394 91.1755C98.3696 91.1523 98.3546 91.1234 98.3511 91.0929L98.2578 90.3229H96.4484L96.3551 91.0929C96.3524 91.1245 96.3367 91.1545 96.3107 91.178C96.2846 91.2014 96.2497 91.217 96.2115 91.2222C95.5307 91.3402 94.8829 91.5615 94.3016 91.8747C94.2705 91.8938 94.2327 91.9041 94.1939 91.9041C94.1551 91.9041 94.1173 91.8938 94.0862 91.8747L93.3682 91.3809L92.0902 92.4331L92.6933 93.021C92.716 93.0455 92.7283 93.0754 92.7283 93.1062C92.7283 93.137 92.716 93.1669 92.6933 93.1914C92.3124 93.6702 92.0422 94.2022 91.8963 94.7609C91.8899 94.7922 91.8709 94.8208 91.8422 94.8422C91.8136 94.8635 91.777 94.8763 91.7383 94.8785L90.7978 94.949V96.4362L91.7383 96.5068C91.777 96.509 91.8136 96.5218 91.8422 96.5431C91.8709 96.5644 91.8899 96.5931 91.8963 96.6243C92.039 97.1839 92.3094 97.7164 92.6933 98.1938C92.7155 98.2196 92.7275 98.2504 92.7275 98.282C92.7275 98.3136 92.7155 98.3444 92.6933 98.3702L92.0902 98.958L93.3682 100.01L94.0862 99.5164C94.1173 99.4974 94.1551 99.487 94.1939 99.487C94.2327 99.487 94.2705 99.4974 94.3016 99.5164C94.8829 99.8297 95.5307 100.051 96.2115 100.169C96.2497 100.174 96.2846 100.19 96.3107 100.213C96.3367 100.237 96.3524 100.267 96.3551 100.298L96.4412 101.08ZM97.3459 98.2291C96.7364 98.2291 96.1406 98.081 95.6339 97.8037C95.1272 97.5263 94.7324 97.1321 94.4995 96.671C94.2666 96.2099 94.206 95.7025 94.3254 95.2132C94.4449 94.7239 94.7389 94.2745 95.1704 93.9221C95.6019 93.5696 96.1514 93.3299 96.7494 93.2333C97.3474 93.1367 97.9669 93.1874 98.5297 93.3792C99.0924 93.571 99.5729 93.8951 99.9105 94.3106C100.248 94.7261 100.428 95.2142 100.426 95.7132C100.419 96.3779 100.091 97.0133 99.5139 97.4812C98.937 97.949 98.1579 98.2115 97.3459 98.2115V98.2291ZM97.3459 93.4854C96.8077 93.4854 96.2816 93.616 95.8341 93.8608C95.3866 94.1056 95.0378 94.4536 94.8318 94.8606C94.6259 95.2677 94.572 95.7157 94.677 96.1478C94.782 96.58 95.0412 96.977 95.4217 97.2885C95.8023 97.6001 96.2872 97.8123 96.815 97.8983C97.3429 97.9842 97.89 97.9401 98.3873 97.7715C98.8845 97.6029 99.3095 97.3173 99.6085 96.9509C99.9075 96.5846 100.067 96.1538 100.067 95.7132C100.07 95.4192 100.002 95.1276 99.8662 94.8552C99.7307 94.5829 99.5307 94.3352 99.2778 94.1265C99.0248 93.9177 98.7239 93.752 98.3923 93.639C98.0607 93.5259 97.7051 93.4677 97.3459 93.4677V93.4854Z" fill="#246DFF"/>
<path d="M91.8997 109.051H90.2196C90.1748 109.049 90.1321 109.035 90.0991 109.01C90.0662 108.986 90.0452 108.952 90.0401 108.915L89.9755 108.328C89.4906 108.232 89.0277 108.073 88.6041 107.857L88.0369 108.245C88.0029 108.269 87.9596 108.282 87.9148 108.282C87.87 108.282 87.8266 108.269 87.7927 108.245L86.5865 107.252C86.5577 107.225 86.5418 107.191 86.5418 107.155C86.5418 107.119 86.5577 107.085 86.5865 107.058L87.0604 106.588C86.7982 106.243 86.6066 105.866 86.4932 105.471L85.7752 105.412C85.7314 105.408 85.6911 105.39 85.6619 105.363C85.6328 105.336 85.6169 105.301 85.6172 105.265V103.89C85.6186 103.854 85.6353 103.821 85.6643 103.795C85.6932 103.769 85.7326 103.753 85.7752 103.748L86.4932 103.69C86.6078 103.293 86.7993 102.914 87.0604 102.567L86.5865 102.103C86.5572 102.075 86.5411 102.039 86.5411 102.003C86.5411 101.966 86.5572 101.93 86.5865 101.903L87.7712 100.933C87.8051 100.909 87.8484 100.896 87.8933 100.896C87.9381 100.896 87.9814 100.909 88.0153 100.933L88.5825 101.321C89.0064 101.107 89.4694 100.95 89.9539 100.856L90.0185 100.268C90.0237 100.232 90.0446 100.198 90.0776 100.174C90.1105 100.149 90.1533 100.134 90.198 100.133H91.8997C91.9449 100.133 91.9885 100.147 92.0218 100.172C92.0551 100.197 92.0756 100.232 92.0792 100.268L92.151 100.856C92.6336 100.949 93.0944 101.106 93.5152 101.321L94.0896 100.933C94.1223 100.909 94.1645 100.896 94.2081 100.896C94.2517 100.896 94.2938 100.909 94.3265 100.933L95.4897 101.903C95.5205 101.93 95.5376 101.966 95.5376 102.003C95.5376 102.04 95.5205 102.075 95.4897 102.103L95.0158 102.567C95.2791 102.914 95.473 103.293 95.5902 103.69L96.3082 103.748C96.3521 103.751 96.3931 103.767 96.4236 103.793C96.454 103.819 96.4717 103.854 96.4733 103.89V105.265C96.4735 105.302 96.4566 105.338 96.426 105.365C96.3953 105.392 96.3533 105.409 96.3082 105.412L95.5902 105.471C95.4743 105.866 95.2803 106.243 95.0158 106.588L95.4897 107.058C95.52 107.084 95.5369 107.119 95.5369 107.155C95.5369 107.191 95.52 107.226 95.4897 107.252L94.305 108.228C94.2722 108.251 94.2301 108.264 94.1865 108.264C94.1429 108.264 94.1008 108.251 94.0681 108.228L93.4937 107.84C93.0732 108.056 92.6124 108.215 92.1295 108.31L92.0577 108.898C92.0598 108.935 92.0447 108.971 92.0154 109C91.9861 109.028 91.9447 109.046 91.8997 109.051ZM90.3847 108.757H91.7345L91.7992 108.169C91.8041 108.138 91.8205 108.109 91.8462 108.086C91.8718 108.063 91.9056 108.046 91.9428 108.04C92.4736 107.952 92.9785 107.78 93.429 107.534C93.4601 107.515 93.4979 107.505 93.5367 107.505C93.5756 107.505 93.6134 107.515 93.6444 107.534L94.1901 107.904L95.1451 107.123L94.6927 106.676C94.67 106.651 94.6577 106.621 94.6577 106.591C94.6577 106.56 94.67 106.53 94.6927 106.505C94.9891 106.133 95.1985 105.718 95.3102 105.283C95.319 105.253 95.339 105.226 95.3673 105.206C95.3956 105.186 95.4309 105.174 95.4682 105.171L96.1862 105.112V104.007L95.4682 103.954C95.4295 103.952 95.3929 103.939 95.3643 103.918C95.3356 103.896 95.3166 103.868 95.3102 103.837C95.1996 103.403 94.9901 102.99 94.6927 102.62C94.6705 102.594 94.6585 102.563 94.6585 102.532C94.6585 102.5 94.6705 102.469 94.6927 102.443L95.1451 101.997L94.1901 101.215L93.6444 101.585C93.6134 101.604 93.5756 101.615 93.5367 101.615C93.4979 101.615 93.4601 101.604 93.429 101.585C92.9785 101.339 92.4736 101.167 91.9428 101.08C91.906 101.072 91.8728 101.056 91.8473 101.033C91.8217 101.01 91.805 100.981 91.7992 100.95L91.7345 100.363H90.3847L90.3201 100.95C90.3162 100.982 90.3002 101.011 90.2743 101.034C90.2485 101.058 90.2142 101.074 90.1765 101.08C89.6461 101.169 89.1415 101.34 88.6902 101.585C88.6587 101.603 88.6211 101.613 88.5825 101.613C88.544 101.613 88.5063 101.603 88.4748 101.585L87.9292 101.215L86.9742 101.997L87.4265 102.443C87.4488 102.469 87.4608 102.5 87.4608 102.532C87.4608 102.563 87.4488 102.594 87.4265 102.62C87.1292 102.99 86.9197 103.403 86.8091 103.837C86.7992 103.868 86.7782 103.895 86.7487 103.916C86.7192 103.937 86.6827 103.95 86.6439 103.954L85.9259 104.007V105.112L86.6439 105.171C86.6818 105.174 86.7177 105.187 86.7471 105.206C86.7764 105.226 86.798 105.253 86.8091 105.283C86.9175 105.719 87.1271 106.134 87.4265 106.505C87.4493 106.53 87.4616 106.56 87.4616 106.591C87.4616 106.621 87.4493 106.651 87.4265 106.676L86.9742 107.123L87.9292 107.904L88.4748 107.534C88.5063 107.516 88.544 107.506 88.5825 107.506C88.6211 107.506 88.6587 107.516 88.6902 107.534C89.1425 107.777 89.6467 107.949 90.1765 108.04C90.2147 108.045 90.2496 108.06 90.2757 108.084C90.3017 108.107 90.3174 108.137 90.3201 108.169L90.3847 108.757ZM91.0596 106.588C90.574 106.588 90.0992 106.47 89.6954 106.249C89.2916 106.028 88.9768 105.714 88.791 105.347C88.6051 104.979 88.5565 104.575 88.6513 104.185C88.746 103.795 88.9799 103.437 89.3233 103.156C89.6667 102.875 90.1042 102.683 90.5806 102.606C91.0569 102.528 91.5506 102.568 91.9993 102.72C92.448 102.872 92.8315 103.13 93.1014 103.46C93.3712 103.791 93.5152 104.18 93.5152 104.577C93.5152 104.843 93.451 105.106 93.3262 105.351C93.2015 105.596 93.0187 105.818 92.7884 106.005C92.5581 106.192 92.2848 106.34 91.9844 106.44C91.684 106.54 91.3624 106.59 91.0381 106.588H91.0596ZM91.0596 102.867C90.6447 102.867 90.239 102.968 89.8941 103.156C89.5492 103.345 89.2805 103.614 89.122 103.928C88.9635 104.242 88.9224 104.587 89.0039 104.92C89.0854 105.253 89.2858 105.559 89.5797 105.799C89.8736 106.039 90.2479 106.202 90.655 106.267C91.0622 106.333 91.484 106.298 91.8669 106.167C92.2499 106.036 92.5768 105.816 92.8064 105.532C93.0359 105.249 93.1576 104.917 93.1562 104.577C93.1553 104.351 93.0996 104.127 92.9925 103.918C92.8854 103.709 92.7289 103.52 92.532 103.361C92.3351 103.202 92.1018 103.077 91.8454 102.992C91.589 102.907 91.3146 102.864 91.0381 102.867H91.0596Z" fill="#246DFF"/>
<path d="M86.8735 99.8576L87.3402 100.322L88.5033 99.6695L88.1515 99.1464C88.4802 98.8668 88.743 98.54 88.9269 98.1823L89.6449 98.2352L89.9034 97.1007L89.1854 96.9362C89.1722 96.5484 89.0724 96.1659 88.891 95.8075L89.4583 95.4254L88.6613 94.4732L88.0223 94.7612C87.6808 94.4921 87.2816 94.2769 86.8447 94.1263L86.9094 93.5385L85.5236 93.3269L85.3226 93.9147C84.849 93.9256 84.3817 94.0072 83.944 94.1557L83.4773 93.6972L82.3142 94.3438L82.666 94.867C82.3373 95.1466 82.0745 95.4734 81.8905 95.831L81.1725 95.7781L80.9141 96.9126L81.6321 97.0772C81.6453 97.465 81.7451 97.8475 81.9264 98.2059L81.3664 98.5879L82.1562 99.5402L82.7952 99.2522C83.1381 99.5226 83.54 99.738 83.9799 99.887L83.9081 100.475L85.2939 100.686L85.4949 100.099C85.9685 100.088 86.4357 100.006 86.8735 99.8576ZM83.5491 96.7069C83.6183 96.4026 83.7961 96.122 84.0602 95.9006C84.3242 95.6791 84.6626 95.5268 85.0325 95.4629C85.4024 95.399 85.7871 95.4265 86.1379 95.5417C86.4887 95.6569 86.7899 95.8548 87.0033 96.1102C87.2167 96.3657 87.3327 96.6672 87.3366 96.9767C87.3405 97.2861 87.2321 97.5896 87.0253 97.8486C86.8184 98.1076 86.5223 98.3105 86.1745 98.4317C85.8266 98.5528 85.4427 98.5868 85.0713 98.5292C84.5747 98.4521 84.1356 98.2171 83.8503 97.8755C83.565 97.534 83.4567 97.1137 83.5491 96.7069Z" fill="#246DFF"/>
<path d="M83.2845 37.2591L79.6945 26.9839C79.6014 26.7193 79.3847 26.4955 79.0913 26.3608C78.9029 26.2742 78.69 26.2296 78.4739 26.2315C78.3577 26.2318 78.2419 26.2436 78.1292 26.2668L65.5786 29.2059C65.2547 29.2825 64.9809 29.4608 64.8168 29.7019C64.6528 29.943 64.6117 30.2274 64.7026 30.4932L68.2926 40.7625C68.3697 40.9795 68.53 41.1703 68.7498 41.3069C68.9696 41.4435 69.2373 41.5185 69.5132 41.5208C69.6321 41.5191 69.7503 41.5053 69.865 41.4797L82.4085 38.5406C82.7318 38.4652 83.0056 38.2881 83.1697 38.0479C83.3339 37.8078 83.3752 37.5241 83.2845 37.2591ZM69.6424 40.8977C69.5804 40.9036 69.5178 40.9036 69.4558 40.8977H69.384L69.2691 40.8683H69.1973C69.163 40.85 69.1317 40.8283 69.1039 40.8037C69.0891 40.7885 69.0722 40.7747 69.0537 40.7625C69.015 40.7179 68.9858 40.6682 68.9675 40.6156L67.7828 37.2003L67.2443 35.6485L68.8311 35.2781V35.4486C68.8014 35.6616 68.8233 35.8774 68.8957 36.0835C69.0524 36.5125 69.409 36.8738 69.8885 37.0893C70.3679 37.3048 70.9317 37.3573 71.4579 37.2353C71.9842 37.1133 72.4307 36.8267 72.7009 36.4373C72.9712 36.048 73.0435 35.5873 72.9022 35.1547C72.8298 34.9428 72.7106 34.7435 72.5504 34.5669L72.4211 34.4317L73.8571 34.0966L74.532 36.0364C74.6341 35.7558 74.8448 35.5099 75.1323 35.3356C75.4198 35.1614 75.7686 35.0684 76.1263 35.0704C76.4839 35.0724 76.8311 35.1695 77.1156 35.347C77.4001 35.5245 77.6065 35.7728 77.7038 36.0546C77.8011 36.3364 77.7841 36.6364 77.6552 36.9095C77.5263 37.1827 77.2926 37.4142 76.9891 37.5693C76.6857 37.7243 76.329 37.7945 75.9726 37.7693C75.6163 37.7442 75.2796 37.6249 75.0131 37.4296L75.7311 39.4928L72.658 40.21L69.6424 40.8977ZM81.4607 34.2142L82.5736 37.4178C82.6053 37.5306 82.5837 37.6491 82.5131 37.7494C82.4425 37.8497 82.3282 37.9245 82.1931 37.9586L76.126 39.3694L75.6736 38.0703H75.8819C76.1421 38.0946 76.4056 38.0767 76.6573 38.0174C76.9239 37.959 77.1737 37.8578 77.3922 37.7197C77.6106 37.5816 77.7933 37.4093 77.9297 37.2128C78.0661 37.0164 78.1534 36.7997 78.1865 36.5754C78.2197 36.351 78.198 36.1236 78.1228 35.9061C78.0476 35.6887 77.9204 35.4857 77.7485 35.3089C77.5766 35.1321 77.3635 34.9851 77.1216 34.8763C76.8797 34.7676 76.6137 34.6993 76.3393 34.6754C76.0648 34.6515 75.7873 34.6726 75.5229 34.7373C75.2617 34.7915 75.0172 34.8896 74.8049 35.0254L74.6397 35.1312L74.2305 33.9555L76.5999 33.403C76.2609 33.3212 75.9629 33.1527 75.7497 32.922C75.5365 32.6913 75.4192 32.4108 75.4152 32.1215C75.4083 31.8852 75.4785 31.6517 75.6186 31.445C75.7587 31.2384 75.9636 31.0661 76.2122 30.9459C76.5499 30.7806 76.9486 30.7194 77.3365 30.7734C77.7244 30.8274 78.076 30.993 78.3279 31.2404C78.5799 31.4879 78.7157 31.8008 78.7109 32.1229C78.706 32.445 78.5609 32.7551 78.3015 32.9974L80.8217 32.4095L81.4607 34.2142ZM72.3278 29.6585H72.1195C71.8593 29.6343 71.5958 29.6523 71.3441 29.7114C70.8128 29.8354 70.3634 30.127 70.0948 30.5222C69.8262 30.9174 69.7603 31.3838 69.9117 31.8188C70.0631 32.2537 70.4193 32.6217 70.902 32.8416C71.3848 33.0615 71.9544 33.1154 72.4857 32.9915C72.7442 32.9315 72.9874 32.8339 73.2037 32.7035L73.376 32.5976L73.7853 33.7733L71.4087 34.3259C71.7156 34.3997 71.9897 34.5448 72.1977 34.7437C72.4057 34.9426 72.5387 35.1867 72.5805 35.4463C72.6224 35.7059 72.5712 35.9698 72.4333 36.2061C72.2954 36.4423 72.0766 36.6407 71.8036 36.7771C71.4652 36.9509 71.0614 37.0184 70.6669 36.967C70.2723 36.9157 69.9139 36.749 69.658 36.4979C69.4021 36.2468 69.2661 35.9282 69.2751 35.6013C69.2841 35.2743 69.4376 34.9611 69.7071 34.7197L67.1869 35.3075L65.4637 30.3404C65.432 30.2276 65.4536 30.1091 65.5242 30.0088C65.5948 29.9085 65.7091 29.8338 65.8442 29.7996L71.9113 28.3888L72.3278 29.6585Z" fill="#246DFF"/>
<path d="M252.163 121.948C252.068 121.954 251.974 121.928 251.902 121.877C251.83 121.825 251.786 121.753 251.779 121.675C251.772 121.597 251.804 121.52 251.866 121.461C251.929 121.402 252.018 121.366 252.113 121.36C252.587 121.307 253.046 121.249 253.513 121.178C253.608 121.164 253.706 121.182 253.786 121.227C253.865 121.272 253.919 121.341 253.937 121.419C253.954 121.497 253.932 121.577 253.877 121.642C253.822 121.707 253.737 121.752 253.642 121.766C253.168 121.842 252.687 121.901 252.206 121.954L252.163 121.948ZM241.544 121.055C241.504 121.06 241.462 121.06 241.422 121.055C241.034 120.943 240.639 120.825 240.244 120.696C239.526 120.449 238.808 120.179 238.09 119.879C238.005 119.843 237.941 119.78 237.912 119.706C237.882 119.631 237.89 119.55 237.932 119.479C237.979 119.412 238.056 119.361 238.147 119.338C238.237 119.316 238.335 119.322 238.421 119.356C239.102 119.65 239.802 119.915 240.517 120.149C240.898 120.273 241.285 120.39 241.666 120.496C241.761 120.509 241.847 120.552 241.903 120.616C241.96 120.68 241.983 120.759 241.968 120.837C241.952 120.915 241.9 120.985 241.822 121.031C241.744 121.078 241.646 121.097 241.551 121.084L241.544 121.055ZM260.327 119.82C260.262 119.821 260.198 119.807 260.143 119.78C260.087 119.753 260.041 119.714 260.011 119.667C259.967 119.599 259.957 119.518 259.984 119.444C260.011 119.369 260.072 119.306 260.155 119.268C263.278 117.899 265.979 115.965 268.053 113.613C268.08 113.581 268.115 113.555 268.156 113.535C268.196 113.515 268.241 113.501 268.287 113.495C268.334 113.489 268.382 113.491 268.428 113.5C268.474 113.509 268.517 113.525 268.555 113.548C268.631 113.595 268.681 113.664 268.696 113.741C268.711 113.818 268.689 113.896 268.634 113.96C266.487 116.386 263.693 118.381 260.463 119.791C260.421 119.811 260.375 119.823 260.327 119.826V119.82ZM236.382 119.009C236.313 119.007 236.246 118.991 236.188 118.962C233.117 117.334 230.538 115.155 228.649 112.59C228.624 112.557 228.607 112.52 228.6 112.481C228.592 112.443 228.594 112.403 228.606 112.365C228.617 112.328 228.638 112.292 228.666 112.261C228.694 112.229 228.73 112.203 228.771 112.183C228.812 112.163 228.858 112.15 228.905 112.145C228.952 112.139 229 112.142 229.046 112.152C229.092 112.162 229.135 112.179 229.173 112.203C229.211 112.227 229.243 112.256 229.266 112.29C231.099 114.778 233.601 116.891 236.583 118.468C236.662 118.51 236.719 118.577 236.739 118.653C236.759 118.729 236.742 118.808 236.69 118.874C236.657 118.916 236.611 118.95 236.557 118.974C236.503 118.997 236.443 119.009 236.382 119.009ZM269.553 112.602C269.487 112.603 269.423 112.589 269.366 112.561C269.326 112.541 269.291 112.515 269.263 112.485C269.234 112.454 269.214 112.419 269.203 112.382C269.191 112.345 269.189 112.306 269.196 112.268C269.203 112.23 269.22 112.194 269.244 112.161C269.838 111.328 270.359 110.462 270.802 109.569C270.838 109.496 270.907 109.438 270.994 109.407C271.082 109.376 271.181 109.375 271.269 109.404C271.358 109.433 271.429 109.489 271.466 109.561C271.504 109.633 271.505 109.714 271.47 109.786C271.013 110.708 270.475 111.602 269.862 112.461C269.83 112.504 269.784 112.541 269.73 112.566C269.676 112.592 269.615 112.606 269.553 112.608V112.602ZM271.614 108.91H271.499C271.409 108.883 271.335 108.83 271.292 108.76C271.25 108.69 271.241 108.609 271.269 108.534C271.649 107.621 271.942 106.686 272.145 105.736C272.153 105.697 272.17 105.66 272.196 105.627C272.221 105.594 272.254 105.565 272.293 105.543C272.332 105.52 272.376 105.504 272.423 105.495C272.47 105.487 272.518 105.485 272.565 105.492C272.612 105.499 272.657 105.513 272.698 105.533C272.738 105.554 272.773 105.581 272.801 105.613C272.829 105.645 272.849 105.681 272.859 105.72C272.87 105.758 272.871 105.797 272.863 105.836C272.654 106.815 272.354 107.78 271.966 108.722C271.941 108.781 271.893 108.832 271.829 108.867C271.766 108.902 271.69 108.919 271.614 108.916V108.91ZM226.236 107.317C226.155 107.318 226.077 107.296 226.013 107.256C225.949 107.215 225.904 107.158 225.884 107.094C225.769 106.706 225.669 106.318 225.583 105.918C225.566 105.842 225.587 105.763 225.641 105.699C225.694 105.635 225.777 105.592 225.87 105.577C225.964 105.565 226.06 105.584 226.138 105.629C226.216 105.674 226.269 105.742 226.286 105.818C226.373 106.194 226.473 106.577 226.581 106.947C226.603 107.022 226.588 107.102 226.54 107.169C226.492 107.236 226.414 107.285 226.322 107.305L226.236 107.317ZM226.473 97.4417H226.373C226.281 97.4198 226.203 97.3694 226.156 97.3014C226.11 97.2333 226.097 97.1529 226.121 97.0773C226.351 96.4189 226.631 95.7664 226.94 95.1257C227.083 94.8377 227.234 94.5379 227.385 94.2792C227.404 94.2441 227.432 94.2126 227.466 94.1864C227.501 94.1602 227.541 94.14 227.586 94.1268C227.63 94.1137 227.677 94.1079 227.724 94.1098C227.771 94.1118 227.817 94.1214 227.859 94.1382C227.945 94.1702 228.013 94.2291 228.047 94.3018C228.08 94.3745 228.077 94.4552 228.038 94.5261C227.888 94.7965 227.744 95.0669 227.608 95.3432C227.306 95.9663 227.04 96.6012 226.818 97.236C226.794 97.2961 226.748 97.3487 226.687 97.3866C226.625 97.4245 226.55 97.4458 226.473 97.4476V97.4417ZM271.908 97.3418C271.83 97.3428 271.754 97.3225 271.692 97.2842C271.629 97.2459 271.584 97.1917 271.564 97.1302C271.427 96.7599 271.284 96.3895 271.126 96.0251C271.103 95.9538 271.114 95.8783 271.157 95.8135C271.199 95.7486 271.27 95.6991 271.354 95.6748C271.439 95.6504 271.532 95.653 271.615 95.6819C271.697 95.7108 271.763 95.7641 271.8 95.8311C271.966 96.2014 272.116 96.5835 272.253 96.9656C272.278 97.0404 272.266 97.1201 272.22 97.1881C272.175 97.256 272.099 97.3069 272.009 97.33L271.908 97.3418ZM228.692 93.1447C228.632 93.145 228.572 93.1329 228.519 93.1095C228.437 93.0712 228.376 93.0076 228.35 92.9327C228.325 92.8578 228.337 92.7776 228.383 92.7097C230.204 90.1092 232.726 87.8836 235.757 86.2025C235.836 86.16 235.933 86.1448 236.025 86.1602C236.118 86.1756 236.2 86.2204 236.252 86.2848C236.279 86.3163 236.298 86.3519 236.308 86.3895C236.318 86.4271 236.319 86.4659 236.31 86.5037C236.301 86.5415 236.284 86.5775 236.258 86.6096C236.232 86.6417 236.198 86.6691 236.159 86.6904C233.211 88.3184 230.755 90.4756 228.979 92.9978C228.95 93.0397 228.908 93.0751 228.858 93.1007C228.808 93.1264 228.751 93.1415 228.692 93.1447ZM268.067 91.0991C268.011 91.0987 267.956 91.0878 267.907 91.0675C267.857 91.0471 267.813 91.0177 267.78 90.9815C265.645 88.6588 262.883 86.7717 259.709 85.4677C259.632 85.4295 259.575 85.3686 259.549 85.2973C259.524 85.226 259.533 85.1495 259.574 85.0833C259.615 85.0171 259.685 84.9659 259.77 84.9402C259.855 84.9145 259.949 84.916 260.032 84.9446C263.305 86.2875 266.154 88.2332 268.354 90.6288C268.409 90.6917 268.433 90.7697 268.419 90.8464C268.406 90.9231 268.357 90.9926 268.282 91.0403C268.217 91.0706 268.141 91.083 268.067 91.0756V91.0991ZM257.907 84.78C257.862 84.7883 257.816 84.7883 257.771 84.78C256.676 84.4258 255.55 84.1389 254.403 83.9218C254.356 83.9133 254.312 83.8973 254.272 83.8746C254.232 83.852 254.199 83.8232 254.173 83.7899C254.147 83.7567 254.129 83.7195 254.12 83.6806C254.112 83.6417 254.113 83.6018 254.123 83.5632C254.134 83.5246 254.153 83.488 254.181 83.4556C254.208 83.4232 254.244 83.3956 254.284 83.3743C254.325 83.353 254.37 83.3385 254.418 83.3316C254.465 83.3246 254.514 83.3254 254.561 83.3339C255.745 83.5593 256.906 83.856 258.036 84.2216C258.08 84.2358 258.12 84.257 258.154 84.2839C258.188 84.3108 258.215 84.343 258.234 84.3785C258.252 84.4139 258.262 84.4521 258.263 84.4907C258.264 84.5294 258.255 84.5677 258.237 84.6036C258.207 84.6528 258.159 84.6934 258.1 84.7206C258.042 84.7478 257.974 84.7602 257.907 84.7565V84.78ZM242.42 84.2333C242.373 84.2387 242.325 84.2365 242.279 84.2267C242.233 84.2169 242.189 84.1998 242.151 84.1763C242.075 84.1289 242.024 84.0585 242.011 83.9805C241.997 83.9026 242.022 83.8235 242.08 83.7607C242.138 83.6978 242.224 83.6564 242.319 83.6455C242.779 83.5338 243.253 83.428 243.755 83.3398C243.851 83.3219 243.951 83.3357 244.033 83.3781C244.116 83.4205 244.175 83.4882 244.197 83.5661C244.219 83.6441 244.202 83.726 244.15 83.7938C244.098 83.8615 244.016 83.9097 243.921 83.9276C243.461 84.0158 243.002 84.1157 242.549 84.2274L242.42 84.2333Z" fill="#246DFF"/>
<path d="M253.269 116.242C263.535 114.249 269.884 105.82 267.45 97.4152C265.016 89.0104 254.72 83.8124 244.454 85.8053C234.188 87.7982 227.839 96.2273 230.273 104.632C232.707 113.037 243.003 118.235 253.269 116.242Z" fill="#246DFF"/>
<path opacity="0.8" d="M253.269 116.242C263.535 114.249 269.884 105.82 267.45 97.4152C265.016 89.0104 254.72 83.8124 244.454 85.8053C234.188 87.7982 227.839 96.2273 230.273 104.632C232.707 113.037 243.003 118.235 253.269 116.242Z" fill="white"/>
<path d="M249.195 110.578C246.571 110.586 244.047 109.753 242.163 108.258C240.279 106.763 239.184 104.724 239.111 102.577C239.039 100.429 239.995 98.3437 241.775 96.7655C243.555 95.1874 246.019 94.2417 248.639 94.1304C251.259 94.0192 253.829 94.7512 255.799 96.1702C257.769 97.5891 258.983 99.5825 259.182 101.724C259.382 103.866 258.55 105.987 256.865 107.634C255.18 109.281 252.775 110.323 250.164 110.537C249.842 110.566 249.518 110.579 249.195 110.578ZM249.195 95.5125C247.766 95.512 246.359 95.8073 245.107 96.3709C243.855 96.9345 242.796 97.748 242.031 98.7361C241.265 99.7241 240.817 100.854 240.728 102.022C240.639 103.19 240.912 104.357 241.522 105.416C242.131 106.474 243.058 107.389 244.215 108.076C245.372 108.762 246.722 109.198 248.14 109.343C249.558 109.488 250.998 109.338 252.326 108.905C253.654 108.473 254.827 107.772 255.736 106.869C256.763 105.855 257.417 104.622 257.621 103.315C257.824 102.008 257.569 100.681 256.886 99.488C256.202 98.2951 255.118 97.2862 253.76 96.5791C252.402 95.872 250.826 95.496 249.216 95.4949L249.195 95.5125Z" fill="#246DFF"/>
<path d="M249.193 107.487C247.767 107.48 246.39 107.064 245.301 106.311C244.678 105.891 244.162 105.375 243.782 104.792C243.403 104.209 243.167 103.57 243.089 102.912C243.011 102.254 243.092 101.59 243.328 100.958C243.563 100.326 243.948 99.7382 244.461 99.228C244.974 98.7177 245.605 98.2952 246.317 97.9845C247.03 97.6738 247.81 97.481 248.613 97.4171C249.417 97.3532 250.227 97.4196 251 97.6123C251.772 97.805 252.49 98.1203 253.113 98.5402C254.052 99.1725 254.74 100.019 255.092 100.971C255.443 101.924 255.442 102.94 255.087 103.892C254.733 104.844 254.042 105.689 253.101 106.319C252.161 106.95 251.013 107.338 249.803 107.434C249.601 107.46 249.397 107.478 249.193 107.487ZM246.213 105.435C246.933 105.919 247.811 106.218 248.738 106.293C249.665 106.368 250.598 106.217 251.42 105.858C252.241 105.499 252.915 104.948 253.354 104.276C253.794 103.604 253.981 102.841 253.89 102.082C253.8 101.323 253.437 100.603 252.847 100.013C252.257 99.423 251.467 98.9894 250.576 98.767C249.685 98.5447 248.734 98.5435 247.842 98.7636C246.951 98.9838 246.159 99.4154 245.567 100.004C245.17 100.394 244.871 100.844 244.688 101.33C244.506 101.815 244.442 102.325 244.503 102.83C244.563 103.336 244.745 103.826 245.039 104.273C245.332 104.721 245.731 105.116 246.213 105.435Z" fill="#246DFF"/>
<path d="M249.201 104.401C248.652 104.403 248.12 104.244 247.7 103.954C247.458 103.793 247.258 103.594 247.111 103.369C246.965 103.144 246.874 102.897 246.846 102.643C246.816 102.388 246.848 102.13 246.941 101.885C247.033 101.64 247.184 101.413 247.384 101.216C247.584 101.018 247.83 100.855 248.107 100.736C248.384 100.617 248.688 100.544 249 100.521C249.467 100.484 249.937 100.561 250.35 100.743C250.764 100.924 251.103 101.202 251.324 101.541C251.545 101.88 251.639 102.265 251.593 102.647C251.547 103.029 251.365 103.392 251.067 103.69C250.869 103.887 250.625 104.051 250.349 104.171C250.073 104.291 249.77 104.365 249.459 104.389L249.201 104.401ZM249.201 101.685H249.143C248.959 101.701 248.785 101.761 248.643 101.857C248.5 101.954 248.395 102.083 248.342 102.228C248.288 102.372 248.288 102.527 248.341 102.672C248.394 102.817 248.498 102.946 248.641 103.043C248.736 103.108 248.845 103.156 248.963 103.186C249.081 103.215 249.205 103.226 249.328 103.216C249.451 103.206 249.57 103.176 249.679 103.128C249.788 103.081 249.884 103.016 249.962 102.937C250.045 102.857 250.106 102.763 250.142 102.661C250.178 102.56 250.188 102.454 250.17 102.349C250.159 102.249 250.124 102.151 250.066 102.062C250.008 101.974 249.928 101.895 249.833 101.832C249.654 101.721 249.431 101.668 249.208 101.685H249.201Z" fill="#246DFF"/>
<path d="M249.207 102.749C249.125 102.747 249.044 102.725 248.978 102.684L238.99 95.9478C238.954 95.9234 238.924 95.8933 238.902 95.8592C238.88 95.8252 238.867 95.7879 238.863 95.7495C238.859 95.7112 238.864 95.6725 238.879 95.6359C238.893 95.5993 238.916 95.5654 238.947 95.5363C239.007 95.4767 239.094 95.4389 239.188 95.4311C239.282 95.4234 239.376 95.4465 239.45 95.4952L249.437 102.226C249.496 102.264 249.538 102.316 249.558 102.375C249.578 102.434 249.576 102.497 249.55 102.555C249.525 102.612 249.478 102.662 249.417 102.697C249.355 102.732 249.282 102.75 249.207 102.749Z" fill="#246DFF"/>
<path d="M238.63 97.4406C238.54 97.4383 238.455 97.4097 238.389 97.3601C238.323 97.3104 238.281 97.2431 238.271 97.1702C238.263 97.0932 238.292 97.0166 238.353 96.9572C238.413 96.8978 238.5 96.8603 238.594 96.8528L240.655 96.6882L240.454 95.007C240.449 94.9684 240.453 94.9294 240.467 94.8921C240.48 94.8549 240.503 94.8203 240.533 94.7902C240.563 94.7602 240.6 94.7353 240.642 94.717C240.684 94.6987 240.729 94.6874 240.777 94.6837C240.824 94.6797 240.872 94.6833 240.917 94.6944C240.962 94.7056 241.005 94.724 241.042 94.7486C241.078 94.7732 241.109 94.8035 241.131 94.8378C241.153 94.872 241.167 94.9096 241.172 94.9483L241.401 96.9233C241.406 96.962 241.402 97.001 241.388 97.0383C241.375 97.0755 241.352 97.1101 241.322 97.1402C241.292 97.1702 241.255 97.1951 241.213 97.2134C241.171 97.2317 241.125 97.243 241.078 97.2467L238.666 97.4348L238.63 97.4406Z" fill="#246DFF"/>
<path d="M237.584 96.73C237.488 96.73 237.397 96.6991 237.33 96.6439C237.262 96.5888 237.225 96.5141 237.225 96.4361C237.225 96.3582 237.262 96.2834 237.33 96.2283C237.397 96.1732 237.488 96.1422 237.584 96.1422L239.644 95.9776L239.443 94.2905C239.439 94.2519 239.444 94.213 239.458 94.1761C239.472 94.1391 239.495 94.1047 239.526 94.075C239.556 94.0452 239.593 94.0207 239.635 94.0027C239.677 93.9847 239.723 93.9737 239.77 93.9702C239.817 93.9667 239.865 93.9709 239.91 93.9824C239.955 93.994 239.997 94.0127 240.033 94.0376C240.07 94.0624 240.1 94.0929 240.122 94.1272C240.144 94.1615 240.157 94.199 240.161 94.2376L240.391 96.2127C240.396 96.2514 240.392 96.2904 240.378 96.3276C240.364 96.3649 240.342 96.3995 240.312 96.4296C240.282 96.4596 240.245 96.4845 240.203 96.5028C240.161 96.5211 240.115 96.5324 240.068 96.536L237.655 96.7241L237.584 96.73Z" fill="#246DFF"/>
<path d="M236.536 96.0248C236.447 96.0239 236.361 95.9966 236.295 95.9479C236.229 95.8992 236.187 95.8326 236.177 95.7603C236.17 95.6829 236.2 95.6065 236.26 95.5464C236.32 95.4864 236.406 95.4473 236.5 95.437L238.56 95.2783L238.359 93.5912C238.354 93.5529 238.359 93.5142 238.373 93.4773C238.386 93.4405 238.409 93.4062 238.439 93.3766C238.469 93.347 238.506 93.3227 238.548 93.305C238.59 93.2874 238.635 93.2768 238.682 93.2738C238.73 93.2698 238.777 93.2734 238.823 93.2845C238.868 93.2957 238.911 93.3141 238.947 93.3387C238.984 93.3633 239.014 93.3936 239.037 93.4278C239.059 93.4621 239.073 93.4997 239.077 93.5383L239.307 95.5134C239.312 95.5518 239.308 95.5905 239.294 95.6274C239.28 95.6642 239.258 95.6985 239.227 95.7281C239.197 95.7577 239.16 95.782 239.118 95.7997C239.077 95.8173 239.031 95.8279 238.984 95.8309L236.571 96.0248H236.536Z" fill="#246DFF"/>
<path d="M134.58 41.4678H134.529L92.8351 36.3714C92.788 36.3664 92.7426 36.3536 92.7017 36.3339C92.6607 36.3142 92.6251 36.2879 92.5969 36.2566C92.5687 36.2253 92.5486 36.1896 92.5377 36.1517C92.5268 36.1139 92.5254 36.0746 92.5335 36.0363C92.5478 35.9603 92.5978 35.8918 92.673 35.8456C92.7482 35.7995 92.8425 35.7793 92.9356 35.7894L134.637 40.8859C134.684 40.8916 134.729 40.9048 134.769 40.9248C134.81 40.9447 134.845 40.971 134.873 41.0022C134.901 41.0333 134.921 41.0686 134.932 41.1062C134.944 41.1437 134.946 41.1827 134.939 41.2209C134.924 41.29 134.879 41.3525 134.814 41.3976C134.748 41.4427 134.665 41.4675 134.58 41.4678Z" fill="#246DFF"/>
<path d="M106.303 89.0705C106.232 89.0697 106.163 89.0516 106.104 89.0185C106.046 88.9854 106.001 88.9388 105.974 88.8846C105.948 88.8305 105.942 88.7712 105.957 88.7143C105.972 88.6573 106.008 88.6054 106.059 88.5649L141.923 60.5962C141.956 60.5689 141.995 60.5471 142.038 60.5323C142.081 60.5174 142.128 60.5098 142.175 60.5098C142.221 60.5098 142.268 60.5174 142.311 60.5323C142.354 60.5471 142.393 60.5689 142.426 60.5962C142.459 60.6235 142.486 60.656 142.504 60.6919C142.523 60.7277 142.532 60.7661 142.532 60.8049C142.532 60.8437 142.523 60.8821 142.504 60.9179C142.486 60.9537 142.459 60.9863 142.426 61.0136L106.526 88.9823C106.468 89.0337 106.388 89.0652 106.303 89.0705Z" fill="#246DFF"/>
<path d="M230.906 90.487C230.825 90.4892 230.745 90.4661 230.684 90.4223L184.84 59.7085C184.798 59.6858 184.762 59.6562 184.735 59.6215C184.708 59.5869 184.69 59.548 184.683 59.5073C184.675 59.4667 184.678 59.4252 184.691 59.3856C184.705 59.346 184.728 59.309 184.76 59.2772C184.792 59.2454 184.831 59.2194 184.876 59.2009C184.921 59.1824 184.97 59.1718 185.02 59.1698C185.07 59.1678 185.12 59.1744 185.167 59.1892C185.214 59.204 185.256 59.2267 185.292 59.2558L231.136 89.9697C231.192 90.0086 231.232 90.0604 231.25 90.1183C231.269 90.1762 231.265 90.2373 231.24 90.2935C231.215 90.3498 231.17 90.3984 231.11 90.433C231.051 90.4675 230.98 90.4864 230.906 90.487Z" fill="#246DFF"/>
<path d="M190.548 38.8286C190.501 38.8337 190.453 38.831 190.407 38.8209C190.362 38.8108 190.318 38.7933 190.281 38.7696C190.205 38.7216 190.155 38.6509 190.143 38.5729C190.13 38.495 190.156 38.4162 190.215 38.3539C190.273 38.2916 190.36 38.2509 190.455 38.2408L228.782 29.782C228.829 29.7716 228.878 29.7689 228.927 29.774C228.975 29.7792 229.022 29.7921 229.064 29.812C229.106 29.8319 229.144 29.8585 229.173 29.8901C229.203 29.9218 229.225 29.958 229.238 29.9966C229.25 30.0352 229.254 30.0754 229.248 30.1151C229.241 30.1547 229.225 30.193 229.201 30.2276C229.177 30.2623 229.144 30.2927 229.106 30.3171C229.067 30.3415 229.023 30.3594 228.976 30.3698L190.642 38.8345L190.548 38.8286Z" fill="#246DFF"/>
<path d="M297.217 179.291H274.334H271.19V165.888H261.138H238.255H228.203V188.908H225.051H202.168H192.116V211.204H202.168H225.051H228.203H235.103H238.255H261.138H264.282H271.19H274.334H297.217H307.269V179.291H297.217Z" fill="#246DFF"/>
<g opacity="0.3">
<path opacity="0.3" d="M225.05 188.907H192.115V211.198H225.05V188.907Z" fill="white"/>
<path opacity="0.3" d="M261.136 165.889H228.201V211.204H261.136V165.889Z" fill="white"/>
<path opacity="0.3" d="M297.214 179.291H264.279V211.204H297.214V179.291Z" fill="white"/>
</g>
<path d="M245.68 172.713V182.741H243.403V174.265H240.812V172.707L245.68 172.713Z" fill="white"/>
<path d="M284.705 195.427V197.002H275.672V195.756L280.54 191.97C281.732 191.042 281.94 190.454 281.94 189.895C281.94 188.978 281.172 188.443 279.664 188.443C279.119 188.419 278.574 188.502 278.074 188.684C277.575 188.865 277.136 189.142 276.792 189.49L275.198 188.49C275.763 187.935 276.478 187.495 277.287 187.207C278.096 186.918 278.977 186.788 279.858 186.827C282.522 186.827 284.231 187.932 284.231 189.707C284.231 190.683 283.9 191.571 282.206 192.876L278.932 195.427H284.705Z" fill="white"/>
<path d="M212.957 202.028C212.957 203.715 211.399 205.178 208.11 205.178C206.462 205.202 204.847 204.79 203.508 204.003L204.484 202.557C205.509 203.211 206.775 203.56 208.074 203.544C209.704 203.544 210.666 202.956 210.666 202.028C210.666 201.099 209.862 200.535 208.003 200.535H206.882V199.259L209.668 196.549H204.104V194.991H212.454V196.238L209.474 199.13C211.808 199.388 212.957 200.523 212.957 202.028Z" fill="white"/>
<path d="M83.3886 154.743H77.6016V211.204H83.3886V154.743Z" fill="#246DFF"/>
<path d="M74.4168 184.864L69.6206 178.015L59.7266 178.286L74.783 155.743L89.4805 162.32L74.4168 184.864Z" fill="#246DFF"/>
<path opacity="0.2" d="M74.4168 184.864L69.6206 178.015L59.7266 178.286L74.783 155.743L89.4805 162.32L74.4168 184.864Z" fill="white"/>
<path d="M101.839 178.368L92.218 177.927L87.0986 184.869L72.2217 162.244L86.9694 155.743L101.839 178.368Z" fill="#246DFF"/>
<path opacity="0.2" d="M101.839 178.368L92.218 177.927L87.0986 184.869L72.2217 162.244L86.9694 155.743L101.839 178.368Z" fill="white"/>
<path d="M78.3732 136.744L81.2309 137.996L84.1818 136.896L86.5656 138.689L89.7535 138.231L91.5198 140.453L94.7508 140.653L95.7919 143.163L98.8578 144.015L99.0947 146.66L101.809 148.112L101.242 150.722L103.424 152.68L102.082 155.09L103.604 157.429L101.572 159.492L102.333 162.073L99.7337 163.654L99.6906 166.305L96.6966 167.311L95.8493 169.873L92.6399 170.232L91.0459 172.542L87.8221 172.242L85.5748 174.147L82.552 173.201L79.7949 174.594L77.1526 173.059L74.058 173.847L71.9615 171.825L68.7305 171.954L67.316 169.568L64.1425 169.039L63.4963 166.441L60.5884 165.277L60.7535 162.631L58.2836 160.915L59.2457 158.381L57.3789 156.212L59.0806 153.961L57.9318 151.48L60.2653 149.646L59.8991 147.007L62.7208 145.702L63.166 143.075L66.2965 142.387L67.5314 139.936L70.7624 139.906L72.7082 137.778L75.853 138.407L78.3732 136.744Z" fill="#246DFF"/>
<path opacity="0.4" d="M87.047 170.666C97.2336 167.715 102.569 158.561 98.9635 150.221C95.3583 141.882 84.1778 137.514 73.9913 140.465C63.8047 143.417 58.4695 152.57 62.0747 160.91C65.68 169.25 76.8604 173.618 87.047 170.666Z" fill="white"/>
<path d="M81.0574 154.349L80.8133 157.224L83.635 157.006L83.477 159.293L80.605 159.516L80.3035 163.096L77.5679 163.308L77.8695 159.722L75.4929 159.904L75.1841 163.49L72.4486 163.702L72.7573 160.116L70.0576 160.322L70.2156 158.035L72.9512 157.823L73.1953 154.949L70.5028 155.161L70.6679 152.868L73.3963 152.656L73.741 148.542L76.4837 148.336L76.1319 152.451L78.5085 152.269L78.8603 148.154L81.5959 147.942L81.2441 152.057L84.1161 151.839L83.9509 154.126L81.0574 154.349ZM78.3074 154.561L75.938 154.743L75.7083 157.612L78.0777 157.43L78.3074 154.561Z" fill="#246DFF"/>
<path d="M89.5617 162.385L88.2477 150.916L85.907 151.099L85.7275 149.529C86.3992 149.409 87.0221 149.15 87.5369 148.777C88.0611 148.418 88.4557 147.948 88.6785 147.419L90.5956 147.272L92.3044 162.179L89.5617 162.385Z" fill="#246DFF"/>
<path d="M94.3391 209.211H66.6602V211.198H94.3391V209.211Z" fill="#246DFF"/>
<path d="M94.3319 209.211H66.6602L77.4302 205.443H83.5619L94.3319 209.211Z" fill="#246DFF"/>
<path opacity="0.4" d="M94.3319 209.211H66.6602L77.4302 205.443H83.5619L94.3319 209.211Z" fill="white"/>
<path opacity="0.2" d="M94.3391 209.211H66.6602V211.198H94.3391V209.211Z" fill="white"/>
<path d="M131.398 205.766L124.146 211.121L117.921 210.51L126.3 202.98L131.398 205.766Z" fill="#E4897B"/>
<path d="M234.533 205.873L242.553 210.434L248.635 209.182L239.157 202.581L234.533 205.873Z" fill="#E4897B"/>
<path d="M121.55 205.037L127.294 209.586C127.294 209.586 168.859 182.441 169.541 177.897C170.223 173.353 169.541 149.146 169.541 149.146C169.541 149.146 175.091 154.466 183.678 162.361C197.464 175.052 219.069 194.391 237.995 208.999L244.665 205.213C196.667 156.165 181.402 129.93 181.402 129.93L179.428 117.586L151.842 115.54C151.842 115.54 145.208 129.766 147.003 140.329C148.798 150.892 155.619 170.549 154.901 174.511C154.183 178.473 121.55 205.037 121.55 205.037Z" fill="#263238"/>
<path d="M124.614 210.193H117.75C117.636 210.193 117.527 210.225 117.438 210.282C117.35 210.34 117.287 210.42 117.261 210.511L116.148 214.625C116.125 214.713 116.124 214.804 116.144 214.893C116.164 214.981 116.205 215.066 116.265 215.141C116.325 215.217 116.403 215.282 116.494 215.332C116.585 215.383 116.687 215.418 116.795 215.437C116.854 215.442 116.915 215.442 116.974 215.437C119.2 215.407 120.823 215.295 123.623 215.295C125.346 215.295 130.544 215.442 132.957 215.442C135.369 215.442 135.642 213.52 134.673 213.338C130.3 212.562 127.012 211.48 125.612 210.452C125.475 210.357 125.316 210.285 125.144 210.241C124.973 210.196 124.793 210.18 124.614 210.193Z" fill="#263238"/>
<path d="M247.451 207.965L241.247 210.363C241.145 210.403 241.063 210.471 241.014 210.554C240.964 210.637 240.95 210.731 240.974 210.822L242.109 214.937C242.134 215.025 242.181 215.108 242.245 215.181C242.31 215.255 242.391 215.317 242.485 215.364C242.58 215.412 242.684 215.444 242.793 215.458C242.902 215.472 243.014 215.469 243.121 215.448L243.294 215.395C245.29 214.596 246.704 213.926 249.231 212.95C250.797 212.362 255.579 210.675 257.725 209.846C259.872 209.017 259.161 207.166 258.192 207.348C253.827 208.165 250.294 208.329 248.492 207.889C248.321 207.844 248.141 207.827 247.962 207.84C247.783 207.854 247.609 207.896 247.451 207.965Z" fill="#263238"/>
<path opacity="0.3" d="M168.404 138.407L169.532 149.123C169.532 149.123 175.082 154.443 183.669 162.337C174.558 150.293 172.095 141.999 172.095 141.999C175.067 138.748 175.376 133.552 175.376 133.552L168.404 138.407Z" fill="black"/>
<path d="M154.589 61.2143L156.578 59.3039L158.014 59.3921C158.488 59.3921 163.32 55.3655 163.299 55.1421C163.277 54.9187 160.47 53.3786 159.795 53.3316C159.12 53.2846 155.846 56.2707 155.846 56.2707L155.738 57.4464L152.687 59.4626L154.589 61.2143Z" fill="#E4897B"/>
<path d="M175.507 63.9589L173.776 62.7245C173.776 62.7245 171.177 63.3123 171.005 62.554C170.922 61.4539 170.922 60.3506 171.005 59.2504L171.572 54.7653C171.572 54.7653 173.784 54.2363 174.71 54.9534C175.636 55.6706 174.76 60.8905 174.76 60.8905L178.996 64.1705L175.507 63.9589Z" fill="#E4897B"/>
<path d="M179.313 86.837C182.185 84.4034 186.019 76.1151 185.818 73.8637C185.617 71.6123 174.474 63.8707 174.474 63.8707L175.974 61.6487C175.974 61.6487 190.054 68.7026 191.67 71.6417C193.285 74.5808 187.9 92.3332 180.411 96.9182L176.254 92.1333L179.313 86.837Z" fill="#246DFF"/>
<path opacity="0.5" d="M179.313 86.837C182.185 84.4034 186.019 76.1151 185.818 73.8637C185.617 71.6123 174.474 63.8707 174.474 63.8707L175.974 61.6487C175.974 61.6487 190.054 68.7026 191.67 71.6417C193.285 74.5808 187.9 92.3332 180.411 96.9182L176.254 92.1333L179.313 86.837Z" fill="white"/>
<path d="M179.125 118.527H150.132V121.348L179.498 121.06L179.125 118.527Z" fill="black"/>
<path d="M159.449 122.271H160.483V117.257H159.449V122.271Z" fill="#263238"/>
<path d="M174.119 122.271H175.153V117.257H174.119V122.271Z" fill="#263238"/>
<path d="M165.913 121.196H171.276V118.034H165.913V121.196Z" fill="white"/>
<path d="M151.109 39.3827C150.976 39.0135 150.748 38.6721 150.44 38.382C150.131 38.0918 149.749 37.8597 149.321 37.7015C148.544 37.4048 147.673 37.3144 146.83 37.4429C145.982 37.5612 145.203 37.8967 144.604 38.401C144.448 38.5244 144.31 38.6625 144.195 38.8125C144.069 38.9531 143.963 39.105 143.879 39.2651L143.749 39.5003L143.663 39.7236L143.505 40.1763C143.158 41.4156 143.416 42.717 144.223 43.8031C145 44.8216 146.092 45.6532 147.39 46.2132C148.628 46.7567 149.975 47.1131 151.367 47.2654C152.049 47.3502 152.738 47.3914 153.428 47.3889C154.054 47.3639 154.681 47.3855 155.302 47.4535C155.844 47.5209 156.347 47.7266 156.738 48.0414C156.912 48.1752 157.032 48.3496 157.081 48.541C157.129 48.7324 157.105 48.9315 157.011 49.1112C156.897 49.2687 156.717 49.387 156.504 49.4442C156.292 49.5015 156.061 49.4939 155.855 49.4227C155.727 49.3767 155.619 49.3014 155.543 49.2059C155.467 49.1104 155.427 48.9989 155.427 48.8849C155.427 48.7709 155.467 48.6593 155.543 48.5639C155.619 48.4684 155.727 48.393 155.855 48.347C155.657 48.355 155.469 48.4175 155.32 48.5242C155.172 48.6309 155.072 48.7756 155.036 48.9348C154.993 49.1062 155.007 49.2839 155.076 49.4494C155.146 49.6149 155.268 49.762 155.431 49.8754C155.602 49.9905 155.804 50.0704 156.02 50.1082C156.236 50.1461 156.46 50.1408 156.673 50.0929C157.099 50.0115 157.47 49.8015 157.714 49.505C157.92 49.1993 158.004 48.849 157.955 48.5024C157.906 48.1559 157.727 47.8304 157.442 47.5711C156.927 47.0959 156.24 46.7684 155.481 46.6365C154.799 46.5316 154.108 46.4746 153.414 46.466C152.781 46.4427 152.152 46.3778 151.532 46.272C150.311 46.0829 149.139 45.7187 148.072 45.1963C147.034 44.7152 146.174 44.0148 145.58 43.1683C145.009 42.3239 144.867 41.3291 145.185 40.3996C145.263 40.155 145.399 39.9254 145.586 39.7243C145.773 39.5232 146.007 39.3545 146.274 39.2281C146.541 39.1017 146.837 39.0202 147.143 38.9882C147.449 38.9562 147.76 38.9744 148.057 39.0418C149.285 39.3768 150.039 40.4055 150.448 41.346L151.109 39.3827Z" fill="#246DFF"/>
<path d="M169.449 36.5902C169.409 36.2078 169.471 35.823 169.63 35.462C169.788 35.1009 170.04 34.772 170.368 34.4975C170.965 33.9907 171.74 33.6495 172.586 33.5218C173.428 33.3818 174.303 33.4642 175.085 33.7569C175.471 33.9041 175.826 34.1027 176.133 34.3447L176.363 34.5211L176.542 34.7092L176.887 35.0854C177.753 36.1432 178.076 37.4377 177.784 38.6887C177.513 39.8659 176.861 40.962 175.896 41.863C174.982 42.7365 173.883 43.4673 172.651 44.0203C172.05 44.3003 171.423 44.542 170.777 44.7433C170.185 44.8981 169.611 45.0948 169.061 45.3312C168.573 45.5553 168.185 45.9013 167.955 46.3187C167.853 46.4947 167.819 46.6919 167.858 46.8841C167.896 47.0763 168.005 47.2543 168.17 47.3944C168.347 47.508 168.567 47.5658 168.791 47.5572C169.016 47.5485 169.228 47.4741 169.391 47.3474C169.489 47.2656 169.556 47.1621 169.583 47.0497C169.61 46.9373 169.596 46.8209 169.544 46.7147C169.491 46.6085 169.402 46.5173 169.287 46.4521C169.171 46.387 169.036 46.3508 168.896 46.3481C169.078 46.2969 169.277 46.2975 169.459 46.3497C169.641 46.402 169.797 46.5028 169.901 46.6361C170.018 46.7826 170.084 46.9523 170.093 47.1272C170.102 47.3021 170.053 47.4757 169.951 47.6296C169.845 47.7915 169.692 47.9296 169.505 48.0321C169.319 48.1345 169.105 48.1981 168.881 48.2174C168.447 48.2639 168.007 48.1712 167.654 47.9587C167.328 47.7348 167.095 47.4333 166.988 47.0962C166.882 46.7591 166.906 46.4031 167.058 46.0777C167.329 45.4796 167.834 44.9714 168.494 44.6317C169.082 44.3276 169.705 44.0698 170.353 43.8616C170.93 43.6517 171.487 43.4061 172.019 43.1268C173.076 42.5887 174.01 41.9022 174.776 41.0988C175.533 40.3458 176.029 39.4405 176.212 38.4771C176.369 37.519 176.063 36.5486 175.358 35.7731C175.178 35.5664 174.949 35.3913 174.685 35.2582C174.42 35.1251 174.126 35.0368 173.82 34.9984C173.513 34.9601 173.2 34.9724 172.899 35.0348C172.599 35.0972 172.316 35.2083 172.069 35.3616C171.071 36.0318 170.82 37.2133 170.856 38.2126L169.449 36.5902Z" fill="#246DFF"/>
<g opacity="0.2">
<path opacity="0.2" d="M151.108 39.3829C150.976 39.0138 150.747 38.6724 150.439 38.3822C150.13 38.092 149.748 37.8599 149.32 37.7018C148.543 37.4051 147.672 37.3146 146.829 37.4431C145.981 37.5614 145.202 37.8969 144.603 38.4013C144.447 38.5246 144.309 38.6628 144.194 38.8127C144.068 38.9534 143.962 39.1052 143.878 39.2654L143.748 39.5005L143.662 39.7239L143.504 40.1765C143.157 41.4159 143.415 42.7172 144.222 43.8034C144.999 44.8218 146.091 45.6534 147.389 46.2135C148.627 46.7569 149.974 47.1133 151.366 47.2657C152.048 47.3504 152.737 47.3917 153.427 47.3891C154.053 47.3641 154.68 47.3858 155.301 47.4538C155.843 47.5211 156.346 47.7268 156.737 48.0416C156.911 48.1754 157.031 48.3499 157.08 48.5413C157.128 48.7327 157.104 48.9318 157.01 49.1114C156.896 49.2689 156.716 49.3872 156.503 49.4445C156.291 49.5017 156.06 49.4941 155.854 49.423C155.726 49.377 155.618 49.3017 155.542 49.2062C155.466 49.1107 155.426 48.9991 155.426 48.8851C155.426 48.7711 155.466 48.6596 155.542 48.5641C155.618 48.4686 155.726 48.3933 155.854 48.3473C155.656 48.3553 155.468 48.4177 155.319 48.5244C155.171 48.6311 155.071 48.7759 155.035 48.9351C154.992 49.1064 155.006 49.2842 155.075 49.4496C155.145 49.6151 155.267 49.7622 155.43 49.8756C155.601 49.9908 155.803 50.0706 156.019 50.1085C156.235 50.1463 156.459 50.1411 156.672 50.0931C157.098 50.0117 157.469 49.8018 157.713 49.5053C157.919 49.1996 158.003 48.8492 157.954 48.5027C157.905 48.1562 157.726 47.8307 157.441 47.5713C156.926 47.0962 156.239 46.7686 155.48 46.6367C154.798 46.5319 154.107 46.4748 153.413 46.4662C152.78 46.4429 152.151 46.378 151.531 46.2722C150.31 46.0831 149.138 45.719 148.071 45.1965C147.033 44.7154 146.173 44.015 145.579 43.1685C145.008 42.3241 144.866 41.3293 145.184 40.3999C145.262 40.1552 145.398 39.9257 145.585 39.7245C145.772 39.5234 146.006 39.3547 146.273 39.2284C146.54 39.102 146.836 39.0204 147.142 38.9884C147.448 38.9564 147.759 38.9746 148.056 39.042C149.284 39.3771 150.038 40.4058 150.447 41.3463L151.108 39.3829Z" fill="black"/>
<path opacity="0.2" d="M169.445 36.5907C169.406 36.2083 169.467 35.8235 169.626 35.4625C169.784 35.1014 170.036 34.7725 170.364 34.498C170.961 33.9912 171.736 33.65 172.582 33.5222C173.425 33.3823 174.299 33.4647 175.081 33.7574C175.468 33.9046 175.822 34.1032 176.129 34.3452L176.359 34.5215L176.538 34.7096L176.883 35.0859C177.749 36.1437 178.072 37.4382 177.781 38.6892C177.509 39.8664 176.857 40.9625 175.892 41.8635C174.978 42.737 173.879 43.4678 172.647 44.0208C172.046 44.3008 171.419 44.5425 170.773 44.7438C170.181 44.8986 169.607 45.0953 169.057 45.3317C168.569 45.5558 168.182 45.9018 167.951 46.3192C167.849 46.4952 167.815 46.6924 167.854 46.8846C167.892 47.0768 168.001 47.2548 168.167 47.3949C168.343 47.5085 168.563 47.5663 168.788 47.5577C169.012 47.549 169.225 47.4745 169.387 47.3479C169.485 47.2661 169.552 47.1626 169.579 47.0502C169.606 46.9378 169.593 46.8213 169.54 46.7152C169.487 46.609 169.398 46.5177 169.283 46.4526C169.168 46.3875 169.032 46.3513 168.892 46.3486C169.075 46.2974 169.273 46.298 169.455 46.3502C169.638 46.4025 169.793 46.5033 169.897 46.6366C170.014 46.7831 170.081 46.9528 170.089 47.1277C170.098 47.3026 170.049 47.4762 169.947 47.6301C169.841 47.792 169.688 47.9301 169.501 48.0326C169.315 48.135 169.101 48.1986 168.877 48.2179C168.443 48.2644 168.003 48.1717 167.65 47.9592C167.324 47.7353 167.091 47.4338 166.984 47.0967C166.878 46.7596 166.902 46.4035 167.054 46.0782C167.325 45.4801 167.83 44.9719 168.49 44.6321C169.079 44.3281 169.701 44.0702 170.349 43.8621C170.927 43.6522 171.483 43.4066 172.015 43.1273C173.072 42.5892 174.006 41.9027 174.772 41.0993C175.529 40.3463 176.025 39.441 176.208 38.4776C176.365 37.5195 176.059 36.5491 175.354 35.7736C175.174 35.5668 174.945 35.3917 174.681 35.2587C174.416 35.1256 174.122 35.0373 173.816 34.9989C173.509 34.9605 173.196 34.9729 172.896 35.0353C172.595 35.0977 172.313 35.2088 172.065 35.3621C171.067 36.0323 170.816 37.2138 170.852 38.2131L169.445 36.5907Z" fill="black"/>
</g>
<path d="M159.394 48.5051C155.294 47.6292 151.603 44.549 150.002 40.2755L149.284 38.3181L170.659 35.0557L170.831 37.1013C171.212 41.5453 169.123 45.5072 165.676 47.5352C165.227 47.8089 164.879 48.1787 164.67 48.6039C164.461 49.0291 164.399 49.4932 164.491 49.9453L165.274 53.8073C165.364 54.2629 165.652 54.6767 166.084 54.9726C166.517 55.2685 167.065 55.4267 167.629 55.4179C168.662 55.3954 169.668 55.6841 170.458 56.2291L171.413 56.9051L158.187 58.9214L158.783 58.0044C159.284 57.266 160.095 56.7019 161.067 56.4172C161.596 56.2588 162.038 55.9492 162.311 55.5453C162.584 55.1414 162.67 54.6703 162.553 54.2188L161.591 50.3861C161.471 49.9376 161.203 49.5247 160.815 49.1929C160.427 48.861 159.936 48.6231 159.394 48.5051Z" fill="#246DFF"/>
<path d="M171.909 55.9121L157.283 58.14L157.613 62.1137L173.345 59.7153L171.909 55.9121Z" fill="#263238"/>
<path opacity="0.2" d="M168.572 56.4172L160.624 57.634L160.954 61.6019L170.008 60.2205L168.572 56.4172Z" fill="white"/>
<path d="M162.825 60.0471L167.575 59.3228L167.231 57.8087L162.48 58.533L162.825 60.0471Z" fill="white"/>
<path opacity="0.3" d="M164.997 47.2059C164.559 47.5281 164.231 47.9383 164.046 48.3961C163.86 48.8539 163.825 49.3433 163.942 49.8159L164.932 54.1834C165.126 55.0417 165.507 55.3179 166.691 55.4943C167.391 55.5671 168.056 55.7857 168.623 56.1291L166.397 56.4642C166.163 56.3509 165.908 56.2677 165.643 56.2173L165.306 56.1585C165.08 56.1179 164.874 56.0238 164.713 55.8879C164.552 55.752 164.444 55.5804 164.401 55.3943L162.786 48.2934C162.729 48.0415 162.744 47.7824 162.829 47.5359C162.913 47.2893 163.065 47.0619 163.274 46.8709L163.712 46.4712C165.536 44.7965 166.505 42.6123 166.419 40.3695L166.246 36.2548L169.456 35.761L169.327 40.493C169.262 42.7561 167.503 45.5306 164.997 47.2059Z" fill="white"/>
<path d="M160.213 89.3531C162.525 91.3517 168.678 91.0402 168.678 91.0402C168.678 91.0402 172.555 90.4523 171.844 89.4001C169.633 88.9593 168.628 88.0364 168.254 86.9195C168.081 86.2232 168.081 85.5055 168.254 84.8092C168.324 84.4129 168.422 84.0203 168.549 83.6336L161.441 78.6077C162.144 81.7055 162.841 87.3192 160.213 89.3531Z" fill="#E4897B"/>
<path opacity="0.2" d="M162.906 81.6409C162.906 85.35 166.496 86.6021 168.284 86.9313C168.111 86.235 168.111 85.5173 168.284 84.821L162.906 81.6409Z" fill="black"/>
<path d="M172.184 71.4943C172.184 71.4943 173.778 68.4905 168.961 66.6036C164.143 64.7167 152.849 66.8035 155.513 73.5047C158.176 80.2059 172.184 71.4943 172.184 71.4943Z" fill="#263238"/>
<path d="M171.258 69.1558C171.258 69.1558 174.252 73.4234 171.696 76.6799C169.14 79.9365 164.243 69.7024 164.243 69.7024L171.258 69.1558Z" fill="#263238"/>
<path d="M162.762 83.9684C162.978 84.1129 163.203 84.2483 163.437 84.374C164.614 85.0356 166.022 85.3639 167.449 85.3087C168.875 85.2535 170.239 84.8179 171.335 84.0683C172.775 83.1109 173.718 81.7407 173.97 80.2357C174.011 80.0255 174.037 79.8135 174.049 79.6008C174.062 79.1499 174.048 78.6986 174.006 78.2488C173.661 74.4162 171.342 69.5255 166.538 68.8025C165.347 68.6202 164.118 68.6902 162.969 69.0058C161.82 69.3214 160.788 69.8722 159.971 70.6059C159.155 71.3396 158.581 72.2318 158.304 73.1981C158.027 74.1643 158.057 75.1724 158.389 76.1268C159.66 79.9065 160.227 82.2989 162.762 83.9684Z" fill="#E4897B"/>
<path d="M166.424 75.9799C166.481 76.3209 166.797 76.5677 167.07 76.509C167.343 76.4502 167.487 76.1504 167.4 75.8094C167.314 75.4685 167.027 75.2216 166.761 75.2804C166.496 75.3392 166.338 75.639 166.424 75.9799Z" fill="#263238"/>
<path d="M171.098 75.1865C171.156 75.5274 171.479 75.7743 171.744 75.7155C172.01 75.6567 172.161 75.3569 172.082 75.016C172.003 74.6751 171.701 74.4282 171.436 74.4869C171.17 74.5457 171.019 74.8632 171.098 75.1865Z" fill="#263238"/>
<path d="M169.653 75.6042C170.407 76.5566 171.318 77.4191 172.36 78.1672C172.119 78.3823 171.823 78.5513 171.493 78.662C171.162 78.7728 170.807 78.8226 170.45 78.8079L169.653 75.6042Z" fill="#DE5753"/>
<path d="M164.659 74.9861C164.705 74.985 164.75 74.9734 164.788 74.9526C164.826 74.9318 164.856 74.9027 164.875 74.8685C165.002 74.6366 165.194 74.432 165.434 74.2708C165.675 74.1097 165.957 73.9964 166.26 73.9398C166.325 73.9311 166.383 73.9025 166.423 73.86C166.463 73.8174 166.482 73.764 166.476 73.7105C166.471 73.6842 166.461 73.6588 166.444 73.6359C166.428 73.6129 166.406 73.593 166.38 73.5771C166.354 73.5612 166.324 73.5497 166.292 73.5434C166.261 73.537 166.228 73.5359 166.196 73.5401C165.807 73.6043 165.443 73.7448 165.136 73.9496C164.828 74.1544 164.586 74.4173 164.43 74.7157C164.415 74.7392 164.406 74.7649 164.403 74.7913C164.401 74.8176 164.404 74.8442 164.414 74.8693C164.424 74.8945 164.44 74.9178 164.461 74.9378C164.483 74.9578 164.508 74.9743 164.537 74.9861C164.578 74.9925 164.619 74.9925 164.659 74.9861Z" fill="#263238"/>
<path d="M172.771 73.523C172.82 73.5374 172.873 73.5374 172.922 73.523C172.973 73.4904 173.007 73.4428 173.017 73.3902C173.026 73.3376 173.01 73.2841 172.972 73.2409C172.739 72.9801 172.433 72.7692 172.079 72.6259C171.726 72.4827 171.335 72.4113 170.94 72.4179C170.908 72.4201 170.877 72.4275 170.848 72.4397C170.82 72.4518 170.794 72.4685 170.774 72.4887C170.753 72.5089 170.738 72.5323 170.728 72.5575C170.718 72.5826 170.715 72.6091 170.718 72.6354C170.723 72.6889 170.754 72.7386 170.804 72.7737C170.853 72.8089 170.918 72.8268 170.983 72.8235C171.295 72.8258 171.601 72.8875 171.877 73.0039C172.154 73.1202 172.394 73.288 172.577 73.4936C172.605 73.51 172.637 73.5211 172.67 73.5262C172.704 73.5313 172.738 73.5302 172.771 73.523Z" fill="#263238"/>
<path d="M160.24 78.7965C159.817 78.9964 160.958 82.2529 160.958 82.2529C160.958 82.2529 158.768 81.8062 156.945 79.3138C153.355 74.3467 154.073 72.93 155.458 71.7661C158.065 69.6088 162.969 71.6486 162.969 71.6486C162.638 71.6469 162.312 71.7182 162.027 71.8548C161.741 71.9915 161.505 72.1885 161.345 72.4253C161.184 72.6621 161.104 72.9299 161.113 73.2008C161.122 73.4716 161.22 73.7354 161.396 73.9646C162.595 75.3342 162.279 77.9266 161.145 79.1669C161.123 79.1434 160.872 78.4909 160.24 78.7965Z" fill="#263238"/>
<path d="M157.061 79.9127C157.864 80.7577 159.044 81.3073 160.342 81.441C162.058 81.6115 162.654 80.3007 161.958 79.0897C161.333 78.0081 159.674 76.5856 158.059 76.9912C157.707 77.0804 157.388 77.2404 157.13 77.4567C156.873 77.673 156.687 77.9386 156.587 78.2292C156.488 78.5199 156.479 78.8263 156.562 79.1204C156.645 79.4145 156.816 79.6869 157.061 79.9127Z" fill="#E4897B"/>
<path d="M159.324 70.3373C160.182 71.165 161.282 71.8024 162.52 72.1907C163.759 72.579 165.097 72.7058 166.411 72.5592C166.411 72.5592 164.257 72.4005 163.539 71.895C163.539 71.895 168.45 72.6298 172.155 71.4953C175.86 70.3608 170.676 66.4988 168.435 66.5869C166.195 66.6751 158.226 67.4981 159.324 70.3373Z" fill="#263238"/>
<path d="M170.58 80.4358C170.204 80.8251 169.865 81.2378 169.567 81.6702L169.266 81.5761C167.916 81.1529 167.464 80.5886 167.363 80.0948C167.325 79.8511 167.357 79.6036 167.456 79.3718C167.51 79.2408 167.585 79.1163 167.679 79.0015C168.37 79.5681 169.203 80.0053 170.12 80.2829C170.4 80.3828 170.58 80.4358 170.58 80.4358Z" fill="#263238"/>
<path d="M170.125 80.2829L169.816 80.6415C168.545 80.2359 167.712 79.8127 167.461 79.3718C167.515 79.2408 167.59 79.1163 167.684 79.0015C168.375 79.5681 169.207 80.0053 170.125 80.2829Z" fill="white"/>
<path d="M169.269 81.5763C167.919 81.1531 167.467 80.5887 167.366 80.095C167.867 80.2644 168.328 80.503 168.73 80.8004C169.006 81.0058 169.194 81.2775 169.269 81.5763Z" fill="#DE5753"/>
<path d="M179.497 119.332L150.454 118.109C150.856 106.529 150.117 91.1928 149.478 86.8899L151.897 83.9978C151.897 83.9978 159.795 90.3404 163.464 90.3698C169.027 90.3427 174.484 89.127 179.296 86.8429C181.888 97.3356 180.509 111.714 179.497 119.332Z" fill="#246DFF"/>
<path opacity="0.6" d="M179.497 119.332L150.454 118.109C150.856 106.529 150.117 91.1928 149.478 86.8899L151.897 83.9978C151.897 83.9978 159.795 90.3404 163.464 90.3698C169.027 90.3427 174.484 89.127 179.296 86.8429C181.888 97.3356 180.509 111.714 179.497 119.332Z" fill="white"/>
<path d="M165.647 91.6396L166.229 92.0511L169.446 94.3201C169.446 94.3201 172.899 105.73 186.398 107.611L188.738 106.035L186.85 104.119C186.85 104.119 175.068 104.254 170.953 93.6617L171.463 90.7226L169.683 90.6109L166.811 90.4346" fill="#246DFF"/>
<path d="M161.551 87.0728L168.501 90.1706L169.118 88.0662L171.696 88.9891C172.143 89.152 172.511 89.4325 172.741 89.7861C172.971 90.1396 173.051 90.5459 172.967 90.9406L172.45 93.2567L168.939 91.3815L166.928 93.3801L158.6 89.4417L161.551 87.0728Z" fill="#246DFF"/>
<path opacity="0.5" d="M161.551 87.0728L168.501 90.1706L169.118 88.0662L171.696 88.9891C172.143 89.152 172.511 89.4325 172.741 89.7861C172.971 90.1396 173.051 90.5459 172.967 90.9406L172.45 93.2567L168.939 91.3815L166.928 93.3801L158.6 89.4417L161.551 87.0728Z" fill="white"/>
<path d="M151.914 83.9985C151.914 83.9985 145.452 77.0445 146.723 72.9004C147.994 68.7562 156.179 60.0211 156.179 60.0211L154.319 57.7051C154.319 57.7051 142.537 65.6995 140.835 72.5418C139.133 79.3841 150.133 95.8961 150.133 95.8961C150.133 95.8961 154.233 87.2668 151.914 83.9985Z" fill="#246DFF"/>
<path opacity="0.5" d="M151.914 83.9985C151.914 83.9985 145.452 77.0445 146.723 72.9004C147.994 68.7562 156.179 60.0211 156.179 60.0211L154.319 57.7051C154.319 57.7051 142.537 65.6995 140.835 72.5418C139.133 79.3841 150.133 95.8961 150.133 95.8961C150.133 95.8961 154.233 87.2668 151.914 83.9985Z" fill="white"/>
</svg>
