<svg width="315" height="219" viewBox="0 0 315 219" fill="none" xmlns="http://www.w3.org/2000/svg">
<path d="M157.5 218.268C224.962 218.268 279.651 215.308 279.651 211.658C279.651 208.008 224.962 205.048 157.5 205.048C90.0379 205.048 35.3492 208.008 35.3492 211.658C35.3492 215.308 90.0379 218.268 157.5 218.268Z" fill="#F5F5F5"/>
<path d="M234.517 202.176C234.517 202.176 232.47 202.077 232.268 196.921C232.066 191.766 235.67 190.347 238.442 190.983C238.442 190.983 238.039 187.287 239.834 187.427C241.63 187.567 241.51 190.026 241.51 190.026C241.51 190.026 242.14 184.771 244.578 184.771C247.016 184.771 244.578 190.966 244.578 190.966C244.578 190.966 247.974 189.453 249.221 190.966C250.469 192.478 247.665 194.247 247.665 194.247C247.665 194.247 252.075 195.578 250.223 199.806C250.223 199.806 253.291 200.25 254.148 202.141C254.148 202.141 253.902 198.317 255.011 198.574C256.12 198.831 255.868 202.182 255.868 202.182C255.868 202.182 257.707 198.504 259.301 199.8C260.895 201.096 258.57 204.22 258.57 204.22C258.57 204.22 261.639 202.842 262.124 204.67C262.609 206.497 260.41 207.18 260.41 207.18C260.41 207.18 263.598 206.497 263.598 209.89C263.598 209.89 269.734 209.347 271.208 212.395H234.668L234.517 202.176Z" fill="#246DFF"/>
<path opacity="0.4" d="M234.517 202.176C234.517 202.176 232.47 202.077 232.268 196.921C232.066 191.766 235.67 190.347 238.442 190.983C238.442 190.983 238.039 187.287 239.834 187.427C241.63 187.567 241.51 190.026 241.51 190.026C241.51 190.026 242.14 184.771 244.578 184.771C247.016 184.771 244.578 190.966 244.578 190.966C244.578 190.966 247.974 189.453 249.221 190.966C250.469 192.478 247.665 194.247 247.665 194.247C247.665 194.247 252.075 195.578 250.223 199.806C250.223 199.806 253.291 200.25 254.148 202.141C254.148 202.141 253.902 198.317 255.011 198.574C256.12 198.831 255.868 202.182 255.868 202.182C255.868 202.182 257.707 198.504 259.301 199.8C260.895 201.096 258.57 204.22 258.57 204.22C258.57 204.22 261.639 202.842 262.124 204.67C262.609 206.497 260.41 207.18 260.41 207.18C260.41 207.18 263.598 206.497 263.598 209.89C263.598 209.89 269.734 209.347 271.208 212.395H234.668L234.517 202.176Z" fill="white"/>
<path d="M215.845 149.041C214.963 162.471 210.175 212.102 210.175 212.102L244.768 212.4L235.041 122.719L250.564 118.329L253.821 109.611L266.931 102.739L273.338 93.6181L270.863 93.0342L263.788 101.454L255.535 103.118L259.069 95.3581H255.15L245.322 113.33L235.242 115.246L234.323 82.5474C224.192 86.9325 220.954 79.6279 220.954 79.6279C220.954 79.6279 218.333 130.812 216.859 134.678C215.366 133.908 213.977 132.977 212.72 131.904C209.301 129.084 206.332 125.828 203.9 122.235L203.27 121.271H200.12L215.845 149.041Z" fill="#246DFF"/>
<g opacity="0.2">
<path opacity="0.2" d="M215.844 149.041C214.962 162.471 210.174 212.102 210.174 212.102L244.767 212.4L235.04 122.719L250.563 118.329L253.821 109.611L266.931 102.739L273.338 93.6181L270.862 93.0342L263.787 101.454L255.534 103.118L259.068 95.3581H255.15L245.322 113.33L235.242 115.246L234.322 82.5474C224.192 86.9325 220.953 79.6279 220.953 79.6279C220.953 79.6279 218.333 130.812 216.858 134.678C215.366 133.908 213.976 132.977 212.719 131.904C209.301 129.084 206.331 125.828 203.899 122.235L203.269 121.271H200.119L215.844 149.041Z" fill="black"/>
</g>
<path opacity="0.1" d="M252.308 107.188L248.094 114.721L234.908 117.815C234.908 117.815 234.952 115.894 235.166 113.43L235.223 115.275L245.303 113.36L255.15 95.3879H259.081L255.547 103.148L263.8 101.484L270.875 93.064L271.221 93.1399L265.772 100.783L252.308 107.188Z" fill="black"/>
<path d="M233.327 168.054L236.439 212.33L230.951 212.284V177.338L233.327 168.054Z" fill="#246DFF"/>
<path d="M215.843 149.042L200.093 121.301H203.243L203.873 122.264C206.305 125.858 209.274 129.113 212.693 131.933C213.95 133.006 215.339 133.937 216.832 134.707C218.306 130.841 220.927 79.6572 220.927 79.6572C221.436 80.6582 222.176 81.5432 223.095 82.2496C224.014 82.9559 225.089 83.4663 226.244 83.7445C226.391 100.277 226.54 116.809 226.692 133.341C227.807 131.005 228.777 128.734 228.871 126.287C229.205 133.06 229.653 140.341 229.621 147.027L223.561 167.75L222.389 212.207L210.192 212.102C210.192 212.102 214.961 162.471 215.843 149.042Z" fill="#246DFF"/>
<path d="M176.91 62.4265C171.87 64.0964 168.386 69.042 168.544 74.0109C168.689 76.4993 169.585 78.9 171.13 80.9397C172.675 82.9794 174.806 84.5763 177.282 85.5487C179.784 86.4613 182.495 86.7691 185.161 86.4433C187.827 86.1175 190.36 85.1687 192.521 83.6861C192.742 88.4565 196.257 93.6415 201.165 95.0837C203.644 95.7719 206.289 95.757 208.758 95.0412C211.228 94.3253 213.411 92.9411 215.025 91.0665C228.255 98.7681 274.56 101.623 282.7 68.826C284.375 62.0528 280.306 54.8825 274.34 50.6727C268.373 46.4628 260.788 44.7403 253.348 43.8936C246.286 33.4711 230.624 27.7781 217.438 29.413C204.252 31.0479 192.578 40.2793 188.729 52.0565C175.316 52.1149 176.715 63.2614 176.91 62.4265Z" fill="#246DFF"/>
<g opacity="0.2">
<path opacity="0.2" d="M176.91 62.4265C171.87 64.0964 168.386 69.042 168.544 74.0109C168.689 76.4993 169.585 78.9 171.13 80.9397C172.675 82.9794 174.806 84.5763 177.282 85.5487C179.784 86.4613 182.495 86.7691 185.161 86.4433C187.827 86.1175 190.36 85.1687 192.521 83.6861C192.742 88.4565 196.257 93.6415 201.165 95.0837C203.644 95.7719 206.289 95.757 208.758 95.0412C211.228 94.3253 213.411 92.9411 215.025 91.0665C228.255 98.7681 274.56 101.623 282.7 68.826C284.375 62.0528 280.306 54.8825 274.34 50.6727C268.373 46.4628 260.788 44.7403 253.348 43.8936C246.286 33.4711 230.624 27.7781 217.438 29.413C204.252 31.0479 192.578 40.2793 188.729 52.0565C175.316 52.1149 176.715 63.2614 176.91 62.4265Z" fill="black"/>
</g>
<path d="M193.247 126.942C194 127.975 195.055 128.789 196.289 129.287C197.522 129.785 198.884 129.947 200.213 129.754C201.542 129.561 202.785 129.021 203.795 128.197C204.805 127.373 205.541 126.3 205.917 125.102C209.067 127.146 213.893 126.644 217.068 124.653C218.669 123.648 219.902 122.215 220.603 120.545C221.304 118.875 221.44 117.046 220.992 115.302C220.544 113.559 219.533 111.983 218.095 110.785C216.657 109.587 214.859 108.823 212.941 108.596C212.789 106.969 212.23 105.397 211.308 104.006C210.386 102.614 209.127 101.441 207.63 100.579C206.062 99.6881 204.3 99.1331 202.471 98.9543C200.642 98.7755 198.793 98.9774 197.059 99.5452C195.03 99.2383 192.95 99.3838 190.994 99.9696C189.037 100.556 187.259 101.565 185.807 102.914C183.684 104.824 182.273 107.533 182.519 110.266C182.764 112.998 184.919 115.62 187.823 116.14C187.304 117.129 187.009 118.208 186.957 119.307C186.905 120.407 187.097 121.505 187.521 122.533C188.459 124.565 190.992 126.165 193.247 126.942Z" fill="#246DFF"/>
<path opacity="0.2" d="M193.247 126.942C194 127.975 195.055 128.789 196.289 129.287C197.522 129.785 198.884 129.947 200.213 129.754C201.542 129.561 202.785 129.021 203.795 128.197C204.805 127.373 205.541 126.3 205.917 125.102C209.067 127.146 213.893 126.644 217.068 124.653C218.669 123.648 219.902 122.215 220.603 120.545C221.304 118.875 221.44 117.046 220.992 115.302C220.544 113.559 219.533 111.983 218.095 110.785C216.657 109.587 214.859 108.823 212.941 108.596C212.789 106.969 212.23 105.397 211.308 104.006C210.386 102.614 209.127 101.441 207.63 100.579C206.062 99.6881 204.3 99.1331 202.471 98.9543C200.642 98.7755 198.793 98.9774 197.059 99.5452C195.03 99.2383 192.95 99.3838 190.994 99.9696C189.037 100.556 187.259 101.565 185.807 102.914C183.684 104.824 182.273 107.533 182.519 110.266C182.764 112.998 184.919 115.62 187.823 116.14C187.304 117.129 187.009 118.208 186.957 119.307C186.905 120.407 187.097 121.505 187.521 122.533C188.459 124.565 190.992 126.165 193.247 126.942Z" fill="black"/>
<path d="M259.912 77.356C258.64 76.9493 257.27 76.8867 255.961 77.1757C254.652 77.4646 253.46 78.0931 252.522 78.9875C251.585 79.8819 250.942 81.0053 250.669 82.226C250.395 83.4468 250.503 84.7146 250.978 85.8808C247.148 85.9918 243.601 89.0923 242.354 92.4497C241.723 94.142 241.664 95.9722 242.183 97.6968C242.702 99.4213 243.775 100.959 245.26 102.104C246.745 103.249 248.571 103.949 250.495 104.109C252.419 104.269 254.35 103.882 256.031 103.001C257.209 104.216 258.676 105.16 260.317 105.758C261.957 106.356 263.725 106.592 265.481 106.446C267.312 106.284 269.082 105.747 270.661 104.872C272.24 103.997 273.589 102.808 274.61 101.389C276.431 100.508 278.001 99.2377 279.188 97.6833C280.376 96.1289 281.147 94.335 281.439 92.4497C281.899 89.7462 281.275 86.7917 279.303 84.7422C277.331 82.6928 273.917 81.8228 271.258 82.9906C271.028 81.9147 270.564 80.8936 269.894 79.9899C269.223 79.0863 268.36 78.3191 267.358 77.7355C265.286 76.5969 262.218 76.7254 259.912 77.356Z" fill="#246DFF"/>
<path opacity="0.1" d="M259.912 77.356C258.64 76.9493 257.27 76.8867 255.961 77.1757C254.652 77.4646 253.46 78.0931 252.522 78.9875C251.585 79.8819 250.942 81.0053 250.669 82.226C250.395 83.4468 250.503 84.7146 250.978 85.8808C247.148 85.9918 243.601 89.0923 242.354 92.4497C241.723 94.142 241.664 95.9722 242.183 97.6968C242.702 99.4213 243.775 100.959 245.26 102.104C246.745 103.249 248.571 103.949 250.495 104.109C252.419 104.269 254.35 103.882 256.031 103.001C257.209 104.216 258.676 105.16 260.317 105.758C261.957 106.356 263.725 106.592 265.481 106.446C267.312 106.284 269.082 105.747 270.661 104.872C272.24 103.997 273.589 102.808 274.61 101.389C276.431 100.508 278.001 99.2377 279.188 97.6833C280.376 96.1289 281.147 94.335 281.439 92.4497C281.899 89.7462 281.275 86.7917 279.303 84.7422C277.331 82.6928 273.917 81.8228 271.258 82.9906C271.028 81.9147 270.564 80.8936 269.894 79.9899C269.223 79.0863 268.36 78.3191 267.358 77.7355C265.286 76.5969 262.218 76.7254 259.912 77.356Z" fill="black"/>
<path d="M236.532 211.105C236.532 211.105 223.825 203.473 226.238 202.177C228.651 200.881 237.118 208.512 237.118 208.512C237.118 208.512 227.756 195.818 230.068 193.272C232.38 190.727 238.611 203.619 238.611 203.619C238.611 203.619 234.377 188.882 237.351 187.27C240.324 185.658 241.427 202.037 241.427 202.037C241.427 202.037 242.592 184.286 248.073 184.52C253.554 184.753 245.553 202.037 245.553 202.037C245.553 202.037 253.284 191.766 256.024 194.68C258.765 197.593 247.299 205.774 247.299 205.774C247.299 205.774 255.873 202.043 256.446 204.81C257.019 207.578 246.996 210.527 246.996 210.527C246.996 210.527 250.215 211.385 250.965 212.389H233.842C233.842 212.389 233.565 211.636 236.532 211.105Z" fill="#246DFF"/>
<path opacity="0.6" d="M236.532 211.105C236.532 211.105 223.825 203.473 226.238 202.177C228.651 200.881 237.118 208.512 237.118 208.512C237.118 208.512 227.756 195.818 230.068 193.272C232.38 190.727 238.611 203.619 238.611 203.619C238.611 203.619 234.377 188.882 237.351 187.27C240.324 185.658 241.427 202.037 241.427 202.037C241.427 202.037 242.592 184.286 248.073 184.52C253.554 184.753 245.553 202.037 245.553 202.037C245.553 202.037 253.284 191.766 256.024 194.68C258.765 197.593 247.299 205.774 247.299 205.774C247.299 205.774 255.873 202.043 256.446 204.81C257.019 207.578 246.996 210.527 246.996 210.527C246.996 210.527 250.215 211.385 250.965 212.389H233.842C233.842 212.389 233.565 211.636 236.532 211.105Z" fill="white"/>
<path d="M72.2435 181.524C72.1994 181.314 67.9406 160.836 63.7826 158.11C59.7443 155.47 56.2226 159.096 56.0966 159.277L55.6241 158.898C55.6619 158.851 59.6498 154.723 64.1417 157.666C68.5139 160.521 72.6845 180.59 72.8609 181.442L72.2435 181.524Z" fill="#246DFF"/>
<path d="M70.6603 183.212C70.6603 183.072 69.0853 168.994 64.1902 164.673C63.0058 163.628 61.8466 163.219 60.7441 163.458C58.1233 164.013 56.5042 167.943 56.4916 167.984L55.8994 167.779C55.9687 167.604 57.6508 163.517 60.5992 162.886C61.9222 162.606 63.2767 163.061 64.6249 164.247C69.6649 168.719 71.2273 182.569 71.2903 183.153L70.6603 183.212Z" fill="#246DFF"/>
<path d="M67.7254 160.352C67.7254 160.352 70.573 159.82 71.1211 162.103C71.6692 164.386 66.3835 171.627 66.3835 171.627C66.3835 171.627 61.5829 170.768 61.5829 164.918C61.5829 159.067 66.7804 159.049 67.7254 160.352Z" fill="#246DFF"/>
<path opacity="0.2" d="M67.7254 160.352C67.7254 160.352 70.573 159.82 71.1211 162.103C71.6692 164.386 66.3835 171.627 66.3835 171.627C66.3835 171.627 61.5829 170.768 61.5829 164.918C61.5829 159.067 66.7804 159.049 67.7254 160.352Z" fill="white"/>
<path d="M60.3735 164.766C60.3735 164.766 61.5201 163.598 60.0144 163.312C58.5087 163.026 51.5598 164.223 52.5741 170.646C52.5741 170.646 60.9153 170.71 61.5075 168.117C62.0997 165.525 60.3735 164.766 60.3735 164.766Z" fill="#246DFF"/>
<path opacity="0.2" d="M60.3735 164.766C60.3735 164.766 61.5201 163.598 60.0144 163.312C58.5087 163.026 51.5598 164.223 52.5741 170.646C52.5741 170.646 60.9153 170.71 61.5075 168.117C62.0997 165.525 60.3735 164.766 60.3735 164.766Z" fill="white"/>
<path d="M71.0831 153.76C71.0831 153.76 70.7618 152.592 71.8832 152.896C73.0046 153.199 77.2697 156.317 74.0819 160.323C74.0819 160.323 68.4119 157.578 69.0419 155.652C69.6719 153.725 71.0831 153.76 71.0831 153.76Z" fill="#246DFF"/>
<path opacity="0.2" d="M71.0831 153.76C71.0831 153.76 70.7618 152.592 71.8832 152.896C73.0046 153.199 77.2697 156.317 74.0819 160.323C74.0819 160.323 68.4119 157.578 69.0419 155.652C69.6719 153.725 71.0831 153.76 71.0831 153.76Z" fill="white"/>
<path d="M175.883 185.722L175.253 185.564C175.329 185.325 182.599 161.344 195.747 154.886L196.043 155.4C183.154 161.747 175.953 185.482 175.883 185.722Z" fill="#246DFF"/>
<path d="M176.003 183.013L175.43 182.767C175.562 182.516 188.106 157.105 183.784 149.036L184.345 148.779C188.805 157.093 176.526 181.962 176.003 183.013Z" fill="#246DFF"/>
<path d="M175.511 184.851L174.881 184.682C175.31 183.363 185.383 152.352 191.828 148.539L192.168 149.03C185.944 152.726 175.612 184.53 175.511 184.851Z" fill="#246DFF"/>
<path d="M186.051 150.034C186.051 150.034 187.941 150.496 188.212 149.451C188.483 148.405 182.699 143.314 176.872 146.111C176.872 146.111 177.754 151.167 181.483 152.534C185.213 153.9 186.051 150.034 186.051 150.034Z" fill="#246DFF"/>
<path opacity="0.2" d="M186.051 150.034C186.051 150.034 187.941 150.496 188.212 149.451C188.483 148.405 182.699 143.314 176.872 146.111C176.872 146.111 177.754 151.167 181.483 152.534C185.213 153.9 186.051 150.034 186.051 150.034Z" fill="white"/>
<path d="M190.444 148.755C190.444 148.755 188.503 148.907 188.434 147.81C188.365 146.712 195.017 142.654 200.209 146.35C200.209 146.35 198.382 151.184 194.45 151.949C190.519 152.714 190.444 148.755 190.444 148.755Z" fill="#246DFF"/>
<path opacity="0.2" d="M190.444 148.755C190.444 148.755 188.503 148.907 188.434 147.81C188.365 146.712 195.017 142.654 200.209 146.35C200.209 146.35 198.382 151.184 194.45 151.949C190.519 152.714 190.444 148.755 190.444 148.755Z" fill="white"/>
<path d="M196.598 153.608C196.598 153.608 195.741 152.236 197.272 152.26C198.803 152.283 205.349 154.759 202.911 160.837C202.911 160.837 194.721 159.29 194.721 156.645C194.721 154 196.598 153.608 196.598 153.608Z" fill="#246DFF"/>
<path opacity="0.2" d="M196.598 153.608C196.598 153.608 195.741 152.236 197.272 152.26C198.803 152.283 205.349 154.759 202.911 160.837C202.911 160.837 194.721 159.29 194.721 156.645C194.721 154 196.598 153.608 196.598 153.608Z" fill="white"/>
<path d="M190.518 157.041C190.518 157.041 190.877 155.873 191.684 156.667C192.49 157.461 194.5 162.121 189.586 164.118C189.586 164.118 186.152 159.12 187.727 157.695C189.302 156.27 190.518 157.041 190.518 157.041Z" fill="#246DFF"/>
<path opacity="0.2" d="M190.518 157.041C190.518 157.041 190.877 155.873 191.684 156.667C192.49 157.461 194.5 162.121 189.586 164.118C189.586 164.118 186.152 159.12 187.727 157.695C189.302 156.27 190.518 157.041 190.518 157.041Z" fill="white"/>
<path d="M57.9165 157.438C57.9165 157.438 58.5465 156.364 57.3684 156.416C56.1903 156.469 51.2385 158.501 53.2608 163.108C53.2608 163.108 59.4852 161.747 59.4159 159.721C59.3466 157.695 57.9165 157.438 57.9165 157.438Z" fill="#246DFF"/>
<path opacity="0.2" d="M57.9165 157.438C57.9165 157.438 58.5465 156.364 57.3684 156.416C56.1903 156.469 51.2385 158.501 53.2608 163.108C53.2608 163.108 59.4852 161.747 59.4159 159.721C59.3466 157.695 57.9165 157.438 57.9165 157.438Z" fill="white"/>
<path d="M168.638 197.231C168.638 197.231 164.48 197.079 164.071 189.308C163.661 181.536 171.001 179.463 176.614 180.415C176.614 180.415 175.789 174.879 179.443 175.084C183.097 175.288 182.845 178.984 182.845 178.984C182.845 178.984 184.105 171.137 189.075 171.131C194.046 171.125 189.075 180.415 189.075 180.415C189.075 180.415 195.974 178.149 198.525 180.415C201.077 182.68 195.375 185.331 195.375 185.331C195.375 185.331 204.315 187.322 200.579 193.663C200.579 193.663 206.81 194.329 208.555 197.167C208.555 197.167 208.057 191.439 210.3 191.824C212.543 192.209 212.039 197.231 212.039 197.231C212.039 197.231 215.781 191.713 219.019 193.663C222.257 195.614 217.526 200.285 217.526 200.285C217.526 200.285 223.757 198.218 224.752 200.956C225.748 203.695 221.262 204.722 221.262 204.722C221.262 204.722 227.745 203.695 227.745 208.78C227.745 208.78 240.206 207.963 243.199 212.529H168.89L168.638 197.231Z" fill="#246DFF"/>
<path opacity="0.4" d="M168.638 197.231C168.638 197.231 164.48 197.079 164.071 189.308C163.661 181.536 171.001 179.463 176.614 180.415C176.614 180.415 175.789 174.879 179.443 175.084C183.097 175.288 182.845 178.984 182.845 178.984C182.845 178.984 184.105 171.137 189.075 171.131C194.046 171.125 189.075 180.415 189.075 180.415C189.075 180.415 195.974 178.149 198.525 180.415C201.077 182.68 195.375 185.331 195.375 185.331C195.375 185.331 204.315 187.322 200.579 193.663C200.579 193.663 206.81 194.329 208.555 197.167C208.555 197.167 208.057 191.439 210.3 191.824C212.543 192.209 212.039 197.231 212.039 197.231C212.039 197.231 215.781 191.713 219.019 193.663C222.257 195.614 217.526 200.285 217.526 200.285C217.526 200.285 223.757 198.218 224.752 200.956C225.748 203.695 221.262 204.722 221.262 204.722C221.262 204.722 227.745 203.695 227.745 208.78C227.745 208.78 240.206 207.963 243.199 212.529H168.89L168.638 197.231Z" fill="white"/>
<path d="M81.9386 197.231C81.9386 197.231 85.0067 197.079 85.3091 189.307C85.6115 181.536 80.2124 179.463 76.0544 180.415C76.0544 180.415 76.6844 174.879 73.9691 175.084C71.2538 175.288 71.4491 178.984 71.4491 178.984C71.4491 178.984 70.5293 171.136 66.8501 171.131C63.1709 171.125 66.8501 180.415 66.8501 180.415C66.8501 180.415 61.766 178.149 59.9201 180.415C58.0742 182.68 62.2574 185.331 62.2574 185.331C62.2574 185.331 55.6613 187.322 58.4207 193.663C58.4207 193.663 53.8217 194.329 52.5365 197.167C52.5365 197.167 52.9019 191.438 51.2765 191.824C49.6511 192.209 50.0165 197.231 50.0165 197.231C50.0165 197.231 47.2634 191.713 44.8694 193.663C42.4754 195.613 45.9719 200.285 45.9719 200.285C45.9719 200.285 41.3792 198.218 40.6421 200.956C39.905 203.694 43.2188 204.722 43.2188 204.722C43.2188 204.722 38.4371 203.694 38.4371 208.78C38.4371 208.78 29.2454 207.963 27.0341 212.529H81.8441L81.9386 197.231Z" fill="#246DFF"/>
<path opacity="0.4" d="M81.9386 197.231C81.9386 197.231 85.0067 197.079 85.3091 189.307C85.6115 181.536 80.2124 179.463 76.0544 180.415C76.0544 180.415 76.6844 174.879 73.9691 175.084C71.2538 175.288 71.4491 178.984 71.4491 178.984C71.4491 178.984 70.5293 171.136 66.8501 171.131C63.1709 171.125 66.8501 180.415 66.8501 180.415C66.8501 180.415 61.766 178.149 59.9201 180.415C58.0742 182.68 62.2574 185.331 62.2574 185.331C62.2574 185.331 55.6613 187.322 58.4207 193.663C58.4207 193.663 53.8217 194.329 52.5365 197.167C52.5365 197.167 52.9019 191.438 51.2765 191.824C49.6511 192.209 50.0165 197.231 50.0165 197.231C50.0165 197.231 47.2634 191.713 44.8694 193.663C42.4754 195.613 45.9719 200.285 45.9719 200.285C45.9719 200.285 41.3792 198.218 40.6421 200.956C39.905 203.694 43.2188 204.722 43.2188 204.722C43.2188 204.722 38.4371 203.694 38.4371 208.78C38.4371 208.78 29.2454 207.963 27.0341 212.529H81.8441L81.9386 197.231Z" fill="white"/>
<path d="M54.5822 211.233C54.5822 211.233 67.283 203.601 64.889 202.317C62.495 201.032 53.99 208.646 53.99 208.646C53.99 208.646 63.3518 195.952 61.0397 193.406C58.7276 190.861 52.4969 203.753 52.4969 203.753C52.4969 203.753 56.7305 189.015 53.7569 187.404C50.7833 185.792 49.6682 202.176 49.6682 202.176C49.6682 202.176 48.509 184.42 43.0217 184.66C37.5344 184.899 45.5417 202.176 45.5417 202.176C45.5417 202.176 37.799 191.894 35.0522 194.814C32.3054 197.733 43.7714 205.908 43.7714 205.908C43.7714 205.908 35.1971 202.176 34.649 204.956C34.1009 207.735 44.099 210.672 44.099 210.672C44.099 210.672 40.8734 211.53 40.13 212.529H57.2723C57.2723 212.529 57.5432 211.77 54.5822 211.233Z" fill="#246DFF"/>
<path opacity="0.6" d="M54.5822 211.233C54.5822 211.233 67.283 203.601 64.889 202.317C62.495 201.032 53.99 208.646 53.99 208.646C53.99 208.646 63.3518 195.952 61.0397 193.406C58.7276 190.861 52.4969 203.753 52.4969 203.753C52.4969 203.753 56.7305 189.015 53.7569 187.404C50.7833 185.792 49.6682 202.176 49.6682 202.176C49.6682 202.176 48.509 184.42 43.0217 184.66C37.5344 184.899 45.5417 202.176 45.5417 202.176C45.5417 202.176 37.799 191.894 35.0522 194.814C32.3054 197.733 43.7714 205.908 43.7714 205.908C43.7714 205.908 35.1971 202.176 34.649 204.956C34.1009 207.735 44.099 210.672 44.099 210.672C44.099 210.672 40.8734 211.53 40.13 212.529H57.2723C57.2723 212.529 57.5432 211.77 54.5822 211.233Z" fill="white"/>
<path d="M60.9404 212.528C60.9404 212.528 75.5564 162.681 78.215 160.836C80.8736 158.991 96.0377 153.789 96.0377 153.789C96.0377 153.789 132.924 159.499 138.468 158.933C144.012 158.366 161.829 155.19 164.386 158.933C166.944 162.675 177.03 185.167 177.03 185.167L191.199 190.708L200.177 212.528H60.9404Z" fill="#246DFF"/>
<path opacity="0.6" d="M200.175 212.529H60.9454C60.9454 212.529 75.4921 162.898 78.2011 160.843C79.1469 160.269 80.1438 159.771 81.181 159.354C86.4478 157.082 96.0238 153.801 96.0238 153.801C96.0238 153.801 132.91 159.511 138.454 158.945C143.998 158.379 161.815 155.196 164.372 158.945C164.914 159.745 165.803 161.391 166.861 163.493C170.78 171.23 177.029 185.162 177.029 185.162L191.198 190.709L200.175 212.529Z" fill="white"/>
<path opacity="0.1" d="M166.873 163.481L161.374 168.526L147.041 165.391L130.825 168.514L131.864 174.324L125.961 180.84L128.059 174.324L123.479 167.171C123.479 167.171 104.818 168.222 99.9485 167.171C96.893 166.512 87.6509 162.343 81.2123 159.341C86.4791 157.07 96.0551 153.789 96.0551 153.789C96.0551 153.789 132.942 159.499 138.486 158.933C144.03 158.366 161.846 155.184 164.404 158.933C164.927 159.733 165.815 161.379 166.873 163.481Z" fill="black"/>
<path opacity="0.1" d="M200.175 212.529H60.9454C60.9454 212.529 75.4921 162.898 78.2011 160.842L69.2299 199.52L73.7155 205.942L84.7405 198.188L93.2392 202.532L104.97 200.337L106.135 195.082L122.755 184.951L112.322 193.908L115.995 204.126L131.965 206.678H149.605L156.869 202.176L154.437 193.009L150.764 187.696L169.381 187.655L161.456 192.203L164.379 200.279L173.344 204.132L183.764 198.171L188.01 209.545L200.175 212.529Z" fill="black"/>
<path d="M181.566 212.528H204.642C204.642 212.528 200.05 206.012 198.09 206.841C195.539 207.915 193.649 202.012 190.827 203.408C189.831 203.904 190.323 205.48 189.693 206.117C188.659 207.168 187.343 206.964 186.095 207.542C183.645 208.674 182.775 210.169 181.566 212.528Z" fill="#246DFF"/>
<path opacity="0.2" d="M181.566 212.528H204.642C204.642 212.528 200.05 206.012 198.09 206.841C195.539 207.915 193.649 202.012 190.827 203.408C189.831 203.904 190.323 205.48 189.693 206.117C188.659 207.168 187.343 206.964 186.095 207.542C183.645 208.674 182.775 210.169 181.566 212.528Z" fill="black"/>
<path d="M202.123 210.713C202.123 210.713 200.605 202.568 201.651 201.371C202.697 200.174 202.879 205.814 202.879 205.814C202.879 205.814 206.395 194.043 208.644 193.984C210.893 193.926 206.01 204.197 206.01 204.197C206.01 204.197 215.624 189.634 218.415 190.989C221.206 192.344 208.335 205.253 208.335 205.253C208.335 205.253 215.366 199.642 216.916 201.23C218.466 202.819 209.11 207.653 209.11 207.653C209.11 207.653 213.237 206.795 213.23 208.068C213.224 209.341 206.25 211.437 202.123 210.713Z" fill="#246DFF"/>
<path opacity="0.2" d="M202.123 210.713C202.123 210.713 200.605 202.568 201.651 201.371C202.697 200.174 202.879 205.814 202.879 205.814C202.879 205.814 206.395 194.043 208.644 193.984C210.893 193.926 206.01 204.197 206.01 204.197C206.01 204.197 215.624 189.634 218.415 190.989C221.206 192.344 208.335 205.253 208.335 205.253C208.335 205.253 215.366 199.642 216.916 201.23C218.466 202.819 209.11 207.653 209.11 207.653C209.11 207.653 213.237 206.795 213.23 208.068C213.224 209.341 206.25 211.437 202.123 210.713Z" fill="white"/>
<path d="M200.737 209.551C200.737 209.551 193.51 208.336 192.811 207.25C192.112 206.164 196.862 207.624 196.862 207.624C196.862 207.624 188.042 201.785 188.615 200.15C189.189 198.515 196.383 204.944 196.383 204.944C196.383 204.944 186.933 193.943 188.867 192.32C190.802 190.697 197.933 203.566 197.933 203.566C197.933 203.566 195.237 196.938 196.994 196.273C198.752 195.607 200.144 203.688 200.144 203.688C200.144 203.688 200.592 200.489 201.65 200.851C202.708 201.213 202.507 206.795 200.737 209.551Z" fill="#246DFF"/>
<path opacity="0.2" d="M200.737 209.551C200.737 209.551 193.51 208.336 192.811 207.25C192.112 206.164 196.862 207.624 196.862 207.624C196.862 207.624 188.042 201.785 188.615 200.15C189.189 198.515 196.383 204.944 196.383 204.944C196.383 204.944 186.933 193.943 188.867 192.32C190.802 190.697 197.933 203.566 197.933 203.566C197.933 203.566 195.237 196.938 196.994 196.273C198.752 195.607 200.144 203.688 200.144 203.688C200.144 203.688 200.592 200.489 201.65 200.851C202.708 201.213 202.507 206.795 200.737 209.551Z" fill="white"/>
<path d="M200.194 208.658C200.194 208.658 193.214 202.182 193.34 200.483C193.466 198.784 197.511 203.776 197.511 203.776C197.511 203.776 192.59 191.042 194.587 189.658C196.584 188.274 199.199 200.483 199.199 200.483C199.199 200.483 197.876 181.612 201.341 181.215C204.806 180.818 202.047 200.074 202.047 200.074C202.047 200.074 204.567 190.843 207.049 191.357C209.531 191.871 204.403 201.791 204.403 201.791C204.403 201.791 207.553 198.574 208.416 199.73C209.279 200.886 204.428 206.848 200.194 208.658Z" fill="#246DFF"/>
<path opacity="0.1" d="M200.194 208.658C200.194 208.658 193.214 202.182 193.34 200.483C193.466 198.784 197.511 203.776 197.511 203.776C197.511 203.776 192.59 191.042 194.587 189.658C196.584 188.274 199.199 200.483 199.199 200.483C199.199 200.483 197.876 181.612 201.341 181.215C204.806 180.818 202.047 200.074 202.047 200.074C202.047 200.074 204.567 190.843 207.049 191.357C209.531 191.871 204.403 201.791 204.403 201.791C204.403 201.791 207.553 198.574 208.416 199.73C209.279 200.886 204.428 206.848 200.194 208.658Z" fill="white"/>
<path d="M191.734 212.527H210.123C210.123 212.527 206.463 207.337 204.901 207.996C202.872 208.855 201.366 204.149 199.117 205.264C198.324 205.655 198.708 206.91 198.21 207.418C197.385 208.259 196.32 208.096 195.344 208.557C193.41 209.456 192.698 210.647 191.734 212.527Z" fill="#246DFF"/>
<path d="M76.8602 212.528H53.8022C53.8022 212.528 58.4012 206.012 60.3605 206.841C62.8805 207.915 64.7705 202.012 67.6181 203.408C68.6135 203.904 68.1284 205.48 68.7584 206.117C69.7916 207.168 71.1083 206.964 72.3557 207.542C74.8064 208.674 75.6758 210.169 76.8602 212.528Z" fill="#246DFF"/>
<path opacity="0.2" d="M76.8602 212.528H53.8022C53.8022 212.528 58.4012 206.012 60.3605 206.841C62.8805 207.915 64.7705 202.012 67.6181 203.408C68.6135 203.904 68.1284 205.48 68.7584 206.117C69.7916 207.168 71.1083 206.964 72.3557 207.542C74.8064 208.674 75.6758 210.169 76.8602 212.528Z" fill="black"/>
<path d="M56.3284 210.713C56.3284 210.713 57.8404 202.567 56.7946 201.37C55.7488 200.173 55.5346 205.814 55.5346 205.814C55.5346 205.814 52.0507 194.043 49.8016 194.002C47.5525 193.961 52.4728 204.214 52.4728 204.214C52.4728 204.214 42.8401 189.634 40.0618 190.989C37.2835 192.343 50.1418 205.253 50.1418 205.253C50.1418 205.253 43.1047 199.642 41.5549 201.23C40.0051 202.818 49.3669 207.653 49.3669 207.653C49.3669 207.653 45.2404 206.795 45.2467 208.068C45.253 209.341 52.1956 211.437 56.3284 210.713Z" fill="#246DFF"/>
<path opacity="0.2" d="M56.3284 210.713C56.3284 210.713 57.8404 202.567 56.7946 201.37C55.7488 200.173 55.5346 205.814 55.5346 205.814C55.5346 205.814 52.0507 194.043 49.8016 194.002C47.5525 193.961 52.4728 204.214 52.4728 204.214C52.4728 204.214 42.8401 189.634 40.0618 190.989C37.2835 192.343 50.1418 205.253 50.1418 205.253C50.1418 205.253 43.1047 199.642 41.5549 201.23C40.0051 202.818 49.3669 207.653 49.3669 207.653C49.3669 207.653 45.2404 206.795 45.2467 208.068C45.253 209.341 52.1956 211.437 56.3284 210.713Z" fill="white"/>
<path d="M63.4092 211.098C63.4092 211.098 68.9091 206.584 68.9028 205.317C68.8965 204.05 65.6457 207.588 65.6457 207.588C65.6457 207.588 69.9297 198.345 68.5185 197.236C67.1073 196.127 64.5558 205.095 64.5558 205.095C64.5558 205.095 66.4458 191.152 63.9258 190.691C61.4058 190.229 62.4642 204.657 62.4642 204.657C62.4642 204.657 61.0593 197.697 59.1882 197.978C57.3171 198.258 60.6309 205.831 60.6309 205.831C60.6309 205.831 58.4574 203.309 57.7518 204.132C57.0462 204.955 60.36 209.585 63.4092 211.098Z" fill="#246DFF"/>
<path opacity="0.2" d="M63.4092 211.098C63.4092 211.098 68.9091 206.584 68.9028 205.317C68.8965 204.05 65.6457 207.588 65.6457 207.588C65.6457 207.588 69.9297 198.345 68.5185 197.236C67.1073 196.127 64.5558 205.095 64.5558 205.095C64.5558 205.095 66.4458 191.152 63.9258 190.691C61.4058 190.229 62.4642 204.657 62.4642 204.657C62.4642 204.657 61.0593 197.697 59.1882 197.978C57.3171 198.258 60.6309 205.831 60.6309 205.831C60.6309 205.831 58.4574 203.309 57.7518 204.132C57.0462 204.955 60.36 209.585 63.4092 211.098Z" fill="white"/>
<path d="M66.7166 212.527H48.3206C48.3206 212.527 51.9872 207.337 53.5496 207.996C55.5782 208.855 57.0839 204.149 59.333 205.264C60.1268 205.655 59.7362 206.91 60.2339 207.418C61.0592 208.259 62.1239 208.096 63.1067 208.557C65.0597 209.456 65.7527 210.647 66.7166 212.527Z" fill="#246DFF"/>
<path d="M110.168 100.578C110.168 100.578 88.9873 97.5186 84.9679 99.1243C80.9485 100.73 79.594 106.505 79.594 106.505C79.594 106.505 78.8695 107.673 81.0619 107.824C81.0619 107.824 72.097 128.523 74.932 132.488C77.767 136.453 106.319 138.041 110.212 136.097C114.105 134.152 123.348 102.055 110.168 100.578Z" fill="#263238"/>
<path d="M122.643 120.326C122.643 120.326 125.447 126.357 126.077 127.198C126.707 128.039 140.661 133.983 140.661 133.983C141.792 133.837 142.939 133.837 144.069 133.983C145.789 134.234 148.158 134.906 148.372 135.151C148.586 135.396 145.783 139.174 145.783 139.174C145.783 139.174 140.207 139.495 139.483 137.451C139.483 137.451 125.503 132.64 123.878 131.379C122.252 130.118 117.729 122.667 117.729 122.667L122.643 120.326Z" fill="#E4897B"/>
<path d="M118.63 107.118C121.251 108.566 125.352 124.156 126.234 126.007C127.116 127.858 137.826 132.36 137.826 132.36L133.076 136.576C133.076 136.576 122.221 132.109 120.873 130.859C119.525 129.61 114.107 116.653 114.107 116.653L118.63 107.118Z" fill="#246DFF"/>
<path d="M117.76 142.747C117.76 142.747 161.936 136.867 164.267 145.848C166.73 155.348 131.261 161.753 110.087 162.425C88.9123 163.096 82.7887 158.781 86.1907 134.503L114.793 134.438L117.76 142.747Z" fill="#263238"/>
<path opacity="0.2" d="M117.76 142.747C117.76 142.747 161.936 136.867 164.267 145.848C166.73 155.348 131.261 161.753 110.087 162.425C88.9123 163.096 82.7887 158.781 86.1907 134.503L114.793 134.438L117.76 142.747Z" fill="black"/>
<path d="M157.659 156.667C157.636 156.683 157.608 156.691 157.58 156.691C157.552 156.691 157.524 156.683 157.501 156.667C157.481 156.654 157.465 156.635 157.458 156.612C157.451 156.59 157.453 156.566 157.464 156.544C157.533 156.328 158.232 154.437 158.944 154.238C159.019 154.222 159.098 154.224 159.172 154.244C159.246 154.265 159.313 154.303 159.366 154.355C159.465 154.431 159.541 154.53 159.585 154.641C159.629 154.753 159.641 154.874 159.618 154.991C159.504 155.344 159.272 155.655 158.957 155.879C158.554 156.181 158.119 156.445 157.659 156.667ZM157.835 156.305C158.496 156.036 159.032 155.558 159.347 154.956C159.366 154.876 159.359 154.793 159.328 154.716C159.296 154.64 159.242 154.573 159.171 154.524C159.151 154.501 159.124 154.485 159.094 154.477C159.063 154.468 159.031 154.469 159.001 154.477C158.941 154.501 158.886 154.532 158.837 154.571C158.394 155.089 158.055 155.676 157.835 156.305Z" fill="#246DFF"/>
<path d="M157.62 156.696C157.597 156.703 157.572 156.703 157.549 156.697C157.525 156.691 157.504 156.679 157.488 156.661C157.419 156.603 156.442 155.459 156.6 154.688C156.643 154.495 156.765 154.326 156.94 154.215C157.014 154.147 157.11 154.105 157.213 154.096C157.317 154.086 157.42 154.11 157.507 154.162C158.017 154.501 157.954 156.031 157.702 156.615V156.673L157.62 156.696ZM157.06 154.448C156.972 154.521 156.913 154.617 156.889 154.723C156.789 155.213 157.28 155.949 157.519 156.299C157.683 155.645 157.633 154.548 157.33 154.378C157.299 154.378 157.236 154.314 157.085 154.413L157.034 154.448H157.06Z" fill="#246DFF"/>
<path d="M142.355 161.478L151.616 161.484L156.058 161.489L156.587 157.151L152.479 156.643L142.437 155.399L142.355 161.478Z" fill="#E4897B"/>
<path d="M155.609 156.632L154.482 161.577C154.468 161.642 154.469 161.709 154.483 161.773C154.498 161.838 154.526 161.899 154.567 161.954C154.607 162.008 154.659 162.054 154.719 162.09C154.779 162.126 154.846 162.15 154.916 162.161L157.575 162.605C157.575 162.605 161.109 163.44 162.105 162.85C165.003 161.133 167.775 150.244 166.616 149.42C166.187 149.128 165.437 149.572 165.066 149.928C163.875 151.055 161.336 154.197 160.328 155.131C159.156 156.217 157.071 156.246 156.158 156.205C156.026 156.201 155.897 156.242 155.795 156.321C155.694 156.4 155.628 156.51 155.609 156.632Z" fill="#263238"/>
<path opacity="0.2" d="M142.355 161.478L151.616 161.484L152.479 156.643L142.437 155.399L142.355 161.478Z" fill="black"/>
<path d="M107.383 142.449V143.535C107.384 143.897 107.535 144.244 107.805 144.505C108.075 144.765 108.443 144.92 108.832 144.937H151.918C152.319 144.924 152.7 144.774 152.988 144.515C153.276 144.256 153.449 143.906 153.474 143.535V142.449H107.383Z" fill="#263238"/>
<path opacity="0.2" d="M107.383 142.449V143.535C107.384 143.897 107.535 144.244 107.805 144.505C108.075 144.765 108.443 144.92 108.832 144.937H151.918C152.319 144.924 152.7 144.774 152.988 144.515C153.276 144.256 153.449 143.906 153.474 143.535V142.449H107.383Z" fill="white"/>
<path opacity="0.2" d="M123.48 142.449V143.535C123.483 143.897 123.635 144.244 123.906 144.505C124.177 144.766 124.545 144.92 124.935 144.937H151.937C152.338 144.924 152.72 144.774 153.007 144.515C153.295 144.256 153.468 143.906 153.493 143.535V142.449H123.48Z" fill="white"/>
<path d="M124.916 143.938H153.379C153.836 143.917 154.277 143.772 154.645 143.521C155.014 143.269 155.294 142.923 155.452 142.525L161.979 123.548C162.055 123.385 162.085 123.205 162.066 123.028C162.047 122.85 161.979 122.68 161.869 122.534C161.76 122.387 161.612 122.269 161.439 122.19C161.266 122.111 161.075 122.074 160.883 122.083H132.419C131.958 122.113 131.517 122.269 131.15 122.529C130.782 122.789 130.505 123.144 130.353 123.548L123.826 142.502C123.75 142.663 123.72 142.84 123.739 143.016C123.758 143.191 123.826 143.359 123.935 143.504C124.045 143.648 124.193 143.764 124.364 143.84C124.536 143.916 124.726 143.95 124.916 143.938Z" fill="#263238"/>
<path opacity="0.2" d="M124.916 143.938H153.379C153.836 143.917 154.277 143.772 154.645 143.521C155.014 143.269 155.294 142.923 155.452 142.525L161.979 123.548C162.055 123.385 162.085 123.205 162.066 123.028C162.047 122.85 161.979 122.68 161.869 122.534C161.76 122.387 161.612 122.269 161.439 122.19C161.266 122.111 161.075 122.074 160.883 122.083H132.419C131.958 122.113 131.517 122.269 131.15 122.529C130.782 122.789 130.505 123.144 130.353 123.548L123.826 142.502C123.75 142.663 123.72 142.84 123.739 143.016C123.758 143.191 123.826 143.359 123.935 143.504C124.045 143.648 124.193 143.764 124.364 143.84C124.536 143.916 124.726 143.95 124.916 143.938Z" fill="white"/>
<path opacity="0.2" d="M126 143.938H153.393C153.85 143.917 154.29 143.772 154.658 143.521C155.027 143.269 155.308 142.923 155.465 142.525L161.992 123.548C162.068 123.385 162.098 123.205 162.079 123.028C162.06 122.85 161.992 122.68 161.883 122.534C161.773 122.387 161.625 122.269 161.452 122.19C161.28 122.111 161.088 122.074 160.896 122.083H133.491C133.03 122.113 132.588 122.269 132.221 122.529C131.854 122.789 131.577 123.144 131.424 123.548L124.898 142.502C124.821 142.664 124.791 142.843 124.811 143.019C124.83 143.196 124.899 143.365 125.01 143.509C125.121 143.654 125.271 143.769 125.444 143.844C125.618 143.92 125.809 143.952 126 143.938Z" fill="white"/>
<path opacity="0.2" d="M142.644 133.86C142.292 135.121 142.972 136.149 144.163 136.149C145.353 136.149 146.594 135.121 146.947 133.86C147.3 132.599 146.62 131.571 145.435 131.571C144.251 131.571 143.01 132.616 142.644 133.86Z" fill="white"/>
<path opacity="0.2" d="M155.609 156.632L154.482 161.577C154.468 161.642 154.469 161.709 154.483 161.773C154.498 161.838 154.526 161.899 154.567 161.954C154.607 162.008 154.659 162.054 154.719 162.09C154.779 162.126 154.846 162.15 154.916 162.161L157.575 162.605C157.575 162.605 161.109 163.44 162.105 162.85C165.003 161.133 167.775 150.244 166.616 149.42C166.187 149.128 165.437 149.572 165.066 149.928C163.875 151.055 161.336 154.197 160.328 155.131C159.156 156.217 157.071 156.246 156.158 156.205C156.026 156.201 155.897 156.242 155.795 156.321C155.694 156.4 155.628 156.51 155.609 156.632Z" fill="white"/>
<path d="M94.6642 137.942L85.7308 138.047L85.9009 135.355L94.6642 135.18V137.942Z" fill="black"/>
<path d="M112.291 134.824L114.962 134.771L115.92 137.679L112.291 137.726V134.824Z" fill="black"/>
<path d="M111.151 134.847V137.737L96.037 137.924V135.15L111.151 134.847Z" fill="black"/>
<path d="M102.445 137.235L102.401 136.109C102.384 135.819 102.489 135.535 102.695 135.316C102.901 135.098 103.192 134.963 103.504 134.941L106.238 134.836C106.39 134.83 106.542 134.854 106.684 134.905C106.826 134.957 106.955 135.034 107.063 135.133C107.292 135.344 107.425 135.628 107.435 135.928L107.479 137.049C107.495 137.339 107.388 137.623 107.18 137.841C106.973 138.059 106.683 138.194 106.37 138.216L103.642 138.322H103.592C103.287 138.311 102.998 138.193 102.785 137.991C102.571 137.788 102.45 137.518 102.445 137.235ZM106.351 137.743C106.532 137.727 106.699 137.646 106.817 137.517C106.935 137.389 106.994 137.223 106.981 137.054L106.937 135.933C106.928 135.76 106.849 135.595 106.717 135.472C106.655 135.413 106.58 135.367 106.497 135.337C106.415 135.307 106.326 135.293 106.238 135.297L103.504 135.402C103.322 135.417 103.154 135.498 103.036 135.627C102.918 135.756 102.86 135.922 102.874 136.091L102.918 137.218C102.918 137.303 102.936 137.386 102.971 137.464C103.006 137.542 103.058 137.613 103.123 137.672C103.188 137.731 103.266 137.778 103.35 137.809C103.435 137.841 103.526 137.856 103.617 137.854L106.351 137.743Z" fill="white"/>
<path d="M102.911 136.868H104.284C104.367 136.867 104.446 136.836 104.505 136.781C104.564 136.727 104.597 136.653 104.599 136.576C104.599 136.499 104.566 136.424 104.507 136.369C104.448 136.315 104.368 136.284 104.284 136.284H102.911C102.827 136.284 102.747 136.315 102.688 136.369C102.629 136.424 102.596 136.499 102.596 136.576C102.597 136.653 102.631 136.727 102.69 136.781C102.748 136.836 102.828 136.867 102.911 136.868Z" fill="white"/>
<path d="M118.629 107.117C118.629 107.117 115.183 127.314 116.626 134.561L84.7539 135.419C84.7539 135.419 88.5339 114.556 93.5424 106.685C93.5424 106.662 101.865 93.7813 118.629 107.117Z" fill="#246DFF"/>
<path opacity="0.6" d="M118.629 107.117C118.629 107.117 115.183 127.314 116.626 134.561L84.7539 135.419C84.7539 135.419 88.5339 114.556 93.5424 106.685C93.5424 106.662 101.865 93.7813 118.629 107.117Z" fill="white"/>
<path d="M99.9308 102.622C99.9308 102.622 105.217 107.409 108.272 106.627C111.328 105.845 112.474 104.402 112.474 104.402C112.474 104.402 110.017 103.404 110.288 102.861C110.32 102.803 110.395 102.692 110.502 102.528C111.416 101.244 114.654 97.1446 114.654 97.1446L107.724 93.5303C107.724 93.5303 107.157 94.774 106.464 96.2571C105.525 98.2306 104.353 100.619 103.944 101.063C103.226 101.845 99.9308 102.622 99.9308 102.622Z" fill="#E4897B"/>
<path opacity="0.2" d="M106.432 96.2571C106.867 98.5343 107.938 101.214 110.502 102.528C111.416 101.244 114.654 97.1446 114.654 97.1446L107.724 93.5303C107.724 93.5303 107.132 94.774 106.432 96.2571Z" fill="black"/>
<path d="M105.039 91.8198C104.653 92.9525 104.463 94.1352 104.479 95.3232C104.611 96.7713 102.872 97.2559 102.652 96.38C102.652 96.38 102.683 98.5113 104.176 98.1901C104.176 98.1901 104.176 99.6674 105.512 99.6907C106.648 98.2383 107.237 96.48 107.188 94.6868C106.98 91.8782 105.039 91.8198 105.039 91.8198Z" fill="#263238"/>
<path d="M117.016 84.7197C114.748 85.5897 115.126 90.471 118.906 94.6459C121.218 92.8008 122.27 88.5383 121.722 86.8567C120.84 84.165 118.988 83.9664 117.016 84.7197Z" fill="#263238"/>
<path d="M120.33 96.6015C120.126 97.1593 119.887 97.7053 119.612 98.2364C117.376 102.458 110.943 103.281 108.096 99.1064L108.064 99.0655C106.174 96.2511 106.886 93.6294 107.674 89.0809C107.846 88.0237 108.307 87.0248 109.013 86.1785C109.718 85.3323 110.644 84.6668 111.704 84.2448C112.764 83.8228 113.923 83.6583 115.071 83.7669C116.219 83.8754 117.318 84.2534 118.264 84.8652C121.975 87.2883 121.754 92.7186 120.33 96.6015Z" fill="#E4897B"/>
<path d="M114.585 91.8194C114.496 92.1873 114.635 92.526 114.887 92.5785C115.139 92.6311 115.423 92.38 115.517 91.9946C115.612 91.6092 115.473 91.2881 115.215 91.2355C114.956 91.183 114.698 91.4808 114.585 91.8194Z" fill="#263238"/>
<path d="M119.069 92.771C118.981 93.133 119.119 93.4717 119.378 93.5242C119.636 93.5768 119.913 93.3315 120.008 92.9403C120.102 92.5491 119.957 92.2338 119.699 92.1813C119.441 92.1287 119.145 92.4032 119.069 92.771Z" fill="#263238"/>
<path d="M117.552 92.6377C117.754 93.8476 118.134 95.0262 118.68 96.1411C118.367 96.2632 118.03 96.3202 117.692 96.3081C117.353 96.296 117.021 96.215 116.72 96.071L117.552 92.6377Z" fill="#DE5753"/>
<path d="M113.678 90.2719C113.626 90.2658 113.578 90.2454 113.539 90.2135C113.495 90.1711 113.471 90.1146 113.471 90.0558C113.471 89.9971 113.495 89.9406 113.539 89.8982C113.82 89.6658 114.158 89.4998 114.523 89.4144C114.888 89.329 115.27 89.3267 115.637 89.4077C115.666 89.4145 115.693 89.4266 115.717 89.4432C115.741 89.4598 115.761 89.4807 115.776 89.5046C115.792 89.5285 115.802 89.5549 115.806 89.5824C115.81 89.6098 115.808 89.6378 115.801 89.6646C115.782 89.7203 115.74 89.7671 115.685 89.7953C115.63 89.8236 115.565 89.8311 115.505 89.8165C115.215 89.756 114.913 89.7611 114.626 89.8312C114.339 89.9013 114.074 90.0344 113.854 90.2193C113.83 90.2385 113.802 90.2531 113.771 90.2621C113.741 90.2711 113.709 90.2744 113.678 90.2719Z" fill="#263238"/>
<path d="M121.433 91.8195C121.389 91.8081 121.35 91.7865 121.318 91.7569C121.286 91.7273 121.262 91.6905 121.25 91.6502C121.19 91.3809 121.062 91.1285 120.877 90.9134C120.692 90.6984 120.455 90.5267 120.185 90.4123C120.127 90.3925 120.078 90.352 120.051 90.2996C120.024 90.2472 120.02 90.187 120.041 90.132C120.062 90.0774 120.106 90.0327 120.162 90.0076C120.219 89.9825 120.284 89.979 120.343 89.9977C120.688 90.1362 120.993 90.3496 121.231 90.6199C121.469 90.8902 121.633 91.2095 121.71 91.5509C121.718 91.5785 121.719 91.6072 121.715 91.6354C121.71 91.6636 121.7 91.6906 121.684 91.7151C121.668 91.7395 121.647 91.7608 121.623 91.7777C121.598 91.7946 121.57 91.8068 121.54 91.8137C121.505 91.8224 121.469 91.8243 121.433 91.8195Z" fill="#263238"/>
<path d="M115.789 98.3124C115.12 98.2517 114.483 98.0195 113.949 97.6421C113.415 97.2646 113.005 96.7567 112.765 96.1754C112.753 96.1344 112.759 96.0907 112.781 96.0537C112.804 96.0166 112.841 95.9891 112.885 95.9769C112.93 95.9658 112.978 95.9711 113.019 95.9917C113.06 96.0123 113.091 96.0467 113.105 96.0878C113.105 96.152 113.622 97.6351 115.846 97.9913C115.891 97.9998 115.931 98.0238 115.958 98.0584C115.984 98.0931 115.996 98.1358 115.991 98.1781C115.983 98.2206 115.957 98.2586 115.92 98.2837C115.882 98.3089 115.835 98.3192 115.789 98.3124Z" fill="#263238"/>
<path d="M121.281 88.3575C121.281 88.3575 122.743 87.3181 122.686 86.1036C122.636 85.3364 122.373 84.5942 121.922 83.9488C121.472 83.3034 120.85 82.7765 120.116 82.4193C118.722 81.6718 117.145 81.2696 115.535 81.2515C109.954 80.9478 106.917 82.501 105.959 85.2628C105.367 86.2438 105.38 88.0655 105.909 89.7705C105.912 89.78 105.912 89.7902 105.909 89.7997C106.195 90.7728 106.69 91.6823 107.364 92.4739C110.766 89.7413 112.033 87.8028 111.497 86.5182C111.611 86.489 113.299 85.0877 114.049 85.0526C115.132 85.0001 117.129 85.9518 118.748 86.8452C119.637 87.3298 120.55 86.5532 120.55 86.5532L121.281 88.3575Z" fill="#263238"/>
<path d="M104.486 92.211C104.521 92.7841 104.677 93.3452 104.946 93.8622C105.215 94.3791 105.592 94.8419 106.054 95.2239C107.314 96.2282 108.637 95.3523 108.883 93.9218C109.11 92.6314 108.732 90.5469 107.194 90.0914C105.657 89.636 104.397 90.7921 104.486 92.211Z" fill="#E4897B"/>
<path d="M104.479 95.2825C104.479 95.2825 106.545 87.8378 111.654 85.0643C116.764 82.2908 122.062 84.2294 122.062 84.2294C122.007 83.4827 121.891 82.741 121.715 82.0106C121.564 81.777 119.032 80.9712 119.032 80.9712C119.032 80.9712 117.589 79.0035 115.585 78.3729C113.582 77.7423 107.597 77.5613 105.505 79.1787C103.414 80.7961 102.034 84.0892 102.916 84.1476C103.798 84.206 104.472 84.206 104.472 84.206C104.472 84.206 102.822 89.4903 103.527 90.2843C103.534 90.2785 102.311 93.957 104.479 95.2825Z" fill="#246DFF"/>
<path d="M114.729 163.488C114.746 163.467 114.768 163.451 114.793 163.44C114.819 163.43 114.846 163.426 114.874 163.429C114.899 163.432 114.921 163.443 114.937 163.46C114.954 163.478 114.962 163.5 114.962 163.523C115.013 163.744 115.34 165.718 114.811 166.203C114.753 166.249 114.683 166.281 114.608 166.295C114.533 166.31 114.456 166.306 114.383 166.284C114.257 166.26 114.14 166.206 114.045 166.125C113.949 166.045 113.879 165.943 113.841 165.829C113.765 165.468 113.813 165.094 113.979 164.76C114.182 164.314 114.433 163.887 114.729 163.488ZM114.729 163.89C114.289 164.417 114.066 165.071 114.099 165.736C114.123 165.814 114.17 165.885 114.236 165.939C114.302 165.992 114.384 166.027 114.471 166.039C114.499 166.051 114.53 166.055 114.561 166.049C114.591 166.044 114.619 166.03 114.641 166.01C114.686 165.967 114.72 165.915 114.742 165.858C114.873 165.208 114.875 164.541 114.748 163.89H114.729Z" fill="#246DFF"/>
<path d="M128.829 153.824L120.047 156.527L115.826 157.829L116.802 162.098L120.878 161.379L130.826 159.616L128.829 153.824Z" fill="#E4897B"/>
<path d="M117.942 162.319L117.312 157.298C117.304 157.229 117.282 157.163 117.245 157.103C117.209 157.043 117.16 156.991 117.101 156.949C117.042 156.907 116.974 156.878 116.902 156.861C116.83 156.845 116.755 156.842 116.682 156.854L114.03 157.216C114.03 157.216 110.395 157.461 109.651 158.308C107.484 160.789 108.549 171.936 109.947 172.356C110.458 172.508 111.012 171.866 111.245 171.422C111.988 170.003 113.33 166.278 113.96 165.098C114.704 163.726 116.669 163.084 117.551 162.856C117.675 162.825 117.783 162.753 117.854 162.655C117.926 162.556 117.957 162.437 117.942 162.319Z" fill="#263238"/>
<path d="M114.747 163.452C114.767 163.438 114.792 163.43 114.817 163.43C114.842 163.43 114.866 163.438 114.886 163.452C114.968 163.452 116.411 164.036 116.656 164.813C116.691 164.908 116.703 165.01 116.693 165.111C116.682 165.211 116.648 165.309 116.593 165.396C116.561 165.487 116.497 165.564 116.411 165.616C116.325 165.668 116.223 165.691 116.121 165.683C115.491 165.607 114.785 164.223 114.716 163.604V163.54C114.714 163.524 114.715 163.508 114.721 163.492C114.726 163.477 114.735 163.463 114.747 163.452ZM116.373 165.204C116.411 165.102 116.411 164.991 116.373 164.888C116.222 164.41 115.415 163.972 115.006 163.779C115.188 164.427 115.774 165.356 116.14 165.396C116.177 165.396 116.253 165.396 116.335 165.256L116.366 165.204H116.373Z" fill="#246DFF"/>
<path opacity="0.2" d="M128.828 153.824L120.046 156.527L120.878 161.379L130.825 159.616L128.828 153.824Z" fill="black"/>
<path d="M122.403 162.132L124.91 162.348L123.411 154.32L120.532 155.721L122.403 162.132Z" fill="#246DFF"/>
<path opacity="0.6" d="M122.403 162.132L124.91 162.348L123.411 154.32L120.532 155.721L122.403 162.132Z" fill="white"/>
<path opacity="0.2" d="M117.942 162.319L117.312 157.298C117.304 157.229 117.282 157.163 117.245 157.103C117.209 157.043 117.16 156.991 117.101 156.949C117.042 156.907 116.974 156.878 116.902 156.861C116.83 156.845 116.755 156.842 116.682 156.854L114.03 157.216C114.03 157.216 110.395 157.461 109.651 158.308C107.484 160.789 108.549 171.936 109.947 172.356C110.458 172.508 111.012 171.866 111.245 171.422C111.988 170.003 113.33 166.278 113.96 165.098C114.704 163.726 116.669 163.084 117.551 162.856C117.675 162.825 117.783 162.753 117.854 162.655C117.926 162.556 117.957 162.437 117.942 162.319Z" fill="white"/>
<path d="M150.771 156.013C150.771 156.013 109.669 141.217 97.0883 143.687C84.5072 146.157 84.4379 152.265 90.7883 157.958C97.1387 163.651 106.702 161.461 106.702 161.461C106.702 161.461 99.2114 157.304 99.7343 154.735C100.257 152.165 105.02 158.039 105.02 158.039C105.02 158.039 129.855 163.668 150.38 162.185L150.771 156.013Z" fill="#263238"/>
<path d="M151.269 155.395L148.963 154.414L147.634 162.43L150.847 161.946L151.269 155.395Z" fill="#246DFF"/>
<path opacity="0.6" d="M151.269 155.395L148.963 154.414L147.634 162.43L150.847 161.946L151.269 155.395Z" fill="white"/>
<path d="M97.3218 101.069C97.3218 101.069 102.885 115.082 102.595 118.23C102.305 121.377 90.8454 144.954 90.8454 144.954L81.3954 148.458C81.3954 148.458 83.3421 113.827 97.3218 101.069Z" fill="#246DFF"/>
<path opacity="0.2" d="M97.3218 101.069C97.3218 101.069 102.885 115.082 102.595 118.23C102.305 121.377 90.8454 144.954 90.8454 144.954L81.3954 148.458C81.3954 148.458 83.3421 113.827 97.3218 101.069Z" fill="black"/>
<path d="M117.401 141.749C117.401 141.749 114.428 135.215 113.477 131.595C112.525 127.975 115.852 109.378 114.062 103.136L118.63 107.118L116.696 130.357L117.401 141.749Z" fill="#246DFF"/>
<path opacity="0.2" d="M117.401 141.749C117.401 141.749 114.428 135.215 113.477 131.595C112.525 127.975 115.852 109.378 114.062 103.136L118.63 107.118L116.696 130.357L117.401 141.749Z" fill="black"/>
<path d="M83.6778 131.594C83.6778 131.594 103.39 135.098 100.272 101.722L97.0653 101.465C97.0653 101.465 99.0183 114.148 95.421 122.445C91.8237 130.742 83.3439 130.356 83.3439 130.356L83.6778 131.594Z" fill="#263238"/>
<path d="M102.483 116.763L95.8678 102.528L93.8707 104.975C93.8707 104.975 93.5179 101.524 94.6771 100.52C95.8363 99.5152 99.0871 100.771 100.347 101.068C101.607 101.366 102.483 116.763 102.483 116.763Z" fill="#246DFF"/>
<path d="M112.909 103.357C112.909 103.357 115.461 110.364 115.045 121.329C114.629 132.295 116.759 131.384 116.759 131.384L117.061 130.35C117.061 130.35 115.87 130.222 115.965 126.526C116.059 122.83 116.595 107.911 115.045 103.993L112.909 103.357Z" fill="#263238"/>
<path d="M114.243 116.343C114.243 116.343 114.873 105.833 111.685 102.756C111.685 102.756 114.073 101.927 115.043 102.756C116.013 103.585 116.253 111.591 114.35 116.77" fill="#246DFF"/>
<path d="M98.2361 120.641C98.2361 120.641 101.121 126.847 101.77 127.712C102.419 128.576 116.777 134.718 116.777 134.718C117.941 134.569 119.122 134.569 120.286 134.718C122.056 134.975 124.494 135.664 124.696 135.927C124.898 136.19 122.031 140.067 122.031 140.067C122.031 140.067 116.292 140.394 115.58 138.315C115.58 138.315 101.191 133.364 99.5213 132.067C97.8518 130.771 93.2402 123.052 93.2402 123.052L98.2361 120.641Z" fill="#E4897B"/>
<path d="M94.6637 106.715C97.7381 106.715 102.054 124.109 102.854 126.468C103.654 128.827 116.405 133.86 116.405 133.86L112.354 138.304C112.354 138.304 98.5697 133.691 96.9506 131.571C95.3315 129.452 90.4238 117.383 90.197 114.592C89.9702 111.801 92.6099 106.709 94.6637 106.715Z" fill="#246DFF"/>
</svg>
