<svg width="305" height="220" viewBox="0 0 305 220" fill="none" xmlns="http://www.w3.org/2000/svg">
<path d="M152.5 219.268C217.821 219.268 270.773 216.289 270.773 212.614C270.773 208.939 217.821 205.96 152.5 205.96C87.1801 205.96 34.2275 208.939 34.2275 212.614C34.2275 216.289 87.1801 219.268 152.5 219.268Z" fill="#F5F5F5"/>
<path d="M199.573 202.921C199.66 202.741 199.7 202.544 199.692 202.346C199.684 202.148 199.626 201.955 199.525 201.782C199.424 201.61 199.281 201.463 199.109 201.355C198.937 201.246 198.741 201.178 198.536 201.157C198.721 200.64 198.736 200.08 198.579 199.554C198.421 199.028 198.1 198.562 197.658 198.218C197.554 198.125 197.421 198.067 197.28 198.054C197.127 198.069 196.984 198.131 196.871 198.23L194.431 199.899C194.238 200.015 194.075 200.172 193.955 200.358C193.461 201.281 195.236 202.462 194.504 203.221C194.297 203.438 193.961 203.485 193.699 203.644C193.119 203.991 193.052 204.749 192.784 205.349C192.515 205.948 191.564 206.418 191.222 205.86C191.485 205.272 190.692 204.79 190.039 204.72C189.386 204.649 188.715 204.608 188.355 204.026C187.434 204.796 185.372 202.633 185.421 201.763C185.057 201.826 184.723 201.997 184.465 202.252C184.207 202.507 184.038 202.833 183.982 203.185C183.876 203.906 183.849 204.635 183.902 205.36C183.902 206.771 183.408 208.153 183.433 209.563C183.433 210.663 183.896 211.885 184.939 212.326C185.459 212.503 186.012 212.575 186.562 212.538L198.451 212.461C198.736 212.482 199.022 212.437 199.286 212.332C199.823 212.062 199.933 211.38 199.982 210.798L200.622 203.332L199.573 202.921Z" fill="#246DFF"/>
<path opacity="0.3" d="M199.573 202.921C199.66 202.741 199.7 202.544 199.692 202.346C199.684 202.148 199.626 201.955 199.525 201.782C199.424 201.61 199.281 201.463 199.109 201.355C198.937 201.246 198.741 201.178 198.536 201.157C198.721 200.64 198.736 200.08 198.579 199.554C198.421 199.028 198.1 198.562 197.658 198.218C197.554 198.125 197.421 198.067 197.28 198.054C197.127 198.069 196.984 198.131 196.871 198.23L194.431 199.899C194.238 200.015 194.075 200.172 193.955 200.358C193.461 201.281 195.236 202.462 194.504 203.221C194.297 203.438 193.961 203.485 193.699 203.644C193.119 203.991 193.052 204.749 192.784 205.349C192.515 205.948 191.564 206.418 191.222 205.86C191.485 205.272 190.692 204.79 190.039 204.72C189.386 204.649 188.715 204.608 188.355 204.026C187.434 204.796 185.372 202.633 185.421 201.763C185.057 201.826 184.723 201.997 184.465 202.252C184.207 202.507 184.038 202.833 183.982 203.185C183.876 203.906 183.849 204.635 183.902 205.36C183.902 206.771 183.408 208.153 183.433 209.563C183.433 210.663 183.896 211.885 184.939 212.326C185.459 212.503 186.012 212.575 186.562 212.538L198.451 212.461C198.736 212.482 199.022 212.437 199.286 212.332C199.823 212.062 199.933 211.38 199.982 210.798L200.622 203.332L199.573 202.921Z" fill="white"/>
<path d="M200.263 190.811H181.816L181.969 192.61L182.079 193.891L182.359 197.224L182.518 199.146L182.731 201.698L182.823 202.791L182.853 203.114L182.963 204.402L183.11 206.165L183.201 207.258L183.293 208.369L183.402 209.657L183.488 210.632L183.579 211.726L183.616 212.202H200.543L200.586 211.726L200.678 210.632L200.757 209.651L200.867 208.363L200.964 207.258L201.056 206.165L201.202 204.402L201.312 203.12V202.797L201.404 201.703L201.617 199.152L201.782 197.236L202.056 193.897L202.166 192.616L202.319 190.817L200.263 190.811ZM201.373 191.987L201.019 191.646H201.404L201.373 191.987ZM201.3 193.074L201.269 193.509L199.616 195.096L197.719 193.274L199.415 191.64H199.818L201.3 193.074ZM200.824 198.764L199.604 199.94L197.707 198.112L199.604 196.295L200.909 197.553L200.824 198.764ZM183.268 197.542L184.58 196.284L186.471 198.1L184.58 199.928L183.36 198.753L183.268 197.542ZM199.006 195.69L197.109 197.512L195.218 195.69L197.109 193.862L199.006 195.69ZM196.029 191.64H198.195L197.109 192.686L196.029 191.64ZM196.493 198.106L194.602 199.934L192.711 198.106L194.602 196.29L196.493 198.106ZM190.204 200.522L192.101 198.7L193.992 200.522L192.101 202.35L190.204 200.522ZM191.485 202.938L189.588 204.76L187.703 202.938L189.594 201.116L191.485 202.938ZM194.602 201.116L196.493 202.938L194.602 204.76L192.711 202.938L194.602 201.116ZM192.101 197.518L190.204 195.696L192.101 193.868L193.992 195.696L192.101 197.518ZM191.491 198.106L189.6 199.934L187.709 198.106L189.6 196.29L191.491 198.106ZM187.093 197.518L185.202 195.696L187.093 193.868L188.984 195.696L187.093 197.518ZM187.093 198.694L188.984 200.516L187.093 202.344L185.202 200.516L187.093 198.694ZM188.984 205.348L187.093 207.17L185.202 205.348L187.093 203.526L188.984 205.348ZM189.594 205.936L191.491 207.764L189.6 209.586L187.709 207.764L189.594 205.936ZM190.204 205.348L192.101 203.526L193.992 205.348L192.101 207.17L190.204 205.348ZM194.602 205.936L196.493 207.764L194.602 209.586L192.711 207.764L194.602 205.936ZM197.091 208.358L198.988 210.186L197.768 211.361H196.42L195.2 210.186L197.091 208.358ZM195.2 205.354L197.091 203.532L198.988 205.354L197.091 207.182L195.2 205.354ZM195.2 200.522L197.091 198.7L198.988 200.522L197.091 202.35L195.2 200.522ZM196.475 193.28L194.584 195.102L192.693 193.28L194.389 191.646H194.785L196.475 193.28ZM192.083 192.692L190.997 191.646H193.162L192.083 192.692ZM191.473 193.28L189.582 195.102L187.691 193.28L189.38 191.646H189.783L191.473 193.28ZM188.154 191.646L187.075 192.692L185.995 191.646H188.154ZM184.769 191.646L186.459 193.28L184.568 195.102L182.921 193.515L182.884 193.08L184.366 191.646H184.769ZM183.146 191.646L182.792 191.987V191.646H183.146ZM183.03 194.802L183.958 195.696L183.165 196.454L183.03 194.802ZM183.543 200.922L183.47 200.058L183.958 200.528L183.543 200.927V200.922ZM183.634 202.015L184.568 201.116L186.459 202.938L184.568 204.76L183.805 204.025L183.634 202.015ZM183.915 205.395V205.313L183.958 205.354L183.915 205.395ZM184.244 209.28L184.006 206.482L184.568 205.942L186.459 207.77L184.568 209.592L184.244 209.28ZM184.421 211.367L184.385 210.95L184.568 210.774L185.178 211.361L184.421 211.367ZM185.184 210.192L187.075 208.363L188.966 210.192L187.746 211.367H186.41L185.184 210.192ZM188.966 211.367L189.576 210.779L190.186 211.367H188.966ZM191.406 211.367L190.186 210.192L192.083 208.363L193.974 210.192L192.754 211.367H191.406ZM193.968 211.367L194.578 210.779L195.188 211.367H193.968ZM199.738 211.367H198.982L199.592 210.779L199.775 210.956L199.738 211.367ZM199.915 209.28L199.592 209.592L197.701 207.77L199.598 205.942L200.159 206.482L199.915 209.28ZM200.251 205.307V205.395L200.214 205.354L200.263 205.307H200.251ZM200.36 204.025L199.592 204.76L197.695 202.938L199.592 201.116L200.525 202.015L200.36 204.025ZM200.617 200.922L200.202 200.522L200.69 200.058L200.617 200.922ZM201.135 194.796L200.995 196.46L200.202 195.696L201.135 194.796Z" fill="#246DFF"/>
<g opacity="0.6">
<path opacity="0.6" d="M200.263 190.811H181.816L181.969 192.61L182.079 193.891L182.359 197.224L182.518 199.146L182.731 201.698L182.823 202.791L182.853 203.114L182.963 204.402L183.11 206.165L183.201 207.258L183.293 208.369L183.402 209.657L183.488 210.632L183.579 211.726L183.616 212.202H200.543L200.586 211.726L200.678 210.632L200.757 209.651L200.867 208.363L200.964 207.258L201.056 206.165L201.202 204.402L201.312 203.12V202.797L201.404 201.703L201.617 199.152L201.782 197.236L202.056 193.897L202.166 192.616L202.319 190.817L200.263 190.811ZM201.373 191.987L201.019 191.646H201.404L201.373 191.987ZM201.3 193.074L201.269 193.509L199.616 195.096L197.719 193.274L199.415 191.64H199.818L201.3 193.074ZM200.824 198.764L199.604 199.94L197.707 198.112L199.604 196.295L200.909 197.553L200.824 198.764ZM183.268 197.542L184.58 196.284L186.471 198.1L184.58 199.928L183.36 198.753L183.268 197.542ZM199.006 195.69L197.109 197.512L195.218 195.69L197.109 193.862L199.006 195.69ZM196.029 191.64H198.195L197.109 192.686L196.029 191.64ZM196.493 198.106L194.602 199.934L192.711 198.106L194.602 196.29L196.493 198.106ZM190.204 200.522L192.101 198.7L193.992 200.522L192.101 202.35L190.204 200.522ZM191.485 202.938L189.588 204.76L187.703 202.938L189.594 201.116L191.485 202.938ZM194.602 201.116L196.493 202.938L194.602 204.76L192.711 202.938L194.602 201.116ZM192.101 197.518L190.204 195.696L192.101 193.868L193.992 195.696L192.101 197.518ZM191.491 198.106L189.6 199.934L187.709 198.106L189.6 196.29L191.491 198.106ZM187.093 197.518L185.202 195.696L187.093 193.868L188.984 195.696L187.093 197.518ZM187.093 198.694L188.984 200.516L187.093 202.344L185.202 200.516L187.093 198.694ZM188.984 205.348L187.093 207.17L185.202 205.348L187.093 203.526L188.984 205.348ZM189.594 205.936L191.491 207.764L189.6 209.586L187.709 207.764L189.594 205.936ZM190.204 205.348L192.101 203.526L193.992 205.348L192.101 207.17L190.204 205.348ZM194.602 205.936L196.493 207.764L194.602 209.586L192.711 207.764L194.602 205.936ZM197.091 208.358L198.988 210.186L197.768 211.361H196.42L195.2 210.186L197.091 208.358ZM195.2 205.354L197.091 203.532L198.988 205.354L197.091 207.182L195.2 205.354ZM195.2 200.522L197.091 198.7L198.988 200.522L197.091 202.35L195.2 200.522ZM196.475 193.28L194.584 195.102L192.693 193.28L194.389 191.646H194.785L196.475 193.28ZM192.083 192.692L190.997 191.646H193.162L192.083 192.692ZM191.473 193.28L189.582 195.102L187.691 193.28L189.38 191.646H189.783L191.473 193.28ZM188.154 191.646L187.075 192.692L185.995 191.646H188.154ZM184.769 191.646L186.459 193.28L184.568 195.102L182.921 193.515L182.884 193.08L184.366 191.646H184.769ZM183.146 191.646L182.792 191.987V191.646H183.146ZM183.03 194.802L183.958 195.696L183.165 196.454L183.03 194.802ZM183.543 200.922L183.47 200.058L183.958 200.528L183.543 200.927V200.922ZM183.634 202.015L184.568 201.116L186.459 202.938L184.568 204.76L183.805 204.025L183.634 202.015ZM183.915 205.395V205.313L183.958 205.354L183.915 205.395ZM184.244 209.28L184.006 206.482L184.568 205.942L186.459 207.77L184.568 209.592L184.244 209.28ZM184.421 211.367L184.385 210.95L184.568 210.774L185.178 211.361L184.421 211.367ZM185.184 210.192L187.075 208.363L188.966 210.192L187.746 211.367H186.41L185.184 210.192ZM188.966 211.367L189.576 210.779L190.186 211.367H188.966ZM191.406 211.367L190.186 210.192L192.083 208.363L193.974 210.192L192.754 211.367H191.406ZM193.968 211.367L194.578 210.779L195.188 211.367H193.968ZM199.738 211.367H198.982L199.592 210.779L199.775 210.956L199.738 211.367ZM199.915 209.28L199.592 209.592L197.701 207.77L199.598 205.942L200.159 206.482L199.915 209.28ZM200.251 205.307V205.395L200.214 205.354L200.263 205.307H200.251ZM200.36 204.025L199.592 204.76L197.695 202.938L199.592 201.116L200.525 202.015L200.36 204.025ZM200.617 200.922L200.202 200.522L200.69 200.058L200.617 200.922ZM201.135 194.796L200.995 196.46L200.202 195.696L201.135 194.796Z" fill="white"/>
</g>
<path d="M181.634 192.392H202.52C203.073 192.392 203.521 191.961 203.521 191.428V191.029C203.521 190.496 203.073 190.065 202.52 190.065H181.634C181.081 190.065 180.633 190.496 180.633 191.029V191.428C180.633 191.961 181.081 192.392 181.634 192.392Z" fill="#246DFF"/>
<path d="M200.873 210.95H183.287C182.734 210.95 182.286 211.382 182.286 211.914V212.314C182.286 212.847 182.734 213.278 183.287 213.278H200.873C201.425 213.278 201.873 212.847 201.873 212.314V211.914C201.873 211.382 201.425 210.95 200.873 210.95Z" fill="#246DFF"/>
<path d="M261.946 22.905H110.63C109.238 22.905 108.11 23.992 108.11 25.3327V130.524C108.11 131.865 109.238 132.952 110.63 132.952H261.946C263.338 132.952 264.466 131.865 264.466 130.524V25.3327C264.466 23.992 263.338 22.905 261.946 22.905Z" fill="#246DFF"/>
<path opacity="0.4" d="M264.466 28.854H108.11V128.185H264.466V28.854Z" fill="black"/>
<path d="M260.805 27.2193C261.617 27.2193 262.275 26.585 262.275 25.8026C262.275 25.0202 261.617 24.386 260.805 24.386C259.993 24.386 259.335 25.0202 259.335 25.8026C259.335 26.585 259.993 27.2193 260.805 27.2193Z" fill="white"/>
<path d="M255.846 27.2193C256.658 27.2193 257.316 26.585 257.316 25.8026C257.316 25.0202 256.658 24.386 255.846 24.386C255.034 24.386 254.376 25.0202 254.376 25.8026C254.376 26.585 255.034 27.2193 255.846 27.2193Z" fill="white"/>
<path d="M250.887 27.2193C251.699 27.2193 252.357 26.585 252.357 25.8026C252.357 25.0202 251.699 24.386 250.887 24.386C250.075 24.386 249.417 25.0202 249.417 25.8026C249.417 26.585 250.075 27.2193 250.887 27.2193Z" fill="white"/>
<path d="M159.497 80.4768H108.69V123.376H159.497V80.4768Z" fill="#263238"/>
<path d="M159.497 36.6306H108.69V79.5301H159.497V36.6306Z" fill="#263238"/>
<path d="M211.469 36.6306H160.662V79.5301H211.469V36.6306Z" fill="#246DFF"/>
<path d="M263.448 36.6306H212.641V79.5301H263.448V36.6306Z" fill="white"/>
<path d="M211.469 80.4768H160.662V123.376H211.469V80.4768Z" fill="#263238"/>
<path d="M263.448 80.4768H212.641V123.376H263.448V80.4768Z" fill="#246DFF"/>
<path d="M254.742 79.5294L255.895 70.1713C256.048 68.9627 255.731 67.7422 255.004 66.7463C254.277 65.7504 253.193 65.05 251.96 64.7809C238.772 61.9535 230.903 64.7515 230.903 64.7515C227.952 69.3548 225.671 74.3273 224.126 79.5294H254.742Z" fill="#263238"/>
<path d="M245.221 64.3753C246.351 64.2557 247.49 64.234 248.624 64.3107C245.757 62.0005 247.179 56.134 248.344 52.948L239.48 57.774C239.583 58.1821 239.657 58.5965 239.7 59.0144C239.812 59.7611 239.719 60.5229 239.432 61.2246C238.909 62.1255 238.191 62.9074 237.327 63.5171L240.877 65.0396L245.221 64.3753Z" fill="#E4897B"/>
<path opacity="0.2" d="M246.312 56.0168C245.958 59.9318 241.59 61.0075 239.449 61.225C239.737 60.5233 239.829 59.7615 239.718 59.0148L246.312 56.0168Z" fill="black"/>
<path d="M234.655 44.1716C234.655 44.1716 233.96 49.7383 237.315 52.0837C240.67 54.4292 239.944 40.8269 239.944 40.8269L234.655 44.1716Z" fill="#263238"/>
<path d="M247.66 55.9342C247.484 56.2785 247.28 56.6088 247.05 56.9218C246.396 57.8558 245.461 58.5741 244.37 58.9799C243.279 59.3856 242.086 59.4592 240.95 59.1908C240.789 59.1567 240.63 59.1135 240.474 59.0615C238.978 58.6105 237.709 57.6407 236.912 56.3398C236.912 56.2987 236.857 56.2458 236.827 56.2046C236.717 56.0165 236.619 55.8226 236.522 55.6168C236.334 55.1843 236.169 54.7429 236.027 54.2942C234.807 50.5145 234.954 44.1954 238.596 42.0263C241.493 40.2628 246.074 40.8507 247.898 43.6546C248.423 44.4481 247.837 46.5232 247.929 47.4578C248.362 51.2552 248.801 53.6711 247.66 55.9342Z" fill="#E4897B"/>
<path d="M241.342 49.7857C241.427 50.1267 241.262 50.45 241.018 50.4911C240.774 50.5323 240.536 50.2736 240.475 49.9033C240.414 49.533 240.555 49.2332 240.793 49.1979C241.03 49.1627 241.275 49.4331 241.342 49.7857Z" fill="#263238"/>
<path d="M237.217 50.462C237.303 50.8089 237.132 51.1322 236.894 51.1674C236.656 51.2027 236.418 50.9499 236.351 50.5796C236.284 50.2093 236.436 49.9095 236.668 49.8742C236.9 49.8389 237.156 50.1329 237.217 50.462Z" fill="#263238"/>
<path d="M238.559 50.4204C238.313 51.5668 237.902 52.6747 237.339 53.7122C237.623 53.846 237.934 53.9179 238.251 53.923C238.567 53.9281 238.881 53.8662 239.17 53.7416L238.559 50.4204Z" fill="#DE5753"/>
<path d="M242.391 48.2865C242.353 48.2983 242.312 48.3002 242.272 48.292C242.232 48.2837 242.196 48.2656 242.166 48.2395C241.971 48.0569 241.736 47.92 241.477 47.8395C241.219 47.7589 240.945 47.7369 240.677 47.7751C240.621 47.7876 240.562 47.7786 240.513 47.7501C240.464 47.7215 240.429 47.6757 240.414 47.6223C240.407 47.596 240.405 47.5686 240.409 47.5417C240.414 47.5148 240.423 47.489 240.438 47.4659C240.453 47.4428 240.473 47.4229 240.496 47.4073C240.519 47.3917 240.545 47.3809 240.573 47.3754C240.914 47.3188 241.264 47.3427 241.594 47.4451C241.923 47.5475 242.222 47.7252 242.465 47.9632C242.504 48.0026 242.526 48.0553 242.526 48.1101C242.526 48.165 242.504 48.2177 242.465 48.2571C242.442 48.2705 242.417 48.2804 242.391 48.2865Z" fill="#263238"/>
<path d="M235.204 49.3863C235.165 49.4078 235.121 49.418 235.076 49.4157C235.048 49.4083 235.023 49.3956 235 49.3785C234.978 49.3614 234.96 49.3402 234.946 49.3161C234.932 49.292 234.924 49.2655 234.921 49.2382C234.918 49.2109 234.921 49.1833 234.929 49.157C235.018 48.8349 235.185 48.538 235.418 48.2914C235.65 48.0448 235.941 47.8558 236.266 47.7404C236.321 47.7257 236.38 47.7322 236.43 47.7585C236.48 47.7848 236.517 47.8289 236.534 47.8814C236.55 47.9344 236.543 47.9911 236.515 48.0394C236.488 48.0876 236.442 48.1238 236.388 48.1401C236.135 48.2388 235.91 48.3927 235.73 48.5896C235.55 48.7865 235.42 49.021 235.35 49.2746C235.335 49.302 235.315 49.326 235.289 49.3453C235.264 49.3645 235.235 49.3785 235.204 49.3863Z" fill="#263238"/>
<path d="M249.636 44.7833C249.636 44.6657 249.685 44.5482 249.703 44.4189C250.313 40.2512 243.975 37.8 238.254 38.3172C235.759 38.5465 236.332 42.6554 236.332 42.6554C236.332 42.6554 234.917 42.6554 234.276 43.4842C233.148 44.9538 234.886 48.1868 234.886 48.1868C234.014 43.4842 236.54 43.2256 236.54 43.2256C236.54 43.2256 237.15 45.0478 238.278 44.8832C239.407 44.7186 242.261 42.0558 243.664 42.3732C244.107 42.4637 244.517 42.6652 244.854 42.9572C245.19 43.2493 245.44 43.6217 245.58 44.0368C245.6 44.454 245.528 44.8706 245.368 45.2588C245.208 45.647 244.964 45.9979 244.653 46.2881C243.433 47.5872 245.482 50.3618 246.891 51.2082C246.891 51.2082 246.842 50.5087 247.471 50.6204C248.099 50.7321 248.398 54.3707 247.422 56.2459C247.422 56.2459 249.026 54.4824 249.563 50.5322C249.867 48.6287 249.891 46.6935 249.636 44.7833Z" fill="#263238"/>
<path d="M240.072 55.4641C240.606 55.4528 241.13 55.3182 241.599 55.0718C242.068 54.8253 242.469 54.474 242.768 54.0474C242.777 54.0353 242.783 54.0215 242.786 54.007C242.789 53.9925 242.789 53.9776 242.785 53.9632C242.782 53.9488 242.775 53.9352 242.766 53.9234C242.757 53.9116 242.745 53.9018 242.732 53.8946C242.72 53.8868 242.706 53.8814 242.692 53.8787C242.678 53.876 242.663 53.876 242.649 53.8788C242.635 53.8815 242.622 53.8869 242.61 53.8946C242.598 53.9024 242.587 53.9124 242.579 53.924C242.294 54.3143 241.918 54.6354 241.482 54.8618C241.046 55.0883 240.561 55.214 240.066 55.2289C240.036 55.2289 240.008 55.2398 239.986 55.2595C239.965 55.2792 239.952 55.3061 239.95 55.3347C239.95 55.3634 239.962 55.3909 239.982 55.4117C240.002 55.4325 240.03 55.4449 240.06 55.4464L240.072 55.4641Z" fill="#263238"/>
<path d="M250.504 50.6786C250.179 51.7353 249.433 52.6251 248.43 53.1534C247.094 53.847 246.099 52.7713 246.185 51.3899C246.282 50.1613 247.069 48.2803 248.552 48.1745C250.034 48.0687 250.882 49.3736 250.504 50.6786Z" fill="#E4897B"/>
<path opacity="0.1" d="M240.95 59.1901C240.789 59.1559 240.63 59.1127 240.475 59.0607C238.978 58.6098 237.709 57.64 236.912 56.3391C237.974 56.2274 240.188 56.0158 240.639 56.2039C241.091 56.392 241.011 58.3201 240.95 59.1901Z" fill="black"/>
<path d="M234.252 79.5297H237.223L240.456 68.0436L243.396 65.0398H238.247L239.449 67.9319L234.252 79.5297Z" fill="#246DFF"/>
<path d="M223.315 77.3841L223.126 79.5296H227.951C232.081 70.0833 235.918 63.2351 235.918 63.2351L230.904 64.7517C219.314 68.02 218.338 75.3325 220.314 77.2018C222.29 79.0711 223.315 77.3841 223.315 77.3841Z" fill="#246DFF"/>
<path opacity="0.5" d="M223.315 77.3841L223.126 79.5296H227.951C232.081 70.0833 235.918 63.2351 235.918 63.2351L230.904 64.7517C219.314 68.02 218.338 75.3325 220.314 77.2018C222.29 79.0711 223.315 77.3841 223.315 77.3841Z" fill="white"/>
<path d="M226.92 79.5293H228.042C231.8 71.7289 238.04 62.5765 238.04 62.5765C235.482 62.5707 232.948 63.048 230.58 63.9814L231.867 67.4378L228.762 68.0256L226.92 79.5293Z" fill="#246DFF"/>
<path opacity="0.4" d="M226.92 79.5293H228.042C231.8 71.7289 238.04 62.5765 238.04 62.5765C235.482 62.5707 232.948 63.048 230.58 63.9814L231.867 67.4378L228.762 68.0256L226.92 79.5293Z" fill="white"/>
<path opacity="0.2" d="M225.616 79.5294C226.255 78.2063 226.595 76.768 226.616 75.3088L223.316 77.3839L223.127 79.5294H225.616Z" fill="black"/>
<path d="M236.405 63.7171L238.778 61.6479L240.895 64.4284L247.605 61.6479L249.288 64.2697L242.786 67.3792L240.626 65.3748L238.247 66.8208L236.405 63.7171Z" fill="#263238"/>
<path opacity="0.2" d="M236.405 63.7171L238.778 61.6479L240.895 64.4284L247.605 61.6479L249.288 64.2697L242.786 67.3792L240.626 65.3748L238.247 66.8208L236.405 63.7171Z" fill="white"/>
<path d="M228.751 70.6243L235.913 63.2354C236.838 63.2195 237.727 62.886 238.42 62.2948C239.481 61.3308 240.927 57.0632 240.573 56.7869C240.219 56.5106 235.949 56.1697 235.547 56.6517C235.144 57.1337 233.375 61.4484 233.375 61.4484L225.701 67.2326L228.751 70.6243Z" fill="#E4897B"/>
<path d="M229.543 64.1638L230.958 62.9587L234.35 65.4923L232.813 67.4615L229.543 64.1638Z" fill="#263238"/>
<path opacity="0.2" d="M229.543 64.1638L230.958 62.9587L234.35 65.4923L232.813 67.4615L229.543 64.1638Z" fill="white"/>
<path d="M229.928 63.3938L233.99 66.4916C233.99 66.4916 224.547 80.9051 221.113 77.8602C217.679 74.8152 219.436 70.048 229.928 63.3938Z" fill="#246DFF"/>
<path opacity="0.6" d="M229.928 63.3938L233.99 66.4916C233.99 66.4916 224.547 80.9051 221.113 77.8602C217.679 74.8152 219.436 70.048 229.928 63.3938Z" fill="white"/>
<path d="M255.975 79.5293L256.585 69.1953C256.632 68.1933 256.349 67.2026 255.777 66.3644C255.206 65.5263 254.374 64.8836 253.4 64.528L248.051 62.5764C248.051 62.5764 248.276 70.3357 248.899 79.5116L255.975 79.5293Z" fill="#246DFF"/>
<path opacity="0.5" d="M255.975 79.5293L256.585 69.1953C256.632 68.1933 256.349 67.2026 255.777 66.3644C255.206 65.5263 254.374 64.8836 253.4 64.528L248.051 62.5764C248.051 62.5764 248.276 70.3357 248.899 79.5116L255.975 79.5293Z" fill="white"/>
<path d="M251.088 79.5295L253.058 74.1979L250.1 71.5997L253.485 70.624C251.332 64.2284 247.843 62.0535 247.843 62.0535C246.977 66.1682 247.843 74.2861 248.532 79.5295H251.088Z" fill="#246DFF"/>
<path opacity="0.4" d="M251.088 79.5295L253.058 74.1979L250.1 71.5997L253.485 70.624C251.332 64.2284 247.843 62.0535 247.843 62.0535C246.977 66.1682 247.843 74.2861 248.532 79.5295H251.088Z" fill="white"/>
<path d="M224.164 78.2711C224.774 78.4944 229.562 78.8001 229.562 78.8001L230.679 79.529H238.474L230.544 75.9257C230.246 75.0824 229.647 74.3682 228.855 73.9094C227.574 73.2275 222.913 73.2099 222.755 73.6155C222.596 74.0211 223.56 78.0418 224.164 78.2711Z" fill="#E4897B"/>
<path d="M236.022 79.5297L236.742 78.2836L233.777 77.0315L232.722 79.5297H236.022Z" fill="#263238"/>
<path opacity="0.2" d="M236.022 79.5297L236.742 78.2836L233.777 77.0315L232.722 79.5297H236.022Z" fill="white"/>
<path d="M252.144 79.5297C255.682 74.1982 258.17 67.7086 255.279 65.8217C255.279 65.8217 253.059 65.2338 243.89 78.7126C243.89 78.7126 242.884 80.7935 235.35 77.537L234.368 79.5356L252.144 79.5297Z" fill="#246DFF"/>
<path opacity="0.6" d="M252.144 79.5297C255.682 74.1982 258.17 67.7086 255.279 65.8217C255.279 65.8217 253.059 65.2338 243.89 78.7126C243.89 78.7126 242.884 80.7935 235.35 77.537L234.368 79.5356L252.144 79.5297Z" fill="white"/>
<path opacity="0.3" d="M211.469 80.4768H160.662V123.376H211.469V80.4768Z" fill="white"/>
<path d="M117.432 79.53C118.652 76.4674 125.819 70.501 125.819 70.501V64.3406C122.159 64.9989 113.199 72.429 112.967 79.5123L117.432 79.53Z" fill="#246DFF"/>
<path opacity="0.6" d="M117.432 79.53C118.042 78.0722 119.939 75.9619 121.787 74.1455C123.843 72.1469 125.819 70.5069 125.819 70.5069V64.3406C122.159 64.9989 113.192 72.429 112.967 79.5123L117.432 79.53Z" fill="white"/>
<path opacity="0.2" d="M121.788 74.1454C123.844 72.1468 125.82 70.5067 125.82 70.5067V68.7139C125.82 68.7139 122.294 70.4009 121.788 74.1454Z" fill="black"/>
<path d="M151.635 79.5302C152.55 74.1104 153.465 69.643 153.862 67.6208C153.927 67.3101 153.863 66.9871 153.684 66.7211C153.505 66.4551 153.225 66.2674 152.904 66.1983C151.592 65.922 150.238 65.6869 148.878 65.487C142.725 64.6557 136.516 64.2628 130.303 64.3114C127.546 64.3114 125.82 64.3878 125.82 64.3878C124.563 68.726 123.813 74.1281 123.38 79.5596L151.635 79.5302Z" fill="#246DFF"/>
<path opacity="0.7" d="M151.641 79.5302L151.714 79.0775C152.599 73.8635 153.453 69.5842 153.855 67.6208C153.874 67.5138 153.874 67.4046 153.855 67.2975C153.843 67.0365 153.741 66.7867 153.566 66.5877C153.39 66.3886 153.151 66.2516 152.885 66.1983C151.568 65.922 150.22 65.6869 148.859 65.487C142.706 64.6557 136.498 64.2628 130.285 64.3114C127.528 64.3114 125.801 64.3878 125.801 64.3878C124.545 68.726 123.794 74.1281 123.361 79.5596L151.641 79.5302Z" fill="white"/>
<path d="M135.738 71.2654C143.668 72.0766 148.981 65.5635 148.981 65.5635L148.877 65.487C142.724 64.6557 136.516 64.2628 130.303 64.3114C130.303 64.3114 128.277 70.5012 135.738 71.2654Z" fill="#246DFF"/>
<path d="M144.522 64.8875C142.29 66.845 136.818 66.122 136.818 66.122C136.818 66.122 133.402 65.2226 134.116 64.1939C136.129 63.8706 137.105 62.9654 137.507 61.8073C137.727 61.091 137.795 60.3394 137.709 59.5971C137.678 59.181 137.623 58.767 137.544 58.3568L144.309 53.5308C143.424 56.6991 142.338 62.5774 144.522 64.8875Z" fill="#E4897B"/>
<path opacity="0.2" d="M142.741 56.5989C142.472 60.5079 139.136 61.5895 137.501 61.807C137.721 61.0906 137.789 60.3391 137.702 59.5968L142.741 56.5989Z" fill="black"/>
<path d="M143.528 62.4067L137.062 65.2165L136.678 62.9652L134.305 63.7529C133.889 63.8933 133.535 64.1647 133.299 64.5231C133.064 64.8814 132.96 65.3059 133.006 65.7279L133.274 68.1968L136.556 66.4686L138.191 68.6965L145.962 65.0931L143.528 62.4067Z" fill="#246DFF"/>
<path opacity="0.3" d="M143.528 62.4067L137.062 65.2165L136.678 62.9652L134.305 63.7529C133.889 63.8933 133.535 64.1647 133.299 64.5231C133.064 64.8814 132.96 65.3059 133.006 65.7279L133.274 68.1968L136.556 66.4686L138.191 68.6965L145.962 65.0931L143.528 62.4067Z" fill="white"/>
<path d="M132.42 43.7136C132.42 43.7136 130.59 49.8152 133.683 52.6486C136.776 55.4819 138.374 43.89 138.374 43.89L132.42 43.7136Z" fill="#263238"/>
<path opacity="0.2" d="M132.42 43.7136C132.42 43.7136 130.59 49.8152 133.683 52.6486C136.776 55.4819 138.374 43.89 138.374 43.89L132.42 43.7136Z" fill="white"/>
<path d="M132.371 56.1583C132.439 56.3758 132.512 56.5933 132.597 56.7991C133.221 58.2985 134.411 59.5146 135.928 60.2026C137.288 60.8321 138.844 60.9495 140.289 60.5318C141.319 60.2194 142.242 59.6446 142.961 58.8682C145.242 56.4816 145.078 53.8188 145.175 49.3043C145.218 48.2496 144.98 47.2018 144.482 46.2613C143.985 45.3207 143.246 44.5188 142.336 43.932C141.425 43.3453 140.374 42.9934 139.282 42.9099C138.19 42.8265 137.094 43.0143 136.099 43.4554C131.585 45.4129 131.206 52.1376 132.371 56.1583Z" fill="#E4897B"/>
<path d="M138.123 50.8203C138.16 51.1789 137.946 51.4904 137.696 51.4963C137.446 51.5022 137.232 51.2141 137.214 50.8497C137.196 50.4852 137.397 50.1737 137.641 50.1678C137.885 50.1619 138.105 50.45 138.123 50.8203Z" fill="#263238"/>
<path d="M133.811 50.979C133.853 51.3434 133.634 51.655 133.383 51.6608C133.133 51.6667 132.926 51.3787 132.907 51.0084C132.889 50.638 133.084 50.3382 133.335 50.3324C133.585 50.3265 133.798 50.6322 133.811 50.979Z" fill="#263238"/>
<path d="M135.19 51.1143C134.779 52.2549 134.206 53.3351 133.487 54.3238C133.755 54.4911 134.057 54.6008 134.373 54.6455C134.689 54.6901 135.011 54.6686 135.318 54.5824L135.19 51.1143Z" fill="#DE5753"/>
<path d="M132.144 49.2623C132.179 49.2838 132.219 49.2952 132.26 49.2952C132.301 49.2952 132.342 49.2838 132.376 49.2623C132.606 49.1067 132.869 49.0041 133.146 48.9623C133.424 48.9205 133.707 48.9407 133.975 49.0212C134.002 49.0328 134.031 49.0392 134.06 49.0398C134.089 49.0404 134.119 49.0354 134.146 49.025C134.173 49.0146 134.198 48.999 134.219 48.9792C134.24 48.9593 134.257 48.9357 134.268 48.9096C134.291 48.8572 134.291 48.7985 134.27 48.7458C134.248 48.6931 134.206 48.6506 134.152 48.6274C133.817 48.5156 133.459 48.4824 133.107 48.5304C132.756 48.5784 132.422 48.7064 132.132 48.9037C132.082 48.935 132.047 48.9841 132.034 49.0402C132.022 49.0964 132.033 49.1551 132.065 49.2035C132.087 49.2285 132.114 49.2486 132.144 49.2623Z" fill="#263238"/>
<path d="M138.911 49.1338C138.956 49.1295 138.998 49.1132 139.033 49.0868C139.074 49.0454 139.096 48.9907 139.096 48.934C139.096 48.8772 139.074 48.8225 139.033 48.7811C138.759 48.562 138.434 48.4096 138.085 48.337C137.737 48.2644 137.376 48.2736 137.032 48.3638C136.976 48.3825 136.931 48.4212 136.905 48.4717C136.879 48.5221 136.874 48.5804 136.891 48.6342C136.912 48.6878 136.953 48.7318 137.007 48.7569C137.06 48.7821 137.121 48.7865 137.178 48.7694C137.451 48.709 137.736 48.7099 138.009 48.7721C138.282 48.8342 138.536 48.956 138.752 49.128C138.803 49.1469 138.859 49.149 138.911 49.1338Z" fill="#263238"/>
<path d="M141.522 43.8022L141.247 45.7891C141.596 45.9514 141.868 46.2352 142.008 46.5832C142.149 46.9312 142.147 47.3175 142.003 47.6643C141.32 49.3337 142.278 51.9377 143.602 52.9841C143.602 52.9841 143.65 52.261 144.285 52.4374C144.919 52.6137 144.7 56.3935 143.443 58.1804C143.443 58.1804 145.334 56.5698 146.432 52.6137C147.451 48.9575 147.603 45.9008 146.835 44.4783L141.522 43.8022Z" fill="#263238"/>
<path d="M136.031 56.9514C136.003 56.9599 135.974 56.9599 135.946 56.9514C135.913 56.9288 135.89 56.8949 135.882 56.8567C135.874 56.8184 135.882 56.7787 135.903 56.7456C136.398 56.0364 137.144 55.5246 138.002 55.3055C138.022 55.3012 138.043 55.3009 138.063 55.3045C138.083 55.3082 138.103 55.3157 138.12 55.3267C138.137 55.3377 138.152 55.3519 138.163 55.3684C138.174 55.385 138.182 55.4035 138.185 55.423C138.193 55.4604 138.185 55.499 138.163 55.5308C138.141 55.5625 138.108 55.585 138.069 55.5935C137.291 55.8003 136.614 56.267 136.159 56.9102C136.142 56.9257 136.122 56.9375 136.1 56.9446C136.078 56.9517 136.054 56.954 136.031 56.9514Z" fill="#263238"/>
<path opacity="0.1" d="M133.914 58.7913C134.484 59.3823 135.168 59.8613 135.927 60.202C137.288 60.8315 138.843 60.9489 140.289 60.5312C139.646 59.9751 138.864 59.5901 138.019 59.4144C136.677 59.0703 135.301 58.8615 133.914 58.7913Z" fill="black"/>
<path opacity="0.2" d="M141.522 43.8022L141.247 45.7891C141.596 45.9514 141.868 46.2352 142.008 46.5832C142.149 46.9312 142.147 47.3175 142.003 47.6643C141.32 49.3337 142.278 51.9377 143.602 52.9841C143.602 52.9841 143.65 52.261 144.285 52.4374C144.919 52.6137 144.7 56.3935 143.443 58.1804C143.443 58.1804 145.334 56.5698 146.432 52.6137C147.451 48.9575 147.603 45.9008 146.835 44.4783L141.522 43.8022Z" fill="white"/>
<path d="M147.157 45.3887C147.157 45.3887 147.664 42.7787 143.4 40.739C139.136 38.6992 134.463 41.027 131.615 39.2694C128.766 37.5118 128.662 44.7362 134.75 45.5474C138.876 46.0084 143.046 45.955 147.157 45.3887Z" fill="#263238"/>
<path opacity="0.3" d="M147.157 45.3887C147.157 45.3887 147.664 42.7787 143.4 40.739C139.136 38.6992 134.463 41.027 131.615 39.2694C128.766 37.5118 128.662 44.7362 134.75 45.5474C138.876 46.0084 143.046 45.955 147.157 45.3887Z" fill="white"/>
<path d="M147.364 52.9304C146.892 53.965 146.015 54.7783 144.924 55.1936C143.46 55.7226 142.594 54.4941 142.875 53.095C143.143 51.8488 144.217 50.0325 145.748 50.1148C147.279 50.1971 147.938 51.6431 147.364 52.9304Z" fill="#E4897B"/>
<path d="M140.124 67.4795L139.477 64.1642C139.477 64.1642 140.819 62.9415 140.661 61.8129C140.502 60.6843 134.561 58.815 133.487 58.7386C132.413 58.6622 132.834 62.8005 133.158 63.5588C133.481 64.317 137.062 65.2223 137.062 65.2223L137.507 68.7199L140.124 67.4795Z" fill="#E4897B"/>
<path opacity="0.2" d="M150.835 79.5298C151.146 79.3828 151.445 79.23 151.714 79.0771C152.598 73.8631 153.452 69.5838 153.855 67.6204C153.873 67.5134 153.873 67.4042 153.855 67.2971C150 71.0827 143.997 77.4136 144.705 79.5298H150.835Z" fill="black"/>
<path d="M148.744 79.5298C153.179 75.6972 157.034 70.4127 154.307 66.8446C151.916 63.7056 145.767 75.0741 143.895 75.8559C142.022 76.6377 140.399 66.2097 140.399 66.2097L136.739 67.2561C136.739 67.2561 137.41 74.7684 139.289 79.5298H148.744Z" fill="#246DFF"/>
<path opacity="0.6" d="M148.744 79.5298C153.179 75.6972 157.034 70.4127 154.307 66.8446C151.916 63.7056 145.767 75.0741 143.895 75.8559C142.022 76.6377 140.399 66.2097 140.399 66.2097L136.739 67.2561C136.739 67.2561 137.41 74.7684 139.289 79.5298H148.744Z" fill="white"/>
<path d="M176.388 79.5301C177.675 78.278 178.511 77.3963 178.511 77.3963L177.803 66.9741C175.766 68.0204 169.66 75.8738 166.451 79.5301H176.388Z" fill="#246DFF"/>
<path opacity="0.5" d="M176.388 79.5301C177.675 78.278 178.511 77.3963 178.511 77.3963L177.803 66.9741C175.766 68.0204 169.66 75.8738 166.451 79.5301H176.388Z" fill="white"/>
<path opacity="0.2" d="M176.382 79.5298C177.676 78.2778 178.511 77.396 178.511 77.396L178.347 74.9213L177.511 72.5229C175.632 74.4019 174.601 76.9209 174.644 79.5298H176.382Z" fill="black"/>
<path d="M197.768 79.53C198.067 78.4954 198.379 77.3962 198.793 76.197C199.208 74.9978 199.58 73.7928 200.044 72.4467C200.389 71.4317 200.77 70.354 201.185 69.2136C198.708 68.4512 196.178 67.8619 193.614 67.4502C190.914 66.9866 188.182 66.7096 185.44 66.6213C181.896 66.6213 177.815 66.974 177.815 66.974C177.815 66.974 177.205 67.1092 176.87 70.7361C176.693 72.5642 176.516 75.3858 176.504 79.5535L197.768 79.53Z" fill="#246DFF"/>
<path opacity="0.5" d="M197.768 79.53C198.067 78.4954 198.379 77.3962 198.793 76.197C199.208 74.9978 199.58 73.7928 200.044 72.4467C200.389 71.4317 200.77 70.354 201.185 69.2136C198.708 68.4512 196.178 67.8619 193.614 67.4502C190.914 66.9866 188.182 66.7096 185.44 66.6213C181.896 66.6213 177.815 66.974 177.815 66.974C177.815 66.974 177.205 67.1092 176.87 70.7361C176.693 72.5642 176.516 75.3858 176.504 79.5535L197.768 79.53Z" fill="white"/>
<path d="M186.435 79.5297L191.437 70.9005L185.654 74.0218L182.299 69.9658L183.525 79.5297H186.435Z" fill="#263238"/>
<path d="M191.631 66.3564C194.938 67.1088 195.938 69.66 195.572 71.9819L193.162 71.2059C190.386 72.1744 187.781 73.5505 185.44 75.2854C185.44 75.2854 183.61 72.0524 181.865 70.9943L179.389 71.2765C179.389 71.2765 183.25 64.4636 191.631 66.3564Z" fill="#263238"/>
<path opacity="0.1" d="M191.631 66.3564C194.938 67.1088 195.938 69.66 195.572 71.9819L193.162 71.2059C190.386 72.1744 187.781 73.5505 185.44 75.2854C185.44 75.2854 183.61 72.0524 181.865 70.9943L179.389 71.2765C179.389 71.2765 183.25 64.4636 191.631 66.3564Z" fill="white"/>
<path d="M185.636 67.3734C185.814 67.2822 186 67.2055 186.191 67.1441C186.612 66.8267 187.124 66.0508 187.1 64.205C187.08 63.4684 187.009 62.7338 186.886 62.0065L192.297 61.0366C192.297 61.0366 190.467 64.5636 191.992 67.1441C192.517 67.3734 192.834 67.6967 192.779 68.1199C192.37 71.1296 185.654 74.0452 185.654 74.0452C185.654 74.0452 182.391 69.1016 185.636 67.3734Z" fill="#EEC1BB"/>
<path opacity="0.2" d="M186.886 61.9892C187.009 62.7165 187.08 63.451 187.099 64.1877C190.759 64.1877 192.296 61.0193 192.296 61.0193L186.886 61.9892Z" fill="black"/>
<path d="M189.302 44.7894C189.302 44.7894 182.958 44.0135 181.787 48.9042C181.452 50.3005 181.535 51.7596 182.026 53.1122C182.518 54.4648 183.397 55.6554 184.562 56.5459L189.302 44.7894Z" fill="#263238"/>
<path d="M189.875 47.4112C185.172 47.1643 183.525 49.5098 182.915 54.1594C182.153 59.973 183.257 64.1877 189.21 63.2531C197.287 61.9893 197.683 47.8227 189.875 47.4112Z" fill="#EEC1BB"/>
<path d="M185.966 54.0657C185.552 54.7218 185.059 55.3277 184.495 55.8703C184.621 56.0681 184.803 56.2279 185.018 56.3318C185.234 56.4357 185.475 56.4794 185.716 56.4581L185.966 54.0657Z" fill="#D4827D"/>
<path d="M188.869 53.8479C188.838 54.2182 189.021 54.5356 189.277 54.5533C189.534 54.5709 189.766 54.2887 189.796 53.9184C189.827 53.5481 189.644 53.2306 189.387 53.2071C189.131 53.1836 188.899 53.4775 188.869 53.8479Z" fill="#263238"/>
<path d="M189.49 53.2367L188.679 52.854C188.679 52.854 189.039 53.5664 189.49 53.2367Z" fill="#263238"/>
<path d="M184.073 53.4069C184.073 53.7772 184.232 54.0946 184.488 54.1181C184.744 54.1417 184.976 53.8477 185.007 53.4774C185.037 53.1071 184.854 52.7897 184.598 52.772C184.342 52.7544 184.104 53.0365 184.073 53.4069Z" fill="#263238"/>
<path d="M184.702 52.7962L183.891 52.4136C183.891 52.4136 184.251 53.1318 184.702 52.7962Z" fill="#263238"/>
<path d="M191.09 51.7136C191.058 51.7136 191.026 51.7061 190.997 51.6918C190.968 51.6775 190.944 51.6568 190.925 51.6313C190.695 51.3873 190.411 51.1965 190.094 51.0734C189.777 50.9502 189.435 50.8977 189.094 50.92C189.04 50.922 188.987 50.9044 188.945 50.8708C188.903 50.8371 188.876 50.7897 188.869 50.7378C188.865 50.6842 188.884 50.6314 188.92 50.5907C188.957 50.5501 189.008 50.5248 189.064 50.5203C189.474 50.4922 189.885 50.5568 190.264 50.7089C190.643 50.8609 190.98 51.0963 191.248 51.3962C191.281 51.4394 191.294 51.4929 191.286 51.5455C191.278 51.5981 191.249 51.6457 191.206 51.6783C191.171 51.6989 191.131 51.711 191.09 51.7136Z" fill="#263238"/>
<path d="M183.787 50.8203C183.751 50.8199 183.716 50.8104 183.685 50.7929C183.654 50.7754 183.628 50.7504 183.61 50.7204C183.596 50.6977 183.586 50.6725 183.582 50.6462C183.578 50.62 183.58 50.5932 183.587 50.5675C183.593 50.5418 183.605 50.5176 183.622 50.4964C183.639 50.4752 183.659 50.4575 183.683 50.4441C183.987 50.2489 184.332 50.1217 184.693 50.0719C185.054 50.022 185.422 50.0508 185.77 50.1561C185.795 50.1669 185.818 50.1823 185.836 50.2014C185.855 50.2206 185.869 50.2431 185.879 50.2676C185.889 50.2922 185.893 50.3184 185.892 50.3446C185.891 50.3709 185.885 50.3967 185.874 50.4206C185.865 50.4454 185.85 50.468 185.831 50.4871C185.812 50.5061 185.79 50.5211 185.764 50.5311C185.739 50.541 185.712 50.5458 185.684 50.545C185.657 50.5442 185.63 50.5379 185.606 50.5264C185.318 50.4454 185.016 50.4271 184.72 50.4729C184.425 50.5186 184.143 50.6273 183.897 50.7909C183.863 50.8087 183.826 50.8188 183.787 50.8203Z" fill="#263238"/>
<path d="M194.591 55.3175C194.591 55.3175 192.608 51.479 193.103 48.6222C193.103 48.6222 183.995 44.4604 183.013 53.554C183.013 53.554 182.568 45.4127 190.656 45.6596C198.745 45.9064 198.068 57.2985 193.706 60.4727C193.688 60.4727 195.811 57.7158 194.591 55.3175Z" fill="#263238"/>
<path d="M188.49 44.4373C188.49 44.4373 184.628 43.5203 183.53 44.5078C182.432 45.4953 190.24 52.4493 194.327 53.1488C194.327 53.1488 195.712 57.5046 194.614 59.5444C194.614 59.5444 199.214 57.9984 199.427 51.2502C199.641 44.5019 192.29 42.0037 188.49 44.4373Z" fill="#263238"/>
<path d="M193.761 56.2345C193.798 55.9758 193.887 55.7267 194.024 55.5013C194.16 55.2759 194.342 55.0787 194.558 54.921C194.773 54.7632 195.019 54.648 195.281 54.5819C195.544 54.5157 195.817 54.5001 196.085 54.5357C197.531 54.7649 198.061 57.6864 194.395 58.1861C193.871 58.2566 193.608 57.7511 193.761 56.2345Z" fill="#EEC1BB"/>
<path d="M195.811 47.1057C195.811 47.1057 197.415 43.1732 201.715 43.4495C206.016 43.7257 206.675 50.1977 204.412 54.9767C202.148 59.7557 203.686 61.3017 203.686 61.3017C203.686 61.3017 201.276 61.0195 201.276 56.7343C201.144 57.6415 201.095 58.5581 201.13 59.4736C201.13 59.4736 199.525 57.2927 201.057 53.1486C202.588 49.0044 197.702 50.9031 197.702 50.9031L195.811 47.1057Z" fill="#263238"/>
<path d="M191.412 53.2778C191.39 53.283 191.367 53.283 191.345 53.2778C185.855 51.3732 183.726 44.9954 183.702 44.9307C183.686 44.8792 183.692 44.8241 183.719 44.7769C183.745 44.7297 183.789 44.6942 183.842 44.6779C183.868 44.6697 183.895 44.6665 183.923 44.6686C183.95 44.6706 183.977 44.6779 184.001 44.6899C184.025 44.7019 184.047 44.7185 184.065 44.7386C184.083 44.7588 184.096 44.7821 184.104 44.8073C184.104 44.8719 186.178 51.0617 191.485 52.9016C191.537 52.9202 191.58 52.9576 191.604 53.0059C191.628 53.0542 191.631 53.1095 191.613 53.1602C191.596 53.1972 191.568 53.2282 191.532 53.2492C191.496 53.2702 191.454 53.2802 191.412 53.2778Z" fill="#263238"/>
<path d="M186.818 59.3264H186.66C186.632 59.3265 186.605 59.3211 186.58 59.3106C186.554 59.3002 186.532 59.2848 186.513 59.2655C186.494 59.2462 186.479 59.2235 186.47 59.1985C186.461 59.1736 186.457 59.1471 186.458 59.1207C186.462 59.0672 186.486 59.0169 186.527 58.9807C186.568 58.9445 186.622 58.9251 186.678 58.9267C187.625 58.9245 188.535 58.5685 189.216 57.9333C189.254 57.896 189.307 57.875 189.362 57.875C189.417 57.875 189.47 57.896 189.508 57.9333C189.547 57.9708 189.569 58.0215 189.569 58.0744C189.569 58.1273 189.547 58.178 189.508 58.2154C188.789 58.8993 187.828 59.2961 186.818 59.3264Z" fill="#263238"/>
<path d="M187.497 55.7173C187.238 55.7362 186.98 55.6797 186.756 55.5551C186.532 55.4306 186.351 55.2438 186.239 55.0191C186.127 54.7944 186.087 54.5423 186.126 54.2957C186.164 54.049 186.279 53.8193 186.455 53.6366C186.632 53.4538 186.861 53.3264 187.113 53.2711C187.366 53.2158 187.63 53.2351 187.871 53.3265C188.112 53.4179 188.318 53.5771 188.464 53.7834C188.609 53.9897 188.687 54.2334 188.687 54.4828C188.695 54.6397 188.67 54.7965 188.614 54.944C188.559 55.0916 188.473 55.2269 188.362 55.3419C188.251 55.457 188.117 55.5495 187.969 55.614C187.82 55.6784 187.66 55.7136 187.497 55.7173ZM187.497 53.5423C187.299 53.5233 187.1 53.5624 186.926 53.6545C186.752 53.7465 186.611 53.8872 186.522 54.0579C186.432 54.2287 186.399 54.4215 186.425 54.6111C186.452 54.8006 186.538 54.9779 186.671 55.1196C186.804 55.2613 186.979 55.3608 187.172 55.4049C187.365 55.449 187.568 55.4358 187.753 55.3668C187.938 55.2979 188.097 55.1765 188.21 55.0187C188.322 54.8609 188.382 54.6741 188.381 54.4828C188.393 54.2452 188.306 54.0128 188.141 53.8366C187.975 53.6603 187.743 53.5545 187.497 53.5423Z" fill="#263238"/>
<path d="M183.813 55.5236C183.556 55.5365 183.3 55.4749 183.08 55.3467C182.86 55.2186 182.684 55.0297 182.576 54.8045C182.469 54.5793 182.433 54.3281 182.475 54.0834C182.517 53.8387 182.634 53.6117 182.811 53.4317C182.988 53.2517 183.217 53.127 183.469 53.0737C183.72 53.0204 183.982 53.0409 184.222 53.1325C184.461 53.2242 184.666 53.3828 184.811 53.588C184.955 53.7931 185.033 54.0353 185.033 54.2833C185.042 54.443 185.018 54.6029 184.96 54.7531C184.903 54.9033 184.815 55.0406 184.7 55.1567C184.586 55.2728 184.448 55.3653 184.296 55.4284C184.143 55.4914 183.979 55.5239 183.813 55.5236ZM183.813 53.3428C183.615 53.325 183.417 53.3652 183.244 53.458C183.07 53.5509 182.93 53.6921 182.842 53.863C182.753 54.034 182.721 54.2268 182.748 54.4159C182.776 54.6051 182.862 54.7819 182.995 54.923C183.129 55.0641 183.304 55.1629 183.497 55.2065C183.69 55.2501 183.892 55.2364 184.077 55.1672C184.262 55.0979 184.421 54.9765 184.533 54.8187C184.644 54.661 184.704 54.4743 184.704 54.2833C184.709 54.0487 184.618 53.8215 184.452 53.6502C184.285 53.4789 184.056 53.377 183.813 53.3663V53.3428Z" fill="#263238"/>
<path d="M186.46 54.6301C186.431 54.6315 186.402 54.6244 186.376 54.6097C186.351 54.5951 186.332 54.5735 186.319 54.5478C186.265 54.4376 186.188 54.3395 186.092 54.2596C185.997 54.1796 185.885 54.1197 185.764 54.0835C185.612 54.0749 185.46 54.1007 185.32 54.1589C185.18 54.2171 185.056 54.306 184.959 54.4185C184.929 54.4458 184.89 54.4611 184.849 54.4611C184.808 54.4611 184.768 54.4458 184.739 54.4185C184.711 54.391 184.695 54.3541 184.695 54.3156C184.695 54.2772 184.711 54.2402 184.739 54.2128C184.872 54.0679 185.038 53.9555 185.225 53.885C185.412 53.8144 185.613 53.7878 185.813 53.8072C185.981 53.8524 186.138 53.932 186.271 54.0405C186.405 54.149 186.513 54.2839 186.588 54.4361C186.597 54.4534 186.602 54.4723 186.604 54.4916C186.605 54.5109 186.602 54.5303 186.595 54.5485C186.588 54.5667 186.578 54.5833 186.564 54.5974C186.55 54.6114 186.533 54.6226 186.515 54.6301H186.46Z" fill="#263238"/>
<path d="M188.532 54.6305C188.493 54.6305 188.455 54.6158 188.427 54.5895C188.398 54.5631 188.381 54.5272 188.38 54.4892C188.38 54.4505 188.395 54.4133 188.422 54.3849C188.449 54.3565 188.486 54.3391 188.526 54.3361C188.77 54.3361 194.376 54.1654 195.065 54.1948C195.106 54.1978 195.145 54.2161 195.172 54.2457C195.199 54.2754 195.214 54.3141 195.212 54.3538C195.209 54.3918 195.19 54.4271 195.161 54.4524C195.131 54.4776 195.093 54.4908 195.053 54.4892C194.37 54.4597 188.599 54.6305 188.538 54.6305H188.532Z" fill="#263238"/>
<path d="M205.68 79.5297C203.459 73.9101 201.184 69.2134 201.184 69.2134C201.184 69.2134 197.469 74.4215 197.134 79.5297H205.68Z" fill="#246DFF"/>
<path opacity="0.5" d="M205.68 79.5297C203.459 73.9101 201.184 69.2134 201.184 69.2134C201.184 69.2134 197.469 74.4215 197.134 79.5297H205.68Z" fill="white"/>
<path d="M207.071 123.381C205.851 120.16 204.631 117.433 204.631 117.433L199.531 121.735L200.422 123.381H207.071Z" fill="#E4897B"/>
<path d="M171.063 123.382C172.283 121.959 173.143 120.913 173.143 120.913L168.159 116.927C168.159 116.927 165.719 120.554 163.73 123.394L171.063 123.382Z" fill="#E4897B"/>
<path d="M172.284 123.382L175.242 121.383L174.095 108.11C170.325 108.698 164.848 119.279 164.848 119.279L169.118 123.394L172.284 123.382Z" fill="#246DFF"/>
<path opacity="0.2" d="M169.124 123.382H172.284L174.406 121.948L175.242 121.36L174.095 108.081C170.325 108.704 164.848 119.25 164.848 119.25L168.617 122.853L169.124 123.382Z" fill="white"/>
<path d="M170.05 123.382L164.847 118.121L163.95 119.567L168.117 123.382H170.05Z" fill="#246DFF"/>
<path opacity="0.2" d="M172.282 123.382L174.405 121.947L173.399 116.193C173.399 116.193 169.458 118.591 168.616 122.894L169.123 123.382H172.282Z" fill="black"/>
<path d="M199.861 123.382C201.118 115.905 202.344 110.214 202.344 110.214C190.272 107.405 174.064 108.11 174.064 108.11C172.795 112.472 172.045 117.909 171.624 123.394L199.861 123.382Z" fill="#246DFF"/>
<path opacity="0.2" d="M199.861 123.382C199.946 122.859 200.032 122.341 200.117 121.836C201.282 115.135 202.344 110.214 202.344 110.214C190.272 107.405 174.064 108.11 174.064 108.11C172.795 112.472 172.051 117.909 171.624 123.394L199.861 123.382Z" fill="white"/>
<path opacity="0.2" d="M199.861 123.382C199.946 122.859 200.032 122.341 200.117 121.836L198.336 120.225C197.905 121.233 197.629 122.297 197.519 123.382H199.861Z" fill="black"/>
<path d="M180.938 123.382H182.854C183.063 120.017 183.559 116.675 184.336 113.389L187.722 110.72L185.056 109.891L182.616 110.02L183.269 113.107C183.269 113.107 182.11 117.833 180.938 123.382Z" fill="#263238"/>
<path d="M192.761 108.639C190.529 110.597 185.051 109.874 185.051 109.874C185.051 109.874 181.635 108.968 182.355 107.94C184.368 107.622 185.344 106.717 185.74 105.588C185.962 104.87 186.032 104.117 185.947 103.372C185.915 102.958 185.858 102.546 185.777 102.138L192.548 97.3059C191.663 100.463 190.577 106.329 192.761 108.639Z" fill="#E4897B"/>
<path opacity="0.2" d="M190.986 100.344C190.718 104.259 187.381 105.335 185.746 105.558C185.968 104.84 186.038 104.087 185.953 103.342L190.986 100.344Z" fill="black"/>
<path d="M191.766 106.152L185.3 108.968L184.922 106.711L182.543 107.516C182.128 107.657 181.774 107.928 181.539 108.287C181.305 108.645 181.203 109.07 181.249 109.491L181.518 111.966L184.8 110.202L186.434 112.43L194.2 108.827L191.766 106.152Z" fill="#246DFF"/>
<path opacity="0.3" d="M191.766 106.152L185.3 108.968L184.922 106.711L182.543 107.516C182.128 107.657 181.774 107.928 181.539 108.287C181.305 108.645 181.203 109.07 181.249 109.491L181.518 111.966L184.8 110.202L186.434 112.43L194.2 108.827L191.766 106.152Z" fill="white"/>
<path d="M178.675 88.2176C178.675 88.2176 177.668 94.4956 181.115 96.9233C184.561 99.351 184.604 87.6592 184.604 87.6592L178.675 88.2176Z" fill="#263238"/>
<path d="M191.15 101.962C190.421 102.993 189.361 103.767 188.133 104.163C186.904 104.559 185.575 104.556 184.349 104.154C182.757 103.667 181.417 102.617 180.597 101.215C180.483 101.024 180.379 100.828 180.286 100.627C178.596 96.7828 178.072 90.0463 182.293 87.5657C183.223 87.0144 184.285 86.7009 185.376 86.6549C186.467 86.6088 187.553 86.8317 188.53 87.3024C189.507 87.7731 190.343 88.4762 190.959 89.3451C191.576 90.2141 191.952 91.2202 192.053 92.2683C192.578 96.6711 193.096 99.2928 191.15 101.962Z" fill="#E4897B"/>
<path d="M185.276 94.5667C185.368 94.9252 185.197 95.2544 184.946 95.2956C184.696 95.3367 184.452 95.0722 184.385 94.7078C184.318 94.3433 184.47 94.02 184.715 93.9847C184.959 93.9495 185.209 94.2022 185.276 94.5667Z" fill="#263238"/>
<path d="M181.025 95.2549C181.116 95.6135 180.939 95.9427 180.695 95.9838C180.451 96.025 180.195 95.7546 180.134 95.396C180.073 95.0374 180.219 94.7082 180.463 94.6671C180.708 94.6259 180.964 94.9081 181.025 95.2549Z" fill="#263238"/>
<path d="M182.391 95.2126C182.136 96.3935 181.713 97.5348 181.134 98.6044C181.419 98.736 181.729 98.8073 182.045 98.8134C182.361 98.8194 182.674 98.7602 182.964 98.6397L182.391 95.2126Z" fill="#DE5753"/>
<path d="M179.145 93.7617C179.183 93.7727 179.224 93.7748 179.263 93.7676C179.302 93.7604 179.339 93.7443 179.371 93.7206C179.578 93.5379 179.826 93.4037 180.096 93.3282C180.366 93.2528 180.65 93.2382 180.927 93.2856C180.955 93.2935 180.985 93.2959 181.015 93.2924C181.044 93.289 181.072 93.2799 181.098 93.2656C181.124 93.2513 181.146 93.2322 181.164 93.2094C181.182 93.1865 181.194 93.1605 181.201 93.1327C181.217 93.0782 181.209 93.0201 181.181 92.9707C181.152 92.9214 181.105 92.8846 181.049 92.8682C180.701 92.7985 180.341 92.8095 179.998 92.9005C179.655 92.9915 179.34 93.1597 179.078 93.3914C179.036 93.4321 179.013 93.487 179.013 93.5442C179.013 93.6014 179.036 93.6564 179.078 93.6971C179.096 93.7225 179.119 93.7444 179.145 93.7617Z" fill="#263238"/>
<path d="M185.838 92.7915C185.881 92.7828 185.922 92.7624 185.954 92.7327C185.984 92.6833 185.993 92.6245 185.979 92.5687C185.966 92.5129 185.93 92.4643 185.88 92.4329C185.58 92.2497 185.237 92.1391 184.882 92.1105C184.528 92.0818 184.171 92.136 183.842 92.2684C183.789 92.2937 183.749 92.3381 183.729 92.3919C183.71 92.4458 183.713 92.5049 183.739 92.5564C183.766 92.6064 183.812 92.6443 183.868 92.6618C183.924 92.6794 183.985 92.6753 184.038 92.6504C184.301 92.5561 184.583 92.5214 184.862 92.5489C185.142 92.5764 185.411 92.6654 185.649 92.8091C185.679 92.82 185.713 92.8241 185.745 92.8211C185.778 92.818 185.81 92.8079 185.838 92.7915Z" fill="#263238"/>
<path d="M187.716 87.1836V89.1881C188.082 89.307 188.388 89.5545 188.574 89.8813C188.759 90.2081 188.81 90.5902 188.716 90.9516C188.259 92.6856 189.558 95.1545 191.004 96.0304C191.004 96.0304 190.961 95.3015 191.614 95.4014C192.266 95.5013 192.559 99.2693 191.547 101.203C191.547 101.203 193.206 99.3692 193.773 95.325C194.292 91.5688 194.042 88.5238 193.09 87.2071L187.716 87.1836Z" fill="#263238"/>
<path d="M194.731 95.4951C194.394 96.5857 193.622 97.503 192.584 98.0463C191.205 98.7576 190.174 97.6407 190.272 96.2182C190.376 94.9543 191.199 93.0204 192.712 92.9087C194.225 92.797 195.128 94.1725 194.731 95.4951Z" fill="#E4897B"/>
<path d="M183.5 99.7399C183.826 100.219 184.116 100.72 184.366 101.239L184.671 101.157C186.038 100.775 186.538 100.157 186.678 99.5989C186.743 99.3222 186.743 99.035 186.678 98.7583C186.639 98.6019 186.577 98.4515 186.495 98.3115C185.763 98.911 184.906 99.352 183.982 99.6047C183.683 99.6988 183.5 99.7399 183.5 99.7399Z" fill="#263238"/>
<path d="M183.964 99.6099L184.232 100.045C185.519 99.6804 186.367 99.2572 186.672 98.7634C186.633 98.607 186.572 98.4566 186.489 98.3167C185.754 98.9176 184.892 99.3587 183.964 99.6099Z" fill="white"/>
<path d="M184.672 101.156C186.039 100.774 186.539 100.156 186.68 99.5979C186.162 99.7514 185.678 99.9944 185.252 100.315C184.972 100.53 184.769 100.824 184.672 101.156Z" fill="#DE5753"/>
<path d="M190.498 94.5018L189.888 94.155C189.888 94.155 190.272 96.5592 189.479 97.2352C189.479 97.2352 186.734 97.5174 185.776 97.7643C185.119 98.0103 184.576 98.4755 184.245 99.0751C184.245 99.0751 182.092 98.6343 181.159 100.192C180.384 99.5258 179.771 98.7028 179.365 97.7819C179.365 97.7819 179.438 102.179 181.994 104.518C184.55 106.858 188.704 105.694 190.656 103.866C192.608 102.038 190.498 94.5018 190.498 94.5018ZM188.668 101.432C188.503 101.668 188.277 101.858 188.013 101.983C187.748 102.109 187.455 102.165 187.16 102.147C186.866 102.13 186.582 102.038 186.336 101.882C186.09 101.725 185.891 101.509 185.758 101.256L184.904 101.709C184.904 101.709 185.843 102.473 185.13 103.178C184.416 103.884 182.208 103.631 181.982 101.603C181.756 99.5748 184.422 99.3455 184.422 99.3455C184.754 99.0221 185.151 98.7664 185.588 98.5937C186.025 98.421 186.494 98.3348 186.966 98.3403C187.333 98.3547 187.69 98.4611 188.002 98.649C188.314 98.837 188.57 99.0999 188.744 99.412C188.918 99.7241 189.005 100.074 188.996 100.429C188.987 100.783 188.882 101.129 188.692 101.432H188.668Z" fill="#263238"/>
<path d="M187.71 89.1881C187.71 89.1881 177.34 92.5975 178.56 85.861C178.56 85.861 184.153 82.6867 189.027 83.5744C193.901 84.462 193.523 89.335 193.523 89.335L187.71 89.1881Z" fill="#263238"/>
<path d="M208.408 123.382C207.798 121.465 204.376 111.237 202.344 110.214C201.144 111.305 200.18 112.613 199.508 114.065C198.123 116.78 197.824 122.224 197.824 122.224L198.721 123.399L208.408 123.382Z" fill="#246DFF"/>
<path opacity="0.2" d="M208.408 123.382C207.798 121.465 204.376 111.237 202.344 110.214C201.144 111.305 200.18 112.613 199.508 114.065C198.123 116.78 197.824 122.224 197.824 122.224L198.721 123.399L208.408 123.382Z" fill="white"/>
<path opacity="0.6" d="M263.448 80.4768H212.641V123.376H263.448V80.4768Z" fill="white"/>
<path d="M225.39 123.381C227.311 121.582 228.653 120.16 228.653 120.16L227.946 109.744C225.676 110.919 218.338 120.548 215.611 123.381H225.39Z" fill="#263238"/>
<path opacity="0.3" d="M225.39 123.381C227.311 121.582 228.653 120.16 228.653 120.16L227.946 109.744C225.676 110.919 218.338 120.548 215.611 123.381H225.39Z" fill="white"/>
<path opacity="0.2" d="M225.389 123.382C227.311 121.589 228.653 120.161 228.653 120.161L228.488 117.692L227.677 115.288C226.616 116.352 225.815 117.631 225.333 119.031C224.85 120.432 224.699 121.918 224.889 123.382H225.389Z" fill="black"/>
<path d="M248.393 96.2127C247.868 98.1525 250.747 103.514 249.582 113.26C248.417 123.006 237.315 122.418 232.325 119.138C227.336 115.858 228.202 98.2466 229.916 94.7667C231.63 91.2867 248.393 96.2127 248.393 96.2127Z" fill="#263238"/>
<path d="M247.605 123.382C247.971 122.048 248.41 120.584 248.935 118.961C249.309 117.786 249.726 116.538 250.185 115.217C250.535 114.218 250.913 113.13 251.32 111.955C248.843 111.195 246.313 110.606 243.75 110.191C241.044 109.733 238.309 109.456 235.563 109.362C232.019 109.362 227.938 109.721 227.938 109.721C227.938 109.721 227.359 109.85 226.999 113.477C226.804 115.464 226.609 118.615 226.633 123.358L247.605 123.382Z" fill="#263238"/>
<path opacity="0.3" d="M247.605 123.382C247.971 122.048 248.41 120.584 248.935 118.961C249.309 117.786 249.726 116.538 250.185 115.217C250.535 114.218 250.913 113.13 251.32 111.955C248.843 111.195 246.313 110.606 243.75 110.191C241.044 109.733 238.309 109.456 235.563 109.362C232.019 109.362 227.938 109.721 227.938 109.721C227.938 109.721 227.359 109.85 226.999 113.477C226.804 115.464 226.609 118.615 226.633 123.358L247.605 123.382Z" fill="white"/>
<path d="M238.846 108.88C241.036 109.01 244.537 108.986 246.776 112.36H242.628L244.885 115.017C244.885 115.017 237.62 116.686 235.351 121.277C235.351 121.277 232.093 115.834 230.324 114.57C231.403 113.535 232.637 112.661 233.984 111.978C232.81 111.495 231.582 111.144 230.324 110.932C230.324 110.932 235.887 108.71 238.846 108.88Z" fill="white"/>
<path d="M242.921 110.861C242.921 110.861 237.297 116.974 235.558 119.925C234.768 116.697 234.85 113.327 235.796 110.138L242.921 110.861Z" fill="#246DFF"/>
<path opacity="0.6" d="M242.921 110.861C242.921 110.861 237.297 116.974 235.558 119.925C234.768 116.697 234.85 113.327 235.796 110.138L242.921 110.861Z" fill="white"/>
<path d="M237.077 113.265C241.573 112.713 242.921 110.861 242.921 110.861C240.066 108.269 242.439 103.807 242.439 103.807L237.029 104.783C237.152 105.508 237.223 106.241 237.242 106.976C237.279 110.138 235.796 110.167 235.796 110.167C234.851 111.854 237.077 113.265 237.077 113.265Z" fill="#EEC1BB"/>
<path opacity="0.2" d="M237.027 104.753C237.15 105.479 237.222 106.211 237.241 106.946C240.901 106.946 242.438 103.778 242.438 103.778L237.027 104.753Z" fill="black"/>
<path d="M240.017 90.2044C235.314 89.9575 233.667 92.303 233.057 96.9527C232.294 102.766 233.398 106.981 239.352 106.046C247.428 104.747 247.825 90.5865 240.017 90.2044Z" fill="#EEC1BB"/>
<path d="M236.107 96.8293C235.695 97.4882 235.202 98.0962 234.637 98.6398C234.763 98.8376 234.944 98.9975 235.16 99.1014C235.376 99.2052 235.617 99.249 235.857 99.2277L236.107 96.8293Z" fill="#D4827D"/>
<path d="M239.01 96.6119C238.98 96.9882 239.163 97.2997 239.419 97.3232C239.675 97.3467 239.907 97.0528 239.938 96.6825C239.968 96.3122 239.785 95.9947 239.529 95.9771C239.273 95.9595 239.041 96.2416 239.01 96.6119Z" fill="#263238"/>
<path d="M239.634 96.0013L238.822 95.6245C238.822 95.6245 239.182 96.3369 239.634 96.0013Z" fill="#263238"/>
<path d="M234.24 96.1769C234.209 96.5472 234.392 96.8647 234.649 96.8823C234.905 96.8999 235.137 96.6178 235.167 96.2474C235.198 95.8771 235.015 95.5538 234.758 95.5362C234.502 95.5185 234.24 95.8007 234.24 96.1769Z" fill="#263238"/>
<path d="M234.851 95.567L234.039 95.1843C234.039 95.1843 234.393 95.8967 234.851 95.567Z" fill="#263238"/>
<path d="M241.238 94.4842C241.204 94.4851 241.17 94.4774 241.14 94.462C241.11 94.4465 241.085 94.4238 241.067 94.396C240.838 94.1517 240.554 93.9611 240.236 93.8388C239.919 93.7165 239.577 93.6658 239.236 93.6906C239.181 93.6924 239.127 93.6741 239.085 93.6392C239.043 93.6043 239.016 93.5555 239.01 93.5025C239.007 93.4489 239.025 93.3961 239.062 93.3554C239.098 93.3148 239.15 93.2895 239.205 93.285C239.615 93.2574 240.026 93.3222 240.405 93.4742C240.784 93.6262 241.122 93.8614 241.39 94.1609C241.422 94.2041 241.436 94.2576 241.428 94.3102C241.42 94.3628 241.391 94.4104 241.347 94.443C241.315 94.4659 241.277 94.4801 241.238 94.4842Z" fill="#263238"/>
<path d="M233.93 93.5908C233.894 93.5904 233.858 93.5809 233.827 93.5634C233.796 93.5459 233.771 93.5209 233.753 93.4909C233.738 93.4682 233.729 93.443 233.725 93.4167C233.721 93.3905 233.722 93.3637 233.729 93.338C233.736 93.3123 233.748 93.2881 233.765 93.2669C233.781 93.2458 233.802 93.228 233.826 93.2146C234.128 93.0164 234.473 92.8878 234.835 92.8389C235.197 92.79 235.566 92.822 235.913 92.9325C235.963 92.9544 236.003 92.9942 236.023 93.0435C236.043 93.0928 236.043 93.1478 236.023 93.197C236 93.2454 235.959 93.2834 235.908 93.3031C235.856 93.3228 235.799 93.3227 235.748 93.3028C235.462 93.2184 235.159 93.1978 234.863 93.2426C234.567 93.2874 234.285 93.3964 234.039 93.5615C234.006 93.5793 233.968 93.5893 233.93 93.5908Z" fill="#263238"/>
<path d="M236.43 101.039C236.621 101.56 236.774 102.095 236.887 102.637C236.989 102.643 237.091 102.643 237.192 102.637C238.571 102.579 239.187 102.114 239.455 101.615C239.576 101.367 239.637 101.095 239.632 100.821C239.633 100.666 239.612 100.512 239.571 100.363C238.74 100.764 237.829 100.989 236.899 101.021L236.43 101.039Z" fill="#263238"/>
<path d="M236.899 101.009L237.046 101.479C238.339 101.414 239.248 101.209 239.632 100.809C239.633 100.654 239.612 100.5 239.571 100.35C238.74 100.752 237.829 100.977 236.899 101.009Z" fill="white"/>
<path d="M237.192 102.625C238.572 102.567 239.188 102.102 239.456 101.603C238.932 101.634 238.417 101.756 237.937 101.961C237.623 102.102 237.362 102.334 237.192 102.625Z" fill="#DE5753"/>
<path d="M244.727 98.0819C244.727 98.0819 242.738 94.2434 243.232 91.3866C243.232 91.3866 234.125 87.2307 233.149 96.3184C233.149 96.3184 232.698 88.1771 240.786 88.424C248.875 88.6708 248.198 100.063 243.836 103.237C243.83 103.237 245.953 100.486 244.727 98.0819Z" fill="#263238"/>
<path d="M243.904 99.0218C243.94 98.7632 244.03 98.5141 244.166 98.2887C244.303 98.0633 244.484 97.8661 244.7 97.7083C244.916 97.5505 245.162 97.4353 245.424 97.3692C245.686 97.3031 245.959 97.2874 246.228 97.323C247.673 97.5523 248.204 100.474 244.538 100.973C244.001 101.026 243.751 100.521 243.904 99.0218Z" fill="#EEC1BB"/>
<path d="M241.981 90.9399C241.662 94.6871 242.624 98.4319 244.72 101.603C247.368 105.453 244.33 108.822 244.33 108.822C244.33 108.822 250.607 106.735 247.868 98.1525C247.868 98.1525 250.82 90.4814 245.013 88.4182C245.013 88.4182 244.983 86.0669 239.73 86.5254C234.478 86.9839 230.257 91.3044 229.452 96.8299C228.647 102.355 231.642 108.522 231.642 108.522C231.642 108.522 228.464 88.9354 241.981 90.9399Z" fill="#263238"/>
<path d="M242.274 91.0277C241.928 92.3403 241.796 93.6968 241.883 95.0484C241.966 96.4171 242.193 97.7742 242.561 99.0986C242.926 100.432 243.457 101.719 244.14 102.931C244.81 104.154 245.712 105.245 246.8 106.147C245.674 105.275 244.726 104.209 244.006 103.002C243.271 101.799 242.688 100.516 242.268 99.1809C241.84 97.8411 241.558 96.4621 241.426 95.0661C241.283 93.6508 241.371 92.2225 241.688 90.8337L242.274 91.0277Z" fill="#263238"/>
<path opacity="0.2" d="M247.605 123.382C247.684 123.1 247.764 122.794 247.849 122.524C247.282 120.607 246.696 122.106 246.696 122.106C246.601 122.527 246.532 122.953 246.488 123.382H247.605Z" fill="black"/>
<path d="M255.541 123.382C253.418 117.927 251.32 111.954 251.32 111.954C246.964 113.612 246.727 122.2 246.727 122.2L247.41 123.376L255.541 123.382Z" fill="#263238"/>
<path opacity="0.3" d="M255.541 123.382C253.418 117.927 251.32 111.954 251.32 111.954C246.964 113.612 246.727 122.2 246.727 122.2L247.41 123.376L255.541 123.382Z" fill="white"/>
<path opacity="0.5" d="M159.497 80.4768H108.69V123.376H159.497V80.4768Z" fill="white"/>
<path d="M134.792 87.4536L129.692 92.3737H128.637V87.4536H134.792Z" fill="white"/>
<path d="M135.86 88.9236V92.3741H132.279L135.86 88.9236Z" fill="white"/>
<path d="M138.434 91.8975L136.5 91.3097V88.5939L138.434 88.0061V91.8975Z" fill="white"/>
<path d="M133.535 96.8829C131.861 96.8832 130.239 96.3242 128.945 95.301C127.65 94.2778 126.765 92.8538 126.438 91.2717C126.111 89.6896 126.364 88.0473 127.153 86.6247C127.942 85.2021 129.219 84.0872 130.766 83.4701C132.312 82.8529 134.033 82.7717 135.635 83.2403C137.237 83.7089 138.62 84.6982 139.55 86.0397C140.48 87.3812 140.898 88.9918 140.733 90.5971C140.568 92.2024 139.831 93.703 138.647 94.8431C137.977 95.4918 137.18 96.006 136.303 96.3561C135.425 96.7062 134.485 96.8853 133.535 96.8829ZM133.535 83.5334C132.445 83.5326 131.372 83.791 130.41 84.2856C129.449 84.7803 128.629 85.4959 128.023 86.3691C127.417 87.2422 127.044 88.246 126.937 89.2912C126.83 90.3365 126.993 91.3911 127.41 92.3614C127.827 93.3317 128.487 94.1878 129.33 94.8538C130.173 95.5197 131.173 95.975 132.242 96.1792C133.311 96.3833 134.416 96.3302 135.459 96.0243C136.502 95.7184 137.45 95.1694 138.22 94.4258C139.144 93.5327 139.774 92.3956 140.028 91.1582C140.283 89.9207 140.151 88.6383 139.65 87.4729C139.148 86.3076 138.3 85.3114 137.212 84.6102C136.124 83.9091 134.844 83.5344 133.535 83.5334Z" fill="white"/>
<path d="M138.217 84.9909L128.422 94.4304L128.853 94.8461L138.649 85.4066L138.217 84.9909Z" fill="white"/>
<path d="M51.0873 201.775L66.2031 200.346V179.873H72.1933V200.341L87.3762 201.775C88.1037 201.845 88.7783 202.173 89.2687 202.696C89.7591 203.218 90.0303 203.898 90.0297 204.602V206.789H48.4277V204.602C48.4287 203.897 48.7013 203.218 49.1927 202.695C49.6841 202.173 50.3593 201.845 51.0873 201.775Z" fill="#263238"/>
<path opacity="0.3" d="M51.0873 201.775L66.2031 200.346V179.873H72.1933V200.341L87.3762 201.775C88.1037 201.845 88.7783 202.173 89.2687 202.696C89.7591 203.218 90.0303 203.898 90.0297 204.602V206.789H48.4277V204.602C48.4287 203.897 48.7013 203.218 49.1927 202.695C49.6841 202.173 50.3593 201.845 51.0873 201.775Z" fill="white"/>
<path d="M84.5156 209.499C84.5156 210.245 84.7453 210.975 85.1756 211.595C85.6059 212.216 86.2176 212.7 86.9332 212.985C87.6487 213.271 88.4362 213.346 89.1958 213.2C89.9555 213.054 90.6533 212.695 91.201 212.167C91.7487 211.639 92.1217 210.967 92.2728 210.235C92.4239 209.503 92.3463 208.744 92.0499 208.055C91.7535 207.365 91.2516 206.776 90.6075 206.361C89.9635 205.946 89.2064 205.725 88.4318 205.725C87.3932 205.725 86.3971 206.122 85.6627 206.83C84.9282 207.538 84.5156 208.498 84.5156 209.499Z" fill="#246DFF"/>
<path d="M53.9481 209.499C53.9493 210.246 53.7205 210.977 53.2905 211.6C52.8605 212.222 52.2487 212.707 51.5324 212.994C50.8162 213.281 50.0277 213.358 49.2666 213.213C48.5055 213.068 47.806 212.709 47.2566 212.181C46.7073 211.654 46.3326 210.981 46.1801 210.248C46.0276 209.515 46.104 208.755 46.3998 208.064C46.6955 207.372 47.1973 206.781 47.8416 206.365C48.486 205.949 49.244 205.726 50.0197 205.725C50.5348 205.724 51.045 205.821 51.5212 206.01C51.9974 206.2 52.4302 206.477 52.795 206.828C53.1598 207.178 53.4494 207.594 53.6472 208.053C53.8451 208.511 53.9473 209.002 53.9481 209.499Z" fill="#246DFF"/>
<path d="M70.6929 184.269H67.6795C67.0113 184.269 66.3705 184.013 65.8981 183.558C65.4256 183.103 65.1602 182.485 65.1602 181.842V166.047H73.2305V181.842C73.2305 182.162 73.1647 182.479 73.037 182.775C72.9092 183.07 72.722 183.339 72.4861 183.564C72.2502 183.79 71.9704 183.969 71.6626 184.09C71.3548 184.21 71.0252 184.272 70.6929 184.269Z" fill="#263238"/>
<path opacity="0.5" d="M70.6929 184.269H67.6795C67.0113 184.269 66.3705 184.013 65.8981 183.558C65.4256 183.103 65.1602 182.485 65.1602 181.842V166.047H73.2305V181.842C73.2305 182.162 73.1647 182.479 73.037 182.775C72.9092 183.07 72.722 183.339 72.4861 183.564C72.2502 183.79 71.9704 183.969 71.6626 184.09C71.3548 184.21 71.0252 184.272 70.6929 184.269Z" fill="white"/>
<path d="M54.8998 134.028C54.8998 134.028 53.7347 161.333 61.6098 166.035H52.6184C52.6184 166.035 45.64 156.736 47.6103 134.028H54.8998Z" fill="#263238"/>
<path opacity="0.5" d="M54.8998 134.028C54.8998 134.028 53.7347 161.333 61.6098 166.035H52.6184C52.6184 166.035 45.64 156.736 47.6103 134.028H54.8998Z" fill="white"/>
<path d="M52.5998 162.214H86.8635C87.6724 162.214 88.4482 162.524 89.0202 163.075C89.5922 163.626 89.9135 164.373 89.9135 165.153V168.127H49.5498V165.153C49.5498 164.373 49.8711 163.626 50.4431 163.075C51.0151 162.524 51.7909 162.214 52.5998 162.214Z" fill="#246DFF"/>
<path d="M90.3659 165.171H49.0933C48.4161 165.171 47.8672 165.7 47.8672 166.352V166.946C47.8672 167.599 48.4161 168.128 49.0933 168.128H90.3659C91.043 168.128 91.592 167.599 91.592 166.946V166.352C91.592 165.7 91.043 165.171 90.3659 165.171Z" fill="#246DFF"/>
<path opacity="0.6" d="M90.3659 165.171H49.0933C48.4161 165.171 47.8672 165.7 47.8672 166.352V166.946C47.8672 167.599 48.4161 168.128 49.0933 168.128H90.3659C91.043 168.128 91.592 167.599 91.592 166.946V166.352C91.592 165.7 91.043 165.171 90.3659 165.171Z" fill="white"/>
<path d="M46.6409 139.577H58.5847C63.4966 139.577 67.4785 135.74 67.4785 131.006V127.961C67.4785 123.228 63.4966 119.391 58.5847 119.391H46.6409C41.729 119.391 37.7471 123.228 37.7471 127.961V131.006C37.7471 135.74 41.729 139.577 46.6409 139.577Z" fill="#246DFF"/>
<path d="M84.5713 115.199C86.1878 115.84 95.3561 127.109 95.594 129.484C95.8929 132.364 92.8612 132.911 89.5611 132.164C86.261 131.418 88.762 128.296 88.762 128.296L83.6807 121.442L84.5713 115.199Z" fill="#263238"/>
<path d="M83.1056 143.262H71.5156C71.5156 143.262 73.7482 128.508 74.1142 128.296C74.4802 128.085 82.581 127.562 82.581 127.562V135.791L83.1056 143.262Z" fill="#263238"/>
<path d="M69.8938 111.196C70.3147 111.114 74.7372 109.351 77.1406 111.132C79.544 112.913 82.2524 118.844 77.9458 120.995C73.6392 123.147 68.1431 122.024 67.4843 118.785C66.8255 115.546 69.8938 111.196 69.8938 111.196Z" fill="#263238"/>
<path d="M66.4472 97.8949C66.4472 97.8949 63.5436 104.361 65.5749 106.759C67.6062 109.158 80.8554 111.062 83.1551 108.811C85.4548 106.559 82.4414 97.6421 82.4414 97.6421L66.4472 97.8949Z" fill="#263238"/>
<path d="M118.528 192.711L115.076 193.51L113.331 188.919L111.745 184.746L115.674 183.129L117.186 188.196L118.528 192.711Z" fill="#E4897B"/>
<path opacity="0.2" d="M117.186 188.196L113.331 188.919L111.745 184.746L115.674 183.129L117.186 188.196Z" fill="black"/>
<path d="M116.84 185.774L112.058 187.485C112.058 187.485 99.2905 156.73 96.6675 156.624C94.0445 156.518 67.3265 168.345 60.6348 161.785C53.9431 155.225 63.6177 139.412 63.6177 139.412C63.6177 139.412 79.7217 137.202 80.9356 140.705C81.2355 141.738 81.4638 142.789 81.6188 143.85C81.8018 144.92 81.9238 145.819 81.9238 145.819C82.424 145.702 98.589 141.705 104.957 145.819C111.442 150.04 116.84 185.774 116.84 185.774Z" fill="#263238"/>
<path opacity="0.2" d="M116.84 185.774L112.058 187.485C112.058 187.485 99.2905 156.73 96.6675 156.624C94.0445 156.518 67.3265 168.345 60.6348 161.785C53.9431 155.225 63.6177 139.412 63.6177 139.412C63.6177 139.412 79.7217 137.202 80.9356 140.705C81.2355 141.738 81.4638 142.789 81.6188 143.85C81.8018 144.92 81.9238 145.819 81.9238 145.819C82.424 145.702 98.589 141.705 104.957 145.819C111.442 150.04 116.84 185.774 116.84 185.774Z" fill="white"/>
<path d="M89.3164 205.831L85.876 204.978L86.5409 200.229L87.1509 195.867L91.4026 196.237L90.2985 201.316L89.3164 205.831Z" fill="#E4897B"/>
<path opacity="0.2" d="M90.2732 201.417L86.5156 200.317L87.1378 195.915L91.3956 196.261L90.2732 201.417Z" fill="black"/>
<path d="M110.08 185.78L117.046 183.499L117.345 186.25L112.063 188.049L110.08 185.78Z" fill="#263238"/>
<path d="M72.1992 163.36C72.1992 163.36 73.285 163.39 90.1759 162.631C90.1759 162.631 87.6566 182.976 86.278 198.212L91.3288 199.041C91.3288 199.041 103.395 166.423 103.267 161.238C103.138 156.053 96.9896 154.537 96.9896 154.537C96.9896 154.537 84.936 161.238 72.1992 163.36Z" fill="#263238"/>
<path opacity="0.1" d="M72.1992 163.36C72.1992 163.36 73.285 163.39 90.1759 162.631C90.1759 162.631 87.6566 182.976 86.278 198.212L91.3288 199.041C91.3288 199.041 103.395 166.423 103.267 161.238C103.138 156.053 96.9896 154.537 96.9896 154.537C96.9896 154.537 84.936 161.238 72.1992 163.36Z" fill="white"/>
<path d="M85.5408 196.737L92.4826 197.495L91.1406 200.117L85.5225 199.423L85.5408 196.737Z" fill="#263238"/>
<path opacity="0.3" d="M81.9233 145.82L72.5049 147.712C72.5049 147.712 77.7143 144.944 81.6183 143.85C81.8013 144.92 81.9233 145.82 81.9233 145.82Z" fill="black"/>
<path d="M64.0066 137.002L63.6162 139.418L80.9341 140.706L81.3916 137.849L64.0066 137.002Z" fill="#263238"/>
<path opacity="0.2" d="M64.0066 137.002L63.6162 139.418L80.9341 140.706L81.3916 137.849L64.0066 137.002Z" fill="black"/>
<path d="M69.9145 136.842L69.0586 136.757L68.6107 140.956L69.4666 141.041L69.9145 136.842Z" fill="#263238"/>
<path d="M77.3305 137.85L73.5381 137.615L73.3529 140.389L77.1454 140.624L77.3305 137.85Z" fill="white"/>
<path d="M80.5522 137.295L79.6963 137.21L79.2484 141.408L80.1043 141.493L80.5522 137.295Z" fill="#263238"/>
<path opacity="0.2" d="M69.9145 136.842L69.0586 136.757L68.6107 140.956L69.4666 141.041L69.9145 136.842Z" fill="white"/>
<path opacity="0.2" d="M80.5522 137.295L79.6963 137.21L79.2484 141.408L80.1043 141.493L80.5522 137.295Z" fill="white"/>
<path d="M83.4366 114.836C80.5444 113.063 77.2322 112.028 73.8108 111.826C68.2537 111.55 63.2578 114.501 63.2578 114.501L63.9959 137.003L81.3809 137.849C81.3809 137.849 86.877 122.836 83.4366 114.836Z" fill="#246DFF"/>
<path d="M82.5874 99.7987C82.5874 99.7987 85.0945 88.9298 74.6574 90.0056C61.5607 91.3575 66.5322 107.052 73.0287 106.071C79.5252 105.089 82.5874 99.7987 82.5874 99.7987Z" fill="#263238"/>
<path opacity="0.2" d="M80.4353 114.359L80.7464 119.097L76.9766 115.841C76.9766 115.841 76.7204 118.192 75.8481 122.101C75.5738 120.066 74.9772 118.083 74.0791 116.223L70.5167 119.714L68.1865 114.359C68.1865 114.359 75.3235 109.374 80.4353 114.359Z" fill="black"/>
<path d="M75.683 118.204L73.8103 113.748L70.3516 112.255C73.4016 110.221 71.8705 105.671 71.8705 105.671L76.8054 107.346C76.5776 108.009 76.4002 108.687 76.2747 109.374C75.7623 112.314 77.147 112.572 77.147 112.572L76.1954 113.901L75.683 118.204Z" fill="#E4897B"/>
<path opacity="0.2" d="M76.7992 107.346C76.5714 108.009 76.394 108.687 76.2685 109.374C73.9078 108.463 71.8643 105.671 71.8643 105.671L76.7992 107.346Z" fill="black"/>
<path d="M76.9704 93.1451C81.4295 93.5154 82.6556 95.9314 82.5885 100.381C82.5031 105.948 80.8805 109.786 75.4149 108.129C67.9912 105.901 69.5711 92.5572 76.9704 93.1451Z" fill="#E4897B"/>
<path d="M79.7268 99.9041C80.0275 100.575 80.4106 101.208 80.8679 101.791C80.7221 101.959 80.5306 102.084 80.315 102.152C80.0994 102.221 79.8682 102.23 79.6475 102.179L79.7268 99.9041Z" fill="#DE5753"/>
<path d="M77.0316 99.3283C77.0316 99.681 76.7936 99.9572 76.5495 99.9161C76.3054 99.875 76.1223 99.6046 76.1467 99.2519C76.1711 98.8992 76.3847 98.6229 76.6288 98.6346C76.8729 98.6464 77.056 98.9756 77.0316 99.3283Z" fill="#263238"/>
<path d="M76.5303 98.6704L77.348 98.4172C77.348 98.4172 76.9086 99.0236 76.5303 98.6704Z" fill="#263238"/>
<path d="M81.6003 99.5282C81.6003 99.8809 81.3562 100.157 81.1121 100.116C80.868 100.075 80.691 99.8045 80.7093 99.4518C80.7276 99.0991 80.9534 98.8228 81.1975 98.8346C81.4416 98.8463 81.6186 99.1755 81.6003 99.5282Z" fill="#263238"/>
<path d="M81.0938 98.8706L81.9115 98.6174C81.9115 98.6174 81.4721 99.2415 81.0938 98.8706Z" fill="#263238"/>
<path d="M75.2618 97.0594C75.2336 97.0598 75.2056 97.0548 75.1795 97.0447C75.1533 97.0346 75.1294 97.0196 75.1093 97.0006C75.088 96.9814 75.0711 96.9582 75.0595 96.9324C75.048 96.9066 75.042 96.8788 75.042 96.8507C75.042 96.8226 75.048 96.7948 75.0595 96.7691C75.0711 96.7433 75.088 96.7201 75.1093 96.7008C75.4053 96.45 75.7582 96.2694 76.1396 96.1734C76.5211 96.0775 76.9206 96.0689 77.3061 96.1483C77.363 96.1609 77.4126 96.1944 77.4444 96.2415C77.4763 96.2886 77.488 96.3458 77.477 96.401C77.4712 96.4285 77.4598 96.4547 77.4434 96.4779C77.427 96.5011 77.406 96.5209 77.3816 96.5363C77.3572 96.5516 77.3298 96.5621 77.3011 96.5671C77.2725 96.5722 77.2431 96.5716 77.2146 96.5656C76.9022 96.5041 76.5795 96.5106 76.2701 96.5849C75.9607 96.6591 75.6725 96.7992 75.4266 96.9947C75.4049 97.0154 75.3792 97.0318 75.3509 97.0429C75.3226 97.054 75.2924 97.0596 75.2618 97.0594Z" fill="#263238"/>
<path d="M82.2537 97.1595C82.203 97.1582 82.1539 97.1418 82.1133 97.1125C81.9074 96.9284 81.6613 96.7911 81.3931 96.7108C81.1248 96.6304 80.8413 96.609 80.5633 96.6481C80.5075 96.6625 80.448 96.6552 80.3977 96.6277C80.3475 96.6002 80.3105 96.5547 80.2948 96.5011C80.2796 96.4466 80.287 96.3885 80.3155 96.3391C80.344 96.2897 80.3913 96.253 80.4474 96.2366C80.7922 96.1794 81.1461 96.1984 81.4822 96.2921C81.8183 96.3858 82.128 96.5517 82.3879 96.7774C82.411 96.7946 82.4302 96.8161 82.4446 96.8405C82.4589 96.865 82.4681 96.892 82.4715 96.9199C82.4749 96.9478 82.4725 96.9761 82.4644 97.0031C82.4564 97.0301 82.4428 97.0553 82.4245 97.0772C82.4047 97.1027 82.3789 97.1235 82.3492 97.1378C82.3195 97.152 82.2868 97.1595 82.2537 97.1595Z" fill="#263238"/>
<path d="M71.4556 99.9748C71.4556 99.9748 73.8529 96.6242 73.7797 93.8732C73.7797 93.8732 82.9297 91.1281 82.5881 99.7985C82.5881 99.7985 84.1314 92.2038 76.4881 91.3985C68.8448 90.5931 67.9115 101.391 71.6081 104.918C71.5837 104.942 69.9672 102.079 71.4556 99.9748Z" fill="#263238"/>
<path d="M72.1016 100.945C72.1057 100.695 72.0583 100.447 71.9621 100.214C71.866 99.9822 71.723 99.7706 71.5415 99.5919C71.36 99.4131 71.1436 99.2708 70.9047 99.1732C70.6658 99.0755 70.4092 99.0245 70.1497 99.0229C68.7589 99.0582 67.856 101.733 71.2293 102.673C71.7173 102.832 72.0345 102.391 72.1016 100.945Z" fill="#E4897B"/>
<path d="M79.9093 103.931C79.6416 104.391 79.4072 104.868 79.2078 105.36L78.9272 105.301C77.6462 105.024 77.1521 104.495 76.9874 103.984C76.9095 103.734 76.8969 103.47 76.9508 103.214C76.9749 103.069 77.0201 102.929 77.085 102.797C77.7958 103.303 78.6113 103.656 79.4762 103.831C79.7263 103.902 79.9093 103.931 79.9093 103.931Z" fill="#263238"/>
<path d="M79.4658 103.831L79.2461 104.249C78.0257 103.99 77.2324 103.661 76.9395 103.214C76.9635 103.069 77.0087 102.929 77.0737 102.797C77.7847 103.303 78.6006 103.656 79.4658 103.831Z" fill="white"/>
<path d="M78.9161 105.301C77.6346 105.024 77.1403 104.495 76.9756 103.984C77.4593 104.102 77.9179 104.301 78.3303 104.572C78.5977 104.752 78.802 105.006 78.9161 105.301Z" fill="#DE5753"/>
<path d="M76.8605 93.462C76.8605 93.462 74.4205 100.375 69.8272 99.9281C65.2339 99.4813 73.1395 91.1107 73.1395 91.1107C73.1395 91.1107 80.9231 88.9946 84.2964 93.1564C87.6697 97.3182 82.6006 99.834 82.6006 99.834C82.6006 99.834 83.357 94.3496 76.8605 93.462Z" fill="#263238"/>
<path d="M73.1574 99.3635C73.127 99.3631 73.0973 99.3539 73.0723 99.3371C73.0473 99.3204 73.0281 99.2968 73.0171 99.2694C73.0032 99.232 73.0049 99.1907 73.022 99.1545C73.0391 99.1183 73.0702 99.0899 73.1086 99.0754C76.7686 97.7411 76.6954 93.0032 76.6954 92.9562C76.6954 92.9172 76.7115 92.8798 76.7401 92.8522C76.7687 92.8247 76.8075 92.8092 76.8479 92.8092C76.8677 92.8084 76.8874 92.8115 76.9058 92.8182C76.9243 92.8249 76.9412 92.8352 76.9554 92.8484C76.9697 92.8616 76.981 92.8774 76.9887 92.8949C76.9965 92.9124 77.0005 92.9313 77.0004 92.9503C77.0004 92.9973 77.0736 97.9409 73.2123 99.3517L73.1574 99.3635Z" fill="#263238"/>
<path d="M71.6812 110.515L73.804 113.748L71.1444 118.203L69.2168 112.484L71.6812 110.515Z" fill="#246DFF"/>
<path d="M76.1895 111.132V113.901L79.331 117.245L78.3061 112.443L76.1895 111.132Z" fill="#246DFF"/>
<path d="M124.239 199.165C123.716 198.934 123.154 198.796 122.58 198.759C122.58 198.759 120.585 197.631 118.609 193.24H116.388C116.013 193.243 115.647 193.358 115.342 193.568C115.036 193.778 114.805 194.074 114.68 194.415C114.645 194.51 114.624 194.609 114.619 194.709C114.643 195.228 114.7 195.744 114.79 196.255C115.117 197.956 115.551 199.637 116.089 201.287L116.461 201.199L115.778 198.001C115.552 196.92 116.736 197.966 117.285 199.059C117.834 200.153 118.676 201.258 121.128 200.717C123.989 200.059 125.136 199.665 124.239 199.165Z" fill="#263238"/>
<path d="M118.206 192.086C118.206 192.086 120.981 197.677 122.58 198.758C122.58 198.758 120.439 199.987 118.206 197.248C115.321 193.721 114.619 194.696 114.619 194.696C114.677 194.086 114.794 193.482 114.967 192.892C115.4 191.751 118.206 192.086 118.206 192.086Z" fill="#E4897B"/>
<path d="M93.6899 212.473C93.2386 212.128 92.726 211.866 92.1771 211.697C92.1771 211.697 90.5179 210.145 89.6761 205.425L87.5228 204.908C87.1576 204.826 86.775 204.854 86.427 204.989C86.0789 205.123 85.7822 205.358 85.5769 205.66C85.5165 205.745 85.4712 205.838 85.4427 205.937C85.3379 206.443 85.2666 206.956 85.2292 207.471C85.1189 209.199 85.1189 210.933 85.2292 212.661H85.6135L85.7355 209.405C85.7843 208.3 86.6749 209.587 86.9555 210.774C87.2361 211.962 87.7668 213.226 90.28 213.261C93.2263 213.302 94.4402 213.179 93.6899 212.473Z" fill="#263238"/>
<path d="M89.5721 204.244C89.5721 204.244 90.8897 210.316 92.1768 211.727C92.1768 211.727 89.7917 212.432 88.2972 209.264C86.3696 205.149 85.4424 205.966 85.4424 205.966C85.6478 205.385 85.9092 204.825 86.2232 204.291C86.9247 203.268 89.5721 204.244 89.5721 204.244Z" fill="#E4897B"/>
<path d="M68.6549 112.219C68.6549 112.219 74.0656 127.708 66.4406 145.296L59.0352 144.367L63.6163 134.374L62.6159 114.247L68.6549 112.219Z" fill="#263238"/>
<path d="M78.915 112.772C78.915 112.772 81.3916 116.617 81.0927 128.297L82.5872 144.832L84.0268 143.851L82.8495 135.786C82.8495 135.786 85.9788 121.59 84.5697 115.212L78.915 112.772Z" fill="#263238"/>
<path d="M77.1406 111.132C77.1406 111.132 81.3435 113.26 83.4907 116.17L81.923 117.563L84.0275 120.502L81.0934 128.267C81.0934 128.267 79.5013 113.719 77.1406 111.132Z" fill="#263238"/>
<path opacity="0.2" d="M77.1406 111.132C77.1406 111.132 81.3435 113.26 83.4907 116.17L81.923 117.563L84.0275 120.502L81.0934 128.267C81.0934 128.267 79.5013 113.719 77.1406 111.132Z" fill="white"/>
<path d="M69.8941 111.197C69.8941 111.197 71.8217 121.778 70.3455 129.132L65.7339 119.062L68.3752 116.617L64.8555 114.195C66.2642 112.824 67.9914 111.797 69.8941 111.197Z" fill="#263238"/>
<path opacity="0.2" d="M69.8941 111.197C69.8941 111.197 71.8217 121.778 70.3455 129.132L65.7339 119.062L68.3752 116.617L64.8555 114.195C66.2642 112.824 67.9914 111.797 69.8941 111.197Z" fill="white"/>
<path d="M75.3535 129.842L81.5938 130.266C82.099 129.944 82.6496 129.695 83.2286 129.525C83.9911 129.349 88.4258 128.884 89.231 129.184C90.0362 129.484 90.756 132.017 90.6828 132.541C90.6096 133.064 83.9057 133.24 83.6922 133.258C83.4787 133.275 82.7162 132.593 82.7162 132.593L75.3535 132.529V129.842Z" fill="#E4897B"/>
<path d="M62.6168 114.224C58.5542 116.575 56.3399 129.243 59.0361 131.224C61.7323 133.205 80.258 133.258 80.258 133.258L80.868 129.484C80.868 129.484 64.9531 127.95 64.1418 126.462C63.3305 124.975 63.6172 119.097 63.6172 119.097L62.6168 114.224Z" fill="#263238"/>
<path d="M134.469 213.279H137.683L143.46 135.786H139.196L134.469 213.279Z" fill="#263238"/>
<path opacity="0.7" d="M134.469 213.278H137.683L143.18 139.635L143.46 135.914H139.196L138.964 139.635L134.469 213.278Z" fill="white"/>
<path opacity="0.2" d="M138.965 139.453H143.18L143.461 135.914H139.197L138.965 139.453Z" fill="black"/>
<path d="M110.88 213.279H114.095L114.619 135.786H110.355L110.88 213.279Z" fill="#263238"/>
<path opacity="0.7" d="M110.35 135.914L110.435 148.411L110.874 213.278H114.095L114.534 148.411L114.62 135.914H110.35Z" fill="white"/>
<path opacity="0.2" d="M110.35 135.914L110.435 148.553H114.534L114.62 135.914H110.35Z" fill="black"/>
<path d="M76.751 213.279H79.9657L85.7424 135.786H81.4785L76.751 213.279Z" fill="#263238"/>
<path opacity="0.7" d="M76.751 213.278H79.9657L85.4618 139.635L85.7424 135.914H81.4785L81.2467 139.635L76.751 213.278Z" fill="white"/>
<path opacity="0.2" d="M81.2471 139.453H85.4622L85.7428 135.914H81.4789L81.2471 139.453Z" fill="black"/>
<path d="M171.245 213.279H174.46L169.733 135.786H165.469L171.245 213.279Z" fill="#263238"/>
<path opacity="0.7" d="M165.469 135.914L165.749 139.635L171.245 213.278H174.454L169.964 139.635L169.733 135.914H165.469Z" fill="white"/>
<path opacity="0.2" d="M169.733 135.914H165.469L165.749 139.453H169.964L169.733 135.914Z" fill="black"/>
<path d="M171.795 137.731H79.4166C79.0671 137.731 78.732 137.597 78.4849 137.359C78.2378 137.121 78.099 136.798 78.099 136.461V133.851H173.131V136.461C173.131 136.63 173.096 136.796 173.029 136.951C172.961 137.107 172.863 137.247 172.738 137.365C172.614 137.484 172.467 137.577 172.305 137.64C172.143 137.702 171.97 137.733 171.795 137.731Z" fill="#246DFF"/>
<path opacity="0.6" d="M171.795 137.731H79.4166C79.0671 137.731 78.732 137.597 78.4849 137.359C78.2378 137.121 78.099 136.798 78.099 136.461V133.851H173.131V136.461C173.131 136.63 173.096 136.796 173.029 136.951C172.961 137.107 172.863 137.247 172.738 137.365C172.614 137.484 172.467 137.577 172.305 137.64C172.143 137.702 171.97 137.733 171.795 137.731Z" fill="white"/>
<path opacity="0.2" d="M78.0985 135.792H173.118V133.852H78.0985V135.792Z" fill="black"/>
<path d="M76.1043 134.351H175.107C175.408 134.351 175.697 134.236 175.91 134.031C176.122 133.826 176.242 133.548 176.242 133.258C176.24 132.968 176.12 132.691 175.908 132.486C175.695 132.282 175.408 132.166 175.107 132.164H76.1043C75.8034 132.164 75.5148 132.279 75.302 132.485C75.0893 132.69 74.9697 132.968 74.9697 133.258C74.9697 133.548 75.0893 133.826 75.302 134.031C75.5148 134.236 75.8034 134.351 76.1043 134.351Z" fill="#246DFF"/>
<path opacity="0.6" d="M76.1043 134.351H175.107C175.408 134.351 175.697 134.236 175.91 134.031C176.122 133.826 176.242 133.548 176.242 133.258C176.24 132.968 176.12 132.691 175.908 132.486C175.695 132.282 175.408 132.166 175.107 132.164H76.1043C75.8034 132.164 75.5148 132.279 75.302 132.485C75.0893 132.69 74.9697 132.968 74.9697 133.258C74.9697 133.548 75.0893 133.826 75.302 134.031C75.5148 134.236 75.8034 134.351 76.1043 134.351Z" fill="white"/>
<path d="M134.505 132.165L133.987 130.284H112.71L102.913 131.224L102.535 132.165H134.505Z" fill="#263238"/>
<path opacity="0.4" d="M112.71 130.284V132.165H134.505L133.987 130.284H112.71Z" fill="black"/>
<path d="M116.986 121.254C116.957 121.483 116.979 121.715 117.052 121.934C117.124 122.154 117.244 122.356 117.404 122.527C117.564 122.698 117.761 122.834 117.98 122.926C118.199 123.017 118.436 123.063 118.676 123.058H151.28C151.79 123.048 152.279 122.86 152.655 122.528C153.031 122.195 153.269 121.743 153.324 121.254L155.257 101.144C155.284 100.916 155.26 100.685 155.187 100.466C155.114 100.247 154.994 100.046 154.834 99.8752C154.675 99.7045 154.479 99.5686 154.261 99.4763C154.042 99.3839 153.806 99.3374 153.568 99.3397H120.963C120.452 99.3472 119.962 99.5351 119.585 99.8677C119.209 100.2 118.972 100.655 118.92 101.144L116.986 121.254Z" fill="#263238"/>
<path opacity="0.4" d="M118.786 123.059H151.281C151.791 123.049 152.28 122.86 152.656 122.528C153.032 122.196 153.27 121.743 153.325 121.254L155.258 101.144C155.282 100.948 155.267 100.748 155.216 100.557H122.727C122.217 100.567 121.728 100.755 121.352 101.088C120.976 101.42 120.738 101.872 120.684 102.361L118.75 122.471C118.728 122.667 118.74 122.866 118.786 123.059Z" fill="black"/>
<path d="M141.185 110.726H134.438L136.238 129.33L125.575 130.871V132.164H148.029V130.871L143.43 129.33L141.185 110.726Z" fill="#263238"/>
<path opacity="0.1" d="M134.438 110.726L139.434 131.87L143.43 131.758L141.185 110.726H134.438Z" fill="white"/>
<path d="M138.038 97.9702H136.738V100.151H138.038V97.9702Z" fill="#263238"/>
<path d="M136.739 97.888H135.171C135.011 97.58 134.933 97.2386 134.945 96.8945C134.927 96.5519 135.005 96.211 135.171 95.907H136.739V97.888Z" fill="#263238"/>
<path d="M139.416 96.8123C139.416 97.1727 139.305 97.525 139.097 97.8246C138.889 98.1243 138.594 98.3579 138.248 98.4958C137.903 98.6337 137.523 98.6698 137.156 98.5995C136.789 98.5292 136.452 98.3556 136.188 98.1008C135.923 97.8459 135.743 97.5212 135.67 97.1678C135.597 96.8143 135.635 96.4479 135.778 96.1149C135.921 95.7819 136.163 95.4973 136.474 95.2971C136.785 95.0969 137.151 94.99 137.525 94.99C137.773 94.9892 138.02 95.0358 138.249 95.1271C138.479 95.2184 138.688 95.3526 138.864 95.522C139.039 95.6914 139.179 95.8926 139.273 96.114C139.368 96.3354 139.417 96.5727 139.416 96.8123Z" fill="#263238"/>
<path opacity="0.1" d="M139.416 96.8123C139.416 97.1727 139.305 97.525 139.097 97.8246C138.889 98.1243 138.594 98.3579 138.248 98.4958C137.903 98.6337 137.523 98.6698 137.156 98.5995C136.789 98.5292 136.452 98.3556 136.188 98.1008C135.923 97.8459 135.743 97.5212 135.67 97.1678C135.597 96.8143 135.635 96.4479 135.778 96.1149C135.921 95.7819 136.163 95.4973 136.474 95.2971C136.785 95.0969 137.151 94.99 137.525 94.99C137.773 94.9892 138.02 95.0358 138.249 95.1271C138.479 95.2184 138.688 95.3526 138.864 95.522C139.039 95.6914 139.179 95.8926 139.273 96.114C139.368 96.3354 139.417 96.5727 139.416 96.8123Z" fill="white"/>
<path d="M160.571 118.121V132.164H153.306C153.356 127.285 154.067 122.434 155.422 117.733C155.51 117.433 155.697 117.169 155.955 116.982C156.212 116.794 156.527 116.692 156.85 116.692H159.088C159.283 116.692 159.476 116.729 159.656 116.801C159.836 116.873 159.999 116.978 160.137 117.111C160.274 117.243 160.383 117.401 160.458 117.574C160.532 117.747 160.571 117.933 160.571 118.121Z" fill="#263238"/>
<path opacity="0.4" d="M160.571 118.121V132.164H156.911V118.644C156.911 118.128 157.124 117.633 157.502 117.268C157.881 116.903 158.395 116.698 158.93 116.698H159.064C159.261 116.695 159.455 116.73 159.638 116.8C159.82 116.87 159.986 116.974 160.126 117.106C160.266 117.239 160.378 117.396 160.454 117.571C160.531 117.745 160.57 117.932 160.571 118.121Z" fill="black"/>
<path d="M114.21 118.121V132.164H106.945C106.995 127.285 107.707 122.434 109.062 117.733C109.15 117.433 109.337 117.169 109.594 116.982C109.852 116.794 110.166 116.692 110.489 116.692H112.728C112.923 116.692 113.116 116.729 113.295 116.801C113.475 116.873 113.639 116.978 113.776 117.111C113.914 117.243 114.023 117.401 114.098 117.574C114.172 117.747 114.21 117.933 114.21 118.121Z" fill="#263238"/>
<path opacity="0.4" d="M114.211 118.121V132.164H110.551V118.644C110.551 118.128 110.764 117.633 111.142 117.268C111.521 116.903 112.034 116.698 112.57 116.698H112.704C112.9 116.695 113.095 116.73 113.277 116.8C113.46 116.87 113.626 116.974 113.766 117.106C113.906 117.239 114.018 117.396 114.094 117.571C114.17 117.745 114.21 117.932 114.211 118.121Z" fill="black"/>
</svg>
