<svg width="302" height="220" viewBox="0 0 302 220" fill="none" xmlns="http://www.w3.org/2000/svg">
<path d="M151 219.268C215.678 219.268 268.11 216.289 268.11 212.614C268.11 208.939 215.678 205.96 151 205.96C86.3224 205.96 33.8906 208.939 33.8906 212.614C33.8906 216.289 86.3224 219.268 151 219.268Z" fill="#F5F5F5"/>
<path d="M191.342 43.2258H190.714V47.0937H191.342V43.2258Z" fill="#246DFF"/>
<path d="M191.342 40.0809H190.738C190.735 37.8281 189.813 35.6685 188.176 34.0761C186.538 32.4836 184.319 31.5884 182.004 31.5868V30.999C184.477 31.0068 186.847 31.9659 188.596 33.6672C190.345 35.3686 191.332 37.6741 191.342 40.0809Z" fill="#246DFF"/>
<path d="M181.98 33.1155H98.6156C94.6593 33.1155 91.4521 36.2368 91.4521 40.0871V205.56C91.4521 209.41 94.6593 212.531 98.6156 212.531H181.98C185.936 212.531 189.143 209.41 189.143 205.56V40.0871C189.143 36.2368 185.936 33.1155 181.98 33.1155Z" fill="#246DFF"/>
<path opacity="0.95" d="M185.894 205.56V40.0814C185.894 37.7147 183.922 35.7961 181.49 35.7961L98.1263 35.7961C95.6945 35.7961 93.7232 37.7147 93.7232 40.0814L93.7232 205.56C93.7232 207.927 95.6945 209.845 98.1263 209.845H181.49C183.922 209.845 185.894 207.927 185.894 205.56Z" fill="white"/>
<path d="M139.814 203.203C142.566 203.203 144.797 201.032 144.797 198.353C144.797 195.675 142.566 193.504 139.814 193.504C137.062 193.504 134.831 195.675 134.831 198.353C134.831 201.032 137.062 203.203 139.814 203.203Z" fill="#246DFF"/>
<path d="M136.003 35.3079C136.003 36.3695 136.436 37.3877 137.208 38.1385C137.979 38.8892 139.025 39.3109 140.116 39.3109C141.206 39.3109 142.253 38.8892 143.024 38.1385C143.795 37.3877 144.228 36.3695 144.228 35.3079H136.003Z" fill="#246DFF"/>
<path opacity="0.7" d="M167.013 52.6787H113.257C111.065 52.6849 108.964 53.5354 107.413 55.0443C105.863 56.5532 104.989 58.598 104.982 60.7319V66.1046C104.989 68.2386 105.863 70.2833 107.413 71.7922C108.964 73.3012 111.065 74.1516 113.257 74.1578H167.013L175.288 78.931V60.7084C175.274 58.579 174.397 56.5412 172.847 55.0376C171.298 53.5341 169.201 52.6864 167.013 52.6787Z" fill="#246DFF"/>
<path d="M165.515 60.373H114.725V61.7133H165.515V60.373Z" fill="white"/>
<path d="M165.515 65.1226H124.497V66.4628H165.515V65.1226Z" fill="white"/>
<path opacity="0.15" d="M113.227 88.4419H166.983C169.176 88.4481 171.277 89.2985 172.827 90.8075C174.378 92.3164 175.251 94.3612 175.258 96.4951V101.862C175.251 103.996 174.378 106.041 172.827 107.55C171.277 109.058 169.176 109.909 166.983 109.915H113.227L104.952 114.688V96.4657C104.965 94.3364 105.842 92.2983 107.392 90.7953C108.942 89.2924 111.039 88.4465 113.227 88.4419Z" fill="#246DFF"/>
<path opacity="0.5" d="M165.515 96.1304H114.725V97.4706H165.515V96.1304Z" fill="#246DFF"/>
<path opacity="0.5" d="M138.281 100.886H114.725V102.226H138.281V100.886Z" fill="#246DFF"/>
<path opacity="0.5" d="M151.538 100.886H141.959V102.226H151.538V100.886Z" fill="#246DFF"/>
<path opacity="0.7" d="M167.013 124.199H113.257C111.065 124.205 108.964 125.055 107.413 126.564C105.863 128.073 104.989 130.118 104.982 132.252V137.619C104.987 139.753 105.861 141.799 107.411 143.308C108.962 144.817 111.064 145.667 113.257 145.672H167.013L175.288 150.445V132.223C175.272 130.094 174.394 128.058 172.845 126.556C171.296 125.053 169.2 124.206 167.013 124.199Z" fill="#246DFF"/>
<path d="M165.515 131.888H114.725V133.228H165.515V131.888Z" fill="white"/>
<path d="M165.515 136.643H124.497V137.984H165.515V136.643Z" fill="white"/>
<path opacity="0.15" d="M113.227 159.957H134.143C136.336 159.965 138.436 160.815 139.986 162.324C141.536 163.833 142.41 165.877 142.418 168.01V173.383C142.41 175.516 141.536 177.56 139.986 179.069C138.436 180.577 136.336 181.428 134.143 181.436H113.227L104.952 186.203V168.01C104.959 165.876 105.832 163.831 107.383 162.322C108.933 160.813 111.034 159.963 113.227 159.957Z" fill="#246DFF"/>
<path opacity="0.5" d="M117.417 170.696C117.417 171.161 117.276 171.615 117.01 172.002C116.745 172.389 116.368 172.69 115.926 172.868C115.485 173.046 114.999 173.093 114.53 173.002C114.062 172.911 113.631 172.687 113.293 172.358C112.956 172.03 112.726 171.611 112.632 171.154C112.539 170.698 112.587 170.226 112.77 169.796C112.953 169.366 113.262 168.999 113.66 168.741C114.057 168.482 114.524 168.344 115.002 168.344C115.64 168.352 116.25 168.602 116.701 169.042C117.153 169.481 117.41 170.075 117.417 170.696Z" fill="#246DFF"/>
<path opacity="0.5" d="M122.303 171.172C123.654 171.172 124.749 170.106 124.749 168.791C124.749 167.476 123.654 166.41 122.303 166.41C120.952 166.41 119.857 167.476 119.857 168.791C119.857 170.106 120.952 171.172 122.303 171.172Z" fill="#246DFF"/>
<path opacity="0.5" d="M132.077 173.547C132.077 174.012 131.935 174.466 131.669 174.853C131.404 175.24 131.027 175.541 130.585 175.719C130.144 175.897 129.658 175.943 129.19 175.853C128.721 175.762 128.291 175.538 127.953 175.209C127.615 174.88 127.385 174.461 127.292 174.005C127.198 173.549 127.246 173.076 127.429 172.647C127.612 172.217 127.921 171.85 128.319 171.592C128.716 171.333 129.183 171.195 129.661 171.195C130.302 171.195 130.916 171.443 131.369 171.884C131.822 172.325 132.077 172.923 132.077 173.547Z" fill="#246DFF"/>
<path d="M207.975 164.977C208.639 166.264 209.231 167.557 209.854 168.851C210.476 170.144 211.062 171.461 211.617 172.777C212.173 174.094 212.753 175.417 213.284 176.763C213.816 178.109 214.353 179.455 214.843 180.877L212.68 178.896C213.941 179.316 215.262 179.538 216.594 179.555C218.139 179.595 219.686 179.527 221.221 179.349C222.815 179.185 224.422 178.926 226.053 178.632C227.684 178.338 229.314 177.974 230.885 177.615L232.316 181.001C230.745 181.842 229.119 182.582 227.448 183.217C225.775 183.87 224.062 184.424 222.32 184.875C220.509 185.35 218.657 185.665 216.787 185.815C214.702 186.012 212.597 185.845 210.572 185.321L209.153 184.939L208.38 183.323C207.22 180.848 205.964 178.309 204.756 175.775C204.152 174.505 203.518 173.23 202.914 171.954C202.31 170.679 201.706 169.397 201.102 168.116L207.975 164.977Z" fill="#FFC3BD"/>
<path d="M228.916 178.65L231.289 176.393L235.058 180.36C235.058 180.36 233.693 182.682 230.299 181.33L228.916 178.65Z" fill="#FFC3BD"/>
<path d="M234.871 174.899L236.949 178.197L235.064 180.36L231.296 176.392L234.871 174.899Z" fill="#FFC3BD"/>
<path d="M197.309 159.692C202.141 157.876 205.885 160.586 211.992 168.086L204.84 175.24C204.84 175.24 187.886 163.207 197.309 159.692Z" fill="#263238"/>
<path opacity="0.2" d="M206.38 167.451C204.097 166.011 202.111 166.417 200.432 167.757C201.066 170.043 202.69 172.665 204.255 174.811C204.623 175.093 204.858 175.246 204.858 175.246L208.844 171.254C208.74 170.485 208.466 169.746 208.041 169.09C207.615 168.433 207.049 167.874 206.38 167.451Z" fill="black"/>
<path d="M234.111 209.558L239.897 208.905L239.413 197.36L233.634 198.007L234.111 209.558Z" fill="#FFC3BD"/>
<path d="M239.945 206.477L233.428 206.565C233.322 206.57 233.222 206.612 233.145 206.683C233.069 206.755 233.021 206.85 233.011 206.953L232.274 211.943C232.252 212.061 232.257 212.182 232.288 212.298C232.318 212.414 232.374 212.523 232.451 212.616C232.529 212.709 232.626 212.785 232.736 212.838C232.846 212.891 232.967 212.921 233.09 212.925C235.113 212.86 236.043 212.714 238.598 212.672C240.175 212.672 244.922 212.761 247.096 212.731C249.271 212.702 249.416 210.38 248.516 210.174C244.475 209.292 242.15 208.029 240.803 206.806C240.573 206.59 240.264 206.472 239.945 206.477Z" fill="#263238"/>
<path d="M241.328 205.008C241.42 204.974 241.518 204.962 241.614 204.974C241.711 204.985 241.804 205.019 241.884 205.072C241.948 205.103 242.003 205.149 242.044 205.205C242.085 205.262 242.111 205.327 242.12 205.396C242.192 205.984 240.912 207.042 240.737 207.159C240.719 207.172 240.698 207.178 240.676 207.178C240.655 207.178 240.633 207.172 240.616 207.159C240.595 207.149 240.579 207.132 240.568 207.112C240.557 207.093 240.553 207.07 240.555 207.047C240.598 206.413 240.749 205.284 241.262 205.031L241.328 205.008ZM240.803 206.806C241.31 206.377 241.938 205.731 241.896 205.407C241.896 205.372 241.896 205.319 241.794 205.272C241.734 205.23 241.664 205.204 241.59 205.198C241.517 205.192 241.443 205.205 241.377 205.237C241.099 205.384 240.888 205.966 240.803 206.806Z" fill="#246DFF"/>
<path d="M241.268 206.595C241.481 206.486 241.715 206.419 241.956 206.399C242.197 206.378 242.439 206.405 242.669 206.478C242.748 206.526 242.809 206.598 242.842 206.683C242.876 206.767 242.881 206.86 242.856 206.948C242.844 207.03 242.811 207.109 242.762 207.178C242.713 207.246 242.648 207.302 242.572 207.342C241.968 207.665 240.688 207.183 240.634 207.165C240.615 207.157 240.598 207.145 240.584 207.129C240.571 207.114 240.561 207.096 240.555 207.077C240.551 207.058 240.552 207.038 240.559 207.02C240.565 207.001 240.576 206.984 240.591 206.971C240.793 206.809 241.022 206.682 241.268 206.595ZM242.391 207.183L242.457 207.154C242.505 207.127 242.546 207.09 242.577 207.047C242.608 207.003 242.629 206.953 242.639 206.901C242.639 206.76 242.608 206.707 242.56 206.683C242.27 206.501 241.382 206.736 240.905 207.036C241.377 207.218 241.891 207.269 242.391 207.183Z" fill="#246DFF"/>
<path opacity="0.2" d="M233.634 198.013L239.413 197.36L239.661 203.315L233.851 203.339L233.634 198.013Z" fill="black"/>
<path d="M205.264 191.311C205.264 191.311 220.279 177.721 230.028 177.515C237.143 177.368 242.229 200.27 242.229 200.27L233.773 200.428C233.773 200.428 232.287 192.328 226.76 190.094C218.775 201.757 186.226 224.805 189.312 199.817C194.144 198.048 205.264 191.311 205.264 191.311Z" fill="#246DFF"/>
<path opacity="0.2" d="M205.264 191.311C205.264 191.311 220.279 177.721 230.028 177.515C237.143 177.368 242.229 200.27 242.229 200.27L233.773 200.428C233.773 200.428 232.287 192.328 226.76 190.094C218.775 201.757 186.226 224.805 189.312 199.817C194.144 198.048 205.264 191.311 205.264 191.311Z" fill="black"/>
<path d="M242.199 201.404L232.257 202.333L232.287 198.806L242.803 197.589L242.199 201.404Z" fill="#263238"/>
<path d="M185.548 200.681C185.548 200.681 179.092 188.407 178.3 168.639C178.119 163.983 182.426 159.592 187.36 159.345C191.504 159.134 195.889 159.081 199.44 159.093C202.992 159.104 205.71 161.397 206.115 164.724C207.009 172.06 207.166 183.199 211.786 196.466L185.548 200.681Z" fill="#263238"/>
<path opacity="0.2" d="M181.327 168.738C184.885 164.829 186.111 166.076 186.642 166.546C191.57 170.89 184.335 184.416 182.886 186.409C181.867 181.357 181.261 176.235 181.074 171.09C181.037 170.298 181.122 169.505 181.327 168.738Z" fill="black"/>
<path d="M192.168 147.594C191.77 151.198 190.791 156.729 188.272 159.298C190.254 161.114 193.479 162.901 198.063 163.648C200.431 162.696 200.745 160.574 199.597 159.098C195.551 158.41 195.599 157.294 197.127 154.784L192.168 147.594Z" fill="#FFC3BD"/>
<path opacity="0.2" d="M194.192 150.528L197.127 154.778C196.738 155.362 196.435 155.998 196.227 156.664C194.79 156.077 193.208 153.937 193.522 152.362C193.631 151.716 193.858 151.095 194.192 150.528Z" fill="black"/>
<path d="M202.775 140.952C205.149 143.404 210.137 143.415 207.993 140.512C205.849 137.608 200.927 139.042 202.775 140.952Z" fill="#263238"/>
<path d="M193.153 140.688C191.83 145.391 190.816 148.024 192.32 151.269C192.776 152.327 193.524 153.243 194.479 153.915C195.435 154.588 196.563 154.991 197.738 155.082C198.914 155.172 200.093 154.946 201.145 154.428C202.197 153.91 203.083 153.12 203.705 152.145C206.121 148.43 207.897 141.405 204.025 137.837C203.223 137.04 202.217 136.465 201.111 136.171C200.005 135.877 198.839 135.876 197.732 136.166C196.625 136.456 195.617 137.028 194.813 137.823C194.008 138.618 193.435 139.607 193.153 140.688Z" fill="#FFC3BD"/>
<path d="M192.072 145.05C192.676 144.944 195.66 144.062 197.115 142.698C198.752 141.164 198.764 139.677 198.323 139.001C197.882 138.325 194.428 137.026 192.815 137.326C190.267 137.802 190.895 142.193 190.931 143.38C190.95 143.733 191.066 144.073 191.267 144.367C191.468 144.661 191.746 144.896 192.072 145.05Z" fill="#FFC3BD"/>
<path opacity="0.7" d="M192.072 145.05C192.676 144.944 195.66 144.062 197.115 142.698C198.752 141.164 198.764 139.677 198.323 139.001C197.882 138.325 194.428 137.026 192.815 137.326C190.267 137.802 190.895 142.193 190.931 143.38C190.95 143.733 191.066 144.073 191.267 144.367C191.468 144.661 191.746 144.896 192.072 145.05Z" fill="#263238"/>
<path d="M189.542 145.373C190.012 146.383 190.854 147.185 191.903 147.618C193.292 148.165 194.083 147.031 193.781 145.649C193.509 144.432 192.459 142.675 191.027 142.71C189.596 142.745 188.974 144.127 189.542 145.373Z" fill="#FFC3BD"/>
<path d="M194.084 138.73C200.244 140.011 204.623 143.386 207.535 141.358C209.594 139.923 208.241 137.307 205.88 135.415C203.862 133.798 201.048 133.298 200.202 131.976C200.103 132.416 200.142 132.874 200.312 133.293C200.481 133.712 200.776 134.072 201.156 134.327C201.156 134.327 195.594 133.492 194.053 132.082C193.685 132.922 195.11 134.545 195.11 134.545C195.11 134.545 193.54 135.997 189.07 134.357C189.336 135.761 190.58 138.001 194.084 138.73Z" fill="#263238"/>
<path d="M206.319 141.834H206.078V141.528C206.61 141.593 207.149 141.486 207.613 141.223C208.076 140.961 208.439 140.558 208.645 140.076C208.876 139.432 208.893 138.734 208.693 138.079C208.494 137.425 208.088 136.849 207.533 136.432C207 136.028 206.418 135.688 205.8 135.421C204.369 134.721 202.744 133.928 201.959 131.617L202.255 131.523C202.998 133.71 204.496 134.463 205.945 135.144C206.591 135.425 207.199 135.78 207.757 136.203C208.367 136.657 208.813 137.289 209.03 138.006C209.247 138.724 209.224 139.49 208.965 140.194C208.753 140.7 208.384 141.13 207.91 141.424C207.437 141.718 206.881 141.861 206.319 141.834Z" fill="#263238"/>
<path d="M200.135 145.255C200.002 145.626 200.099 146.008 200.34 146.102C200.582 146.196 200.89 145.972 201.023 145.602C201.156 145.232 201.059 144.85 200.818 144.756C200.576 144.662 200.262 144.873 200.135 145.255Z" fill="#263238"/>
<path d="M204.689 146.595C204.562 146.966 204.653 147.342 204.9 147.436C205.148 147.53 205.45 147.313 205.577 146.936C205.704 146.56 205.619 146.19 205.371 146.09C205.124 145.99 204.822 146.219 204.689 146.595Z" fill="#263238"/>
<path d="M203.016 146.142C203.064 147.459 203.291 148.764 203.693 150.022C202.811 150.375 201.778 149.658 201.778 149.658L203.016 146.142Z" fill="#ED847E"/>
<path d="M199.32 150.551C198.502 150.113 197.894 149.378 197.629 148.506C197.624 148.492 197.623 148.476 197.625 148.462C197.627 148.447 197.632 148.432 197.64 148.42C197.648 148.407 197.659 148.396 197.671 148.387C197.684 148.379 197.698 148.373 197.713 148.371C197.728 148.367 197.744 148.367 197.759 148.369C197.775 148.372 197.789 148.378 197.802 148.386C197.815 148.394 197.826 148.405 197.835 148.417C197.844 148.43 197.849 148.444 197.852 148.459C198.007 148.933 198.269 149.367 198.619 149.729C198.969 150.091 199.399 150.372 199.875 150.551C199.905 150.563 199.929 150.586 199.941 150.614C199.954 150.643 199.954 150.675 199.942 150.704C199.938 150.719 199.931 150.732 199.921 150.743C199.911 150.755 199.899 150.764 199.885 150.77C199.871 150.776 199.856 150.78 199.841 150.779C199.826 150.779 199.811 150.776 199.797 150.769C199.633 150.707 199.474 150.634 199.32 150.551Z" fill="#263238"/>
<path d="M198.897 142.821C198.86 142.802 198.829 142.774 198.807 142.739C198.772 142.688 198.76 142.626 198.772 142.567C198.785 142.507 198.821 142.455 198.873 142.422C199.179 142.22 199.532 142.095 199.9 142.059C200.268 142.023 200.639 142.077 200.981 142.216C201.01 142.229 201.036 142.247 201.058 142.269C201.079 142.292 201.096 142.318 201.108 142.347C201.119 142.376 201.124 142.407 201.123 142.438C201.122 142.469 201.115 142.499 201.102 142.527C201.09 142.555 201.072 142.579 201.051 142.599C201.029 142.62 201.003 142.636 200.975 142.646C200.947 142.657 200.917 142.661 200.887 142.66C200.856 142.659 200.827 142.652 200.8 142.639C200.527 142.536 200.233 142.499 199.943 142.531C199.653 142.563 199.375 142.662 199.133 142.821C199.097 142.841 199.056 142.852 199.015 142.852C198.974 142.852 198.933 142.841 198.897 142.821Z" fill="#263238"/>
<path d="M206.242 145.496C206.204 145.484 206.171 145.463 206.143 145.435C206.116 145.408 206.096 145.374 206.085 145.338C206.007 145.051 205.863 144.786 205.664 144.562C205.466 144.338 205.217 144.161 204.937 144.044C204.877 144.024 204.828 143.982 204.798 143.928C204.769 143.873 204.763 143.81 204.78 143.75C204.788 143.722 204.801 143.695 204.82 143.672C204.838 143.649 204.862 143.63 204.889 143.616C204.915 143.602 204.945 143.594 204.975 143.592C205.005 143.589 205.035 143.593 205.064 143.603C205.419 143.743 205.737 143.961 205.99 144.24C206.244 144.52 206.427 144.853 206.525 145.214C206.536 145.243 206.54 145.273 206.538 145.303C206.536 145.333 206.527 145.363 206.513 145.39C206.499 145.416 206.48 145.44 206.456 145.46C206.432 145.479 206.404 145.493 206.374 145.502C206.33 145.512 206.284 145.51 206.242 145.496Z" fill="#263238"/>
<path d="M254.182 212.302L257.624 207.429L248.353 199.57L244.91 204.443L254.182 212.302Z" fill="#FFC3BD"/>
<path d="M255.244 205.125L251.203 210.021C251.133 210.104 251.094 210.208 251.094 210.315C251.094 210.423 251.133 210.527 251.203 210.609L254.35 214.418C254.425 214.509 254.52 214.582 254.627 214.633C254.735 214.683 254.853 214.709 254.972 214.709C255.092 214.709 255.21 214.683 255.317 214.633C255.425 214.582 255.52 214.509 255.594 214.418C256.869 212.82 257.72 211.591 259.357 209.604C260.366 208.381 263.537 204.807 264.932 203.138C266.327 201.469 264.733 199.823 264.002 200.387C260.722 202.909 257.805 204.455 256.041 204.69C255.729 204.733 255.445 204.889 255.244 205.125Z" fill="#263238"/>
<path d="M254.979 203.115C255.008 203.024 255.058 202.941 255.125 202.872C255.192 202.802 255.274 202.749 255.365 202.715C255.429 202.683 255.499 202.666 255.571 202.666C255.642 202.666 255.712 202.683 255.776 202.715C256.325 203.026 256.38 204.661 256.38 204.849C256.379 204.87 256.372 204.891 256.359 204.909C256.346 204.927 256.328 204.941 256.307 204.949C256.288 204.96 256.266 204.966 256.244 204.966C256.222 204.966 256.2 204.96 256.181 204.949C255.685 204.537 254.864 203.773 254.973 203.185C254.971 203.161 254.973 203.138 254.979 203.115ZM256.144 204.602C256.096 203.943 255.945 203.073 255.655 202.909C255.627 202.895 255.596 202.888 255.565 202.888C255.533 202.888 255.502 202.895 255.474 202.909C255.405 202.932 255.343 202.973 255.294 203.026C255.245 203.08 255.212 203.145 255.196 203.215C255.154 203.52 255.492 204.032 256.144 204.602Z" fill="#246DFF"/>
<path d="M256.26 204.114C256.398 203.614 256.664 203.074 256.996 202.938C257.084 202.905 257.18 202.901 257.27 202.925C257.36 202.949 257.44 203.002 257.498 203.074C257.558 203.133 257.603 203.206 257.63 203.285C257.658 203.365 257.666 203.449 257.655 203.532C257.57 204.179 256.398 204.908 256.344 204.937C256.327 204.947 256.307 204.953 256.287 204.953C256.266 204.953 256.247 204.947 256.229 204.937C256.21 204.931 256.194 204.919 256.182 204.903C256.17 204.888 256.163 204.868 256.163 204.849C256.153 204.6 256.185 204.352 256.26 204.114ZM257.407 203.579C257.407 203.579 257.407 203.538 257.407 203.515C257.415 203.462 257.409 203.409 257.391 203.358C257.373 203.308 257.344 203.263 257.304 203.226C257.208 203.121 257.135 203.127 257.081 203.15C256.761 203.268 256.423 204.102 256.38 204.649C256.817 204.391 257.172 204.021 257.407 203.579Z" fill="#246DFF"/>
<path opacity="0.2" d="M244.91 204.443L248.353 199.57L253.136 203.62L249.186 208.07L244.91 204.443Z" fill="black"/>
<path d="M194.977 198.889C194.977 198.889 221.372 172.789 233.252 183.958C240.651 190.918 251.523 200.505 251.523 200.505L245.224 206.471C245.224 206.471 229.266 198.213 225.11 193.651C203.306 217.376 183.821 218.998 185.573 200.705C188.664 199.901 191.805 199.295 194.977 198.889Z" fill="#246DFF"/>
<path d="M253.402 200.557L246.48 209.022L243.545 207.106L250.618 198.118L253.402 200.557Z" fill="#263238"/>
<path d="M185.64 166.981L186.159 177.68C186.256 179.443 186.37 181.207 186.509 182.97C186.582 183.834 186.678 184.687 186.775 185.504C186.829 185.915 186.884 186.315 186.95 186.679C187.017 187.044 187.089 187.385 187.137 187.591C187.14 187.622 187.14 187.653 187.137 187.685C187.038 187.51 186.897 187.361 186.727 187.25C186.628 187.18 186.518 187.129 186.401 187.097C186.334 187.097 186.298 187.097 186.328 187.097C186.822 187.171 187.328 187.139 187.808 187.003C189.406 186.615 190.961 186.077 192.453 185.398C194.065 184.71 195.672 183.917 197.285 183.094C198.897 182.271 200.51 181.395 202.074 180.543L204.333 183.482C201.501 186.047 198.425 188.344 195.146 190.342C194.307 190.841 193.437 191.323 192.519 191.776C191.56 192.257 190.565 192.666 189.541 192.999C188.959 193.186 188.364 193.331 187.76 193.434C187.017 193.568 186.259 193.604 185.507 193.539C185.02 193.495 184.542 193.392 184.081 193.234C183.527 193.044 183.005 192.772 182.535 192.428C182.045 192.059 181.622 191.612 181.285 191.106C181.131 190.874 180.993 190.633 180.874 190.383L180.644 189.842C180.432 189.282 180.253 188.711 180.107 188.131C179.974 187.608 179.865 187.12 179.769 186.632C179.569 185.663 179.418 184.716 179.285 183.781C179.008 181.912 178.808 180.066 178.639 178.227C178.301 174.547 178.102 170.908 178.035 167.211L185.64 166.981Z" fill="#FFC3BD"/>
<path d="M183.785 160.086C180.94 160.397 176.682 163.025 176.537 175.24L188.738 174.305C188.738 174.305 194.488 158.893 183.785 160.086Z" fill="#263238"/>
<path d="M212.335 174.352L207.805 174.64C207.538 174.676 207.288 174.79 207.088 174.966C206.887 175.142 206.746 175.373 206.682 175.628L204.562 185.315C204.526 185.421 204.518 185.533 204.538 185.642C204.558 185.752 204.606 185.854 204.678 185.941C204.749 186.027 204.842 186.095 204.947 186.138C205.053 186.18 205.167 186.197 205.281 186.185L209.81 185.897C210.078 185.863 210.329 185.75 210.53 185.573C210.73 185.397 210.871 185.166 210.934 184.91L213.053 175.222C213.089 175.117 213.098 175.004 213.077 174.895C213.057 174.786 213.009 174.683 212.938 174.597C212.866 174.51 212.773 174.442 212.668 174.4C212.563 174.357 212.448 174.341 212.335 174.352Z" fill="#246DFF"/>
<path d="M202.442 180.313L206.193 179.044L205.269 184.763C205.269 184.763 201.089 185.657 200.745 183.47L201.349 181.524C201.425 181.255 201.563 181.006 201.753 180.797C201.942 180.587 202.178 180.422 202.442 180.313Z" fill="#FFC3BD"/>
<path d="M210.48 179.526L208.856 184.616L205.269 184.763L206.193 179.044L210.48 179.526Z" fill="#FFC3BD"/>
<path d="M80.5615 59.6387C77.614 52.9786 93.6864 46.007 98.2285 56.3763C105.942 59.6387 96.0843 73.5114 98.3131 75.8626C100.542 78.2139 102.221 75.363 102.221 75.363C102.221 75.363 104.474 81.206 98.7298 85.8851C93.5837 90.088 78.1032 91.2284 78.067 82.9459C78.0187 72.177 84.4271 68.3679 80.5615 59.6387Z" fill="#263238"/>
<path d="M95.3407 199.459L91.0161 201.91L80.6333 190.359L86.021 185.627L95.3407 199.459Z" fill="#FF8B7B"/>
<path d="M90.5211 200.852L94.9847 197.519C95.0544 197.458 95.1448 197.425 95.2384 197.425C95.332 197.425 95.4223 197.458 95.492 197.519L98.4516 200.364C98.524 200.444 98.5782 200.537 98.6106 200.639C98.6431 200.74 98.6531 200.847 98.64 200.953C98.6268 201.059 98.5909 201.16 98.5345 201.251C98.4781 201.342 98.4025 201.421 98.3127 201.481C96.7423 202.616 95.9269 203.092 93.9639 204.561C92.7559 205.461 90.3399 207.436 88.685 208.676C87.03 209.916 85.7737 208.488 86.3596 207.835C89.0051 204.896 89.5789 203.133 89.9836 201.563C90.075 201.274 90.2645 201.023 90.5211 200.852Z" fill="#263238"/>
<path d="M89.5188 202.592C89.2082 202.873 88.8117 203.049 88.3894 203.091C88.2888 203.087 88.1907 203.059 88.1042 203.009C88.0177 202.958 87.9455 202.888 87.8942 202.803C87.8646 202.75 87.8491 202.69 87.8491 202.63C87.8491 202.569 87.8646 202.51 87.8942 202.456C88.1962 201.869 90.3462 201.404 90.5877 201.351C90.611 201.348 90.6348 201.351 90.6562 201.36C90.6777 201.37 90.6959 201.385 90.7085 201.404C90.7202 201.424 90.7263 201.446 90.7263 201.469C90.7263 201.492 90.7202 201.514 90.7085 201.534C90.3459 201.921 89.9477 202.275 89.5188 202.592ZM88.2385 202.374C88.1753 202.416 88.1235 202.473 88.0875 202.539C88.074 202.559 88.0668 202.582 88.0668 202.606C88.0668 202.63 88.074 202.654 88.0875 202.674C88.1189 202.731 88.165 202.778 88.2211 202.812C88.2772 202.846 88.3415 202.865 88.4076 202.868C88.8001 202.868 89.4825 202.433 90.2556 201.645C89.5467 201.779 88.8652 202.025 88.2385 202.374Z" fill="#246DFF"/>
<path d="M90.654 201.545H90.6057C90.0017 201.704 88.4496 201.622 88.19 201.157C88.1356 201.051 88.1175 200.869 88.3591 200.652C88.5312 200.496 88.758 200.41 88.9932 200.411C89.7843 200.411 90.6298 201.322 90.66 201.363C90.6702 201.379 90.6756 201.397 90.6756 201.416C90.6756 201.435 90.6702 201.453 90.66 201.469C90.666 201.494 90.6639 201.521 90.654 201.545ZM88.5765 200.787L88.5221 200.834C88.3651 200.975 88.4013 201.046 88.4134 201.069C88.5584 201.351 89.6635 201.486 90.352 201.392C89.9916 201.009 89.5123 200.751 88.9871 200.658C88.8392 200.654 88.6945 200.7 88.5765 200.787Z" fill="#246DFF"/>
<path d="M79.6187 83.7868C79.3348 85.0507 79.0147 86.191 78.6523 87.3726C78.2899 88.5541 77.9154 89.7239 77.4805 90.8525C76.6449 93.1716 75.6646 95.439 74.5451 97.6419L73.6572 99.2878C73.3371 99.8286 73.0532 100.369 72.6908 100.904L72.1714 101.698C71.9902 101.968 71.8513 102.209 71.6036 102.527C71.4828 102.68 71.362 102.832 71.1989 103.015C70.9938 103.25 70.7629 103.463 70.5104 103.649C70.205 103.877 69.8527 104.037 69.4775 104.12C69.3031 104.158 69.1249 104.178 68.946 104.178C68.7273 104.181 68.5094 104.151 68.2997 104.09C67.9079 103.987 67.5514 103.784 67.2669 103.502C66.9818 103.225 66.7739 102.881 66.6629 102.503C66.6069 102.329 66.5684 102.15 66.5481 101.968C66.5009 101.544 66.5009 101.117 66.5481 100.693C66.5904 100.34 66.6508 100.011 66.7112 99.6934C66.832 99.0527 66.9891 98.4531 67.1521 97.8535C67.4913 96.6735 67.8945 95.5119 68.3601 94.3736L70.7761 94.8909L70.6131 98.4178C70.6131 99.0056 70.5768 99.5582 70.5708 100.099C70.5708 100.369 70.5708 100.634 70.5708 100.869C70.5696 101.038 70.594 101.207 70.6433 101.369C70.6433 101.369 70.6433 101.369 70.6433 101.263C70.5687 101.041 70.4402 100.839 70.2688 100.675C70.0347 100.443 69.7436 100.273 69.4232 100.181C69.2497 100.136 69.0713 100.11 68.8917 100.105C68.7495 100.107 68.6079 100.123 68.4689 100.152C68.2525 100.203 68.0478 100.293 67.8649 100.416C67.738 100.505 67.7863 100.458 67.8105 100.416L67.9494 100.187L68.7588 98.7764C69.0306 98.2826 69.2782 97.7771 69.544 97.2774L70.2869 95.7491C71.2291 93.6741 72.0989 91.5403 72.8237 89.3653C73.1982 88.2778 73.5425 87.1786 73.8867 86.0794C74.231 84.9801 74.5391 83.8456 74.8109 82.8052L79.6187 83.7868Z" fill="#FF8B7B"/>
<path d="M77.5524 77.6672C75.801 77.9435 73.0229 88.7771 73.0229 88.7771L77.0632 91.8044C77.0632 91.8044 81.1156 83.9746 81.2907 80.4535C81.4115 77.9023 78.875 77.4615 77.5524 77.6672Z" fill="#FF8B7B"/>
<path d="M71.2173 95.4135L70.5349 90.0291L67.3643 94.5553C67.4992 95.1008 67.7944 95.5964 68.2136 95.9815C68.6329 96.3667 69.1583 96.6248 69.7256 96.7244L71.2173 95.4135Z" fill="#FF8B7B"/>
<path d="M93.377 208.6L88.5456 208.758L87.6216 192.346L94.3252 192.44L93.377 208.6Z" fill="#FF8B7B"/>
<path d="M88.2201 207.26L93.6561 207.224C93.7471 207.221 93.8357 207.252 93.9034 207.312C93.971 207.371 94.0123 207.453 94.0185 207.542L94.3447 211.709C94.3479 211.928 94.2621 212.139 94.106 212.297C93.9498 212.454 93.736 212.545 93.5112 212.55C91.6267 212.55 90.7207 212.427 88.3409 212.444C86.8732 212.444 84.7169 212.615 82.6996 212.632C80.6822 212.65 80.7003 210.698 81.558 210.516C85.3934 209.699 86.0638 208.606 87.4108 207.577C87.6381 207.389 87.9221 207.277 88.2201 207.26Z" fill="#263238"/>
<path d="M77.2578 77.6324C77.2578 77.6324 74.8418 78.2203 74.8418 106.042L94.2242 107.711C95.1966 99.958 95.9818 95.1908 102.402 79.6604C99.7682 78.8755 97.0767 78.286 94.351 77.897C91.4424 77.4366 88.5032 77.1832 85.5568 77.1387C81.6912 77.1446 77.2578 77.6324 77.2578 77.6324Z" fill="#246DFF"/>
<path opacity="0.2" d="M98.5548 83.2104L99.5876 86.6375C98.7783 88.7595 98.1079 90.6347 97.5463 92.3217C97.1183 89.25 97.4644 86.123 98.5548 83.2104Z" fill="black"/>
<path d="M70.5349 90.0291L67.3643 94.5553L71.2173 94.3378L73.2707 90.1995L70.5349 90.0291Z" fill="#FF8B7B"/>
<path d="M72.5457 100.439L76.1692 100.387C76.2886 100.384 76.4061 100.358 76.514 100.308C76.6219 100.258 76.7179 100.187 76.7954 100.099C76.873 100.01 76.9305 99.9071 76.9642 99.7957C76.9978 99.6842 77.0068 99.567 76.9906 99.4519L75.8612 91.5457C75.8345 91.3473 75.7334 91.1656 75.5773 91.0354C75.4212 90.9052 75.2212 90.8357 75.0157 90.8403L71.3922 90.8932C71.2728 90.8937 71.1549 90.9191 71.0465 90.9677C70.9381 91.0164 70.8417 91.0871 70.7638 91.1752C70.6859 91.2633 70.6284 91.3666 70.5951 91.4782C70.5618 91.5898 70.5535 91.707 70.5708 91.822L71.7002 99.7282C71.7268 99.9271 71.8277 100.11 71.9836 100.241C72.1396 100.372 72.3396 100.443 72.5457 100.439Z" fill="#263238"/>
<path d="M95.0755 68.1091C94.0548 70.8366 92.6595 75.8684 94.3205 77.8905C91.4312 80.2414 88.1935 82.1538 84.7169 83.563C82.6935 78.9663 85.5263 77.1322 85.5263 77.1322C88.806 76.6679 89.108 74.3636 88.9147 72.1592L95.0755 68.1091Z" fill="#FF8B7B"/>
<path d="M81.7993 64.9819C81.2919 73.1468 76.2485 75.4864 77.4323 79.6776C79.1054 85.5558 85.9306 80.9531 85.9306 80.9531C85.9306 80.9531 82.216 82.1288 81.9805 79.272C81.7872 76.9207 90.364 77.2851 87.9842 71.7537C86.4561 68.1915 81.7993 64.9819 81.7993 64.9819Z" fill="#263238"/>
<path opacity="0.2" d="M93.317 70.1724L88.9204 72.1592C88.9687 72.6754 88.9687 73.1949 88.9204 73.7111C89.8384 73.7934 92.2179 73.1232 93.1177 71.6772C93.3671 71.215 93.4378 70.681 93.317 70.1724Z" fill="black"/>
<path d="M95.8361 60.4324C96.277 65.0644 96.5669 67.0219 94.5556 69.7376C91.5356 73.823 85.5862 73.341 83.7319 68.9206C82.0588 64.9469 81.6179 58.034 85.9486 55.5123C86.9001 54.9501 87.9835 54.6343 89.0958 54.5948C90.2081 54.5553 91.3123 54.7934 92.3034 55.2866C93.2944 55.7797 94.1393 56.5115 94.7576 57.4122C95.376 58.3129 95.7472 59.3526 95.8361 60.4324Z" fill="#FF8B7B"/>
<path d="M94.7851 55.7823C91.0287 53.2723 87.9064 58.0924 94.5738 62.7774C101.241 67.4624 99.0549 58.6332 94.7851 55.7823Z" fill="#263238"/>
<path d="M92.7868 54.4369C94.3391 55.7948 85.0979 60.8031 80.0726 59.1395C75.0474 57.476 79.0821 53.7433 80.9122 53.2613C79.3418 54.7367 82.09 56.9763 83.4188 55.5773C84.7476 54.1783 89.6702 51.7153 92.7868 54.4369Z" fill="#263238"/>
<path d="M74.8174 106.042C74.8174 106.042 64.5917 148.183 65.4916 158.822C66.5366 171.261 80.5131 191.311 80.5131 191.311L86.9336 185.639C86.9336 185.639 80.5614 169.215 75.8442 158.517C77.3542 147.818 90.7026 117.592 90.7026 107.411L74.8174 106.042Z" fill="#246DFF"/>
<path opacity="0.6" d="M74.8174 106.042C74.8174 106.042 64.5917 148.183 65.4916 158.822C66.5366 171.261 80.5131 191.311 80.5131 191.311L86.9336 185.639C86.9336 185.639 80.5614 169.215 75.8442 158.517C77.3542 147.818 90.7026 117.592 90.7026 107.411L74.8174 106.042Z" fill="black"/>
<path d="M88.1175 186.485L80.5313 191.987L78.5864 190.547L86.9095 184.157L88.1175 186.485Z" fill="#246DFF"/>
<path opacity="0.2" d="M82.3848 124.576C76.7495 132.171 76.4777 146.137 76.828 153.967C78.7608 146.761 82.8136 135.997 86.045 126.298C85.9665 122.583 85.0182 121.02 82.3848 124.576Z" fill="black"/>
<path d="M78.4536 106.077C78.4536 106.077 82.1984 142.469 83.4487 154.755C84.9345 169.339 87.115 192.728 87.115 192.728L94.3267 192.434C94.3267 192.434 95.9092 172.607 94.7375 159.516C94.9489 142.175 97.5763 118.598 94.1939 107.688L78.4536 106.077Z" fill="#246DFF"/>
<path opacity="0.6" d="M78.4536 106.077C78.4536 106.077 82.1984 142.469 83.4487 154.755C84.9345 169.339 87.115 192.728 87.115 192.728L94.3267 192.434C94.3267 192.434 95.9092 172.607 94.7375 159.516C94.9489 142.175 97.5763 118.598 94.1939 107.688L78.4536 106.077Z" fill="black"/>
<path d="M94.8766 193.721L86.6018 193.492L86.022 190.959L95.384 190.706L94.8766 193.721Z" fill="#246DFF"/>
<path d="M88.4312 62.9894C88.4916 63.3598 88.3346 63.6948 88.0809 63.736C87.8273 63.7771 87.5797 63.5008 87.5193 63.1481C87.4589 62.7954 87.6159 62.4427 87.8696 62.4016C88.1232 62.3604 88.3708 62.6132 88.4312 62.9894Z" fill="#263238"/>
<path d="M84.0889 63.6421C84.1493 64.0183 83.9923 64.3534 83.7386 64.3887C83.485 64.4239 83.2374 64.1535 83.177 63.8008C83.1166 63.4481 83.2736 63.0896 83.5273 63.0543C83.7809 63.019 84.0285 63.2718 84.0889 63.6421Z" fill="#263238"/>
<path d="M83.636 63.0363L82.6758 62.9187C82.6758 62.9187 83.2616 63.5477 83.636 63.0363Z" fill="#263238"/>
<path d="M85.5139 64.0125C85.3057 64.9162 84.9725 65.7882 84.5234 66.6048C84.7408 66.7107 84.9793 66.7693 85.2223 66.7764C85.4654 66.7835 85.7071 66.739 85.9306 66.6459L85.5139 64.0125Z" fill="#FF5652"/>
<path d="M88.4313 67.6744C88.2353 67.7421 88.0331 67.7913 87.8274 67.8213C87.7978 67.8265 87.7673 67.8202 87.7424 67.8037C87.7176 67.7872 87.7004 67.7619 87.6945 67.7332C87.6919 67.7185 87.6924 67.7034 87.6959 67.6889C87.6994 67.6744 87.7058 67.6607 87.7148 67.6487C87.7238 67.6366 87.7352 67.6265 87.7483 67.6188C87.7614 67.6111 87.776 67.606 87.7911 67.6039C88.2712 67.5433 88.7295 67.3726 89.1285 67.1059C89.5275 66.8392 89.8557 66.484 90.0861 66.0696C90.1002 66.0444 90.1234 66.025 90.1512 66.0152C90.1791 66.0055 90.2096 66.006 90.237 66.0167C90.2509 66.0225 90.2635 66.0309 90.2741 66.0414C90.2847 66.0519 90.293 66.0643 90.2986 66.078C90.3042 66.0916 90.307 66.1063 90.3068 66.121C90.3066 66.1357 90.3034 66.1502 90.2974 66.1637C89.9018 66.885 89.2321 67.4271 88.4313 67.6744Z" fill="#263238"/>
<path d="M97.1583 63.5948C97.1259 64.0448 97.0025 64.4842 96.7952 64.8876C96.5879 65.2911 96.3008 65.6508 95.9504 65.9461C95.0204 66.722 94.036 66.0401 93.8608 64.9174C93.6978 63.9122 93.9937 62.2957 95.1351 61.9783C95.3829 61.9042 95.6456 61.891 95.8999 61.9398C96.1542 61.9886 96.3922 62.0979 96.5925 62.2579C96.7929 62.418 96.9494 62.6239 97.0481 62.8571C97.1468 63.0904 97.1847 63.3438 97.1583 63.5948Z" fill="#FF8B7B"/>
<path d="M90.406 60.6731C90.3759 60.679 90.3448 60.6789 90.3147 60.6728C90.2847 60.6667 90.2561 60.6549 90.2309 60.6379C90.0001 60.471 89.7319 60.36 89.4483 60.3141C89.1648 60.2681 88.8741 60.2884 88.6002 60.3734C88.5726 60.3847 88.5428 60.3906 88.5127 60.3905C88.4827 60.3904 88.4529 60.3844 88.4253 60.3729C88.3977 60.3614 88.3727 60.3445 88.3519 60.3234C88.3311 60.3023 88.3149 60.2773 88.3043 60.2499C88.2824 60.1953 88.2834 60.1345 88.3071 60.0806C88.3309 60.0267 88.3754 59.9841 88.4311 59.9619C88.7747 59.848 89.1416 59.8169 89.5002 59.8712C89.8589 59.9254 90.1987 60.0634 90.4905 60.2734C90.5395 60.3067 90.5732 60.3573 90.5844 60.4143C90.5957 60.4714 90.5837 60.5305 90.5509 60.5791C90.5152 60.6258 90.464 60.659 90.406 60.6731Z" fill="#263238"/>
<path d="M82.2039 62.0193C82.1773 62.031 82.1485 62.0371 82.1194 62.0371C82.0902 62.0371 82.0614 62.031 82.0348 62.0193C82.0075 62.0073 81.983 61.9901 81.9627 61.9687C81.9424 61.9473 81.9267 61.9222 81.9165 61.8948C81.9064 61.8674 81.902 61.8382 81.9037 61.8092C81.9053 61.7801 81.9129 61.7516 81.9261 61.7254C82.0692 61.4013 82.2904 61.1156 82.5712 60.8925C82.8519 60.6694 83.1837 60.5156 83.5386 60.444C83.5964 60.4398 83.6538 60.4571 83.699 60.4925C83.7443 60.5278 83.7741 60.5785 83.7825 60.6343C83.7909 60.6902 83.7773 60.7471 83.7444 60.7935C83.7115 60.84 83.6617 60.8726 83.605 60.8848C83.325 60.9463 83.064 61.0716 82.8435 61.2504C82.623 61.4293 82.4494 61.6565 82.3368 61.9135C82.3232 61.939 82.3044 61.9615 82.2815 61.9797C82.2587 61.9979 82.2323 62.0114 82.2039 62.0193Z" fill="#263238"/>
<path d="M103.677 85.3032C103.767 86.1556 103.816 86.9021 103.84 87.6957C103.864 88.4892 103.882 89.2534 103.876 90.047C103.852 91.6145 103.749 93.182 103.568 94.7496C103.383 96.3363 103.08 97.9079 102.662 99.4522C102.446 100.25 102.184 101.035 101.877 101.803C101.726 102.191 101.557 102.579 101.382 102.979C101.382 102.979 101.291 103.167 101.231 103.273C101.167 103.395 101.092 103.511 101.007 103.62C100.858 103.835 100.684 104.032 100.488 104.208C100.17 104.473 99.8137 104.69 99.4306 104.854C98.8835 105.077 98.3054 105.22 97.7153 105.278C97.244 105.328 96.7698 105.348 96.2959 105.336C95.4425 105.314 94.5913 105.241 93.747 105.119C92.1649 104.875 90.598 104.546 89.0539 104.131C87.5379 103.726 86.0339 103.279 84.5662 102.803C83.0985 102.327 81.6368 101.798 80.1812 101.204L80.9362 98.9466C82.4039 99.2582 83.8958 99.5874 85.3816 99.8636C86.8674 100.14 88.3472 100.451 89.821 100.663C91.2948 100.875 92.7685 101.092 94.1939 101.18C94.8751 101.233 95.5589 101.244 96.2415 101.216C96.5332 101.202 96.8237 101.171 97.1113 101.122C97.2852 101.095 97.4542 101.044 97.6126 100.969C97.6126 100.969 97.6126 100.969 97.522 101.016C97.4664 101.057 97.4175 101.107 97.377 101.163L97.3046 101.269C97.3046 101.269 97.2502 101.386 97.3046 101.31C97.4193 101.004 97.5341 100.722 97.6307 100.381C97.8361 99.7461 98.0052 99.0936 98.1562 98.4294C98.439 97.0703 98.6406 95.6964 98.7602 94.3146C98.8931 92.9156 98.9354 91.493 98.9354 90.0705C98.9354 89.3592 98.9354 88.6479 98.9354 87.9367C98.9354 87.2254 98.8689 86.4906 98.8266 85.8558L103.677 85.3032Z" fill="#FF8B7B"/>
<path d="M102.354 79.6603C104.437 80.9829 103.731 92.5102 103.731 92.5102L98.8266 93.4683C98.8266 93.4683 98.7844 87.5901 98.2589 83.7751C97.9026 81.1828 100.868 78.7139 102.354 79.6603Z" fill="#FF8B7B"/>
<path d="M85.5618 207.806C85.5029 207.73 85.4629 207.641 85.4451 207.547C85.4273 207.453 85.4321 207.357 85.4591 207.265C85.4703 207.197 85.4988 207.133 85.5421 207.079C85.5854 207.024 85.642 206.981 85.7067 206.954C86.3106 206.701 87.6876 207.612 87.8446 207.712C87.8624 207.724 87.8759 207.741 87.8834 207.761C87.891 207.781 87.8922 207.803 87.8869 207.824C87.8816 207.846 87.8704 207.866 87.8545 207.882C87.8386 207.899 87.8185 207.911 87.7963 207.918C87.1622 208.065 86.0328 208.253 85.6101 207.853L85.5618 207.806ZM87.4823 207.759C86.8783 207.412 86.0932 207.018 85.7852 207.171C85.7571 207.184 85.7329 207.204 85.7149 207.229C85.6969 207.253 85.6858 207.282 85.6825 207.312C85.6604 207.38 85.6571 207.452 85.673 207.521C85.6889 207.59 85.7235 207.654 85.7731 207.706C86.0026 207.906 86.6307 207.929 87.4823 207.771V207.759Z" fill="#246DFF"/>
<path d="M87.1454 207.389C86.9745 207.222 86.839 207.024 86.7468 206.806C86.6546 206.588 86.6074 206.355 86.6079 206.119C86.6343 206.032 86.6882 205.955 86.7618 205.899C86.8355 205.843 86.9253 205.811 87.0186 205.808C87.103 205.795 87.1892 205.801 87.2709 205.825C87.3525 205.85 87.4273 205.892 87.4897 205.949C87.9788 206.395 87.8943 207.747 87.8882 207.806C87.8874 207.826 87.8814 207.846 87.8709 207.864C87.8603 207.881 87.8456 207.896 87.8279 207.906C87.8101 207.915 87.7904 207.92 87.7705 207.92C87.7505 207.92 87.7309 207.915 87.7131 207.906C87.4971 207.764 87.3055 207.589 87.1454 207.389ZM87.3749 206.166C87.3604 206.149 87.3442 206.133 87.3266 206.119C87.2878 206.083 87.241 206.055 87.1897 206.039C87.1385 206.023 87.0841 206.018 87.0307 206.025C86.8797 206.025 86.8495 206.107 86.8314 206.16C86.7408 206.484 87.236 207.242 87.6708 207.595C87.7109 207.101 87.6084 206.606 87.3749 206.166Z" fill="#246DFF"/>
<path d="M94.6712 106.618L94.8825 108.381C94.9309 108.517 94.7497 108.64 94.5262 108.617L74.5942 106.9C74.419 106.9 74.2862 106.788 74.2922 106.683L74.407 104.966C74.407 104.849 74.5821 104.76 74.7694 104.778L94.3933 106.471C94.4487 106.47 94.5035 106.483 94.5522 106.509C94.6009 106.535 94.6419 106.572 94.6712 106.618Z" fill="white"/>
<path d="M91.6745 108.546L92.1999 108.587C92.3086 108.587 92.3932 108.552 92.3992 108.487L92.52 106.259C92.52 106.194 92.4415 106.13 92.3388 106.124L91.8074 106.077C91.7047 106.077 91.6141 106.112 91.6081 106.177L91.4873 108.411C91.4873 108.475 91.5719 108.534 91.6745 108.546Z" fill="#246DFF"/>
<path opacity="0.6" d="M91.6745 108.546L92.1999 108.587C92.3086 108.587 92.3932 108.552 92.3992 108.487L92.52 106.259C92.52 106.194 92.4415 106.13 92.3388 106.124L91.8074 106.077C91.7047 106.077 91.6141 106.112 91.6081 106.177L91.4873 108.411C91.4873 108.475 91.5719 108.534 91.6745 108.546Z" fill="black"/>
<path d="M76.0252 107.194L76.5507 107.241C76.6594 107.241 76.7439 107.205 76.7499 107.141L76.8707 104.907C76.8707 104.842 76.7922 104.784 76.6896 104.772L76.1641 104.731C76.0554 104.731 75.9709 104.766 75.9648 104.831L75.8441 107.058C75.838 107.123 75.9226 107.188 76.0252 107.194Z" fill="#246DFF"/>
<path opacity="0.6" d="M76.0252 107.194L76.5507 107.241C76.6594 107.241 76.7439 107.205 76.7499 107.141L76.8707 104.907C76.8707 104.842 76.7922 104.784 76.6896 104.772L76.1641 104.731C76.0554 104.731 75.9709 104.766 75.9648 104.831L75.8441 107.058C75.838 107.123 75.9226 107.188 76.0252 107.194Z" fill="black"/>
<path d="M83.8532 107.87L84.3786 107.917C84.4813 107.917 84.5719 107.876 84.5719 107.811L84.6987 105.583C84.6987 105.518 84.6202 105.46 84.5115 105.448L83.9861 105.401C83.8834 105.401 83.7928 105.442 83.7928 105.507L83.666 107.735C83.666 107.799 83.7506 107.84 83.8532 107.87Z" fill="#246DFF"/>
<path opacity="0.6" d="M83.8532 107.87L84.3786 107.917C84.4813 107.917 84.5719 107.876 84.5719 107.811L84.6987 105.583C84.6987 105.518 84.6202 105.46 84.5115 105.448L83.9861 105.401C83.8834 105.401 83.7928 105.442 83.7928 105.507L83.666 107.735C83.666 107.799 83.7506 107.84 83.8532 107.87Z" fill="black"/>
<path d="M81.6899 99.0875L78.6702 95.1667L77.4141 99.8693C77.4141 99.8693 79.6607 101.78 81.5691 101.045L81.6899 99.0875Z" fill="#FF8B7B"/>
<path d="M74.8053 94.3032L73.9658 98.271L78.0423 100.299L78.6885 95.1673L74.8053 94.3032Z" fill="#FF8B7B"/>
<path d="M87.9843 62.3842L87.0181 62.2666C87.0181 62.2666 87.5797 62.8956 87.9843 62.3842Z" fill="#263238"/>
</svg>
