<svg width="280" height="208" viewBox="0 0 280 208" fill="none" xmlns="http://www.w3.org/2000/svg">
<path d="M140 208C199.966 208 248.579 205.166 248.579 201.671C248.579 198.175 199.966 195.341 140 195.341C80.0341 195.341 31.4219 198.175 31.4219 201.671C31.4219 205.166 80.0341 208 140 208Z" fill="#F5F5F5"/>
<path d="M240.997 172.16L243.841 126.949C244.091 122.973 243.523 118.988 242.171 115.239C240.819 111.491 238.712 108.059 235.981 105.155C233.249 102.251 229.95 99.9364 226.288 98.3544C222.626 96.7724 218.678 95.9563 214.688 95.9565C207.227 95.9576 200.049 98.8093 194.626 103.927C189.204 109.044 185.949 116.039 185.529 123.477L182.561 176.28H236.601C237.721 176.28 238.798 175.854 239.615 175.088C240.431 174.323 240.925 173.276 240.997 172.16Z" fill="#246DFF"/>
<path opacity="0.1" d="M241.097 170.533L243.841 126.96C244.091 122.984 243.523 118.999 242.171 115.25C240.819 111.502 238.712 108.07 235.981 105.166C233.249 102.262 229.95 99.9477 226.288 98.3657C222.626 96.7837 218.678 95.9676 214.688 95.9678C207.227 95.9688 200.049 98.8205 194.626 103.938C189.204 109.055 185.949 116.05 185.529 123.488L182.561 176.28H234.971C236.531 176.275 238.032 175.679 239.169 174.612C240.306 173.545 240.995 172.087 241.097 170.533Z" fill="black"/>
<path d="M232.226 176.28L235.329 126.949C235.578 122.973 235.009 118.988 233.657 115.24C232.305 111.492 230.198 108.06 227.466 105.157C224.735 102.253 221.436 99.9383 217.775 98.3561C214.113 96.7738 210.165 95.9572 206.175 95.9565C198.714 95.9562 191.535 98.8075 186.113 103.925C180.69 109.043 177.435 116.039 177.016 123.477L174.031 176.28H232.226Z" fill="#246DFF"/>
<path d="M233.156 184.773H233.901C234.102 184.763 234.292 184.681 234.438 184.542C234.584 184.404 234.675 184.218 234.696 184.019L235.816 176.286H231.28L232.4 184.019C232.421 184.212 232.507 184.392 232.645 184.529C232.782 184.667 232.963 184.753 233.156 184.773Z" fill="#246DFF"/>
<path opacity="0.7" d="M233.156 184.773H233.901C234.102 184.763 234.292 184.681 234.438 184.542C234.584 184.404 234.675 184.218 234.696 184.019L235.816 176.286H231.28L232.4 184.019C232.421 184.212 232.507 184.392 232.645 184.529C232.782 184.667 232.963 184.753 233.156 184.773Z" fill="white"/>
<path d="M159.992 184.773H160.664C160.855 184.754 161.032 184.667 161.164 184.529C161.297 184.39 161.375 184.21 161.386 184.019L162.4 176.286H158.278L159.281 184.019C159.291 184.208 159.368 184.387 159.499 184.525C159.629 184.663 159.803 184.751 159.992 184.773Z" fill="#246DFF"/>
<path opacity="0.5" d="M159.992 184.773H160.664C160.855 184.754 161.032 184.667 161.164 184.529C161.297 184.39 161.375 184.21 161.386 184.019L162.4 176.286H158.278L159.281 184.019C159.291 184.208 159.368 184.387 159.499 184.525C159.629 184.663 159.803 184.751 159.992 184.773Z" fill="white"/>
<path d="M181.054 184.773H181.732C181.922 184.754 182.1 184.667 182.232 184.529C182.364 184.39 182.443 184.21 182.454 184.019L183.451 176.286H179.335L180.321 184.019C180.332 184.211 180.412 184.394 180.547 184.532C180.682 184.671 180.862 184.756 181.054 184.773Z" fill="#246DFF"/>
<path opacity="0.7" d="M181.054 184.773H181.732C181.922 184.754 182.1 184.667 182.232 184.529C182.364 184.39 182.443 184.21 182.454 184.019L183.451 176.286H179.335L180.321 184.019C180.332 184.211 180.412 184.394 180.547 184.532C180.682 184.671 180.862 184.756 181.054 184.773Z" fill="white"/>
<path d="M210.477 184.773H211.221C211.422 184.762 211.613 184.679 211.759 184.541C211.906 184.403 211.999 184.218 212.022 184.019L213.142 176.286H208.601L209.721 184.019C209.74 184.212 209.826 184.393 209.964 184.53C210.102 184.668 210.283 184.754 210.477 184.773Z" fill="#246DFF"/>
<path opacity="0.5" d="M210.477 184.773H211.221C211.422 184.762 211.613 184.679 211.759 184.541C211.906 184.403 211.999 184.218 212.022 184.019L213.142 176.286H208.601L209.721 184.019C209.74 184.212 209.826 184.393 209.964 184.53C210.102 184.668 210.283 184.754 210.477 184.773Z" fill="white"/>
<path d="M185.82 157.673H165.906L164.59 138.506L164.304 134.391L164.176 132.495C164.14 131.998 164.074 131.503 163.98 131.014C163.98 130.908 163.935 130.79 163.912 130.684C163.9 130.604 163.88 130.525 163.851 130.449C163.314 128.496 162.269 126.719 160.821 125.3C159.151 123.652 156.942 122.66 154.6 122.504H173.332C173.533 122.504 173.74 122.504 173.948 122.504C176.487 122.515 178.921 123.519 180.729 125.3C182.178 126.718 183.226 128.495 183.764 130.449C183.793 130.525 183.814 130.604 183.826 130.684C183.958 131.281 184.046 131.886 184.089 132.495L184.218 134.391L185.82 157.673Z" fill="#246DFF"/>
<path opacity="0.1" d="M185.82 157.673H165.906L164.59 138.506L164.304 134.391L164.176 132.495C164.14 131.998 164.074 131.503 163.98 131.014C163.98 130.908 163.935 130.79 163.912 130.684C163.9 130.604 163.88 130.525 163.851 130.449C163.314 128.496 162.269 126.719 160.821 125.3C159.151 123.652 156.942 122.66 154.6 122.504H173.332C173.533 122.504 173.74 122.504 173.948 122.504C176.487 122.515 178.921 123.519 180.729 125.3C182.178 126.718 183.226 128.495 183.764 130.449C183.793 130.525 183.814 130.604 183.826 130.684C183.958 131.281 184.046 131.886 184.089 132.495L184.218 134.391L185.82 157.673Z" fill="black"/>
<g opacity="0.1">
<path opacity="0.1" d="M201.601 147.441H209.597C211.546 147.441 213.12 148.671 213.12 150.186V154.905C213.12 156.426 211.546 157.651 209.597 157.651H201.601V147.441Z" fill="black"/>
</g>
<path d="M168.947 157.651H204.171C205.847 157.651 207.206 156.294 207.206 154.62V150.466C207.206 148.792 205.847 147.435 204.171 147.435H168.947C167.271 147.435 165.912 148.792 165.912 150.466V154.62C165.912 156.294 167.271 157.651 168.947 157.651Z" fill="#246DFF"/>
<path d="M252.001 133.781C252.006 136.455 251.063 139.044 249.34 141.09C247.618 143.136 245.226 144.509 242.587 144.964L240.543 172.21C240.364 174.525 238.678 176.297 236.662 176.297H214.699C216.715 176.297 218.395 174.525 218.574 172.21L219.694 157.673L220.641 144.947C222.367 144.651 224 143.959 225.413 142.924C226.825 141.89 227.977 140.542 228.778 138.987C228.888 138.789 228.987 138.586 229.074 138.377C229.721 136.932 230.054 135.365 230.049 133.781C230.048 133.006 229.969 132.232 229.814 131.472C229.752 131.17 229.674 130.868 229.59 130.572C229.191 129.24 228.553 127.992 227.708 126.887C226.648 125.509 225.286 124.392 223.725 123.623C222.165 122.853 220.449 122.451 218.709 122.448H240.672C242.432 122.442 244.169 122.852 245.74 123.644C247.276 124.408 248.617 125.511 249.66 126.871C251.184 128.852 252.007 131.283 252.001 133.781Z" fill="#246DFF"/>
<path opacity="0.1" d="M252.001 133.781C252.006 136.455 251.063 139.044 249.34 141.09C247.618 143.136 245.226 144.509 242.587 144.964L240.543 172.21C240.364 174.525 238.678 176.297 236.662 176.297H214.699C216.715 176.297 218.395 174.525 218.574 172.21L219.694 157.673L220.641 144.947C222.367 144.651 224 143.959 225.413 142.924C226.825 141.89 227.977 140.542 228.778 138.987C228.888 138.789 228.987 138.586 229.074 138.377C229.721 136.932 230.054 135.365 230.049 133.781C230.048 133.006 229.969 132.232 229.814 131.472C229.752 131.17 229.674 130.868 229.59 130.572C229.191 129.24 228.553 127.992 227.708 126.887C226.648 125.509 225.286 124.392 223.725 123.623C222.165 122.853 220.449 122.451 218.709 122.448H240.672C242.432 122.442 244.169 122.852 245.74 123.644C247.276 124.408 248.617 125.511 249.66 126.871C251.184 128.852 252.007 131.283 252.001 133.781Z" fill="black"/>
<path d="M230.054 133.787C230.054 139.378 226.364 144.036 221.52 144.969L219.65 172.21C219.487 174.525 217.97 176.303 216.133 176.303H157.478C155.653 176.303 154.118 174.525 153.962 172.21L152.086 144.919C147.337 143.924 143.747 139.328 143.747 133.804C143.736 131.484 144.395 129.211 145.646 127.256C146.592 125.766 147.895 124.534 149.437 123.672C150.841 122.884 152.424 122.47 154.034 122.47C156.575 122.485 159.009 123.488 160.822 125.266C162.269 126.683 163.314 128.458 163.851 130.41C163.88 130.489 163.901 130.572 163.913 130.656C164.045 131.25 164.133 131.854 164.176 132.462L164.31 134.357L165.906 157.673H207.705L209.435 132.512C209.682 128.956 211.418 125.993 213.826 124.589C215.347 123.373 217.206 122.653 219.151 122.526C219.356 122.506 219.562 122.496 219.767 122.498C221.331 122.489 222.872 122.874 224.247 123.616C224.29 123.635 224.331 123.658 224.37 123.684C225.791 124.471 227.009 125.575 227.932 126.91C229.322 128.934 230.062 131.333 230.054 133.787Z" fill="#246DFF"/>
<path opacity="0.1" d="M206.736 176.286H157.456C155.63 176.286 154.096 174.508 153.939 172.193L152.063 144.903C147.314 143.907 143.725 139.311 143.725 133.787C143.714 131.468 144.373 129.195 145.623 127.24C146.569 125.749 147.872 124.518 149.414 123.656C150.818 122.868 152.401 122.454 154.012 122.454C156.552 122.469 158.987 123.472 160.799 125.249C162.247 126.667 163.292 128.441 163.829 130.393C163.858 130.473 163.878 130.555 163.89 130.639C164.023 131.234 164.111 131.838 164.154 132.445L164.288 134.341L165.906 157.673H207.705L206.736 176.286Z" fill="white"/>
<path d="M200.346 98.8083C199.371 99.3675 198.481 99.8315 197.546 100.307C196.611 100.782 195.692 101.218 194.746 101.654C192.864 102.51 190.96 103.332 189 104.042C187.025 104.775 185.014 105.41 182.974 105.943C180.854 106.512 178.688 106.899 176.501 107.1L176.036 107.145H175.818C173.841 106.916 172.088 106.586 170.33 106.194C168.571 105.803 166.83 105.417 165.105 104.975C163.38 104.534 161.667 104.081 159.953 103.589C158.239 103.097 156.543 102.588 154.846 102.012L155.624 98.1318C159.146 98.3555 162.663 98.6909 166.146 99.0544L171.349 99.5743C173.063 99.7421 174.815 99.8875 176.35 99.9434H175.672C177.43 99.6307 179.162 99.1935 180.858 98.635C182.61 98.0759 184.363 97.4385 186.116 96.6893C187.869 95.94 189.605 95.1684 191.33 94.3465C192.215 93.944 193.071 93.519 193.911 93.0997C194.751 92.6803 195.647 92.233 196.414 91.8361L200.346 98.8083Z" fill="#263238"/>
<path opacity="0.1" d="M200.346 98.8083C199.371 99.3675 198.481 99.8315 197.546 100.307C196.611 100.782 195.692 101.218 194.746 101.654C192.864 102.51 190.96 103.332 189 104.042C187.025 104.775 185.014 105.41 182.974 105.943C180.854 106.512 178.688 106.899 176.501 107.1L176.036 107.145H175.818C173.841 106.916 172.088 106.586 170.33 106.194C168.571 105.803 166.83 105.417 165.105 104.975C163.38 104.534 161.667 104.081 159.953 103.589C158.239 103.097 156.543 102.588 154.846 102.012L155.624 98.1318C159.146 98.3555 162.663 98.6909 166.146 99.0544L171.349 99.5743C173.063 99.7421 174.815 99.8875 176.35 99.9434H175.672C177.43 99.6307 179.162 99.1935 180.858 98.635C182.61 98.0759 184.363 97.4385 186.116 96.6893C187.869 95.94 189.605 95.1684 191.33 94.3465C192.215 93.944 193.071 93.519 193.911 93.0997C194.751 92.6803 195.647 92.233 196.414 91.8361L200.346 98.8083Z" fill="black"/>
<path d="M154.913 96.0013C154.085 95.4212 153.17 94.9758 152.202 94.6818L150.752 100.335L155.098 102.157L155.59 101.553C155.924 101.15 156.173 100.683 156.32 100.181C156.468 99.6784 156.511 99.1514 156.447 98.6319C156.384 98.1123 156.215 97.6111 155.951 97.1588C155.688 96.7065 155.334 96.3127 154.913 96.0013Z" fill="#FFC3BD"/>
<path d="M150.753 100.335L152.203 94.6818L148.149 92.4733L146.928 96.4542L150.753 100.335Z" fill="#FFC3BD"/>
<path opacity="0.2" d="M186.71 104.556H186.867H186.934C189.073 104.327 195.362 103.27 199.909 98.7914C199.232 97.4831 198.302 96.4711 197.165 96.2418C194.029 95.6492 190.188 97.8912 186.71 104.556Z" fill="black"/>
<path d="M190.4 133.782C195.765 119.317 192.237 106.015 192.909 98.6517C193.074 96.8365 193.827 95.1245 195.054 93.7746C196.28 92.4248 197.914 91.5107 199.708 91.1706C203.37 90.4661 207.9 89.6722 212.218 89.0907C213.424 88.9244 214.653 89.0207 215.818 89.3728C216.984 89.725 218.06 90.3248 218.972 91.1311C219.883 91.9373 220.61 92.9309 221.101 94.0438C221.592 95.1566 221.836 96.3623 221.816 97.5782C221.441 119.384 214.441 133.782 214.441 133.782L203.129 133.731L190.4 133.782Z" fill="#246DFF"/>
<path opacity="0.8" d="M190.4 133.782C195.765 119.317 192.237 106.015 192.909 98.6517C193.074 96.8365 193.827 95.1245 195.054 93.7746C196.28 92.4248 197.914 91.5107 199.708 91.1706C203.37 90.4661 207.9 89.6722 212.218 89.0907C213.424 88.9244 214.653 89.0207 215.818 89.3728C216.984 89.725 218.06 90.3248 218.972 91.1311C219.883 91.9373 220.61 92.9309 221.101 94.0438C221.592 95.1566 221.836 96.3623 221.816 97.5782C221.441 119.384 214.441 133.782 214.441 133.782L203.129 133.731L190.4 133.782Z" fill="white"/>
<path d="M147.482 183.135L146.049 192.546H150.602L153.592 183.135H147.482Z" fill="#FFC3BD"/>
<path d="M145.466 190.449L151.553 190.303C151.601 190.298 151.649 190.302 151.695 190.317C151.74 190.331 151.782 190.355 151.818 190.386C151.854 190.418 151.883 190.457 151.903 190.5C151.923 190.544 151.933 190.591 151.934 190.639V195.112C151.907 195.36 151.79 195.589 151.605 195.757C151.421 195.925 151.181 196.019 150.932 196.023C148.815 196.023 147.807 195.945 145.13 196.023C142.28 196.014 139.433 195.828 136.607 195.464C134.44 195.095 135.028 193.065 136.008 193.032C140.432 192.87 142.907 191.947 144.497 190.795C144.774 190.579 145.114 190.457 145.466 190.449Z" fill="#263238"/>
<path opacity="0.2" d="M146.905 186.91L147.482 183.135H153.592L152.124 187.843L146.905 186.91Z" fill="black"/>
<path d="M187.6 130.393C187.6 130.393 150.556 130.762 149.98 142.476C149.162 159.317 146.312 184.97 146.312 184.97L153.295 186.887C153.295 186.887 163.263 161.43 163.649 148.274C174.071 146.205 200.856 148.274 204.003 141.442C205.541 137.964 205.956 134.095 205.19 130.371L187.6 130.393Z" fill="#246DFF"/>
<path opacity="0.6" d="M187.6 130.393C187.6 130.393 150.556 130.762 149.98 142.476C149.162 159.317 146.312 184.97 146.312 184.97L153.295 186.887C153.295 186.887 163.263 161.43 163.649 148.274C174.071 146.205 200.856 148.274 204.003 141.442C205.541 137.964 205.956 134.095 205.19 130.371L187.6 130.393Z" fill="black"/>
<path d="M180.074 186.776L182.544 193.161H187.539L185.82 186.446L180.074 186.776Z" fill="#FFC3BD"/>
<path opacity="0.2" d="M186.284 188.257L185.315 183.342L179.004 184.125L180.622 188.397L186.284 188.257Z" fill="black"/>
<path d="M181.188 191.047H187.567C187.67 191.039 187.772 191.073 187.85 191.14C187.929 191.207 187.978 191.302 187.987 191.405L188.295 196.174C188.289 196.432 188.181 196.678 187.996 196.858C187.811 197.038 187.562 197.138 187.303 197.136C185.063 197.097 184.022 196.974 181.216 196.974C179.497 196.974 176.014 197.142 173.634 197.142C171.254 197.142 171.321 194.905 172.323 194.732C176.859 193.826 178.612 192.579 180.208 191.377C180.492 191.167 180.835 191.051 181.188 191.047Z" fill="#263238"/>
<path d="M197.563 130.393C197.563 130.393 163.963 132.669 164.792 144.372C165.693 157.187 179.15 186.904 179.15 186.904H185.92C185.92 186.904 181.44 159.943 179.38 146.882C188.855 146.882 210.812 148.308 213.971 141.458C215.503 137.979 215.914 134.111 215.147 130.388L197.563 130.393Z" fill="#246DFF"/>
<path opacity="0.5" d="M197.563 130.393C197.563 130.393 163.963 132.669 164.792 144.372C165.693 157.187 179.15 186.904 179.15 186.904H185.92C185.92 186.904 181.44 159.943 179.38 146.882C188.855 146.882 210.812 148.308 213.971 141.458C215.503 137.979 215.914 134.111 215.147 130.388L197.563 130.393Z" fill="black"/>
<path d="M202.653 82.9848C203.426 85.9706 203.667 89.6943 199.489 91.2319C198.33 93.077 197.765 95.0228 202.228 94.3295C205.781 93.8709 209.014 92.0452 211.238 89.2414C208.567 86.9043 209.054 79.7363 209.732 75.6938L202.653 82.9848Z" fill="#FFC3BD"/>
<path d="M202.161 88.4196C198.325 89.0737 195.172 92.0371 193.481 95.5316C191.79 99.0262 191.381 103.007 191.414 106.893C191.448 110.779 191.89 114.648 191.784 118.528C191.666 123.001 190.586 126.172 189.04 130.387C189.04 131.388 190.558 131.953 191.84 132.216C194.517 126.384 196.275 120.804 196.09 114.396C195.95 109.745 195.889 104.444 196.65 99.8593C197.412 95.2744 202.906 89.2862 202.642 88.4587L202.161 88.4196Z" fill="#263238"/>
<path opacity="0.3" d="M205.912 85.1769C205.51 85.475 205.052 85.689 204.565 85.8063C204.078 85.9235 203.573 85.9414 203.079 85.859C203.088 85.1328 203.035 84.407 202.922 83.6896L207.559 79.8876C207.66 80.3817 207.726 80.8825 207.755 81.386C207.805 82.1234 207.661 82.861 207.338 83.5259C207.015 84.1908 206.523 84.7599 205.912 85.1769Z" fill="black"/>
<path d="M198.98 65.3279C194.08 68.0956 194.029 75.9177 195.541 80.4243C195.923 81.6068 196.623 82.6618 197.564 83.4741C198.505 84.2865 199.652 84.8248 200.879 85.0302C202.107 85.2357 203.367 85.1004 204.522 84.6391C205.677 84.1778 206.683 83.4083 207.43 82.4147C209.827 79.3899 209.48 76.3371 209.362 71.0813C209.245 65.8255 203.885 62.5658 198.98 65.3279Z" fill="#FFC3BD"/>
<path opacity="0.2" d="M200.559 79.3954C198.98 80.0719 197.249 80.9497 195.653 80.7596C196.083 81.8928 196.809 82.8901 197.756 83.6477C198.703 84.4053 199.836 84.8953 201.037 85.0666C202.238 85.2379 203.464 85.0843 204.585 84.6218C205.707 84.1593 206.683 83.4048 207.413 82.437C209.39 79.9545 210.001 78.2771 209.441 73.7594C206.372 77.349 203.936 77.9417 200.559 79.3954Z" fill="black"/>
<path d="M205.296 67.0948C204.788 67.9202 204.561 68.8883 204.651 69.8533C204.741 70.8183 205.142 71.728 205.795 72.4456C206.237 72.9097 206.78 73.2675 207.206 73.7428C207.87 74.4885 208.215 75.4636 208.169 76.4601C208.269 75.819 208.589 75.2324 209.074 74.8009C209.559 74.3694 210.18 74.1198 210.829 74.0951C210.165 76.1489 209.5 78.199 208.836 80.2454C210.151 79.6328 211.288 78.695 212.138 77.5208C212.989 76.3466 213.525 74.975 213.696 73.5359C214.122 69.5661 209.216 61.0619 205.296 67.0948Z" fill="#263238"/>
<path d="M193.861 67.3686C193.486 67.7843 193.219 68.2853 193.082 68.8279C193.017 69.0967 193.035 69.3791 193.136 69.637C193.236 69.8949 193.413 70.116 193.642 70.2704C194.067 70.4411 194.536 70.4647 194.975 70.3375L199.455 69.5604C202.02 69.1131 204.585 68.6714 207.116 68.0619C208.236 67.7935 209.53 67.363 209.978 66.2895C211.428 62.795 205.234 62.3421 203.162 62.4371C199.634 62.6216 196.067 64.6457 193.861 67.3686Z" fill="#263238"/>
<path d="M210.158 73.2003C208.69 73.5302 208.063 75.6381 208.102 76.9912C208.102 78.5288 209.222 79.5296 210.522 78.6015C211.486 77.8854 212.143 76.8302 212.358 75.6493C212.622 74.2011 211.63 72.8704 210.158 73.2003Z" fill="#FFC3BD"/>
<path d="M199.791 78.5399C199.569 78.6879 199.317 78.7851 199.053 78.8247C198.788 78.8643 198.519 78.8454 198.263 78.7692C198.823 77.5056 198.755 77.7907 198.929 75.6437L199.791 78.5399Z" fill="#ED847E"/>
<path d="M202.373 71.5674C201.953 71.0978 200.805 70.9188 200.184 71.0083C200.121 71.0165 200.057 71.0001 200.006 70.9626C199.955 70.9251 199.92 70.8694 199.909 70.807C199.901 70.7399 199.918 70.6722 199.958 70.6172C199.997 70.5623 200.056 70.5242 200.122 70.5107C200.906 70.3933 202.211 70.6281 202.743 71.2152C202.789 71.2622 202.815 71.3254 202.815 71.3913C202.815 71.4572 202.789 71.5204 202.743 71.5674C202.712 71.5998 202.673 71.6247 202.631 71.6401C202.586 71.6541 202.537 71.6546 202.491 71.6417C202.446 71.6288 202.405 71.603 202.373 71.5674Z" fill="#263238"/>
<path d="M195.127 72.6135C195.074 72.5772 195.038 72.5219 195.025 72.4593C195.013 72.3967 195.025 72.3317 195.06 72.278C195.256 71.9252 195.531 71.6228 195.865 71.3947C196.198 71.1667 196.58 71.0192 196.98 70.9641C197.011 70.9633 197.042 70.9687 197.07 70.9799C197.099 70.9911 197.125 71.0078 197.146 71.0292C197.168 71.0506 197.186 71.0761 197.198 71.1043C197.21 71.1324 197.216 71.1627 197.216 71.1933C197.219 71.2612 197.195 71.3277 197.151 71.3787C197.106 71.4298 197.043 71.4616 196.975 71.4673C196.659 71.5176 196.359 71.6389 196.097 71.8219C195.835 72.005 195.618 72.2451 195.463 72.524C195.443 72.5605 195.414 72.5913 195.378 72.6137C195.343 72.6362 195.303 72.6495 195.261 72.6526C195.213 72.6565 195.165 72.6426 195.127 72.6135Z" fill="#263238"/>
<path d="M199.36 80.8157C199.899 81.5001 200.394 82.2172 200.844 82.9627L201.192 82.8173C202.771 82.1352 203.219 81.1847 203.241 80.3404C203.222 79.6687 203.014 79.0159 202.642 78.4562C202.082 79.4235 200.665 80.1951 199.892 80.5697C199.562 80.7318 199.36 80.8157 199.36 80.8157Z" fill="#2E353A"/>
<path d="M199.881 80.5697L200.11 80.8828C200.173 80.9668 200.263 81.0273 200.364 81.0547C200.466 81.0821 200.574 81.0747 200.67 81.0337C201.835 80.4746 202.608 79.9155 202.91 79.2837C202.938 79.2241 202.952 79.1592 202.952 79.0936C202.952 79.0279 202.938 78.9631 202.91 78.9035C202.836 78.7483 202.75 78.5988 202.653 78.4562C202.065 79.4235 200.654 80.1951 199.881 80.5697Z" fill="white"/>
<path d="M201.181 82.8174C202.76 82.1352 203.208 81.1847 203.23 80.3405C202.63 80.6168 202.097 81.0192 201.668 81.5202C201.372 81.8902 201.201 82.3444 201.181 82.8174Z" fill="#DE5753"/>
<path d="M196.924 74.3634C196.65 74.4137 196.499 74.8051 196.577 75.2245C196.656 75.6438 196.952 75.9457 197.227 75.8898C197.501 75.8339 197.652 75.4537 197.574 75.0344C197.496 74.615 197.199 74.3634 196.924 74.3634Z" fill="#263238"/>
<path d="M201.729 73.5919C201.455 73.6422 201.304 74.028 201.382 74.4529C201.46 74.8779 201.757 75.1742 202.032 75.1183C202.306 75.0624 202.457 74.6766 202.379 74.2572C202.3 73.8379 202.004 73.5415 201.729 73.5919Z" fill="#263238"/>
<path opacity="0.9" d="M194.808 76.6331L198.341 75.8391L198.403 77.3376L195.116 78.1203L194.808 76.6331Z" fill="white"/>
<g opacity="0.8">
<path opacity="0.9" d="M199.416 75.6044L199.836 76.9799L204.372 76.007L204.103 74.4191L199.416 75.6044Z" fill="white"/>
</g>
<path d="M198.363 76.393L198.341 75.8394L199.416 75.6046L199.573 76.1246L198.363 76.393Z" fill="#263238"/>
<path d="M197.075 133.138C197.075 133.138 203.454 135.604 204.915 136.085C206.595 136.742 208.364 137.147 210.162 137.287C211.074 137.348 211.989 137.215 212.846 136.896C213.702 136.577 214.481 136.079 215.13 135.436C216.653 133.815 217.129 131.355 217.526 129.046C218.691 122.265 219.86 115.485 221.032 108.705C221.592 105.35 223.065 100.318 222.942 98.4224C222.712 94.8999 220.466 90.74 214.749 88.4532C212.509 87.5642 210.33 87.8941 208.46 90.1306C207.34 91.4613 204.081 94.6707 203.28 100.323C202.642 104.852 201.645 110.718 201.706 115.319C201.779 121.369 199.36 128.995 197.075 133.138Z" fill="#263238"/>
<path d="M222.628 96.5606C223.278 102.454 220.013 117.31 219.386 118.204C216.709 126.82 209.356 122.174 208.292 121.777C206.438 121.095 204.551 119.759 202.787 118.87C199.366 117.192 196.123 115.806 192.942 113.698L194.734 110.164C198.223 111.349 208.096 113.899 209.726 114.296C210.431 114.481 213.181 115.917 213.153 114.022C213.539 113.39 214.077 101.084 215.258 96.7339C215.393 96.2458 215.628 95.7908 215.947 95.3976L216.054 95.2634C216.485 94.7237 217.056 94.3126 217.706 94.0752C218.355 93.8377 219.057 93.7829 219.736 93.9167C220.414 94.0506 221.043 94.3679 221.553 94.8342C222.063 95.3004 222.435 95.8976 222.628 96.5606Z" fill="#263238"/>
<path opacity="0.1" d="M222.628 96.5606C223.278 102.454 220.013 117.31 219.386 118.204C216.709 126.82 209.356 122.174 208.292 121.777C206.438 121.095 204.551 119.759 202.787 118.87C199.366 117.192 196.123 115.806 192.942 113.698L194.734 110.164C198.223 111.349 208.096 113.899 209.726 114.296C210.431 114.481 213.181 115.917 213.153 114.022C213.539 113.39 214.077 101.084 215.258 96.7339C215.393 96.2458 215.628 95.7908 215.947 95.3976L216.054 95.2634C216.485 94.7237 217.056 94.3126 217.706 94.0752C218.355 93.8377 219.057 93.7829 219.736 93.9167C220.414 94.0506 221.043 94.3679 221.553 94.8342C222.063 95.3004 222.435 95.8976 222.628 96.5606Z" fill="white"/>
<path d="M193.335 118.814H176.759L174.866 97.2202H191.442L193.335 118.814Z" fill="#263238"/>
<path opacity="0.5" d="M193.335 118.814H176.759L174.866 97.2202H191.442L193.335 118.814Z" fill="white"/>
<path d="M192.747 118.707H176.171L174.278 97.114H190.854L192.747 118.707Z" fill="#246DFF"/>
<path opacity="0.8" d="M192.747 118.707H176.171L174.278 97.114H190.854L192.747 118.707Z" fill="white"/>
<path d="M186.172 98.4617H179.2L178.965 95.7611H185.931L186.172 98.4617Z" fill="#246DFF"/>
<path d="M178.965 95.761L179.648 95.5261H186.866L186.967 96.6723L186.43 97.293L186.396 98.2323L186.172 98.4615L185.931 95.761H178.965Z" fill="#246DFF"/>
<path opacity="0.5" d="M178.965 95.761L179.648 95.5261H186.866L186.967 96.6723L186.43 97.293L186.396 98.2323L186.172 98.4615L185.931 95.761H178.965Z" fill="black"/>
<path d="M196.056 111.332L196.432 113.351C195.536 115.682 190.4 115.067 190.4 115.067V109.102L194.931 110.153C195.212 110.221 195.467 110.369 195.667 110.578C195.866 110.787 196.001 111.049 196.056 111.332Z" fill="#FFC3BD"/>
<path d="M190.39 109.102L190.412 115.079L185.865 115.19L184.823 109.935L190.39 109.102Z" fill="#FFC3BD"/>
<path d="M207.704 157.673L209.435 132.512C209.681 128.956 211.417 125.993 213.825 124.589C215.347 123.374 217.206 122.653 219.151 122.526C219.355 122.506 219.561 122.496 219.767 122.498C221.33 122.49 222.871 122.874 224.247 123.617C224.289 123.636 224.331 123.658 224.37 123.684C225.79 124.471 227.009 125.575 227.931 126.91C229.328 128.94 230.07 131.347 230.059 133.809C230.059 139.401 226.369 144.058 221.525 144.992L219.649 172.21C219.487 174.525 217.969 176.303 216.132 176.303H206.735L207.704 157.673Z" fill="#246DFF"/>
<path opacity="0.1" d="M207.704 157.673L209.435 132.512C209.681 128.956 211.417 125.993 213.825 124.589C215.347 123.374 217.206 122.653 219.151 122.526C219.355 122.506 219.561 122.496 219.767 122.498C221.33 122.49 222.871 122.874 224.247 123.617C224.289 123.636 224.331 123.658 224.37 123.684C225.79 124.471 227.009 125.575 227.931 126.91C229.328 128.94 230.07 131.347 230.059 133.809C230.059 139.401 226.369 144.058 221.525 144.992L219.649 172.21C219.487 174.525 217.969 176.303 216.132 176.303H206.735L207.704 157.673Z" fill="white"/>
<path d="M122.248 40.5925V63.9695C122.248 64.5627 122.012 65.1315 121.592 65.551C121.172 65.9704 120.602 66.206 120.008 66.206H96.0289L87.4609 72.8205C87.2178 73.0038 86.9283 73.1157 86.625 73.1435C86.3216 73.1714 86.0165 73.114 85.744 72.978C85.4716 72.842 85.2426 72.6327 85.0828 72.3737C84.9231 72.1147 84.8391 71.8163 84.8401 71.5121V66.206H83.5017C82.9076 66.206 82.3379 65.9704 81.9178 65.551C81.4977 65.1315 81.2617 64.5627 81.2617 63.9695V40.5869C81.2632 40.2957 81.3224 40.0077 81.4361 39.7395C81.5497 39.4713 81.7155 39.2283 81.9238 39.0245C82.1321 38.8207 82.3788 38.6601 82.6496 38.5521C82.9205 38.444 83.2101 38.3907 83.5017 38.3952H120.047C120.631 38.3952 121.191 38.6267 121.604 39.0387C122.016 39.4508 122.248 40.0097 122.248 40.5925V40.5925Z" stroke="#246DFF" stroke-miterlimit="10"/>
<path d="M99.792 35.1017H95.2168V35.6617H99.792V35.1017Z" fill="#246DFF"/>
<path d="M78.3998 41.6884H77.8398V38.9319C77.8413 37.9141 78.2473 36.9385 78.9686 36.2194C79.69 35.5002 80.6677 35.0963 81.687 35.0963H91.8958V35.6554H81.6758C80.8054 35.6569 79.971 36.0024 79.355 36.6164C78.7391 37.2304 78.3916 38.0629 78.3886 38.9319L78.3998 41.6884Z" fill="#246DFF"/>
<path d="M110.751 55.521C110.507 55.5224 110.266 55.4735 110.043 55.3774C109.819 55.2813 109.618 55.1401 109.452 54.9626C109.286 54.785 109.158 54.5751 109.077 54.346C108.996 54.1168 108.963 53.8735 108.981 53.6311C109.58 46.8154 114.99 46.1892 115.667 38.4397C115.863 36.2032 115.046 35.3645 113.483 35.3645C111.921 35.3645 110.958 36.2088 110.762 38.4397L110.65 39.7145C110.599 40.2904 110.334 40.8265 109.907 41.2168C109.48 41.6071 108.922 41.8232 108.343 41.8224C108.022 41.8221 107.705 41.7552 107.412 41.6261C107.119 41.497 106.855 41.3084 106.639 41.0724C106.423 40.8363 106.258 40.5579 106.155 40.2549C106.052 39.9518 106.013 39.6307 106.041 39.3119L106.091 38.7528C106.528 33.7654 109.233 30.925 114.01 30.925C118.787 30.925 120.987 33.7766 120.551 38.7528C119.839 46.8321 113.931 48.0846 113.427 53.7821C113.43 53.81 113.43 53.838 113.427 53.8659C113.402 54.3179 113.204 54.7431 112.876 55.0548C112.547 55.3665 112.111 55.5412 111.658 55.5433L110.751 55.521ZM113.175 60.2623C113.125 60.8487 112.856 61.3947 112.421 61.7923C111.987 62.1899 111.418 62.4101 110.829 62.4094C110.502 62.4099 110.179 62.3424 109.88 62.2113C109.581 62.0803 109.313 61.8884 109.092 61.648C108.871 61.4077 108.703 61.124 108.598 60.8152C108.493 60.5063 108.454 60.179 108.483 59.8542C108.533 59.2669 108.803 58.7201 109.239 58.3223C109.675 57.9246 110.244 57.705 110.835 57.7071C111.161 57.7083 111.483 57.7768 111.781 57.9085C112.079 58.0402 112.346 58.2322 112.566 58.4723C112.786 58.7124 112.954 58.9955 113.059 59.3036C113.164 59.6117 113.203 59.9381 113.175 60.2623Z" fill="#246DFF"/>
<path d="M104.439 50.0473H91.5595C91.2624 50.0473 90.9775 49.9295 90.7675 49.7198C90.5575 49.5101 90.4395 49.2256 90.4395 48.929C90.4395 48.6325 90.5575 48.348 90.7675 48.1383C90.9775 47.9286 91.2624 47.8108 91.5595 47.8108H104.439C104.736 47.8108 105.021 47.9286 105.231 48.1383C105.441 48.348 105.559 48.6325 105.559 48.929C105.559 49.2256 105.441 49.5101 105.231 49.7198C105.021 49.9295 104.736 50.0473 104.439 50.0473Z" fill="#246DFF"/>
<path d="M102.659 54.4754H91.5819C91.2849 54.4754 91 54.3576 90.79 54.1479C90.5799 53.9382 90.4619 53.6537 90.4619 53.3571C90.4619 53.0606 90.5799 52.7761 90.79 52.5664C91 52.3567 91.2849 52.2389 91.5819 52.2389H102.659C102.956 52.2389 103.241 52.3567 103.451 52.5664C103.661 52.7761 103.779 53.0606 103.779 53.3571C103.779 53.6537 103.661 53.9382 103.451 54.1479C103.241 54.3576 102.956 54.4754 102.659 54.4754Z" fill="#246DFF"/>
<path d="M100.878 58.8981H91.5819C91.2849 58.8981 91 58.7803 90.79 58.5706C90.5799 58.3609 90.4619 58.0764 90.4619 57.7799C90.4619 57.4833 90.5799 57.1989 90.79 56.9891C91 56.7794 91.2849 56.6616 91.5819 56.6616H100.878C101.175 56.6616 101.46 56.7794 101.67 56.9891C101.88 57.1989 101.998 57.4833 101.998 57.7799C101.998 58.0764 101.88 58.3609 101.67 58.5706C101.46 58.7803 101.175 58.8981 100.878 58.8981Z" fill="#246DFF"/>
<path d="M74.5243 150.131H66.3427C64.3491 150.131 62.7363 151.389 62.7363 152.926V157.757C62.7363 159.312 64.3491 160.553 66.3427 160.553H74.5243V150.131Z" fill="#246DFF"/>
<path d="M36.5019 172.881L33.6571 127.67C33.4069 123.695 33.9752 119.71 35.3269 115.963C36.6786 112.215 38.785 108.784 41.5162 105.88C44.2474 102.977 47.5454 100.663 51.2069 99.081C54.8684 97.4993 58.8156 96.6834 62.8051 96.6836C70.2672 96.6832 77.4466 99.5342 82.8699 104.652C88.2932 109.769 91.5493 116.765 91.9699 124.204L94.9491 177.007H40.8811C39.7631 177.003 38.6887 176.574 37.8756 175.807C37.0626 175.041 36.5715 173.995 36.5019 172.881Z" fill="#246DFF"/>
<path opacity="0.1" d="M36.4011 171.243L33.6571 127.67C33.4069 123.695 33.9752 119.71 35.3269 115.963C36.6786 112.215 38.785 108.784 41.5162 105.88C44.2474 102.977 47.5454 100.663 51.2069 99.081C54.8684 97.4993 58.8156 96.6834 62.8051 96.6836C70.2672 96.6832 77.4466 99.5342 82.8699 104.652C88.2932 109.769 91.5493 116.765 91.9699 124.204L94.9491 177.007H42.5611C40.9921 177.011 39.4811 176.416 38.3364 175.345C37.1917 174.273 36.4995 172.806 36.4011 171.243Z" fill="black"/>
<path d="M45.2712 177.007L42.1688 127.67C41.9186 123.694 42.4871 119.71 43.8391 115.961C45.1911 112.213 47.298 108.782 50.0298 105.878C52.7616 102.975 56.0603 100.661 59.7225 99.0794C63.3846 97.498 67.3324 96.6826 71.3224 96.6836C78.7836 96.6846 85.9615 99.5363 91.3836 104.654C96.8058 109.771 100.061 116.766 100.482 124.204L103.466 177.007H45.2712Z" fill="#246DFF"/>
<path d="M44.3414 185.501H43.5966C43.395 185.488 43.2045 185.404 43.0582 185.265C42.9118 185.126 42.819 184.941 42.7958 184.74L41.6758 177.008H46.2174L45.0974 184.74C45.0779 184.934 44.9922 185.116 44.8545 185.254C44.7169 185.393 44.5357 185.48 44.3414 185.501Z" fill="#246DFF"/>
<path opacity="0.7" d="M44.3414 185.501H43.5966C43.395 185.488 43.2045 185.404 43.0582 185.265C42.9118 185.126 42.819 184.941 42.7958 184.74L41.6758 177.008H46.2174L45.0974 184.74C45.0779 184.934 44.9922 185.116 44.8545 185.254C44.7169 185.393 44.5357 185.48 44.3414 185.501Z" fill="white"/>
<path d="M117.506 185.501H116.829C116.637 185.48 116.46 185.392 116.328 185.253C116.195 185.114 116.117 184.932 116.106 184.741L115.109 177.008H119.225L118.229 184.741C118.218 184.932 118.139 185.114 118.007 185.253C117.875 185.392 117.697 185.48 117.506 185.501Z" fill="#246DFF"/>
<path opacity="0.5" d="M117.506 185.501H116.829C116.637 185.48 116.46 185.392 116.328 185.253C116.195 185.114 116.117 184.932 116.106 184.741L115.109 177.008H119.225L118.229 184.741C118.218 184.932 118.139 185.114 118.007 185.253C117.875 185.392 117.697 185.48 117.506 185.501Z" fill="white"/>
<path d="M96.4432 185.501H95.76C95.5689 185.48 95.3914 185.392 95.2591 185.253C95.1269 185.114 95.0484 184.932 95.0376 184.741L94.0352 177.008H98.1568L97.16 184.741C97.1483 184.931 97.0702 185.111 96.9393 185.25C96.8083 185.389 96.6328 185.478 96.4432 185.501Z" fill="#246DFF"/>
<path opacity="0.7" d="M96.4432 185.501H95.76C95.5689 185.48 95.3914 185.392 95.2591 185.253C95.1269 185.114 95.0484 184.932 95.0376 184.741L94.0352 177.008H98.1568L97.16 184.741C97.1483 184.931 97.0702 185.111 96.9393 185.25C96.8083 185.389 96.6328 185.478 96.4432 185.501Z" fill="white"/>
<path d="M67.0211 185.501H66.2763C66.0744 185.489 65.8832 185.406 65.7367 185.267C65.5901 185.128 65.4976 184.941 65.4755 184.741L64.3555 177.008H68.8971L67.7771 184.741C67.7576 184.935 67.6719 185.116 67.5342 185.255C67.3965 185.393 67.2154 185.48 67.0211 185.501Z" fill="#246DFF"/>
<path opacity="0.5" d="M67.0211 185.501H66.2763C66.0744 185.489 65.8832 185.406 65.7367 185.267C65.5901 185.128 65.4976 184.941 65.4755 184.741L64.3555 177.008H68.8971L67.7771 184.741C67.7576 184.935 67.6719 185.116 67.5342 185.255C67.3965 185.393 67.2154 185.48 67.0211 185.501Z" fill="white"/>
<path d="M91.6777 158.372H111.591L112.907 139.222L113.187 135.107L113.322 133.212C113.356 132.714 113.42 132.22 113.512 131.73C113.512 131.624 113.563 131.512 113.585 131.406C113.597 131.323 113.618 131.243 113.647 131.165C114.183 129.213 115.229 127.438 116.676 126.021C118.345 124.375 120.551 123.382 122.892 123.226H104.16C103.953 123.226 103.751 123.226 103.544 123.226C101.003 123.238 98.5677 124.241 96.7569 126.021C95.3095 127.438 94.2641 129.213 93.7273 131.165C93.6983 131.243 93.6777 131.323 93.6657 131.406C93.5342 132 93.4462 132.604 93.4025 133.212L93.2737 135.107L91.6777 158.372Z" fill="#246DFF"/>
<path opacity="0.1" d="M91.6777 158.372H111.591L112.907 139.222L113.187 135.107L113.322 133.212C113.356 132.714 113.42 132.22 113.512 131.73C113.512 131.624 113.563 131.512 113.585 131.406C113.597 131.323 113.618 131.243 113.647 131.165C114.183 129.213 115.229 127.438 116.676 126.021C118.345 124.375 120.551 123.382 122.892 123.226H104.16C103.953 123.226 103.751 123.226 103.544 123.226C101.003 123.238 98.5677 124.241 96.7569 126.021C95.3095 127.438 94.2641 129.213 93.7273 131.165C93.6983 131.243 93.6777 131.323 93.6657 131.406C93.5342 132 93.4462 132.604 93.4025 133.212L93.2737 135.107L91.6777 158.372Z" fill="black"/>
<g opacity="0.1">
<path opacity="0.1" d="M75.8981 148.168H67.8957C65.9525 148.168 64.3789 149.398 64.3789 150.913V155.638C64.3789 157.153 65.9525 158.383 67.8957 158.383H75.8981V148.168Z" fill="black"/>
</g>
<path d="M108.55 148.163H73.3262C71.6499 148.163 70.291 149.519 70.291 151.193V155.347C70.291 157.021 71.6499 158.378 73.3262 158.378H108.55C110.227 158.378 111.585 157.021 111.585 155.347V151.193C111.585 149.519 110.227 148.163 108.55 148.163Z" fill="#246DFF"/>
<path d="M25.4805 134.508C25.4757 137.182 26.4181 139.77 28.1408 141.817C29.8636 143.863 32.2557 145.236 34.8941 145.691L36.9605 172.915C37.1397 175.229 38.8197 177.007 40.8357 177.007H62.8045C60.7885 177.007 59.1085 175.229 58.9293 172.915L57.8093 158.377L56.8461 145.68C55.1225 145.379 53.4921 144.683 52.0824 143.648C50.6728 142.613 49.5221 141.267 48.7205 139.714C48.6141 139.512 48.5189 139.306 48.4293 139.099C47.7796 137.656 47.4455 136.091 47.4493 134.508C47.4495 133.73 47.5302 132.955 47.6901 132.194C47.7517 131.892 47.8301 131.59 47.9085 131.299C48.3103 129.966 48.9496 128.716 49.7957 127.609C50.8423 126.252 52.1823 125.149 53.7157 124.383C55.2795 123.597 57.0053 123.188 58.7557 123.186H36.8261C35.6868 123.185 34.554 123.357 33.4661 123.695C31.2257 124.385 29.2552 125.752 27.8269 127.609C26.3032 129.587 25.4781 132.013 25.4805 134.508Z" fill="#246DFF"/>
<path opacity="0.1" d="M25.4805 134.508C25.4757 137.182 26.4181 139.77 28.1408 141.817C29.8636 143.863 32.2557 145.236 34.8941 145.691L36.9605 172.915C37.1397 175.229 38.8197 177.007 40.8357 177.007H62.8045C60.7885 177.007 59.1085 175.229 58.9293 172.915L57.8093 158.377L56.8461 145.68C55.1225 145.379 53.4921 144.683 52.0824 143.648C50.6728 142.613 49.5221 141.267 48.7205 139.714C48.6141 139.512 48.5189 139.306 48.4293 139.099C47.7796 137.656 47.4455 136.091 47.4493 134.508C47.4495 133.73 47.5302 132.955 47.6901 132.194C47.7517 131.892 47.8301 131.59 47.9085 131.299C48.3103 129.966 48.9496 128.716 49.7957 127.609C50.8423 126.252 52.1823 125.149 53.7157 124.383C55.2795 123.597 57.0053 123.188 58.7557 123.186H36.8261C35.6868 123.185 34.554 123.357 33.4661 123.695C31.2257 124.385 29.2552 125.752 27.8269 127.609C26.3032 129.587 25.4781 132.013 25.4805 134.508Z" fill="black"/>
<path d="M47.4435 134.509C47.4435 140.1 51.1339 144.763 55.9779 145.691L57.8483 172.937C58.0107 175.258 59.5283 177.03 61.3651 177.03H120.02C121.845 177.03 123.38 175.258 123.536 172.937L125.412 145.652C130.156 144.657 133.745 140.061 133.745 134.531C133.758 132.212 133.101 129.939 131.852 127.984C130.904 126.493 129.599 125.262 128.056 124.4C126.652 123.616 125.071 123.205 123.464 123.203C120.922 123.215 118.486 124.218 116.676 125.999C115.228 127.416 114.181 129.191 113.641 131.143C113.617 131.221 113.598 131.302 113.585 131.383C113.451 131.977 113.363 132.581 113.322 133.189L113.188 135.085L111.592 158.366H69.7931L68.0627 133.206C67.8107 129.65 66.0803 126.686 63.6723 125.283C62.148 124.072 60.2905 123.352 58.3467 123.22C58.1395 123.22 57.9379 123.22 57.7307 123.22C56.167 123.211 54.6264 123.596 53.2507 124.338C53.2057 124.354 53.1626 124.375 53.1219 124.4C51.7052 125.192 50.4873 126.295 49.5603 127.626C48.169 129.651 47.4304 132.053 47.4435 134.509Z" fill="#246DFF"/>
<path opacity="0.1" d="M70.7562 177.008H120.036C121.862 177.008 123.396 175.235 123.553 172.915L125.429 145.63C130.172 144.634 133.762 140.038 133.762 134.509C133.775 132.19 133.117 129.916 131.869 127.961C130.92 126.471 129.616 125.239 128.072 124.377C126.669 123.594 125.088 123.182 123.48 123.181C120.939 123.192 118.503 124.195 116.693 125.976C115.245 127.394 114.197 129.168 113.658 131.12C113.633 131.199 113.614 131.279 113.602 131.361C113.468 131.955 113.38 132.559 113.339 133.167L113.204 135.062L111.608 158.344H69.793L70.7562 177.008Z" fill="white"/>
<path d="M85.7539 186.63L90.5307 187.95L94.8203 176.739L90.0435 175.42L85.7539 186.63Z" fill="#FFC3BD"/>
<path d="M92.6689 186.462C92.2919 185.975 91.7472 185.644 91.1401 185.534L86.2401 184.578C86.1257 184.545 86.0029 184.558 85.8982 184.614C85.7934 184.671 85.7151 184.766 85.6801 184.88L84.1625 189.353C84.1191 189.474 84.1001 189.603 84.1068 189.732C84.1134 189.861 84.1455 189.987 84.2012 190.104C84.2569 190.22 84.3351 190.324 84.4313 190.41C84.5275 190.496 84.6398 190.563 84.7617 190.605H84.7953C86.6097 191.321 87.8361 191.075 90.6697 191.623C92.4225 191.958 96.0905 193.121 98.5433 193.021C100.996 192.92 100.99 190.499 99.9601 190.32C96.3201 189.761 93.5201 187.569 92.6689 186.462Z" fill="#263238"/>
<g opacity="0.2">
<path opacity="0.2" d="M94.8189 176.745L92.6069 182.526L87.8301 181.196L90.0365 175.42L94.8189 176.745Z" fill="black"/>
</g>
<path d="M78.8758 134.19C78.8758 134.19 107.637 134.033 106.741 143.65C106.137 150.147 103.012 156.974 100.581 163.566C97.0478 173.122 93.9846 181.458 93.9846 181.458L87.4326 179.194C87.4326 179.194 93.3182 151.562 97.283 148.732H72.9622C64.915 148.732 61.4374 139.909 69.2718 129.622C74.0598 129.638 78.8758 134.19 78.8758 134.19Z" fill="#246DFF"/>
<path opacity="0.6" d="M78.8758 134.19C78.8758 134.19 107.637 134.033 106.741 143.65C107.184 149.627 93.979 181.447 93.979 181.447L87.427 179.182C87.427 179.182 93.3126 151.55 97.2774 148.721H72.9622C64.915 148.721 61.4374 139.898 69.2718 129.61C74.0598 129.638 78.8758 134.19 78.8758 134.19Z" fill="black"/>
<path d="M99.1597 116.728C95.6205 119.955 88.6709 112.317 87.5509 111.411C85.1541 109.454 78.1093 102.89 78.4789 100.609C79.5989 93.8994 90.6197 103.405 93.8061 109.957L99.1597 116.728Z" fill="#263238"/>
<path d="M68.1867 96.5382C66.4115 96.9128 64.4907 96.2754 63.2419 97.5894C61.9931 98.9033 61.4723 100.748 61.2931 102.549C61.1354 105.064 61.2669 107.589 61.6851 110.075C62.0584 113.105 62.4485 116.134 62.8555 119.16C63.1079 121.653 63.0118 124.169 62.5699 126.636C62.5232 126.898 62.565 127.168 62.6887 127.404C62.8123 127.64 63.0108 127.828 63.2531 127.939C63.2531 127.939 77.0235 128.408 81.0275 128.257C83.1555 128.179 81.6939 122.588 82.3491 119.311C82.4947 118.585 83.9171 115.599 84.1299 114.838C85.1154 111.232 84.4603 108.749 83.5699 105.126C82.9035 102.493 82.629 98.6964 81.285 98.4169C78.8658 97.9192 73.1259 95.4871 68.1867 96.5382Z" fill="#246DFF"/>
<path opacity="0.8" d="M68.1867 96.5382C66.4115 96.9128 64.4907 96.2754 63.2419 97.5894C61.9931 98.9033 61.4723 100.748 61.2931 102.549C61.1354 105.064 61.2669 107.589 61.6851 110.075C62.0584 113.105 62.4485 116.134 62.8555 119.16C63.1079 121.653 63.0118 124.169 62.5699 126.636C62.5232 126.898 62.565 127.168 62.6887 127.404C62.8123 127.64 63.0108 127.828 63.2531 127.939C63.2531 127.939 77.0235 128.408 81.0275 128.257C83.1555 128.179 81.6939 122.588 82.3491 119.311C82.4947 118.585 83.9171 115.599 84.1299 114.838C85.1154 111.232 84.4603 108.749 83.5699 105.126C82.9035 102.493 82.629 98.6964 81.285 98.4169C78.8658 97.9192 73.1259 95.4871 68.1867 96.5382Z" fill="white"/>
<path d="M66.2204 99.1214C66.0356 98.8418 61.1804 94.7714 60.3124 99.4737C59.086 106.021 61.6228 112.462 61.6228 112.462C61.6228 112.462 62.1828 119.546 64.266 120.256C66.3492 120.966 68.2868 121.14 68.9812 119.926C69.4303 118.981 69.6672 117.948 69.6756 116.902C69.6756 116.902 69.4404 103.997 66.2204 99.1214Z" fill="#263238"/>
<path d="M69.5755 87.5532C70.0739 90.5669 70.4939 96.0743 68.3379 98.0145C68.3379 98.0145 73.6075 100.771 77.0683 105.579C77.8367 105.007 78.405 104.207 78.6925 103.294C78.98 102.38 78.9721 101.4 78.6699 100.491C78.4964 99.9181 78.2085 99.3857 77.8235 98.9264C77.4386 98.4671 76.9645 98.0903 76.4299 97.8188C74.3859 96.7005 74.5819 94.587 75.1419 92.6077L69.5755 87.5532Z" fill="#E8BFBF"/>
<path opacity="0.2" d="M70.2637 92.6694L72.2293 93.4242C73.0708 93.749 73.9713 93.8938 74.8725 93.8492C74.7323 94.4638 74.7323 95.102 74.8725 95.7167C74.1678 95.9091 73.4223 95.8932 72.7264 95.6709C72.0306 95.4485 71.4144 95.0294 70.9525 94.4642C70.6348 93.9035 70.4026 93.2986 70.2637 92.6694Z" fill="black"/>
<path d="M119.057 176.991H124.41L118.805 163.589L115.176 169.739L119.057 176.991Z" fill="#FFC3BD"/>
<path d="M123.968 175.721L117.69 174.296C117.582 174.269 117.469 174.283 117.371 174.336C117.274 174.388 117.199 174.476 117.164 174.581L115.411 179.4C115.376 179.522 115.365 179.649 115.379 179.775C115.393 179.9 115.432 180.022 115.494 180.133C115.555 180.243 115.638 180.341 115.737 180.419C115.836 180.498 115.95 180.557 116.072 180.591C118.272 181.05 119.353 181.15 122.114 181.782C123.794 182.168 128.117 183.297 130.464 183.829C132.81 184.36 133.426 182.067 132.491 181.631C128.302 179.697 126.034 177.846 124.819 176.269C124.606 175.994 124.306 175.801 123.968 175.721Z" fill="#263238"/>
<g opacity="0.2">
<path opacity="0.2" d="M118.805 163.589L121.19 169.298L116.374 171.981L115.176 169.745L118.805 163.589Z" fill="black"/>
</g>
<path d="M62.4623 128L61.9023 129.823C61.8295 129.963 61.9919 130.108 62.2271 130.12L82.9471 130.746C83.1375 130.746 83.2887 130.668 83.3055 130.55L83.5463 128.716C83.5463 128.593 83.4007 128.481 83.2047 128.47L62.8207 127.855C62.7534 127.845 62.6845 127.853 62.6213 127.878C62.5582 127.904 62.5032 127.946 62.4623 128Z" fill="#263238"/>
<path d="M88.3799 142.957C81.5647 145.859 74.1727 148.755 70.1519 148.755C62.0991 148.755 54.9479 142.952 62.5695 129.745C67.3631 129.745 75.6903 129.879 75.6903 129.879C75.6903 129.879 91.3703 125.406 102.783 126.726C105.488 127.041 108.022 128.204 110.024 130.047C112.025 131.891 113.389 134.32 113.922 136.986C116.811 151.523 121.263 167.246 121.263 167.246L115.534 171.16C115.534 171.16 106.602 152.412 101.462 137.545C98.7399 138.4 93.7391 140.676 88.3799 142.957Z" fill="#246DFF"/>
<path opacity="0.5" d="M113.921 136.985C113.391 134.317 112.027 131.886 110.026 130.04C108.025 128.195 105.489 127.03 102.783 126.714C91.3924 125.417 75.69 129.868 75.69 129.868C75.69 129.868 67.3628 129.717 62.5692 129.734C54.8244 142.884 62.0988 148.744 70.1516 148.744C74.1724 148.744 81.5644 145.848 88.3796 142.946C93.7388 140.664 98.7396 138.389 101.461 137.517C106.602 152.4 115.534 171.154 115.534 171.154L121.263 167.24C121.263 167.24 116.811 151.523 113.921 136.985Z" fill="black"/>
<path d="M106.743 143.695C106.561 145.563 106.28 147.42 105.903 149.258C105.875 149.197 105.852 149.141 105.83 149.079C105.808 149.018 105.83 149.051 105.83 149.035C105.812 148.973 105.787 148.913 105.757 148.856C104.234 145.076 102.744 141.201 101.484 137.55H101.524C104.783 138.931 107.006 140.899 106.743 143.695Z" fill="#246DFF"/>
<path opacity="0.6" d="M106.743 143.695C106.561 145.563 106.28 147.42 105.903 149.258C105.875 149.197 105.852 149.141 105.83 149.079C105.808 149.018 105.83 149.051 105.83 149.035C105.812 148.973 105.787 148.913 105.757 148.856C104.234 145.076 102.744 141.201 101.484 137.55H101.524C104.783 138.931 107.006 140.899 106.743 143.695Z" fill="black"/>
<path d="M65.9006 84.657C67.5806 89.3816 68.1966 91.4168 71.3438 93.1893C76.087 95.8619 81.519 92.7531 81.2838 87.598C81.071 82.9852 78.355 76.0297 73.091 75.4706C71.9297 75.3402 70.7543 75.5086 69.6765 75.9599C68.5988 76.4112 67.6547 77.1303 66.934 78.0488C66.2133 78.9673 65.74 80.0547 65.5591 81.2075C65.3782 82.3603 65.4958 83.5401 65.9006 84.6347V84.657Z" fill="#E8BFBF"/>
<path d="M74.4075 84.042C74.5251 84.4502 74.8219 84.6906 75.0795 84.6012C75.3371 84.5117 75.4379 84.1539 75.3371 83.7569C75.2363 83.3599 74.9283 83.1083 74.6651 83.1978C74.4019 83.2872 74.2955 83.6506 74.4075 84.042Z" fill="#263238"/>
<path d="M78.8033 82.6553C78.9209 83.0691 79.2177 83.3095 79.4753 83.2144C79.7329 83.1194 79.8337 82.7671 79.7329 82.3702C79.6321 81.9732 79.3185 81.7216 79.0665 81.811C78.8145 81.9005 78.6913 82.2695 78.8033 82.6553Z" fill="#263238"/>
<path d="M78.9609 81.8735L79.8233 81.3135C79.8233 81.3135 79.5489 82.1927 78.9609 81.8735Z" fill="#263238"/>
<path d="M77.2305 83.5498C77.8364 84.344 78.5486 85.0514 79.3473 85.6521C79.1869 85.85 78.9849 86.0102 78.7555 86.1214C78.5261 86.2325 78.275 86.2918 78.0201 86.2951L77.2305 83.5498Z" fill="#ED847E"/>
<path d="M62.8101 87.7826C63.1541 88.6333 63.4148 89.5153 63.5885 90.4161C63.6361 91.3221 63.3443 92.2134 62.7697 92.9163C62.1951 93.6191 61.379 94.0832 60.4805 94.2182C61.263 94.4263 62.0935 94.358 62.8314 94.0248C63.5693 93.6916 64.1691 93.114 64.5293 92.3898C64.1012 93.528 63.2538 94.46 62.1605 94.9953C62.942 95.0039 63.7149 94.8322 64.4191 94.4938C65.1232 94.1553 65.7397 93.6592 66.2205 93.044C65.9573 93.7261 65.6605 94.4027 65.4253 95.0848C66.755 94.2808 67.8469 93.1385 68.5893 91.7748C68.8861 91.2157 69.1101 90.4888 68.7181 89.9968C68.3261 89.5047 67.7045 89.5383 67.1333 89.5271C66.5621 89.5159 65.8733 89.3817 65.6661 88.8506C65.4589 88.3194 65.8397 87.7882 66.2541 87.4248C66.6685 87.0614 67.1669 86.7259 67.3181 86.1947C67.3898 85.8103 67.3628 85.4141 67.2397 85.0429C66.9821 84.0141 66.7282 82.9835 66.4781 81.951C66.4101 81.5865 66.2793 81.2365 66.0917 80.9166C64.9717 79.2392 63.7229 81.6994 63.2917 82.5324C62.4845 84.1623 62.3129 86.0335 62.8101 87.7826Z" fill="#263238"/>
<path d="M65.57 89.2867C66.2042 90.1098 67.1378 90.6502 68.1684 90.7908C69.5404 90.9585 70.022 89.6725 69.4732 88.5039C68.9748 87.4304 67.6644 86.0606 66.3708 86.424C65.0772 86.7874 64.7972 88.2579 65.57 89.2867Z" fill="#E8BFBF"/>
<path d="M74.4811 80.6646C74.472 80.7167 74.4474 80.7649 74.4104 80.8028C74.3734 80.8407 74.3259 80.8666 74.2739 80.8771C73.1539 81.0895 72.5043 82.437 72.5043 82.4482C72.4762 82.5092 72.4253 82.5568 72.3625 82.5808C72.2998 82.6048 72.2301 82.6034 72.1683 82.5768C72.1087 82.5488 72.0624 82.4986 72.0393 82.437C72.0163 82.3753 72.0184 82.3071 72.0451 82.2469C72.0955 82.1966 72.7899 80.6478 74.1787 80.3794C74.2438 80.3695 74.3103 80.3848 74.3645 80.4222C74.4186 80.4596 74.4564 80.5164 74.4699 80.5807C74.4819 80.607 74.4858 80.6362 74.4811 80.6646Z" fill="#263238"/>
<path d="M77.4717 79.5468C77.4343 79.5409 77.3961 79.5429 77.3595 79.5525C77.3229 79.5621 77.2886 79.5792 77.259 79.6027C77.1974 79.6698 76.9902 79.7872 77.1078 79.8487C77.791 80.1953 78.7373 80.7656 79.4653 80.6482C79.5885 80.6482 79.8797 80.5196 79.8181 80.4302C79.7761 80.3851 79.723 80.3516 79.6641 80.333C79.6053 80.3143 79.5426 80.3112 79.4821 80.3239C78.9221 80.4022 78.1325 79.8599 77.5949 79.5803C77.5555 79.5639 77.5141 79.5527 77.4717 79.5468Z" fill="#263238"/>
<path d="M74.5586 83.2543L75.4266 82.6943C75.4266 82.6943 75.1522 83.5847 74.5586 83.2543Z" fill="#263238"/>
<path d="M74.4809 73.4018C72.5713 73.0551 72.3249 72.9265 70.3873 73.0495C68.4302 73.1107 66.5379 73.7639 64.9609 74.9226C63.4876 76.1384 62.4483 77.798 61.9985 79.6528C61.5582 81.5009 61.5087 83.4204 61.8529 85.2888C61.9147 86.1812 62.3011 87.0204 62.9393 87.6483C63.0043 86.6435 63.1751 85.6484 63.4489 84.6793C63.7344 83.7011 64.3224 82.838 65.1289 82.2136C65.4848 82.0214 65.7914 81.7496 66.0249 81.4196C66.146 81.0933 66.2141 80.7498 66.2265 80.402C66.4021 79.6192 66.8709 78.933 67.5369 78.4842C68.1983 78.0459 68.9064 77.6821 69.6481 77.3995C72.0057 76.3875 74.5761 75.806 76.7489 74.4417C76.0379 74.0045 75.2763 73.6552 74.4809 73.4018Z" fill="#263238"/>
<path d="M64.7088 80.883C65.2216 81.5047 65.9235 81.9424 66.708 82.1298C67.6376 82.3423 69.9616 82.2864 70.1016 82.046C70.2416 81.8055 69.4128 79.2 68.472 79.0434C69.121 79.669 69.8961 80.1493 70.7456 80.4524C71.7067 80.6443 72.6964 80.6443 73.6576 80.4524C74.1504 80.3406 73.0472 78.3054 72.2464 77.7239C74.66 78.2271 77.2136 78.803 78.9664 80.5195C80.7192 82.236 81.4752 84.9534 81.3856 87.4862C81.7963 87.1559 82.1262 86.7365 82.3504 86.2599C82.5745 85.7832 82.687 85.2619 82.6792 84.7353C83.102 86.045 83.2569 87.4262 83.1347 88.7968C83.0125 90.1674 82.6158 91.4995 81.968 92.7141C84.5328 90.6117 85.4904 86.9383 84.8184 83.6954C84.1464 80.4524 82.0184 77.6289 79.4368 75.5545C77.1968 73.7821 74.5312 72.457 71.692 72.3899C67.968 72.278 61.0688 76.505 64.7088 80.883Z" fill="#263238"/>
<path d="M67.7264 95.8339C67.7264 95.6494 67.7712 95.4034 67.7936 95.1462C67.8425 94.5557 67.6703 93.9682 67.3103 93.4972C66.9503 93.0262 66.4281 92.7053 65.8448 92.5966C65.6717 92.5657 65.5098 92.4893 65.376 92.3753C65.2422 92.2614 65.1411 92.1139 65.0832 91.948C64.652 90.6956 64.484 90.3154 64.0696 89.0853C62.9496 88.8113 61.6 89.2307 60.4296 89.3537C60.1051 90.7568 60.0822 92.2127 60.3624 93.6254C60.4073 93.9414 60.5305 94.2412 60.7208 94.4976C61.7836 95.367 62.959 96.0892 64.2152 96.6446C65.2232 96.9522 66.64 95.929 67.7264 95.8339Z" fill="#E8BFBF"/>
<path d="M64.3338 96.6726C64.3338 96.6726 61.2482 116.549 64.429 119.597C66.2938 121.375 67.9066 120.391 68.909 119.278C69.2765 118.863 69.553 118.377 69.7208 117.849C69.8886 117.321 69.944 116.764 69.8834 116.214L67.7162 95.8507C67.7162 95.8507 65.5882 94.5926 64.3338 96.6726Z" fill="#E8BFBF"/>
<path d="M97.4856 114.621C98.7526 113.517 99.6612 112.06 100.095 110.438C100.194 109.866 100.232 109.285 100.207 108.705C100.179 105.104 99.16 98.501 99.16 98.501L96.2312 97.5337C96.2312 97.5337 95.3184 102.566 95.1112 105.317C95.072 105.876 95.0104 106.496 94.9432 107.173C94.8144 108.403 94.6576 109.756 94.5176 110.88L97.4856 114.621Z" fill="#E8BFBF"/>
<path d="M99.1588 116.728C100.06 115.906 100.212 114.911 100.676 112.815C101.119 110.813 100.62 108.342 100.206 108.716C100.154 108.763 100.116 108.823 100.094 108.889C99.3828 110.567 96.6164 109.096 95.8324 108.258C95.4948 107.937 95.1976 107.577 94.9476 107.184C94.8448 107.034 94.7898 106.857 94.7898 106.675C94.7898 106.494 94.8448 106.316 94.9476 106.167C94.0964 105.814 93.4132 109.158 93.8276 109.98L94.0404 110.6C94.3778 111.607 94.8979 112.544 95.5748 113.362L97.1148 115.213L99.1588 116.728Z" fill="#263238"/>
<path d="M96.1519 97.9527L95.8047 92.8423C96.7105 93.2727 97.6462 93.637 98.6047 93.9326C100.027 94.419 101.965 93.5636 101.517 94.4917C100.802 95.8726 100.006 97.2094 99.1311 98.495L96.1519 97.9527Z" fill="#E8BFBF"/>
<path d="M95.8047 92.8426L97.9999 87.7266L100.867 89.4766C101.657 91.1875 101.561 94.5087 101.561 94.5087C101.561 94.5087 97.5743 94.6653 95.8047 92.8426Z" fill="#E8BFBF"/>
<path d="M76.895 88.9004C76.9678 89.2638 77.231 89.521 77.455 89.4595C77.679 89.398 77.819 89.0737 77.7406 88.7103C77.6622 88.3469 77.4046 88.0897 77.1806 88.1512C76.9566 88.2127 76.8166 88.5594 76.895 88.9004Z" fill="#263238"/>
<path d="M69.7926 158.372L68.0622 133.212C67.8102 129.656 66.0798 126.692 63.6718 125.289C62.1475 124.077 60.29 123.358 58.3462 123.226C58.139 123.226 57.9374 123.226 57.7302 123.226C56.1665 123.217 54.6258 123.602 53.2502 124.344C53.2052 124.36 53.162 124.38 53.1214 124.405C51.7047 125.197 50.4868 126.301 49.5598 127.632C48.1612 129.66 47.4185 132.068 47.4318 134.531C47.4318 140.122 51.1222 144.786 55.9662 145.714L57.8366 172.96C57.999 175.28 59.5166 177.053 61.3534 177.053H70.7446L69.7926 158.372Z" fill="#246DFF"/>
<path opacity="0.1" d="M69.7926 158.372L68.0622 133.212C67.8102 129.656 66.0798 126.692 63.6718 125.289C62.1475 124.077 60.29 123.358 58.3462 123.226C58.139 123.226 57.9374 123.226 57.7302 123.226C56.1665 123.217 54.6258 123.602 53.2502 124.344C53.2052 124.36 53.162 124.38 53.1214 124.405C51.7047 125.197 50.4868 126.301 49.5598 127.632C48.1612 129.66 47.4185 132.068 47.4318 134.531C47.4318 140.122 51.1222 144.786 55.9662 145.714L57.8366 172.96C57.999 175.28 59.5166 177.053 61.3534 177.053H70.7446L69.7926 158.372Z" fill="white"/>
<path d="M136.73 204.343C147.103 204.343 155.512 202.195 155.512 199.546C155.512 196.896 147.103 194.748 136.73 194.748C126.356 194.748 117.947 196.896 117.947 199.546C117.947 202.195 126.356 204.343 136.73 204.343Z" fill="#263238"/>
<path opacity="0.3" d="M136.73 202.744C147.103 202.744 155.512 200.954 155.512 198.746C155.512 196.538 147.103 194.748 136.73 194.748C126.356 194.748 117.947 196.538 117.947 198.746C117.947 200.954 126.356 202.744 136.73 202.744Z" fill="white"/>
<path d="M138.281 198.74H135.179L131.595 160.15H141.865L138.281 198.74Z" fill="#263238"/>
<path d="M141.865 160.15C141.865 161.268 139.569 162.185 136.73 162.185C133.891 162.185 131.595 161.274 131.595 160.15C131.595 159.026 133.896 158.115 136.73 158.115C139.564 158.115 141.865 159.026 141.865 160.15Z" fill="#263238"/>
<path opacity="0.7" d="M141.865 160.15C141.865 161.268 139.569 162.185 136.73 162.185C133.891 162.185 131.595 161.274 131.595 160.15C131.595 159.026 133.896 158.115 136.73 158.115C139.564 158.115 141.865 159.026 141.865 160.15Z" fill="white"/>
<path opacity="0.7" d="M73.9199 160.754C73.934 160.523 73.9942 160.297 74.0971 160.089C74.2 159.882 74.3435 159.697 74.5191 159.546C78.8591 163.907 106.394 167.267 139.714 167.267C173.034 167.267 200.57 163.913 204.915 159.546C205.091 159.697 205.234 159.882 205.337 160.089C205.44 160.297 205.5 160.523 205.514 160.754C205.514 165.679 176.053 169.7 139.714 169.7C103.376 169.7 73.9199 165.679 73.9199 160.754Z" fill="white"/>
<path opacity="0.7" d="M74.542 161.866C78.882 157.505 106.417 154.15 139.737 154.15C173.057 154.15 200.592 157.505 204.938 161.866C200.592 166.227 173.057 169.588 139.737 169.588C106.417 169.588 78.882 166.227 74.542 161.866Z" fill="white"/>
<path opacity="0.7" d="M73.9199 160.58C73.9199 155.649 103.376 151.634 139.714 151.634C176.053 151.634 205.514 155.626 205.514 160.58C205.501 160.811 205.441 161.036 205.338 161.242C205.235 161.449 205.091 161.633 204.915 161.782C200.57 157.421 173.034 154.066 139.714 154.066C106.394 154.066 78.8591 157.421 74.5191 161.782C74.3432 161.633 74.1994 161.449 74.0965 161.242C73.9935 161.036 73.9334 160.811 73.9199 160.58Z" fill="white"/>
<path d="M165.116 156.236L137.587 155.716C137.513 155.709 137.441 155.686 137.375 155.651C137.31 155.615 137.252 155.566 137.206 155.508C137.159 155.45 137.125 155.383 137.105 155.311C137.085 155.239 137.079 155.164 137.088 155.09C137.082 155.016 137.091 154.941 137.114 154.87C137.138 154.799 137.175 154.734 137.224 154.677C137.273 154.621 137.333 154.575 137.4 154.542C137.467 154.51 137.54 154.49 137.615 154.486L165.144 155.006C165.219 155.013 165.292 155.035 165.358 155.07C165.424 155.106 165.482 155.154 165.529 155.213C165.576 155.271 165.611 155.338 165.632 155.41C165.652 155.483 165.658 155.558 165.648 155.632C165.654 155.707 165.645 155.782 165.622 155.854C165.598 155.925 165.56 155.991 165.511 156.047C165.461 156.103 165.401 156.149 165.333 156.182C165.265 156.214 165.191 156.233 165.116 156.236Z" fill="#263238"/>
<path opacity="0.2" d="M165.116 156.236L137.587 155.716C137.513 155.709 137.441 155.686 137.375 155.651C137.31 155.615 137.252 155.566 137.206 155.508C137.159 155.45 137.125 155.383 137.105 155.311C137.085 155.239 137.079 155.164 137.088 155.09C137.082 155.016 137.091 154.941 137.114 154.87C137.138 154.799 137.175 154.734 137.224 154.677C137.273 154.621 137.333 154.575 137.4 154.542C137.467 154.51 137.54 154.49 137.615 154.486L165.144 155.006C165.219 155.013 165.292 155.035 165.358 155.07C165.424 155.106 165.482 155.154 165.529 155.213C165.576 155.271 165.611 155.338 165.632 155.41C165.652 155.483 165.658 155.558 165.648 155.632C165.654 155.707 165.645 155.782 165.622 155.854C165.598 155.925 165.56 155.991 165.511 156.047C165.461 156.103 165.401 156.149 165.333 156.182C165.265 156.214 165.191 156.233 165.116 156.236Z" fill="white"/>
<path d="M178.483 154.229L165.323 156.214C165.179 156.214 165.041 156.159 164.936 156.06C164.832 155.961 164.77 155.826 164.763 155.683C164.74 155.532 164.774 155.379 164.857 155.252C164.941 155.125 165.069 155.033 165.216 154.995L178.376 153.01C178.52 153.01 178.659 153.065 178.763 153.164C178.867 153.263 178.929 153.398 178.936 153.541C178.959 153.692 178.926 153.845 178.842 153.972C178.758 154.099 178.63 154.191 178.483 154.229Z" fill="#263238"/>
<path d="M178.365 153.01H150.545L137.614 154.486L164.393 154.989L178.365 153.01Z" fill="#263238"/>
<path opacity="0.6" d="M178.365 153.01H150.545L137.614 154.486L164.393 154.989L178.365 153.01Z" fill="white"/>
<path opacity="0.5" d="M178.483 154.229L165.323 156.214C165.179 156.214 165.041 156.159 164.936 156.06C164.832 155.961 164.77 155.826 164.763 155.683C164.74 155.532 164.774 155.379 164.857 155.252C164.941 155.125 165.069 155.033 165.216 154.995L178.376 153.01C178.52 153.01 178.659 153.065 178.763 153.164C178.867 153.263 178.929 153.398 178.936 153.541C178.959 153.692 178.926 153.845 178.842 153.972C178.758 154.099 178.63 154.191 178.483 154.229Z" fill="white"/>
<path d="M164.394 154.989L138.724 154.508C138.24 154.447 137.795 154.21 137.474 153.843C137.153 153.477 136.978 153.005 136.982 152.518L136.209 137.041C136.153 135.962 136.853 135.096 137.755 135.112L163.425 135.599C163.91 135.658 164.356 135.894 164.678 136.261C164.999 136.629 165.173 137.102 165.167 137.589L165.945 153.06C165.996 154.139 165.301 155.006 164.394 154.989Z" fill="#246DFF"/>
<path opacity="0.2" d="M164.394 154.989L138.724 154.508C138.24 154.447 137.795 154.21 137.474 153.843C137.153 153.477 136.978 153.005 136.982 152.518L136.209 137.041C136.153 135.962 136.853 135.096 137.755 135.112L163.425 135.599C163.91 135.658 164.356 135.894 164.678 136.261C164.999 136.629 165.173 137.102 165.167 137.589L165.945 153.06C165.996 154.139 165.301 155.006 164.394 154.989Z" fill="white"/>
<path d="M163.643 154.911L137.972 154.424C137.487 154.364 137.042 154.128 136.719 153.761C136.397 153.394 136.221 152.922 136.225 152.434L135.452 136.985C135.396 135.906 136.096 135.04 137.004 135.056L162.668 135.537C163.153 135.598 163.599 135.834 163.921 136.201C164.243 136.568 164.419 137.04 164.416 137.528L165.2 152.982C165.244 154.061 164.544 154.928 163.643 154.911Z" fill="#246DFF"/>
<path opacity="0.6" d="M163.643 154.911L137.972 154.424C137.487 154.364 137.042 154.128 136.719 153.761C136.397 153.394 136.221 152.922 136.225 152.434L135.452 136.985C135.396 135.906 136.096 135.04 137.004 135.056L162.668 135.537C163.153 135.598 163.599 135.834 163.921 136.201C164.243 136.568 164.419 137.04 164.416 137.528L165.2 152.982C165.244 154.061 164.544 154.928 163.643 154.911Z" fill="white"/>
<path d="M146.922 144.718C146.997 145.454 147.34 146.138 147.886 146.638C148.432 147.139 149.143 147.423 149.884 147.435C150.233 147.441 150.578 147.373 150.899 147.235C151.219 147.098 151.506 146.894 151.741 146.637C151.976 146.38 152.154 146.076 152.263 145.745C152.371 145.414 152.408 145.064 152.37 144.718C152.289 143.985 151.944 143.308 151.398 142.811C150.853 142.314 150.146 142.032 149.408 142.017C149.061 142.012 148.717 142.079 148.398 142.216C148.079 142.353 147.793 142.555 147.558 142.81C147.323 143.065 147.145 143.367 147.035 143.696C146.925 144.025 146.887 144.373 146.922 144.718Z" fill="white"/>
</svg>
