<svg width="280" height="209" viewBox="0 0 280 209" fill="none" xmlns="http://www.w3.org/2000/svg">
<path d="M140 209C199.966 209 248.579 206.157 248.579 202.65C248.579 199.142 199.966 196.299 140 196.299C80.0341 196.299 31.4219 199.142 31.4219 202.65C31.4219 206.157 80.0341 209 140 209Z" fill="#F5F5F5"/>
<path d="M205.33 78.7567C205.241 80.3331 205.05 81.7804 204.838 83.2839C204.625 84.7873 204.317 86.2458 203.992 87.7156C203.325 90.7143 202.336 93.6317 201.041 96.4165C200.584 97.2922 199.955 98.0667 199.193 98.6941C198.567 99.2276 197.9 99.7115 197.199 100.141C195.891 100.944 194.527 101.651 193.117 102.256C190.38 103.432 187.557 104.394 184.672 105.134L183.978 103.053C185.266 102.492 186.587 101.869 187.864 101.235C189.141 100.601 190.418 99.9619 191.638 99.2663C192.845 98.6036 194.01 97.8674 195.127 97.0616C195.642 96.692 196.128 96.2851 196.583 95.8443C196.931 95.5252 197.218 95.1449 197.429 94.7223C197.94 93.4676 198.38 92.1846 198.745 90.8796C199.103 89.5388 199.434 88.1868 199.714 86.8124C199.994 85.438 200.218 84.0468 200.419 82.6499C200.621 81.2531 200.783 79.845 200.906 78.4987L205.33 78.7567Z" fill="#E58A7B"/>
<path d="M202.312 73.489C200.525 73.9434 199.276 81.3091 199.276 81.3091L204.199 84.675C204.199 84.675 208.92 77.2476 207.559 75.2842C206.114 73.1917 204.921 72.799 202.312 73.489Z" fill="#246DFF"/>
<path opacity="0.5" d="M202.312 73.489C200.525 73.9434 199.276 81.3091 199.276 81.3091L204.199 84.675C204.199 84.675 208.92 77.2476 207.559 75.2842C206.114 73.1917 204.921 72.799 202.312 73.489Z" fill="black"/>
<path d="M202.474 75.1105L201.102 82.5323L203.868 84.4116L202.474 75.1105Z" fill="#246DFF"/>
<path opacity="0.7" d="M202.474 75.1105L201.102 82.5323L203.868 84.4116L202.474 75.1105Z" fill="black"/>
<path d="M184.991 102.941L181.917 99.8218L181.514 104.22C181.514 104.22 183.815 105.779 185.434 104.944L184.991 102.941Z" fill="#E58A7B"/>
<path d="M178.299 99.3561L178.159 103.053L181.514 104.22L181.917 99.8217L178.299 99.3561Z" fill="#E58A7B"/>
<path d="M211.977 197.399H207.643L207.352 187.346H211.686L211.977 197.399Z" fill="#E58A7B"/>
<path d="M250.219 177.237L246.915 180.048L239.355 173.288L242.659 170.477L250.219 177.237Z" fill="#E58A7B"/>
<path d="M246.014 179.711L249.201 176.037C249.254 175.972 249.329 175.929 249.412 175.916C249.495 175.904 249.579 175.923 249.649 175.97L252.914 178.09C252.994 178.146 253.062 178.219 253.112 178.303C253.163 178.387 253.195 178.481 253.206 178.579C253.218 178.676 253.209 178.775 253.18 178.869C253.151 178.962 253.102 179.049 253.037 179.122C251.917 180.385 251.284 180.934 249.878 182.55C249.01 183.543 247.846 185.086 246.653 186.477C245.46 187.868 244.038 186.735 244.413 186.056C246.093 183.016 245.69 181.944 245.718 180.446C245.724 180.173 245.83 179.912 246.014 179.711Z" fill="#263238"/>
<path d="M207.492 196.906H212.364C212.448 196.905 212.529 196.934 212.593 196.989C212.657 197.044 212.699 197.12 212.711 197.203L213.271 201.062C213.281 201.16 213.271 201.258 213.24 201.351C213.21 201.444 213.161 201.53 213.095 201.602C213.03 201.675 212.95 201.733 212.86 201.772C212.771 201.811 212.674 201.832 212.576 201.831C210.896 201.831 210.056 201.702 207.917 201.702C206.601 201.702 203.874 201.842 202.06 201.842C200.245 201.842 200.139 200.036 200.9 199.873C204.294 199.144 205.632 198.134 206.775 197.169C206.977 197.003 207.23 196.91 207.492 196.906Z" fill="#263238"/>
<path d="M207.352 187.352L207.503 192.535H211.837L211.692 187.352H207.352Z" fill="#CF6F64"/>
<path d="M242.665 170.477L239.361 173.288L243.259 176.772L246.563 173.961L242.665 170.477Z" fill="#CF6F64"/>
<path d="M202.312 73.4888C202.312 73.4888 200.251 74.2181 204.384 99.6924H221.984C221.688 92.5174 221.682 88.0912 225.104 73.3598C222.641 72.8473 220.144 72.5154 217.633 72.3669C214.971 72.1731 212.299 72.1731 209.636 72.3669C206.204 72.6698 202.312 73.4888 202.312 73.4888Z" fill="#246DFF"/>
<path opacity="0.5" d="M202.312 73.4888C202.312 73.4888 200.251 74.2181 204.384 99.6924H221.984C221.688 92.5174 221.682 88.0912 225.104 73.3598C222.641 72.8473 220.144 72.5154 217.633 72.3669C214.971 72.1731 212.299 72.1731 209.636 72.3669C206.204 72.6698 202.312 73.4888 202.312 73.4888Z" fill="black"/>
<path d="M212.24 74.1957L213.831 77.4494C213.831 77.4494 220.5 75.4074 219.627 72.4679L217.387 72.2098L212.24 74.1957Z" fill="#246DFF"/>
<path opacity="0.6" d="M212.24 74.1957L213.831 77.4494C213.831 77.4494 220.5 75.4074 219.627 72.4679L217.387 72.2098L212.24 74.1957Z" fill="#FAFAFA"/>
<path d="M212.117 73.8928L209.877 77.2138C209.877 77.2138 205.128 75.1494 208.404 72.3725L209.799 72.2098L212.117 73.8928Z" fill="#246DFF"/>
<path opacity="0.6" d="M212.117 73.8928L209.877 77.2138C209.877 77.2138 205.128 75.1494 208.404 72.3725L209.799 72.2098L212.117 73.8928Z" fill="#FAFAFA"/>
<path d="M219.268 49.9275C221.324 47.9473 219.352 38.6405 224.762 41.7203C231.639 45.6472 236.08 40.5086 233.784 38.5564C238.611 38.8986 238.14 44.4018 236.13 47.3582C231.028 54.881 220.736 47.7285 220.674 51.5488C220.612 55.3691 219.268 49.9275 219.268 49.9275Z" fill="#263238"/>
<path d="M216.301 48.5869C218.658 46.7189 226.711 48.2728 221.19 55.7956L216.301 48.5869Z" fill="#246DFF"/>
<path opacity="0.3" d="M216.301 48.5869C218.658 46.7189 226.711 48.2728 221.19 55.7956L216.301 48.5869Z" fill="black"/>
<path d="M217.544 52.0818C224.41 53.1084 224.891 64.2832 214.234 66.0166L217.544 52.0818Z" fill="#263238"/>
<path d="M216.838 63.3408C216.334 65.9157 215.83 70.6336 217.633 72.3558C217.633 72.3558 216.928 74.9644 212.151 74.9644C206.898 74.9644 209.636 72.3558 209.636 72.3558C212.504 71.6658 212.436 69.5509 211.932 67.537L216.838 63.3408Z" fill="#E58A7B"/>
<path d="M214.839 65.0743L211.933 67.5539C212.06 68.0198 212.143 68.497 212.179 68.9788C213.299 68.8161 214.783 67.61 214.901 66.4656C214.965 66.0019 214.944 65.5304 214.839 65.0743Z" fill="#CF6F64"/>
<path d="M206.002 60.3565C203.633 57.2992 200.548 49.4117 209.782 48.6544L206.002 60.3565Z" fill="#263238"/>
<path d="M216.665 56.7661C217.225 61.0408 217.561 62.836 215.858 65.4165C213.299 69.3041 207.934 69.0741 206.109 65.0575C204.457 61.4447 203.807 55.0664 207.598 52.5756C208.432 52.0222 209.394 51.6916 210.391 51.6152C211.389 51.5387 212.389 51.719 213.298 52.1388C214.206 52.5587 214.992 53.2042 215.581 54.0141C216.171 54.824 216.544 55.7713 216.665 56.7661Z" fill="#E58A7B"/>
<path d="M204.4 99.67C204.4 99.67 200.984 133.11 201.264 146.349C201.561 160.122 206.601 191.531 206.601 191.531H212.459C212.459 191.531 211.529 160.924 212.05 147.404C212.61 132.656 217.292 99.67 217.292 99.67H204.4Z" fill="#246DFF"/>
<path opacity="0.6" d="M204.4 99.67C204.4 99.67 200.984 133.11 201.264 146.349C201.561 160.122 206.601 191.531 206.601 191.531H212.459C212.459 191.531 211.529 160.924 212.05 147.404C212.61 132.656 217.292 99.67 217.292 99.67H204.4Z" fill="#FAFAFA"/>
<path d="M212.952 191.739H206.075L205.571 189.545L213.271 189.276L212.952 191.739Z" fill="#246DFF"/>
<path opacity="0.4" d="M212.952 191.739H206.075L205.571 189.545L213.271 189.276L212.952 191.739Z" fill="#FAFAFA"/>
<path d="M211.978 107.989C207.654 116.702 211.11 132.594 212.638 138.507C213.422 129.627 214.744 118.772 215.774 110.8C215.119 106.29 213.971 103.973 211.978 107.989Z" fill="#246DFF"/>
<path opacity="0.4" d="M211.978 107.989C207.654 116.702 211.11 132.594 212.638 138.507C213.422 129.627 214.744 118.772 215.774 110.8C215.119 106.29 213.971 103.973 211.978 107.989Z" fill="#FAFAFA"/>
<path d="M209.031 99.67C209.031 99.67 213.018 134.451 216.031 145.598C219.604 158.854 241.791 176.687 241.791 176.687L246.299 172.85C246.299 172.85 230.205 153.48 227.472 146.484C221.637 131.584 226.632 109.381 221.967 99.6588L209.031 99.67Z" fill="#246DFF"/>
<path opacity="0.6" d="M209.031 99.67C209.031 99.67 213.018 134.451 216.031 145.598C219.604 158.854 241.791 176.687 241.791 176.687L246.299 172.85C246.299 172.85 230.205 153.48 227.472 146.484C221.637 131.584 226.632 109.381 221.967 99.6588L209.031 99.67Z" fill="#FAFAFA"/>
<path d="M247.033 172.648L241.445 177.4L239.361 176.149L245.678 170.259L247.033 172.648Z" fill="#246DFF"/>
<path opacity="0.4" d="M247.033 172.648L241.445 177.4L239.361 176.149L245.678 170.259L247.033 172.648Z" fill="#FAFAFA"/>
<path d="M210.505 59.2062C210.572 59.5484 210.443 59.8625 210.219 59.9074C209.995 59.9523 209.76 59.7055 209.693 59.3464C209.625 58.9874 209.754 58.6901 209.978 58.6452C210.202 58.6003 210.437 58.8584 210.505 59.2062Z" fill="#263238"/>
<path d="M206.641 59.9693C206.708 60.3115 206.579 60.6256 206.355 60.6705C206.131 60.7154 205.896 60.4685 205.829 60.1095C205.762 59.7505 205.885 59.4532 206.109 59.4083C206.333 59.3634 206.562 59.6214 206.641 59.9693Z" fill="#263238"/>
<path d="M206.204 59.4248L205.33 59.3464C205.33 59.3464 205.879 59.9064 206.204 59.4248Z" fill="#263238"/>
<path d="M207.76 60.3566C207.609 61.2003 207.343 62.0195 206.971 62.7912C207.169 62.8828 207.385 62.9303 207.604 62.9303C207.822 62.9303 208.038 62.8828 208.236 62.7912L207.76 60.3566Z" fill="#DF5753"/>
<path d="M209.698 63.896C209.672 63.896 209.646 63.8853 209.627 63.8664C209.608 63.8474 209.598 63.8218 209.598 63.795C209.598 63.7682 209.608 63.7425 209.627 63.7236C209.646 63.7047 209.672 63.694 209.698 63.694C210.127 63.619 210.532 63.4438 210.88 63.1826C211.229 62.9213 211.511 62.5815 211.703 62.1906C211.708 62.1781 211.716 62.1667 211.726 62.1571C211.735 62.1475 211.746 62.1399 211.759 62.1346C211.771 62.1294 211.785 62.1267 211.798 62.1267C211.812 62.1267 211.825 62.1293 211.838 62.1345C211.85 62.1396 211.862 62.1472 211.871 62.1568C211.881 62.1663 211.888 62.1777 211.893 62.1902C211.899 62.2027 211.901 62.2161 211.901 62.2296C211.901 62.2432 211.899 62.2566 211.894 62.2691C211.691 62.6936 211.389 63.063 211.014 63.3462C210.639 63.6293 210.201 63.8179 209.738 63.896H209.698Z" fill="#263238"/>
<path d="M206.08 54.09C206.08 54.09 209.726 59.6269 216.446 60.3562C216.446 60.3562 223.384 54.0452 219.117 49.6695C212.207 42.5899 203.963 51.6105 206.08 54.09Z" fill="#263238"/>
<path d="M218.126 60.0705C218.117 60.4825 218.026 60.8887 217.859 61.2653C217.692 61.6418 217.451 61.9813 217.152 62.2639C216.346 63.0212 215.438 62.421 215.237 61.3944C215.058 60.4688 215.237 58.9653 216.273 58.5895C216.496 58.5142 216.735 58.4963 216.967 58.5374C217.199 58.5784 217.418 58.6771 217.602 58.8243C217.786 58.9716 217.931 59.1629 218.023 59.3805C218.114 59.5982 218.15 59.8354 218.126 60.0705Z" fill="#E58A7B"/>
<path d="M211.389 57.7253C211.338 57.7259 211.289 57.708 211.249 57.6748C211.062 57.4977 210.836 57.3674 210.588 57.2943C210.341 57.2212 210.08 57.2074 209.827 57.2541C209.801 57.2617 209.774 57.2639 209.747 57.2606C209.72 57.2573 209.694 57.2486 209.67 57.235C209.646 57.2214 209.626 57.2031 209.61 57.1813C209.593 57.1595 209.582 57.1347 209.575 57.1082C209.561 57.0554 209.569 56.9993 209.596 56.9521C209.623 56.9048 209.668 56.8703 209.721 56.8558C210.04 56.7902 210.371 56.8023 210.684 56.8912C210.998 56.98 211.286 57.1429 211.524 57.3663C211.562 57.4051 211.584 57.4575 211.584 57.5121C211.584 57.5667 211.562 57.6191 211.524 57.658C211.489 57.6969 211.441 57.7211 211.389 57.7253Z" fill="#263238"/>
<path d="M204.479 58.5278C204.453 58.5336 204.426 58.5336 204.4 58.5278C204.375 58.5179 204.352 58.503 204.332 58.484C204.313 58.465 204.297 58.4422 204.287 58.4171C204.277 58.3919 204.271 58.3649 204.271 58.3376C204.272 58.3104 204.277 58.2835 204.288 58.2585C204.406 57.9541 204.596 57.6826 204.84 57.4668C205.085 57.251 205.378 57.0973 205.694 57.0187C205.72 57.013 205.747 57.0128 205.773 57.018C205.8 57.0233 205.825 57.0338 205.847 57.0491C205.869 57.0643 205.887 57.0839 205.902 57.1067C205.916 57.1294 205.925 57.1549 205.929 57.1814C205.935 57.208 205.935 57.2354 205.93 57.2621C205.925 57.2887 205.914 57.3141 205.899 57.3366C205.884 57.3591 205.864 57.3783 205.842 57.3931C205.819 57.4079 205.793 57.4179 205.767 57.4226C205.515 57.4874 205.282 57.6112 205.087 57.7838C204.893 57.9565 204.742 58.173 204.647 58.4156C204.631 58.4474 204.607 58.4745 204.578 58.4942C204.548 58.5139 204.514 58.5255 204.479 58.5278Z" fill="#263238"/>
<path d="M231.28 94.9914V94.4922C231.28 93.819 231.185 93.1738 231.118 92.5231C230.779 90.0036 230.243 87.5146 229.516 85.0789C228.813 82.6664 227.975 80.2953 227.007 77.9768L222.88 79.6598C223.715 81.8252 224.504 84.1084 225.227 86.3523C225.574 87.4743 225.904 88.5962 226.19 89.7182C226.475 90.8402 226.75 91.9621 226.946 93.0841L227.063 93.8302C226.677 93.7012 226.279 93.5609 225.876 93.3926C223.759 92.5287 221.598 91.4068 219.464 90.3297L218.227 92.1416C220.125 93.7935 222.172 95.2658 224.342 96.5397C224.925 96.8779 225.529 97.1777 226.151 97.4373C226.499 97.5888 226.859 97.7145 227.226 97.8132C227.444 97.8752 227.667 97.922 227.892 97.9534C228.191 97.9917 228.494 97.9917 228.794 97.9534C229.288 97.9099 229.76 97.7313 230.16 97.4373C230.658 97.0669 231.009 96.5325 231.151 95.9283C231.236 95.6232 231.28 95.3081 231.28 94.9914ZM228.267 94.1556H228.368C228.43 94.15 228.351 94.1612 228.239 94.1556H228.267Z" fill="#E58A7B"/>
<path d="M225.121 73.3377C226.885 73.8987 229.002 79.9573 229.002 79.9573L222.164 84.8603C222.164 84.8603 219.666 79.7834 220.411 77.5002C221.162 75.1216 223.094 72.7262 225.121 73.3377Z" fill="#246DFF"/>
<path opacity="0.5" d="M225.121 73.3377C226.885 73.8987 229.002 79.9573 229.002 79.9573L222.164 84.8603C222.164 84.8603 219.666 79.7834 220.411 77.5002C221.162 75.1216 223.094 72.7262 225.121 73.3377Z" fill="black"/>
<path d="M244.827 181.804C244.737 181.801 244.65 181.779 244.57 181.738C244.491 181.697 244.422 181.639 244.367 181.568C244.325 181.523 244.295 181.468 244.281 181.408C244.267 181.348 244.27 181.285 244.289 181.226C244.446 180.693 245.969 180.261 246.12 180.216C246.14 180.21 246.161 180.21 246.181 180.216C246.201 180.222 246.219 180.234 246.232 180.25C246.242 180.267 246.247 180.286 246.247 180.306C246.247 180.326 246.242 180.345 246.232 180.362C245.963 180.872 245.426 181.736 244.883 181.804H244.827ZM245.947 180.485C245.347 180.676 244.575 181.007 244.491 181.288C244.482 181.313 244.481 181.341 244.488 181.367C244.495 181.393 244.51 181.416 244.53 181.433C244.568 181.489 244.621 181.533 244.682 181.562C244.743 181.59 244.81 181.602 244.877 181.596C245.163 181.562 245.555 181.153 245.941 180.485H245.947Z" fill="#246DFF"/>
<path d="M245.465 180.502C245.018 180.549 244.569 180.422 244.211 180.149C244.159 180.086 244.131 180.006 244.131 179.925C244.131 179.843 244.159 179.763 244.211 179.7C244.256 179.636 244.313 179.582 244.379 179.541C244.446 179.501 244.52 179.475 244.597 179.464C245.213 179.392 246.165 180.199 246.205 180.239C246.219 180.249 246.23 180.264 246.236 180.281C246.242 180.298 246.243 180.317 246.238 180.334C246.236 180.352 246.228 180.369 246.216 180.383C246.204 180.397 246.189 180.407 246.171 180.413C245.942 180.477 245.704 180.507 245.465 180.502ZM244.704 179.661H244.637C244.587 179.667 244.539 179.683 244.497 179.709C244.454 179.735 244.418 179.771 244.39 179.812C244.318 179.919 244.346 179.981 244.39 180.02C244.575 180.261 245.426 180.351 245.947 180.261C245.598 179.956 245.175 179.749 244.721 179.661H244.704Z" fill="#246DFF"/>
<path d="M205.868 197.657C205.497 197.691 205.125 197.596 204.815 197.388C204.746 197.326 204.692 197.249 204.66 197.162C204.628 197.074 204.618 196.981 204.63 196.889C204.634 196.832 204.652 196.777 204.682 196.729C204.712 196.681 204.754 196.641 204.804 196.614C205.336 196.328 207.044 197.208 207.257 197.309C207.276 197.319 207.291 197.335 207.301 197.354C207.311 197.373 207.315 197.395 207.313 197.416C207.311 197.437 207.302 197.456 207.288 197.471C207.274 197.486 207.255 197.496 207.234 197.5C206.785 197.597 206.328 197.65 205.868 197.657ZM205.095 196.76C205.029 196.755 204.964 196.769 204.905 196.799C204.885 196.808 204.868 196.823 204.856 196.842C204.844 196.861 204.838 196.883 204.838 196.905C204.827 196.966 204.832 197.028 204.852 197.087C204.873 197.145 204.909 197.196 204.955 197.236C205.218 197.472 205.93 197.517 206.893 197.354C206.332 197.055 205.724 196.854 205.095 196.76Z" fill="#246DFF"/>
<path d="M207.2 197.506H207.156C206.64 197.27 205.621 196.339 205.7 195.823C205.7 195.705 205.8 195.559 206.086 195.531C206.187 195.52 206.289 195.53 206.385 195.561C206.482 195.592 206.57 195.643 206.646 195.71C207.206 196.165 207.296 197.332 207.296 197.393C207.298 197.411 207.296 197.428 207.289 197.444C207.282 197.46 207.271 197.474 207.256 197.483C207.241 197.497 207.221 197.504 207.2 197.506ZM206.17 195.744H206.108C205.918 195.744 205.907 195.834 205.901 195.862C205.856 196.154 206.545 196.894 207.072 197.214C207.033 196.719 206.836 196.249 206.512 195.873C206.418 195.795 206.302 195.75 206.181 195.744H206.17Z" fill="#246DFF"/>
<path d="M220.08 90.8292L218.624 86.3694L216.306 90.1224C216.306 90.1224 217.672 92.5514 219.475 92.5122L220.08 90.8292Z" fill="#E58A7B"/>
<path d="M215.584 84.3385L213.814 87.5866L216.29 90.1222L218.608 86.3693L215.584 84.3385Z" fill="#E58A7B"/>
<path d="M210.079 58.6623L209.211 58.5839C209.211 58.5839 209.76 59.1439 210.079 58.6623Z" fill="#263238"/>
<path d="M222.248 98.6323L222.702 100.214C222.763 100.332 222.618 100.461 222.41 100.461H204.3C204.138 100.461 204.009 100.383 203.998 100.282L203.841 98.7333C203.841 98.6211 203.964 98.5313 204.138 98.5313H221.962C222.015 98.5231 222.068 98.5281 222.118 98.5457C222.168 98.5633 222.212 98.5931 222.248 98.6323Z" fill="#263238"/>
<path d="M219.856 100.63H220.332C220.428 100.63 220.5 100.579 220.495 100.523L220.271 98.4697C220.271 98.408 220.181 98.3632 220.086 98.3632H219.61C219.515 98.3632 219.442 98.408 219.448 98.4697L219.672 100.523C219.677 100.579 219.761 100.63 219.856 100.63Z" fill="#246DFF"/>
<path opacity="0.6" d="M219.856 100.63H220.332C220.428 100.63 220.5 100.579 220.495 100.523L220.271 98.4697C220.271 98.408 220.181 98.3632 220.086 98.3632H219.61C219.515 98.3632 219.442 98.408 219.448 98.4697L219.672 100.523C219.677 100.579 219.761 100.63 219.856 100.63Z" fill="#FAFAFA"/>
<path d="M205.638 100.63H206.114C206.209 100.63 206.282 100.579 206.276 100.523L206.052 98.4697C206.052 98.408 205.962 98.3632 205.867 98.3632H205.391C205.296 98.3632 205.223 98.408 205.229 98.4697L205.453 100.523C205.458 100.579 205.52 100.63 205.638 100.63Z" fill="#246DFF"/>
<path opacity="0.6" d="M205.638 100.63H206.114C206.209 100.63 206.282 100.579 206.276 100.523L206.052 98.4697C206.052 98.408 205.962 98.3632 205.867 98.3632H205.391C205.296 98.3632 205.223 98.408 205.229 98.4697L205.453 100.523C205.458 100.579 205.52 100.63 205.638 100.63Z" fill="#FAFAFA"/>
<path d="M212.744 100.63H213.226C213.321 100.63 213.394 100.579 213.382 100.523L213.158 98.4697C213.158 98.408 213.069 98.3632 212.974 98.3632H212.498C212.402 98.3632 212.33 98.408 212.335 98.4697L212.559 100.523C212.575 100.558 212.601 100.588 212.634 100.607C212.667 100.626 212.706 100.634 212.744 100.63Z" fill="#246DFF"/>
<path opacity="0.6" d="M212.744 100.63H213.226C213.321 100.63 213.394 100.579 213.382 100.523L213.158 98.4697C213.158 98.408 213.069 98.3632 212.974 98.3632H212.498C212.402 98.3632 212.33 98.408 212.335 98.4697L212.559 100.523C212.575 100.558 212.601 100.588 212.634 100.607C212.667 100.626 212.706 100.634 212.744 100.63Z" fill="#FAFAFA"/>
<path d="M156.576 202.65H193.62C194.484 202.66 195.341 202.489 196.135 202.148C196.93 201.807 197.644 201.303 198.232 200.669C198.821 200.036 199.27 199.285 199.552 198.467C199.835 197.649 199.943 196.781 199.87 195.918L191.011 69.0013C190.857 67.1864 190.037 65.4933 188.708 64.2497C187.38 63.0061 185.638 62.3005 183.82 62.2695H146.776C145.912 62.2594 145.056 62.4303 144.262 62.7714C143.467 63.1125 142.753 63.6161 142.165 64.25C141.576 64.8839 141.126 65.634 140.844 66.4522C140.562 67.2704 140.454 68.1387 140.527 69.0013L149.386 195.924C149.541 197.738 150.362 199.429 151.69 200.672C153.018 201.914 154.759 202.619 156.576 202.65Z" fill="#246DFF"/>
<path opacity="0.2" d="M156.576 202.65H193.62C194.484 202.66 195.341 202.489 196.135 202.148C196.93 201.807 197.644 201.303 198.232 200.669C198.821 200.036 199.27 199.285 199.552 198.467C199.835 197.649 199.943 196.781 199.87 195.918L191.011 69.0013C190.857 67.1864 190.037 65.4933 188.708 64.2497C187.38 63.0061 185.638 62.3005 183.82 62.2695H146.776C145.912 62.2594 145.056 62.4303 144.262 62.7714C143.467 63.1125 142.753 63.6161 142.165 64.25C141.576 64.8839 141.126 65.634 140.844 66.4522C140.562 67.2704 140.454 68.1387 140.527 69.0013L149.386 195.924C149.541 197.738 150.362 199.429 151.69 200.672C153.018 201.914 154.759 202.619 156.576 202.65Z" fill="black"/>
<path d="M137.008 108.137L136.449 108.176L137.066 117.018L137.625 116.979L137.008 108.137Z" fill="#246DFF"/>
<path opacity="0.5" d="M137.008 108.137L136.449 108.176L137.066 117.018L137.625 116.979L137.008 108.137Z" fill="black"/>
<path d="M151.727 202.65H188.765C189.629 202.66 190.486 202.489 191.28 202.148C192.074 201.807 192.789 201.303 193.377 200.669C193.966 200.036 194.415 199.285 194.697 198.467C194.979 197.649 195.087 196.781 195.015 195.918L186.156 69.0013C186.002 67.1864 185.182 65.4933 183.853 64.2497C182.525 63.0061 180.783 62.3005 178.965 62.2695H141.927C141.063 62.2594 140.206 62.4303 139.412 62.7714C138.618 63.1125 137.903 63.6161 137.315 64.25C136.727 64.8839 136.277 65.634 135.995 66.4522C135.713 67.2704 135.605 68.1387 135.677 69.0013L144.536 195.918C144.69 197.733 145.511 199.426 146.839 200.67C148.167 201.913 149.909 202.619 151.727 202.65Z" fill="#246DFF"/>
<path opacity="0.5" d="M151.727 202.65H188.765C189.629 202.66 190.486 202.489 191.28 202.148C192.074 201.807 192.789 201.303 193.377 200.669C193.966 200.036 194.415 199.285 194.697 198.467C194.979 197.649 195.087 196.781 195.015 195.918L186.156 69.0013C186.002 67.1864 185.182 65.4933 183.853 64.2497C182.525 63.0061 180.783 62.3005 178.965 62.2695H141.927C141.063 62.2594 140.206 62.4303 139.412 62.7714C138.618 63.1125 137.903 63.6161 137.315 64.25C136.727 64.8839 136.277 65.634 135.995 66.4522C135.713 67.2704 135.605 68.1387 135.677 69.0013L144.536 195.918C144.69 197.733 145.511 199.426 146.839 200.67C148.167 201.913 149.909 202.619 151.727 202.65Z" fill="black"/>
<path d="M158.603 102.694H165.458C165.619 102.701 165.78 102.672 165.929 102.611C166.079 102.549 166.213 102.456 166.323 102.338C166.433 102.22 166.516 102.079 166.567 101.925C166.618 101.772 166.635 101.609 166.617 101.448L164.976 77.9433C164.948 77.6068 164.796 77.2929 164.55 77.0626C164.304 76.8323 163.98 76.7023 163.643 76.6979H156.8C156.639 76.692 156.479 76.721 156.33 76.7828C156.182 76.8446 156.048 76.9378 155.939 77.0559C155.829 77.1741 155.746 77.3146 155.696 77.4677C155.646 77.6208 155.629 77.783 155.647 77.9433L157.287 101.448C157.315 101.782 157.464 102.094 157.707 102.324C157.95 102.553 158.269 102.685 158.603 102.694Z" fill="#246DFF"/>
<path opacity="0.2" d="M158.603 102.694H165.458C165.619 102.701 165.78 102.672 165.929 102.611C166.079 102.549 166.213 102.456 166.323 102.338C166.433 102.22 166.516 102.079 166.567 101.925C166.618 101.772 166.635 101.609 166.617 101.448L164.976 77.9433C164.948 77.6068 164.796 77.2929 164.55 77.0626C164.304 76.8323 163.98 76.7023 163.643 76.6979H156.8C156.639 76.692 156.479 76.721 156.33 76.7828C156.182 76.8446 156.048 76.9378 155.939 77.0559C155.829 77.1741 155.746 77.3146 155.696 77.4677C155.646 77.6208 155.629 77.783 155.647 77.9433L157.287 101.448C157.315 101.782 157.464 102.094 157.707 102.324C157.95 102.553 158.269 102.685 158.603 102.694Z" fill="black"/>
<path d="M116.62 202.649H79.5762C78.7122 202.659 77.8556 202.488 77.0613 202.147C76.2671 201.806 75.5529 201.303 74.9644 200.669C74.3759 200.035 73.9262 199.285 73.6442 198.467C73.3621 197.648 73.254 196.78 73.3266 195.918L82.1858 69.0007C82.3407 67.1863 83.1615 65.4939 84.4896 64.2505C85.8177 63.0071 87.5587 62.3011 89.3762 62.2689H126.42C127.284 62.2588 128.141 62.4297 128.935 62.7708C129.729 63.1119 130.444 63.6155 131.032 64.2494C131.621 64.8833 132.07 65.6334 132.352 66.4516C132.634 67.2698 132.742 68.1381 132.67 69.0007L123.811 195.918C123.657 197.732 122.837 199.426 121.508 200.669C120.18 201.913 118.438 202.618 116.62 202.649Z" fill="#246DFF"/>
<path opacity="0.5" d="M116.62 202.649H79.5762C78.7122 202.659 77.8556 202.488 77.0613 202.147C76.2671 201.806 75.5529 201.303 74.9644 200.669C74.3759 200.035 73.9262 199.285 73.6442 198.467C73.3621 197.648 73.254 196.78 73.3266 195.918L82.1858 69.0007C82.3407 67.1863 83.1615 65.4939 84.4896 64.2505C85.8177 63.0071 87.5587 62.3011 89.3762 62.2689H126.42C127.284 62.2588 128.141 62.4297 128.935 62.7708C129.729 63.1119 130.444 63.6155 131.032 64.2494C131.621 64.8833 132.07 65.6334 132.352 66.4516C132.634 67.2698 132.742 68.1381 132.67 69.0007L123.811 195.918C123.657 197.732 122.837 199.426 121.508 200.669C120.18 201.913 118.438 202.618 116.62 202.649Z" fill="black"/>
<path d="M101.041 60.3002H98.9521V60.8602H101.041V60.3002Z" fill="#246DFF"/>
<path opacity="0.3" d="M101.041 60.3002H98.9521V60.8602H101.041V60.3002Z" fill="black"/>
<path d="M95.2055 60.3002H88.6367V60.8602H95.2055V60.3002Z" fill="#246DFF"/>
<path opacity="0.3" d="M95.2055 60.3002H88.6367V60.8602H95.2055V60.3002Z" fill="black"/>
<path d="M111.765 202.649H74.7266C73.8626 202.659 73.0059 202.488 72.2117 202.147C71.4175 201.806 70.7033 201.303 70.1148 200.669C69.5263 200.035 69.0766 199.285 68.7946 198.467C68.5125 197.648 68.4044 196.78 68.477 195.918L77.3362 69.0007C77.4899 67.1858 78.3103 65.4927 79.6387 64.2491C80.967 63.0055 82.7088 62.2998 84.5266 62.2689H121.565C122.429 62.2588 123.286 62.4297 124.08 62.7708C124.874 63.1119 125.588 63.6155 126.177 64.2494C126.765 64.8833 127.215 65.6334 127.497 66.4516C127.779 67.2698 127.887 68.1381 127.815 69.0007L118.955 195.918C118.802 197.732 117.981 199.426 116.653 200.669C115.325 201.913 113.583 202.618 111.765 202.649Z" fill="#246DFF"/>
<path opacity="0.3" d="M111.765 202.649H74.7266C73.8626 202.659 73.0059 202.488 72.2117 202.147C71.4175 201.806 70.7033 201.303 70.1148 200.669C69.5263 200.035 69.0766 199.285 68.7946 198.467C68.5125 197.648 68.4044 196.78 68.477 195.918L77.3362 69.0007C77.4899 67.1858 78.3103 65.4927 79.6387 64.2491C80.967 63.0055 82.7088 62.2998 84.5266 62.2689H121.565C122.429 62.2588 123.286 62.4297 124.08 62.7708C124.874 63.1119 125.588 63.6155 126.177 64.2494C126.765 64.8833 127.215 65.6334 127.497 66.4516C127.779 67.2698 127.887 68.1381 127.815 69.0007L118.955 195.918C118.802 197.732 117.981 199.426 116.653 200.669C115.325 201.913 113.583 202.618 111.765 202.649Z" fill="black"/>
<path d="M117.32 195.345H68.5493C68.4324 195.345 68.3168 195.32 68.2097 195.273C68.1026 195.227 68.0062 195.158 67.9265 195.072C67.8467 194.987 67.7853 194.886 67.7461 194.775C67.7068 194.665 67.6905 194.548 67.6981 194.431L76.3277 70.7959C76.3433 70.5791 76.4404 70.3763 76.5995 70.2285C76.7585 70.0806 76.9676 69.9987 77.1845 69.9993H125.949C126.067 69.999 126.183 70.0229 126.291 70.0695C126.398 70.1161 126.496 70.1844 126.576 70.2702C126.656 70.3559 126.718 70.4573 126.758 70.568C126.797 70.6787 126.814 70.7963 126.806 70.9137L118.16 194.549C118.146 194.763 118.051 194.964 117.896 195.112C117.74 195.26 117.534 195.343 117.32 195.345Z" fill="#246DFF"/>
<path opacity="0.9" d="M117.32 195.345H68.5493C68.4324 195.345 68.3168 195.32 68.2097 195.273C68.1026 195.227 68.0062 195.158 67.9265 195.072C67.8467 194.987 67.7853 194.886 67.7461 194.775C67.7068 194.665 67.6905 194.548 67.6981 194.431L76.3277 70.7959C76.3433 70.5791 76.4404 70.3763 76.5995 70.2285C76.7585 70.0806 76.9676 69.9987 77.1845 69.9993H125.949C126.067 69.999 126.183 70.0229 126.291 70.0695C126.398 70.1161 126.496 70.1844 126.576 70.2702C126.656 70.3559 126.718 70.4573 126.758 70.568C126.797 70.6787 126.814 70.7963 126.806 70.9137L118.16 194.549C118.146 194.763 118.051 194.964 117.896 195.112C117.74 195.26 117.534 195.343 117.32 195.345Z" fill="#FAFAFA"/>
<path d="M116.133 82.6555H84.4763C83.6158 82.6704 82.7913 83.0044 82.1624 83.593C81.5335 84.1815 81.1448 84.9828 81.0715 85.8418L77.7731 133.077C77.7387 133.485 77.79 133.897 77.9238 134.284C78.0575 134.672 78.2707 135.027 78.5497 135.327C78.8287 135.627 79.1673 135.866 79.5438 136.027C79.9202 136.188 80.3261 136.268 80.7355 136.263H82.9307L81.8107 139.724C84.4007 139.491 86.7957 138.248 88.4803 136.263H112.392C113.253 136.248 114.077 135.914 114.706 135.326C115.335 134.737 115.724 133.936 115.797 133.077L119.095 85.8418C119.129 85.4334 119.077 85.0224 118.943 84.6352C118.809 84.248 118.596 83.8931 118.317 83.5932C118.038 83.2933 117.7 83.055 117.324 82.8935C116.948 82.732 116.542 82.6509 116.133 82.6555Z" fill="#246DFF"/>
<path opacity="0.6" d="M116.133 82.6555H84.4763C83.6158 82.6704 82.7913 83.0044 82.1624 83.593C81.5335 84.1815 81.1448 84.9828 81.0715 85.8418L77.7731 133.077C77.7387 133.485 77.79 133.897 77.9238 134.284C78.0575 134.672 78.2707 135.027 78.5497 135.327C78.8287 135.627 79.1673 135.866 79.5438 136.027C79.9202 136.188 80.3261 136.268 80.7355 136.263H82.9307L81.8107 139.724C84.4007 139.491 86.7957 138.248 88.4803 136.263H112.392C113.253 136.248 114.077 135.914 114.706 135.326C115.335 134.737 115.724 133.936 115.797 133.077L119.095 85.8418C119.129 85.4334 119.077 85.0224 118.943 84.6352C118.809 84.248 118.596 83.8931 118.317 83.5932C118.038 83.2933 117.7 83.055 117.324 82.8935C116.948 82.732 116.542 82.6509 116.133 82.6555Z" fill="#FAFAFA"/>
<path d="M80.0805 145.771H111.737C112.147 145.766 112.553 145.847 112.929 146.008C113.305 146.169 113.644 146.407 113.923 146.707C114.202 147.007 114.415 147.363 114.549 147.75C114.683 148.138 114.734 148.549 114.7 148.958L113.283 169.249C113.21 170.108 112.821 170.909 112.192 171.498C111.563 172.086 110.739 172.42 109.878 172.435H107.677L108.293 175.896C107.079 175.795 105.901 175.433 104.838 174.836C103.775 174.239 102.853 173.42 102.133 172.435H78.2101C77.8008 172.44 77.3948 172.36 77.0184 172.199C76.642 172.038 76.3034 171.799 76.0244 171.499C75.7454 171.199 75.5321 170.844 75.3984 170.456C75.2646 170.069 75.2133 169.657 75.2477 169.249L76.6645 148.958C76.738 148.097 77.1283 147.294 77.7596 146.705C78.3908 146.116 79.218 145.784 80.0805 145.771Z" fill="#246DFF"/>
<path opacity="0.6" d="M80.0805 145.771H111.737C112.147 145.766 112.553 145.847 112.929 146.008C113.305 146.169 113.644 146.407 113.923 146.707C114.202 147.007 114.415 147.363 114.549 147.75C114.683 148.138 114.734 148.549 114.7 148.958L113.283 169.249C113.21 170.108 112.821 170.909 112.192 171.498C111.563 172.086 110.739 172.42 109.878 172.435H107.677L108.293 175.896C107.079 175.795 105.901 175.433 104.838 174.836C103.775 174.239 102.853 173.42 102.133 172.435H78.2101C77.8008 172.44 77.3948 172.36 77.0184 172.199C76.642 172.038 76.3034 171.799 76.0244 171.499C75.7454 171.199 75.5321 170.844 75.3984 170.456C75.2646 170.069 75.2133 169.657 75.2477 169.249L76.6645 148.958C76.738 148.097 77.1283 147.294 77.7596 146.705C78.3908 146.116 79.218 145.784 80.0805 145.771Z" fill="#FAFAFA"/>
<path d="M108.668 65.82C108.646 66.1044 108.519 66.3704 108.312 66.5664C108.105 66.7623 107.833 66.8742 107.548 66.8803C107.412 66.8824 107.276 66.8558 107.151 66.8022C107.026 66.7487 106.913 66.6694 106.82 66.5695C106.727 66.4696 106.656 66.3512 106.612 66.2221C106.567 66.093 106.55 65.956 106.562 65.82C106.587 65.5365 106.714 65.2719 106.921 65.0765C107.127 64.881 107.398 64.7683 107.682 64.7598C107.819 64.7577 107.954 64.7843 108.079 64.8378C108.204 64.8913 108.317 64.9706 108.41 65.0705C108.503 65.1705 108.574 65.2888 108.618 65.4179C108.663 65.547 108.68 65.684 108.668 65.82Z" fill="#246DFF"/>
<path opacity="0.5" d="M108.668 65.82C108.646 66.1044 108.519 66.3704 108.312 66.5664C108.105 66.7623 107.833 66.8742 107.548 66.8803C107.412 66.8824 107.276 66.8558 107.151 66.8022C107.026 66.7487 106.913 66.6694 106.82 66.5695C106.727 66.4696 106.656 66.3512 106.612 66.2221C106.567 66.093 106.55 65.956 106.562 65.82C106.587 65.5365 106.714 65.2719 106.921 65.0765C107.127 64.881 107.398 64.7683 107.682 64.7598C107.819 64.7577 107.954 64.7843 108.079 64.8378C108.204 64.8913 108.317 64.9706 108.41 65.0705C108.503 65.1705 108.574 65.2888 108.618 65.4179C108.663 65.547 108.68 65.684 108.668 65.82Z" fill="black"/>
<path d="M103.214 66.8802H95.8276C95.6916 66.8814 95.5568 66.8542 95.4318 66.8004C95.3068 66.7466 95.1944 66.6673 95.1017 66.5675C95.009 66.4678 94.938 66.3498 94.8933 66.2211C94.8486 66.0924 94.8311 65.9558 94.842 65.8199C94.8654 65.536 94.9927 65.2707 95.1994 65.075C95.4061 64.8793 95.6777 64.767 95.962 64.7597H103.348C103.484 64.7585 103.619 64.7856 103.744 64.8395C103.869 64.8933 103.982 64.9726 104.074 65.0723C104.167 65.1721 104.238 65.29 104.283 65.4188C104.327 65.5475 104.345 65.6841 104.334 65.8199C104.311 66.1039 104.183 66.3692 103.977 66.5649C103.77 66.7606 103.498 66.8729 103.214 66.8802Z" fill="#246DFF"/>
<path opacity="0.5" d="M103.214 66.8802H95.8276C95.6916 66.8814 95.5568 66.8542 95.4318 66.8004C95.3068 66.7466 95.1944 66.6673 95.1017 66.5675C95.009 66.4678 94.938 66.3498 94.8933 66.2211C94.8486 66.0924 94.8311 65.9558 94.842 65.8199C94.8654 65.536 94.9927 65.2707 95.1994 65.075C95.4061 64.8793 95.6777 64.767 95.962 64.7597H103.348C103.484 64.7585 103.619 64.7856 103.744 64.8395C103.869 64.8933 103.982 64.9726 104.074 65.0723C104.167 65.1721 104.238 65.29 104.283 65.4188C104.327 65.5475 104.345 65.6841 104.334 65.8199C104.311 66.1039 104.183 66.3692 103.977 66.5649C103.77 66.7606 103.498 66.8729 103.214 66.8802Z" fill="black"/>
<path d="M63.7788 91.2554L64.658 92.9776C64.966 93.5386 65.2796 94.15 65.6044 94.7279C66.254 95.8891 66.9148 97.0391 67.6092 98.1555C68.9346 100.354 70.4526 102.431 72.1452 104.36C72.5652 104.781 73.0188 105.286 73.31 105.516C73.7169 105.844 74.1516 106.137 74.6092 106.391C75.6997 106.967 76.8345 107.455 78.0028 107.849C80.5202 108.686 83.0836 109.378 85.6804 109.919L85.5012 113.01C82.5849 113.182 79.6585 113.01 76.782 112.5C75.2494 112.234 73.7482 111.811 72.302 111.238C71.4973 110.916 70.7278 110.512 70.006 110.031C69.6324 109.782 69.2768 109.507 68.942 109.207L68.0572 108.427C65.9203 106.35 64.0231 104.039 62.4012 101.538C61.5892 100.321 60.822 99.0867 60.122 97.8189C59.7692 97.185 59.422 96.5454 59.0916 95.9003C58.7612 95.2552 58.4476 94.6269 58.1172 93.8976L63.7788 91.2554Z" fill="#E58A7B"/>
<path d="M84.5607 109.919L87.0527 108.157L88.3687 113.251C88.3687 113.251 86.1735 114.025 84.5215 112.909L84.5607 109.919Z" fill="#E58A7B"/>
<path d="M90.4909 107.002L91.3757 111.266L88.3629 113.252L87.0469 108.158L90.4909 107.002Z" fill="#E58A7B"/>
<path d="M106.322 102.486L105.644 102.363C104.936 102.24 104.21 102.284 103.522 102.492L101.567 103.086C102.565 101.021 102.939 98.7085 102.642 96.4332C102.407 94.7166 101.119 95.1092 101.119 95.1092C101.119 95.1092 99.2321 102.245 95.3121 104.983L94.0801 105.841L95.8385 118.413L97.2889 118.278C97.8489 118.278 101.035 118.278 103.09 118.278C103.694 118.252 104.285 118.09 104.818 117.805C105.351 117.519 105.813 117.117 106.17 116.629C107.218 115.24 107.817 113.565 107.89 111.827L108.259 105.976C108.349 104.248 107.52 102.694 106.322 102.486Z" fill="#246DFF"/>
<path opacity="0.9" d="M106.322 102.486L105.644 102.363C104.936 102.24 104.21 102.284 103.522 102.492L101.567 103.086C102.565 101.021 102.939 98.7085 102.642 96.4332C102.407 94.7166 101.119 95.1092 101.119 95.1092C101.119 95.1092 99.2321 102.245 95.3121 104.983L94.0801 105.841L95.8385 118.413L97.2889 118.278C97.8489 118.278 101.035 118.278 103.09 118.278C103.694 118.252 104.285 118.09 104.818 117.805C105.351 117.519 105.813 117.117 106.17 116.629C107.218 115.24 107.817 113.565 107.89 111.827L108.259 105.976C108.349 104.248 107.52 102.694 106.322 102.486Z" fill="#FAFAFA"/>
<path d="M90.3951 121.33L95.9167 120.124C96.3479 120.034 96.6503 119.439 96.5831 118.805L95.1439 104.405C95.0767 103.771 94.6735 103.333 94.2423 103.423L88.7207 104.629C88.2895 104.719 87.9871 105.314 88.0543 105.947L89.4935 120.348C89.5607 120.982 89.9639 121.419 90.3951 121.33Z" fill="#246DFF"/>
<path d="M79.7552 73.8591C79.688 74.1845 79.8056 74.4818 80.0184 74.5267C80.2312 74.5716 80.4608 74.3472 80.528 74.0218C80.5952 73.6964 80.4776 73.3935 80.2648 73.3486C80.052 73.3037 79.8224 73.5337 79.7552 73.8591Z" fill="#263238"/>
<path d="M79.778 74.476C79.9583 75.5512 80.2842 76.5969 80.7468 77.5838C80.493 77.6971 80.2173 77.7528 79.9395 77.747C79.6617 77.7412 79.3885 77.6739 79.1396 77.5501L79.778 74.476Z" fill="#DF5753"/>
<path d="M80.6403 71.8675C80.6023 71.8669 80.5653 71.8552 80.5339 71.8339C80.3189 71.7173 80.0795 71.6535 79.8351 71.6476C79.5908 71.6418 79.3485 71.6941 79.1283 71.8002C79.0814 71.8213 79.0282 71.8231 78.98 71.8053C78.9319 71.7874 78.8926 71.7514 78.8707 71.7048C78.8597 71.6814 78.8535 71.6559 78.8526 71.63C78.8518 71.604 78.8562 71.5782 78.8656 71.5541C78.8751 71.5299 78.8893 71.5079 78.9075 71.4895C78.9257 71.471 78.9475 71.4565 78.9715 71.4468C79.2506 71.3136 79.5576 71.2497 79.8666 71.2604C80.1756 71.2712 80.4774 71.3563 80.7467 71.5085C80.7684 71.5221 80.7872 71.54 80.8018 71.5611C80.8165 71.5822 80.8267 71.606 80.8319 71.6312C80.8372 71.6563 80.8373 71.6823 80.8322 71.7075C80.8272 71.7326 80.8172 71.7566 80.8027 71.7778C80.7855 71.8053 80.7616 71.8281 80.7331 71.8438C80.7047 71.8595 80.6727 71.8677 80.6403 71.8675Z" fill="#263238"/>
<path d="M68.2304 74.9025C68.7904 77.9149 69.4064 83.4406 67.3008 85.449C67.3008 85.449 68.124 88.5119 73.7184 88.5119C79.8784 88.5119 76.6528 85.449 76.6528 85.449C73.2928 84.6467 73.388 82.156 73.9704 79.8391L68.2304 74.9025Z" fill="#E58A7B"/>
<path d="M66.4502 86.3129C66.047 85.3255 66.1142 83.5079 66.411 83.4799C67.5758 83.4014 73.7918 83.3845 75.847 84.1755C76.1188 84.2614 76.3708 84.4005 76.5885 84.5849C76.8061 84.7692 76.985 84.995 77.1148 85.2493C77.2445 85.5035 77.3225 85.781 77.3443 86.0656C77.366 86.3503 77.331 86.6365 77.2414 86.9075L66.4502 86.3129Z" fill="#246DFF"/>
<path d="M52.7134 199.149C52.3519 199.147 51.9916 199.107 51.6382 199.031C51.6201 199.028 51.6034 199.019 51.5903 199.006C51.5773 198.993 51.5686 198.976 51.5654 198.958C51.5629 198.939 51.5652 198.92 51.5721 198.902C51.5789 198.885 51.5901 198.869 51.6046 198.857C51.655 198.823 52.7918 198.049 53.391 198.184C53.4558 198.198 53.5168 198.226 53.5699 198.265C53.623 198.305 53.667 198.356 53.699 198.414C53.7478 198.482 53.774 198.563 53.774 198.647C53.774 198.73 53.7478 198.812 53.699 198.879C53.561 198.988 53.4026 199.068 53.2334 199.114C53.0641 199.16 52.8873 199.172 52.7134 199.149ZM51.9126 198.891C52.5286 198.992 53.3686 198.992 53.5478 198.756C53.5478 198.756 53.615 198.666 53.5478 198.509C53.5297 198.475 53.5042 198.445 53.4733 198.422C53.4423 198.399 53.4066 198.382 53.3686 198.375C52.8416 198.401 52.3346 198.584 51.9126 198.902V198.891Z" fill="#246DFF"/>
<path d="M51.6604 199.048H51.61C51.5945 199.039 51.5819 199.026 51.5739 199.01C51.5659 198.994 51.5629 198.976 51.5652 198.959C51.5652 198.908 51.666 197.719 52.1252 197.326C52.1834 197.278 52.2505 197.243 52.3227 197.222C52.3948 197.2 52.4705 197.194 52.5452 197.203C52.6183 197.204 52.6887 197.23 52.7448 197.277C52.8008 197.324 52.8391 197.389 52.8532 197.461C52.9372 197.921 52.114 198.818 51.694 199.054L51.6604 199.048ZM52.4892 197.365C52.4087 197.366 52.3312 197.396 52.2708 197.449C51.9798 197.819 51.8097 198.27 51.7836 198.74C52.2036 198.42 52.73 197.741 52.6796 197.466C52.6796 197.466 52.6796 197.382 52.534 197.365H52.4892Z" fill="#246DFF"/>
<path d="M46.9111 198.947H51.0271L54.8183 189.405H50.7079L46.9111 198.947Z" fill="#E58A7B"/>
<path d="M51.3522 198.47H46.7322C46.6497 198.471 46.5699 198.499 46.5058 198.551C46.4417 198.603 46.3972 198.676 46.3794 198.756L45.5674 202.419C45.5488 202.509 45.5506 202.601 45.5726 202.689C45.5946 202.778 45.6362 202.86 45.6943 202.93C45.7524 203 45.8256 203.056 45.9083 203.094C45.9911 203.132 46.0813 203.151 46.1722 203.149C47.785 203.121 48.569 203.025 50.6018 203.025C51.8506 203.025 54.4266 203.16 56.157 203.16C57.8874 203.16 58.1058 201.477 57.4002 201.292C54.2306 200.596 53.0378 199.637 52.0242 198.728C51.8401 198.561 51.6005 198.469 51.3522 198.47Z" fill="#263238"/>
<path d="M84.8459 89.4602C86.0723 91.7041 87.2819 94.0042 88.4747 96.2818L92.0475 103.12L92.9435 104.803C93.133 105.211 93.3578 105.601 93.6155 105.97C94.2411 106.725 95.0004 107.359 95.8555 107.838C97.9251 109.021 100.124 109.962 102.407 110.643L102.06 113.717C101.358 113.732 100.655 113.71 99.9547 113.65C99.2584 113.605 98.565 113.525 97.8771 113.409C96.4532 113.189 95.0579 112.812 93.7163 112.287C92.1883 111.712 90.7907 110.836 89.6059 109.712C89.0163 109.1 88.4996 108.423 88.0659 107.692L87.0131 106.009C85.6355 103.765 84.3083 101.51 83.0315 99.2438C81.7603 96.9606 80.5283 94.6717 79.3467 92.3324L84.8459 89.4602Z" fill="#E58A7B"/>
<path d="M56.8626 88.8655C55.1826 92.4614 60.553 103.816 60.553 103.816L69.7258 99.5523C68.7248 96.3308 67.4779 93.1913 65.9962 90.1614C63.5994 85.3986 58.565 85.1911 56.8626 88.8655Z" fill="#246DFF"/>
<path opacity="0.8" d="M56.8626 88.8655C55.1826 92.4614 60.553 103.816 60.553 103.816L69.7258 99.5523C68.7248 96.3308 67.4779 93.1913 65.9962 90.1614C63.5994 85.3986 58.565 85.1911 56.8626 88.8655Z" fill="#FAFAFA"/>
<path d="M61.7849 89.6001L59.7129 101.914C60.2057 103.075 60.5529 103.815 60.5529 103.815L69.7257 99.5519C69.7257 99.5519 65.5817 92.377 61.7849 89.6001Z" fill="#246DFF"/>
<path opacity="0.7" d="M61.7849 89.6001L59.7129 101.914C60.2057 103.075 60.5529 103.815 60.5529 103.815L69.7257 99.5519C69.7257 99.5519 65.5817 92.377 61.7849 89.6001Z" fill="#FAFAFA"/>
<path d="M82.9805 86.5933C82.9805 86.5933 87.3597 91.5524 83.2269 122.216H61.2245C61.0677 118.85 63.1901 102.329 59.9365 86.3802C62.3686 85.911 64.8284 85.6 67.3005 85.4489C70.4153 85.2693 73.5378 85.2693 76.6525 85.4489C78.788 85.6677 80.9035 86.0503 82.9805 86.5933Z" fill="#246DFF"/>
<path opacity="0.8" d="M82.9805 86.5933C82.9805 86.5933 87.3597 91.5524 83.2269 122.216H61.2245C61.0677 118.85 63.1901 102.329 59.9365 86.3802C62.3686 85.911 64.8284 85.6 67.3005 85.4489C70.4153 85.2693 73.5378 85.2693 76.6525 85.4489C78.788 85.6677 80.9035 86.0503 82.9805 86.5933Z" fill="#FAFAFA"/>
<path d="M84.7566 93.8917L81.3574 102.306L84.7566 107.26C85.0926 102.81 85.0926 98.3414 84.7566 93.8917Z" fill="#246DFF"/>
<path opacity="0.7" d="M84.7566 93.8917L81.3574 102.306L84.7566 107.26C85.0926 102.81 85.0926 98.3414 84.7566 93.8917Z" fill="#FAFAFA"/>
<path d="M77.6279 89.3139C76.2727 93.0164 81.7159 104.247 81.7159 104.247L91.5719 99.2714C90.3093 95.905 88.6911 92.6834 86.7447 89.6617C83.7935 85.3422 79.1175 85.2692 77.6279 89.3139Z" fill="#246DFF"/>
<path opacity="0.8" d="M77.6279 89.3139C76.2727 93.0164 81.7159 104.247 81.7159 104.247L91.5719 99.2714C90.3093 95.905 88.6911 92.6834 86.7447 89.6617C83.7935 85.3422 79.1175 85.2692 77.6279 89.3139Z" fill="#FAFAFA"/>
<path d="M101.59 110.789L105.622 109.173L106.742 114.042C106.742 114.042 103.539 115.204 101.209 113.515L101.59 110.789Z" fill="#E58A7B"/>
<path d="M110.068 109.223L109.447 113.577L106.736 114.042L105.622 109.173L110.068 109.223Z" fill="#E58A7B"/>
<path d="M50.7024 189.41H54.8184L52.0912 196.265L48.2832 195.491L50.7024 189.41Z" fill="#CF6F64"/>
<path d="M69.065 70.9084C68.505 74.9531 67.945 77.2924 69.5186 79.7664C71.9098 83.4857 77.213 82.6835 78.9938 78.8912C80.601 75.4805 81.2898 69.4331 77.717 67.0264C76.9291 66.5001 76.0209 66.1825 75.0771 66.1033C74.1334 66.0241 73.1851 66.186 72.3208 66.5738C71.4565 66.9616 70.7045 67.5626 70.1351 68.3207C69.5657 69.0788 69.1975 69.9691 69.065 70.9084Z" fill="#E58A7B"/>
<path d="M84.5886 64.1091C81.1054 60.8835 83.8606 60.0644 83.8606 60.0644C83.8606 60.0644 80.0414 58.4824 81.5534 61.8708C83.6646 66.5943 77.751 65.1413 74.9174 61.8708C73.1702 59.8512 68.5726 61.9213 68.7966 63.8903C69.0206 65.8594 61.7966 64.3335 65.067 68.6306C65.1286 73.1185 66.8702 77.483 69.183 78.6666C73.1478 80.6918 76.1214 75.0258 77.2302 70.4875C83.211 73.3653 88.195 67.447 84.5886 64.1091Z" fill="#263238"/>
<path d="M74.2061 73.1915C74.2286 74.2124 74.5846 75.1977 75.2197 75.9964C76.0653 77.0286 77.0285 76.462 77.2525 75.2671C77.4541 74.1901 77.2525 72.3556 76.1885 71.7554C75.1245 71.1551 74.2005 71.9686 74.2061 73.1915Z" fill="#E58A7B"/>
<path d="M65.1055 64.429C66.9027 64.3606 68.6655 64.9353 70.0783 66.0503C70.0783 66.0503 69.0647 61.7083 65.1055 64.429Z" fill="#263238"/>
<path d="M73.5902 122.216C73.5902 122.216 74.4134 138.911 77.4542 153.631C78.423 158.293 77.7902 163.285 75.063 167.184C67.0494 178.634 54.343 193.881 54.343 193.881L47.6846 193.135C47.6846 193.135 58.4646 173.114 63.9862 163.168C65.2406 160.924 66.3494 158.87 65.403 156.436C56.2582 133.183 61.203 122.216 61.203 122.216H73.5902Z" fill="#246DFF"/>
<path opacity="0.3" d="M73.5902 122.216C73.5902 122.216 74.4134 138.911 77.4542 153.631C78.423 158.293 77.7902 163.285 75.063 167.184C67.0494 178.634 54.343 193.881 54.343 193.881L47.6846 193.135C47.6846 193.135 58.4646 173.114 63.9862 163.168C65.2406 160.924 66.3494 158.87 65.403 156.436C56.2582 133.183 61.203 122.216 61.203 122.216H73.5902Z" fill="black"/>
<path d="M74.8278 136.644L68.455 129.026C68.2142 132.443 70.275 145.222 77.3422 153.075C76.2166 147.539 75.4046 141.699 74.8278 136.644Z" fill="#246DFF"/>
<path opacity="0.4" d="M74.8278 136.644L68.455 129.026C68.2142 132.443 70.275 145.222 77.3422 153.075C76.2166 147.539 75.4046 141.699 74.8278 136.644Z" fill="black"/>
<path d="M56.2183 192.866L54.9135 195.57L46.8887 193.506L47.5271 190.998L56.2183 192.866Z" fill="#246DFF"/>
<path opacity="0.1" d="M56.2183 192.866L54.9135 195.57L46.8887 193.506L47.5271 190.998L56.2183 192.866Z" fill="black"/>
<path d="M80.1309 198.947H84.2413L85.4453 189.405H81.3349L80.1309 198.947Z" fill="#E58A7B"/>
<path d="M86.0446 199.149C85.62 199.149 85.1963 199.11 84.779 199.031C84.7594 199.028 84.7413 199.019 84.7272 199.005C84.7131 198.991 84.7038 198.973 84.7006 198.953C84.6972 198.933 84.7002 198.912 84.7093 198.894C84.7183 198.876 84.7329 198.861 84.751 198.852C84.8126 198.818 86.2462 197.999 86.935 198.184C86.9993 198.199 87.0599 198.228 87.1129 198.267C87.1659 198.307 87.2101 198.357 87.243 198.414C87.2868 198.477 87.3104 198.551 87.3104 198.627C87.3104 198.704 87.2868 198.778 87.243 198.841C87.0806 199.088 86.571 199.149 86.0446 199.149ZM85.0926 198.891C85.8654 198.998 86.907 198.981 87.0918 198.723C87.0918 198.689 87.1422 198.633 87.0918 198.51C87.0713 198.475 87.0437 198.445 87.0109 198.422C86.9781 198.399 86.9408 198.383 86.9014 198.375C86.459 198.268 85.5966 198.644 85.1206 198.902L85.0926 198.891Z" fill="#246DFF"/>
<path d="M84.7955 199.048C84.7771 199.053 84.7578 199.053 84.7395 199.048C84.7266 199.037 84.7164 199.024 84.7096 199.008C84.7028 198.992 84.6996 198.976 84.7003 198.959C84.7003 198.908 84.8179 197.797 85.3387 197.371C85.4144 197.304 85.5036 197.255 85.6003 197.225C85.697 197.196 85.7987 197.189 85.8987 197.203C86.1675 197.231 86.2403 197.365 86.2571 197.478C86.3355 197.943 85.3499 198.835 84.8571 199.054L84.7955 199.048ZM85.8035 197.365C85.6776 197.365 85.5559 197.411 85.4619 197.494C85.1501 197.85 84.9546 198.292 84.9019 198.762C85.4115 198.459 86.0779 197.758 86.0219 197.478C86.0219 197.478 86.0219 197.388 85.8315 197.365H85.8035Z" fill="#246DFF"/>
<path d="M84.359 198.47H79.879C79.797 198.47 79.7174 198.498 79.654 198.551C79.5907 198.603 79.5474 198.675 79.5318 198.756L78.7142 202.419C78.6948 202.508 78.6956 202.599 78.7165 202.687C78.7374 202.776 78.7779 202.858 78.835 202.928C78.8921 202.998 78.9643 203.054 79.0462 203.093C79.128 203.131 79.2175 203.15 79.3078 203.149C80.9318 203.121 83.2726 203.025 85.3054 203.025C87.691 203.025 89.7462 203.16 92.5406 203.16C94.2206 203.16 94.6966 201.477 93.991 201.292C90.771 200.585 88.1446 200.512 85.3614 198.795C85.0654 198.593 84.7174 198.48 84.359 198.47Z" fill="#263238"/>
<path d="M81.335 189.41H85.451L84.5662 196.361L80.5342 195.738L81.335 189.41Z" fill="#CF6F64"/>
<path d="M83.227 122.216C83.227 122.216 86.671 133.75 92.3606 148.582C94.2142 153.406 94.931 158.051 93.643 162.135C89.6502 174.814 86.2006 193.881 86.2006 193.881L79.3406 193.135C79.3406 193.135 79.0774 173.686 81.5078 163.661C82.7566 158.517 82.331 156.643 81.0486 154.944C63.5766 131.657 68.2694 122.233 68.2694 122.233L83.227 122.216Z" fill="#246DFF"/>
<path opacity="0.3" d="M83.227 122.216C83.227 122.216 86.671 133.75 92.3606 148.582C94.2142 153.406 94.931 158.051 93.643 162.135C89.6502 174.814 86.2006 193.881 86.2006 193.881L79.3406 193.135C79.3406 193.135 79.0774 173.686 81.5078 163.661C82.7566 158.517 82.331 156.643 81.0486 154.944C63.5766 131.657 68.2694 122.233 68.2694 122.233L83.227 122.216Z" fill="black"/>
<path d="M87.3882 192.714L87.0298 195.452L78.9322 194.078L78.6914 191.576L87.3882 192.714Z" fill="#246DFF"/>
<path opacity="0.1" d="M87.3882 192.714L87.0298 195.452L78.9322 194.078L78.6914 191.576L87.3882 192.714Z" fill="black"/>
<path d="M146.905 52.5861H139.905V53.1461H146.905V52.5861Z" fill="#246DFF"/>
<path opacity="0.2" d="M146.905 52.5861H139.905V53.1461H146.905V52.5861Z" fill="black"/>
<path d="M126.471 29.4401H164.4C165.411 29.4415 166.38 29.8445 167.095 30.5606C167.809 31.2768 168.212 32.2476 168.213 33.2604V47.3635C168.212 48.3762 167.809 49.3471 167.095 50.0632C166.38 50.7793 165.411 51.1823 164.4 51.1838H161.768L162.792 55.3295C161.305 55.1939 159.861 54.7564 158.548 54.0437C157.234 53.331 156.08 52.3579 155.154 51.1838H126.471C125.46 51.1808 124.492 50.7774 123.777 50.0616C123.063 49.3458 122.66 48.3758 122.657 47.3635V33.2604C122.66 32.2481 123.063 31.2781 123.777 30.5623C124.492 29.8465 125.46 29.443 126.471 29.4401Z" fill="#246DFF"/>
<path opacity="0.2" d="M126.471 29.4401H164.4C165.411 29.4415 166.38 29.8445 167.095 30.5606C167.809 31.2768 168.212 32.2476 168.213 33.2604V47.3635C168.212 48.3762 167.809 49.3471 167.095 50.0632C166.38 50.7793 165.411 51.1823 164.4 51.1838H161.768L162.792 55.3295C161.305 55.1939 159.861 54.7564 158.548 54.0437C157.234 53.331 156.08 52.3579 155.154 51.1838H126.471C125.46 51.1808 124.492 50.7774 123.777 50.0616C123.063 49.3458 122.66 48.3758 122.657 47.3635V33.2604C122.66 32.2481 123.063 31.2781 123.777 30.5623C124.492 29.8465 125.46 29.443 126.471 29.4401Z" fill="black"/>
<path d="M147.398 9.63184H146.838V14.3048H147.398V9.63184Z" fill="#246DFF"/>
<path opacity="0.1" d="M147.398 9.63184H146.838V14.3048H147.398V9.63184Z" fill="#FAFAFA"/>
<path d="M141.624 3.48364H103.695C102.686 3.48511 101.719 3.88655 101.004 4.60025C100.29 5.31395 99.8863 6.28192 99.8818 7.29272V21.4071C99.8833 22.4198 100.286 23.3907 101 24.1068C101.715 24.8229 102.684 25.2259 103.695 25.2274H106.327L105.28 29.373C106.77 29.2425 108.218 28.809 109.535 28.0992C110.852 27.3893 112.011 26.4178 112.941 25.2442H141.624C142.635 25.2412 143.603 24.8378 144.318 24.122C145.032 23.4062 145.435 22.4362 145.438 21.4239V7.29272C145.432 6.28237 145.028 5.31526 144.314 4.60187C143.599 3.88849 142.633 3.48658 141.624 3.48364Z" fill="#246DFF"/>
<path opacity="0.1" d="M141.624 3.48364H103.695C102.686 3.48511 101.719 3.88655 101.004 4.60025C100.29 5.31395 99.8863 6.28192 99.8818 7.29272V21.4071C99.8833 22.4198 100.286 23.3907 101 24.1068C101.715 24.8229 102.684 25.2259 103.695 25.2274H106.327L105.28 29.373C106.77 29.2425 108.218 28.809 109.535 28.0992C110.852 27.3893 112.011 26.4178 112.941 25.2442H141.624C142.635 25.2412 143.603 24.8378 144.318 24.122C145.032 23.4062 145.435 22.4362 145.438 21.4239V7.29272C145.432 6.28237 145.028 5.31526 144.314 4.60187C143.599 3.88849 142.633 3.48658 141.624 3.48364Z" fill="#FAFAFA"/>
</svg>
