<svg width="280" height="210" viewBox="0 0 280 210" fill="none" xmlns="http://www.w3.org/2000/svg">
<path d="M140 210C199.966 210 248.578 207.156 248.578 203.647C248.578 200.138 199.966 197.293 140 197.293C80.0336 197.293 31.4214 200.138 31.4214 203.647C31.4214 207.156 80.0336 210 140 210Z" fill="#F5F5F5"/>
<path d="M249.979 33.1282H142.022V111.944H249.979V33.1282Z" fill="#263238"/>
<path d="M170.711 69.4633C170.158 69.4278 169.619 69.2788 169.126 69.0255C168.794 68.8711 168.446 68.7507 168.09 68.6663C167.72 68.6074 167.345 68.5849 166.97 68.599C166.428 68.642 165.884 68.5752 165.368 68.4025C164.876 68.1548 164.439 67.8113 164.08 67.3923C163.828 67.1214 163.553 66.8735 163.257 66.6514C162.936 66.4597 162.599 66.2963 162.249 66.1631C161.729 65.9949 161.249 65.7218 160.838 65.3606C160.48 64.9495 160.207 64.4704 160.037 63.9518C159.911 63.5986 159.748 63.2599 159.55 62.9416C159.333 62.6395 159.085 62.3611 158.811 62.1109C158.391 61.7545 158.05 61.315 157.808 60.82C157.637 60.3054 157.568 59.7618 157.607 59.2205C157.622 58.8452 157.602 58.4693 157.545 58.098C157.46 57.7421 157.338 57.396 157.181 57.0653C156.895 56.584 156.744 56.0343 156.744 55.4741C156.744 54.914 156.895 54.3642 157.181 53.883C157.337 53.55 157.459 53.2022 157.545 52.8447C157.602 52.4734 157.623 52.0975 157.607 51.7222C157.569 51.1791 157.637 50.6337 157.808 50.117C158.052 49.6247 158.393 49.1873 158.811 48.8317C159.085 48.5815 159.333 48.3031 159.55 48.0011C159.747 47.6821 159.91 47.3436 160.037 46.9908C160.208 46.4711 160.481 45.9905 160.838 45.5765C161.252 45.2204 161.732 44.9479 162.249 44.7739C162.601 44.6465 162.939 44.4829 163.257 44.2856C163.555 44.0703 163.831 43.8259 164.08 43.556C164.441 43.1415 164.879 42.8004 165.368 42.5514C165.884 42.3787 166.428 42.3119 166.97 42.3549C167.345 42.369 167.72 42.3465 168.09 42.2876C168.446 42.2032 168.794 42.0828 169.126 41.9284C169.619 41.6751 170.158 41.5261 170.711 41.4906C171.265 41.5267 171.806 41.6757 172.301 41.9284C172.631 42.0836 172.977 42.204 173.332 42.2876C173.702 42.3465 174.077 42.369 174.452 42.3549C174.993 42.3119 175.538 42.3787 176.053 42.5514C176.544 42.799 176.981 43.1403 177.341 43.556C177.823 44.1309 178.458 44.5571 179.172 44.7851C179.715 44.9181 180.211 45.1977 180.606 45.5936C181.001 45.9894 181.28 46.4863 181.412 47.0301C181.539 47.3829 181.703 47.7214 181.9 48.0404C182.116 48.3424 182.364 48.6208 182.639 48.871C183.057 49.2266 183.398 49.6639 183.641 50.1563C183.812 50.673 183.881 51.2183 183.843 51.7615C183.827 52.1368 183.847 52.5127 183.904 52.884C183.991 53.2414 184.113 53.5893 184.268 53.9223C184.554 54.4035 184.705 54.9533 184.705 55.5134C184.705 56.0736 184.554 56.6233 184.268 57.1046C184.112 57.4353 183.99 57.7814 183.904 58.1373C183.848 58.5086 183.827 58.8845 183.843 59.2598C183.881 59.8011 183.813 60.3447 183.641 60.8593C183.399 61.3543 183.058 61.7938 182.639 62.1502C182.364 62.4004 182.116 62.6788 181.9 62.9809C181.702 63.2992 181.538 63.6379 181.412 63.9911C181.277 64.5298 180.996 65.0209 180.601 65.4108C180.206 65.8007 179.712 66.0745 179.172 66.2024C178.823 66.3356 178.486 66.499 178.164 66.6907C177.869 66.9128 177.593 67.1607 177.341 67.4316C176.983 67.8506 176.545 68.194 176.053 68.4418C175.538 68.6145 174.993 68.6813 174.452 68.6383C174.077 68.6242 173.702 68.6467 173.332 68.7056C172.977 68.7892 172.631 68.9096 172.301 69.0648C171.803 69.3039 171.262 69.4395 170.711 69.4633ZM167.188 68.3408C167.509 68.3323 167.83 68.3548 168.146 68.4081C168.52 68.4974 168.884 68.6253 169.232 68.7898C169.678 69.0614 170.189 69.205 170.711 69.205C171.232 69.205 171.744 69.0614 172.189 68.7898C172.537 68.6253 172.901 68.4974 173.276 68.4081C173.668 68.3464 174.066 68.3239 174.463 68.3408C174.966 68.3814 175.473 68.3204 175.952 68.1612C176.409 67.9301 176.815 67.6095 177.145 67.2183C177.407 66.931 177.698 66.6715 178.013 66.4438C178.347 66.236 178.702 66.063 179.072 65.9274C179.554 65.7682 180.001 65.5166 180.388 65.1866C180.72 64.8015 180.972 64.3528 181.127 63.8676C181.264 63.4984 181.437 63.1432 181.642 62.8069C181.871 62.4891 182.132 62.1958 182.42 61.9313C182.809 61.5981 183.128 61.192 183.361 60.7359C183.518 60.2548 183.577 59.7472 183.535 59.2429C183.52 58.8467 183.544 58.45 183.608 58.0587C183.695 57.6731 183.821 57.2971 183.983 56.9362C184.254 56.4908 184.397 55.9791 184.397 55.4573C184.397 54.9355 184.254 54.4239 183.983 53.9784C183.822 53.6172 183.696 53.2413 183.608 52.8559C183.544 52.4646 183.52 52.0679 183.535 51.6717C183.577 51.1674 183.518 50.6598 183.361 50.1788C183.128 49.7226 182.809 49.3165 182.42 48.9833C182.132 48.7189 181.871 48.4255 181.642 48.1077C181.437 47.7714 181.264 47.4162 181.127 47.047C181.008 46.5466 180.753 46.0891 180.39 45.7255C180.027 45.3618 179.571 45.1062 179.072 44.9872C178.702 44.8516 178.347 44.6786 178.013 44.4708C177.699 44.2417 177.409 43.9822 177.145 43.6963C176.816 43.3034 176.41 42.9825 175.952 42.7534C175.473 42.5942 174.966 42.5332 174.463 42.5738C173.678 42.6417 172.89 42.4861 172.189 42.1248C171.744 41.8532 171.232 41.7096 170.711 41.7096C170.189 41.7096 169.678 41.8532 169.232 42.1248C168.532 42.4861 167.744 42.6417 166.959 42.5738C166.456 42.5352 165.95 42.5943 165.469 42.7478C165.012 42.9809 164.607 43.3034 164.276 43.6963C164.014 43.9836 163.723 44.2431 163.408 44.4708C163.074 44.6786 162.719 44.8516 162.35 44.9872C161.866 45.1435 161.419 45.3954 161.034 45.728C160.701 46.1131 160.45 46.5618 160.295 47.047C160.158 47.4167 159.986 47.772 159.78 48.1077C159.551 48.4255 159.29 48.7189 159.001 48.9833C158.611 49.3149 158.291 49.7214 158.06 50.1788C157.904 50.6598 157.845 51.1674 157.887 51.6717C157.902 52.0679 157.877 52.4646 157.814 52.8559C157.725 53.2413 157.599 53.6172 157.439 53.9784C157.168 54.4239 157.024 54.9355 157.024 55.4573C157.024 55.9791 157.168 56.4908 157.439 56.9362C157.6 57.2971 157.726 57.6731 157.814 58.0587C157.878 58.45 157.902 58.8467 157.887 59.2429C157.845 59.7472 157.904 60.2548 158.06 60.7359C158.293 61.192 158.613 61.5981 159.001 61.9313C159.29 62.1958 159.551 62.4891 159.78 62.8069C159.985 63.1432 160.157 63.4984 160.295 63.8676C160.451 64.3522 160.702 64.8007 161.034 65.1866C161.421 65.5166 161.868 65.7682 162.35 65.9274C162.719 66.063 163.074 66.236 163.408 66.4438C163.723 66.6715 164.014 66.931 164.276 67.2183C164.607 67.6095 165.013 67.9301 165.469 68.1612C165.949 68.3176 166.455 68.3786 166.959 68.3408H167.188Z" fill="white"/>
<path d="M170.711 63.3344C175.05 63.3344 178.568 59.8089 178.568 55.46C178.568 51.1112 175.05 47.5857 170.711 47.5857C166.372 47.5857 162.854 51.1112 162.854 55.46C162.854 59.8089 166.372 63.3344 170.711 63.3344Z" fill="white"/>
<path d="M176.322 47.7263C176.303 47.7272 176.285 47.7241 176.267 47.7173C176.25 47.7106 176.234 47.7003 176.221 47.6871C176.208 47.674 176.197 47.6583 176.189 47.6409C176.182 47.6236 176.178 47.6049 176.178 47.586C176.178 47.5672 176.182 47.5485 176.189 47.5312C176.197 47.5138 176.208 47.4981 176.221 47.485L182.381 41.3113C182.394 41.2981 182.41 41.2878 182.427 41.281C182.445 41.2742 182.463 41.2712 182.482 41.272H194.634C194.671 41.272 194.707 41.2868 194.733 41.3131C194.759 41.3394 194.774 41.3751 194.774 41.4123C194.774 41.4495 194.759 41.4852 194.733 41.5115C194.707 41.5378 194.671 41.5526 194.634 41.5526H182.538L176.4 47.6871C176.38 47.7093 176.352 47.7233 176.322 47.7263Z" fill="white"/>
<path d="M161.034 77.6518H148.882C148.845 77.6518 148.809 77.637 148.783 77.6107C148.756 77.5844 148.742 77.5487 148.742 77.5115C148.742 77.4743 148.756 77.4386 148.783 77.4123C148.809 77.3859 148.845 77.3712 148.882 77.3712H160.978L167.076 71.2591C167.103 71.2389 167.136 71.229 167.17 71.2314C167.204 71.2338 167.235 71.2483 167.259 71.2722C167.283 71.2961 167.297 71.3278 167.3 71.3615C167.302 71.3951 167.292 71.4286 167.272 71.4556L161.112 77.6293C161.088 77.6434 161.061 77.6511 161.034 77.6518Z" fill="white"/>
<path d="M201.723 41.7936C201.705 41.7938 201.686 41.7894 201.669 41.7805C201.653 41.7717 201.639 41.7588 201.628 41.743C201.607 41.7202 201.595 41.6901 201.595 41.6589C201.595 41.6276 201.607 41.5975 201.628 41.5747C202.11 41.2302 202.615 40.9207 203.14 40.6486C203.38 40.5053 203.651 40.4225 203.93 40.4073C204.199 40.4219 204.462 40.4987 204.697 40.6318C204.788 40.6758 204.882 40.7151 204.977 40.7496C205.772 41.0527 206.657 40.8226 207.581 40.5757C208.388 40.2947 209.247 40.1988 210.095 40.295C210.285 40.342 210.472 40.3982 210.655 40.4634L211.003 40.57C212.183 40.7987 213.398 40.7777 214.57 40.5083L215.32 40.4017C216.601 40.1489 217.926 40.2458 219.156 40.6823C219.313 40.7496 219.47 40.8282 219.621 40.9068C219.977 41.1172 220.371 41.2546 220.78 41.3109C221.249 41.3167 221.715 41.225 222.147 41.0415L222.595 40.8956C223.95 40.4971 225.445 40.643 226.89 40.7777H227.153C231.09 41.1425 235.05 41.1706 238.991 40.8619C239.007 40.8603 239.023 40.8619 239.037 40.8664C239.052 40.8709 239.066 40.8784 239.078 40.8883C239.09 40.8982 239.1 40.9104 239.107 40.9242C239.114 40.938 239.119 40.953 239.12 40.9685C239.123 41.0004 239.114 41.0323 239.094 41.0575C239.074 41.0826 239.046 41.099 239.014 41.1032C235.058 41.412 231.082 41.3838 227.131 41.019H226.867C225.445 40.8843 223.972 40.744 222.662 41.1313C222.516 41.1706 222.371 41.2211 222.225 41.2716C221.76 41.4641 221.261 41.5596 220.758 41.5522C220.319 41.4917 219.897 41.3448 219.515 41.1201C219.363 41.0415 219.218 40.9685 219.061 40.9012C217.869 40.4842 216.587 40.3932 215.348 40.6374L214.609 40.7496C213.402 41.0225 212.151 41.0416 210.935 40.8058L210.583 40.6935C210.4 40.6282 210.213 40.5757 210.023 40.5364C209.21 40.4453 208.386 40.5393 207.615 40.8114C206.691 41.0527 205.733 41.3053 204.859 40.9798L204.568 40.8507C204.359 40.7404 204.131 40.6718 203.896 40.6486C203.657 40.6646 203.424 40.7377 203.219 40.8619C202.704 41.1279 202.21 41.4318 201.74 41.7711C201.735 41.779 201.73 41.7865 201.723 41.7936Z" fill="white"/>
<path d="M222.942 45.0099C222.445 44.9781 221.957 44.8643 221.497 44.6732C221.026 44.4736 220.524 44.3578 220.013 44.3308C219.66 44.3511 219.31 44.4133 218.971 44.516C218.747 44.5828 218.519 44.6371 218.288 44.6788C217.676 44.7546 217.058 44.7546 216.446 44.6788H216.367C213.635 44.415 210.835 44.314 208.124 44.2129C207.189 44.1793 206.142 44.3308 206.013 44.8528C206.008 44.8767 205.996 44.8984 205.978 44.9146C205.959 44.9308 205.936 44.9406 205.912 44.9426C205.888 44.9457 205.863 44.9416 205.841 44.9306C205.819 44.9196 205.801 44.9023 205.789 44.8808C205.509 44.3701 204.641 44.1512 203.93 44.2017C203.18 44.2882 202.449 44.4987 201.768 44.8247C201.754 44.831 201.738 44.8343 201.722 44.8343C201.706 44.8343 201.69 44.8311 201.675 44.8248C201.661 44.8185 201.647 44.8093 201.636 44.7977C201.625 44.7861 201.617 44.7724 201.611 44.7574C201.6 44.7275 201.601 44.6945 201.613 44.6652C201.626 44.636 201.649 44.6127 201.679 44.6002C202.385 44.265 203.142 44.0488 203.919 43.9604C204.27 43.9199 204.626 43.9539 204.964 44.0603C205.302 44.1667 205.613 44.343 205.879 44.5778C206.271 43.9772 207.559 43.9492 208.119 43.9716C210.835 44.0726 213.64 44.1737 216.384 44.4375H216.457C217.048 44.5131 217.647 44.5131 218.238 44.4375C218.461 44.3989 218.681 44.3483 218.899 44.2859C219.262 44.173 219.638 44.107 220.019 44.0895C220.555 44.121 221.083 44.2405 221.581 44.4431C222.138 44.7118 222.762 44.8076 223.373 44.7181C223.568 44.6624 223.755 44.5853 223.933 44.488L224.224 44.3476C225.183 44.0382 226.201 43.9537 227.198 44.1007C227.784 44.1538 228.374 44.1651 228.962 44.1344C228.977 44.1328 228.993 44.1344 229.008 44.1389C229.023 44.1434 229.036 44.1509 229.048 44.1608C229.06 44.1707 229.07 44.1829 229.077 44.1967C229.085 44.2104 229.089 44.2255 229.091 44.241C229.094 44.2729 229.084 44.3048 229.065 44.3299C229.045 44.3551 229.016 44.3715 228.984 44.3757C228.383 44.4066 227.781 44.3953 227.181 44.342C226.222 44.1978 225.243 44.2765 224.319 44.5721C224.224 44.6114 224.135 44.6619 224.045 44.7068C223.856 44.8074 223.657 44.8883 223.451 44.9482C223.285 44.9929 223.114 45.0136 222.942 45.0099Z" fill="white"/>
<path d="M201.723 48.7137C201.696 48.7123 201.67 48.7017 201.649 48.6835C201.628 48.6654 201.614 48.6407 201.609 48.6135C201.603 48.5863 201.608 48.5582 201.62 48.5336C201.633 48.509 201.654 48.4895 201.679 48.478C202.611 48.0967 203.569 47.7816 204.546 47.5351C205.066 47.3843 205.607 47.318 206.147 47.3387C206.474 47.3762 206.796 47.4438 207.111 47.5407C207.414 47.6317 207.725 47.6955 208.04 47.7315C208.415 47.7452 208.79 47.7226 209.16 47.6642C209.717 47.5494 210.292 47.5667 210.84 47.7147C210.998 47.774 211.149 47.8473 211.294 47.9336C211.432 48.0192 211.578 48.0907 211.731 48.1469C212.459 48.3994 213.187 48.0683 213.971 47.7147C214.636 47.3371 215.39 47.1434 216.155 47.1535C216.662 47.241 217.146 47.4321 217.577 47.7147C218.032 48.0207 218.564 48.1919 219.111 48.2086C219.367 48.1833 219.619 48.1286 219.862 48.0458H219.935C221.971 47.4401 224.102 47.225 226.218 47.4116H226.33C226.624 47.4425 226.921 47.4425 227.215 47.4116C227.394 47.385 227.572 47.3475 227.747 47.2994L228.139 47.204C228.954 47.1049 229.781 47.1639 230.575 47.3779L231.034 47.4677C233.123 47.8421 235.267 47.7732 237.328 47.2657C237.357 47.2646 237.385 47.2734 237.408 47.2907C237.43 47.308 237.446 47.3326 237.453 47.3605C237.46 47.3883 237.456 47.4176 237.444 47.4433C237.431 47.469 237.41 47.4896 237.384 47.5014C235.292 48.0146 233.115 48.0835 230.995 47.7035L230.524 47.6137C229.762 47.4077 228.967 47.3506 228.183 47.4453C228.055 47.4453 227.931 47.5014 227.808 47.5295C227.624 47.5823 227.437 47.6235 227.248 47.653C226.937 47.6839 226.624 47.6839 226.313 47.653H226.201C224.116 47.4712 222.015 47.6825 220.007 48.276H219.935C219.676 48.3665 219.407 48.4249 219.134 48.4499C218.536 48.438 217.954 48.257 217.454 47.928C217.048 47.6713 216.595 47.4977 216.121 47.4172C215.399 47.4193 214.69 47.6129 214.066 47.9785C213.287 48.3377 212.487 48.7025 211.663 48.4219C211.498 48.3599 211.339 48.2829 211.187 48.1918C211.053 48.1114 210.913 48.0419 210.767 47.9841C210.258 47.8541 209.725 47.8426 209.211 47.9504C208.825 48.0094 208.435 48.0319 208.046 48.0178C207.716 47.9808 207.389 47.9132 207.071 47.8157C206.771 47.7253 206.464 47.6615 206.153 47.6249C205.637 47.6062 205.12 47.6706 204.624 47.8157C203.659 48.0593 202.712 48.3707 201.791 48.7474L201.723 48.7137Z" fill="white"/>
<path d="M201.723 51.7563C201.696 51.7558 201.669 51.7461 201.648 51.7288C201.627 51.7115 201.612 51.6876 201.606 51.6609C201.601 51.6454 201.6 51.6292 201.603 51.6133C201.605 51.5975 201.611 51.5822 201.619 51.5686C201.627 51.5549 201.638 51.5431 201.652 51.5339C201.665 51.5247 201.68 51.5182 201.695 51.515C202.797 51.2382 203.922 51.0653 205.055 50.9986C205.387 50.959 205.723 50.9819 206.046 51.066C206.119 51.0891 206.19 51.1173 206.259 51.1501C206.349 51.1911 206.443 51.2231 206.539 51.2456C206.754 51.2816 206.974 51.2816 207.189 51.2456C208.189 51.0862 209.2 51.013 210.213 51.0267C210.244 51.0294 210.273 51.0434 210.295 51.0662C210.316 51.0889 210.329 51.1187 210.33 51.1501C210.33 51.1661 210.327 51.1819 210.321 51.1966C210.315 51.2113 210.305 51.2245 210.294 51.2355C210.282 51.2466 210.269 51.2551 210.254 51.2607C210.239 51.2663 210.223 51.2688 210.207 51.268C209.217 51.2516 208.228 51.323 207.25 51.4813C207 51.5351 206.742 51.5446 206.489 51.5093C206.377 51.4821 206.269 51.4445 206.164 51.3971L205.974 51.3241C205.677 51.2488 205.37 51.2298 205.066 51.268C203.933 51.3332 202.808 51.5042 201.706 51.7787L201.723 51.7563Z" fill="white"/>
<path d="M214.917 51.3399C214.899 51.3438 214.88 51.3436 214.862 51.3393C214.844 51.3351 214.828 51.3269 214.813 51.3154C214.799 51.3038 214.788 51.2892 214.78 51.2726C214.772 51.256 214.768 51.2379 214.768 51.2195C214.768 51.2011 214.772 51.1829 214.78 51.1663C214.788 51.1497 214.799 51.1351 214.813 51.1235C214.828 51.112 214.844 51.1038 214.862 51.0996C214.88 51.0953 214.899 51.0952 214.917 51.0991C215.589 51.0991 216.272 51.0991 216.927 51.0991H216.978C221.788 51.0991 226.66 51.0991 231.465 51.0319C231.497 51.0333 231.526 51.0469 231.548 51.0699C231.57 51.0928 231.583 51.1233 231.582 51.1551C231.582 51.1862 231.57 51.2162 231.548 51.2382C231.526 51.2603 231.496 51.2727 231.465 51.2727C226.66 51.3287 221.782 51.3511 216.972 51.3399H216.922C216.266 51.3399 215.583 51.3399 214.917 51.3399Z" fill="white"/>
<g opacity="0.1">
<path opacity="0.1" d="M230.748 81.5134C230.748 82.8604 229.818 84.1008 229.566 85.3748C229.314 86.6488 229.69 88.1811 229.191 89.3878C228.693 90.5944 227.349 91.4026 226.621 92.4971C225.893 93.5915 225.669 95.1293 224.734 96.061C223.798 96.9927 222.275 97.1835 221.178 97.9468C220.08 98.7101 219.307 100.012 218.081 100.523C216.854 101.034 215.382 100.641 214.071 100.899C212.761 101.157 211.568 102.083 210.224 102.083C208.88 102.083 207.648 101.152 206.377 100.899C205.106 100.646 203.577 101.022 202.367 100.523C201.158 100.023 200.357 98.6764 199.27 97.9468C198.184 97.2172 196.644 96.9927 195.714 96.061C194.785 95.1293 194.561 93.5971 193.827 92.4971C193.094 91.397 191.766 90.6169 191.262 89.3878C190.758 88.1586 191.139 86.6825 190.882 85.3748C190.624 84.0671 189.706 82.8604 189.706 81.5134C189.706 80.1664 190.63 78.9317 190.882 77.6576C191.134 76.3836 190.764 74.8514 191.262 73.6447C191.761 72.438 193.099 71.6298 193.827 70.5354C194.555 69.4409 194.785 67.9031 195.714 66.9714C196.644 66.0398 198.173 65.8209 199.27 65.08C200.368 64.3392 201.146 63.0202 202.367 62.5095C203.588 61.9988 205.066 62.3916 206.377 62.1335C207.687 61.8753 208.88 60.9548 210.224 60.9548C211.568 60.9548 212.806 61.8865 214.071 62.1391C215.337 62.3916 216.871 62.0156 218.081 62.5151C219.29 63.0146 220.091 64.356 221.183 65.0912C222.275 65.8265 223.804 66.0454 224.739 66.977C225.674 67.9087 225.887 69.4409 226.621 70.541C227.354 71.641 228.682 72.4212 229.191 73.6503C229.701 74.8794 229.309 76.3555 229.566 77.6632C229.824 78.971 230.748 80.172 230.748 81.5134Z" fill="white"/>
</g>
<path d="M160.048 105.911H149.621C149.024 105.911 148.54 106.396 148.54 106.994V108.908C148.54 109.506 149.024 109.991 149.621 109.991H160.048C160.645 109.991 161.129 109.506 161.129 108.908V106.994C161.129 106.396 160.645 105.911 160.048 105.911Z" fill="#246DFF"/>
<path d="M160.496 104.216H149.173C148.823 104.216 148.54 104.5 148.54 104.85V105.276C148.54 105.627 148.823 105.911 149.173 105.911H160.496C160.846 105.911 161.129 105.627 161.129 105.276V104.85C161.129 104.5 160.846 104.216 160.496 104.216Z" fill="white"/>
<path d="M196.846 111.473H195.155V200.577H196.846V111.473Z" fill="#263238"/>
<path d="M198.335 172.846H193.665C193.139 172.846 192.713 173.273 192.713 173.8V175.023C192.713 175.55 193.139 175.977 193.665 175.977H198.335C198.861 175.977 199.287 175.55 199.287 175.023V173.8C199.287 173.273 198.861 172.846 198.335 172.846Z" fill="#263238"/>
<path d="M179.267 200.583H177.576L195.155 174.412H196.846L179.267 200.583Z" fill="#263238"/>
<path d="M212.733 200.583H214.424L196.846 174.412H195.155L212.733 200.583Z" fill="#263238"/>
<path d="M250.32 33.9304H141.68C141.468 33.9304 141.264 33.8458 141.114 33.6953C140.964 33.5448 140.879 33.3406 140.879 33.1278C140.881 32.9159 140.966 32.7132 141.116 32.5639C141.266 32.4146 141.469 32.3308 141.68 32.3308H250.32C250.531 32.3308 250.733 32.4148 250.882 32.5642C251.032 32.7137 251.115 32.9164 251.115 33.1278C251.116 33.2329 251.096 33.3372 251.056 33.4345C251.017 33.5318 250.958 33.6204 250.884 33.695C250.811 33.7696 250.723 33.8288 250.626 33.8692C250.529 33.9096 250.425 33.9304 250.32 33.9304Z" fill="#E0E0E0"/>
<path d="M254.632 109.991H137.368L140.101 112.96H251.899L254.632 109.991Z" fill="#E0E0E0"/>
<path d="M111.905 135.724H58.1504V137.043H111.905V135.724Z" fill="#246DFF"/>
<path d="M111.905 135.724H97.6528V137.043H111.905V135.724Z" fill="#263238"/>
<path d="M89.9586 202.575H89.1466L85.753 167.749C85.473 164.859 83.5914 162.698 81.3906 162.698H74.7042C72.4642 162.698 70.6218 164.876 70.3418 167.749L66.9482 202.575H66.1362L69.541 167.592C69.8714 164.174 72.089 161.592 74.7042 161.592H81.3906C84.0002 161.592 86.2234 164.174 86.5538 167.592L89.9586 202.575Z" fill="#263238"/>
<path d="M64.6632 202.575H63.84L60.48 167.749C60.2 164.859 58.324 162.698 56.1176 162.698H49.4088C47.2024 162.698 45.3264 164.876 45.0464 167.749L41.6528 202.575H40.8408L44.24 167.592C44.5704 164.174 46.7936 161.592 49.4032 161.592H56.0896C58.7048 161.592 60.9224 164.174 61.2528 167.592L64.6632 202.575Z" fill="#263238"/>
<path d="M61.0401 90.4368C61.1633 90.7848 61.4489 90.9981 61.6841 90.9419C61.9193 90.8858 62.0033 90.5266 61.8801 90.173C61.7569 89.8195 61.4713 89.6118 61.2417 89.6679C61.0121 89.724 60.9001 90.0832 61.0401 90.4368Z" fill="#263238"/>
<path d="M61.3594 90.7007C62.082 91.4651 62.9031 92.1295 63.801 92.6763C63.6547 92.896 63.4619 93.0808 63.2365 93.2175C63.011 93.3543 62.7582 93.4397 62.4962 93.4676L61.3594 90.7007Z" fill="#ED893E"/>
<path d="M59.5452 89.3034C59.5083 89.312 59.47 89.312 59.4332 89.3034C59.405 89.2987 59.3781 89.2884 59.354 89.273C59.3299 89.2577 59.3091 89.2376 59.2929 89.214C59.2767 89.1905 59.2654 89.1639 59.2597 89.1358C59.254 89.1078 59.2539 89.0789 59.2596 89.0509C59.3115 88.7115 59.446 88.3901 59.651 88.1151C59.8561 87.8401 60.1255 87.6198 60.4356 87.4738C60.4876 87.4585 60.5434 87.4632 60.5922 87.4869C60.6409 87.5106 60.6792 87.5517 60.6994 87.6021C60.7197 87.6525 60.7205 87.7086 60.7017 87.7596C60.683 87.8105 60.646 87.8527 60.598 87.8779C60.3569 87.9979 60.1482 88.1743 59.9893 88.3921C59.8304 88.6099 59.7261 88.8628 59.6852 89.1294C59.679 89.1682 59.6629 89.2046 59.6383 89.2351C59.6138 89.2657 59.5816 89.2892 59.5452 89.3034Z" fill="#263238"/>
<path d="M50.1929 95.9037L53.7881 99.3161L58.5537 101.999C58.3857 102.156 58.4473 103.222 58.5145 103.756C58.5335 104.338 58.733 104.9 59.0852 105.364C59.4374 105.827 59.9249 106.17 60.4801 106.343C61.0401 106.584 61.6001 106.904 61.7065 107.432C61.8185 108.083 61.3425 108.891 58.6769 109.278C56.1203 109.622 53.5187 109.255 51.1561 108.218C50.0361 107.757 50.2265 107.252 50.5065 106.186C51.2233 103.464 51.0609 98.6594 50.1929 95.9037Z" fill="#FFB573"/>
<path d="M48.7593 107.432C49.3203 106.006 49.7751 104.541 50.1201 103.048C50.1201 103.048 57.4001 102.515 59.8249 103.469C62.2497 104.423 63.7449 108.56 63.7449 108.56L48.7593 107.432Z" fill="#263238"/>
<path d="M49.3979 93.9787C51.1171 98.0926 51.9123 100.585 54.7683 101.965C59.0635 104.042 63.5435 100.22 63.0787 95.6568C62.6587 91.5485 59.9203 85.5206 55.2387 85.3523C54.2016 85.3204 53.1733 85.5515 52.2492 86.0242C51.3251 86.497 50.535 87.196 49.9525 88.0565C49.3699 88.9169 49.0136 89.9109 48.9166 90.9462C48.8197 91.9815 48.9852 93.0246 49.3979 93.9787Z" fill="#FFB573"/>
<path d="M58.0442 93.7651C59.6626 91.913 58.537 88.7138 57.1034 87.4622C58.4922 87.4117 62.0874 87.0974 61.0234 83.9937C59.9594 80.89 56.2578 80.5252 55.1826 82.0574C52.125 80.3737 48.4626 81.8329 49.3418 84.1733C45.7466 83.6121 44.7162 87.1872 46.2002 88.6296C44.313 90.2068 43.6354 93.3105 46.105 94.4835C48.5746 95.6565 48.625 98.5806 51.145 100.096C53.665 101.611 59.4386 99.0296 58.0442 93.7651Z" fill="#263238"/>
<path d="M55.9665 94.388C56.5003 95.2286 57.3232 95.8436 58.2793 96.1166C59.5169 96.4478 60.1161 95.0727 59.6569 93.8716C59.2425 92.8165 57.9769 91.6266 56.8009 91.8006C55.6249 91.9746 55.3057 93.3385 55.9665 94.388Z" fill="#FFB573"/>
<path d="M52.1755 112.926L48.5355 120.222C47.9251 121.44 47.3315 122.653 46.7547 123.87C46.1779 125.088 45.6011 126.284 45.1027 127.474C44.8339 128.074 44.6099 128.647 44.3691 129.236L44.0611 130.072L44.0219 130.179V130.229V130.258V130.201C44.0786 129.966 44.1031 129.725 44.0947 129.483C44.1008 129.305 44.0663 129.129 43.9939 128.967C43.9491 128.888 43.9939 129.04 44.0275 129.219C44.1025 129.445 44.1943 129.664 44.3019 129.876C44.5427 130.364 44.8619 130.892 45.1643 131.436C46.4803 133.614 48.0875 135.926 49.5435 138.216L49.5827 138.272C49.8494 138.693 49.9645 139.192 49.9089 139.687C49.8534 140.182 49.6305 140.643 49.2774 140.994C48.9242 141.345 48.462 141.564 47.9674 141.615C47.4729 141.666 46.9758 141.546 46.5587 141.275C45.3299 140.487 44.1499 139.624 43.0251 138.693C41.8697 137.76 40.7737 136.755 39.7435 135.685C39.1812 135.109 38.6557 134.497 38.1699 133.855C37.8902 133.494 37.6285 133.12 37.3859 132.733C37.0614 132.205 36.802 131.639 36.6131 131.049C36.4539 130.549 36.3653 130.03 36.3499 129.505C36.3402 129.088 36.3854 128.671 36.4843 128.265L36.5739 127.906L36.8707 126.744C37.0947 126.02 37.3019 125.268 37.5483 124.578C38.0243 123.158 38.5451 121.811 39.0715 120.464C39.5979 119.117 40.1915 117.809 40.7515 116.535C41.9387 113.931 43.1651 111.411 44.5651 108.885C45.0976 107.871 46.0103 107.11 47.1025 106.77C48.1947 106.43 49.377 106.539 50.3891 107.072C51.4013 107.606 52.1605 108.521 52.4997 109.615C52.8389 110.71 52.7304 111.895 52.1979 112.909L52.1755 112.926Z" fill="#FFB573"/>
<path d="M49.3476 105.613C54.0404 105.782 56.174 109.301 52.282 115.564C48.922 120.947 48.4796 121.059 48.4796 121.059L39.9844 116.838C42.8404 111.389 44.5484 105.434 49.3476 105.613Z" fill="#246DFF"/>
<g opacity="0.3">
<path opacity="0.3" d="M49.3476 105.613C54.0404 105.782 56.174 109.301 52.282 115.564C48.922 120.947 48.4796 121.059 48.4796 121.059L39.9844 116.838C42.8404 111.389 44.5484 105.434 49.3476 105.613Z" fill="black"/>
</g>
<path d="M51.789 139.193L51.313 138.66C49.8458 137.296 49.2186 137.464 47.5386 137.464L45.4834 139.008C46.7266 142.431 49.241 142.28 49.241 142.28L49.969 142.959C50.1289 143.107 50.3231 143.213 50.534 143.268C50.745 143.322 50.9661 143.323 51.1775 143.271C51.389 143.219 51.5842 143.115 51.7457 142.968C51.9071 142.821 52.0298 142.637 52.1026 142.431L52.3154 141.825C52.4696 141.379 52.5021 140.9 52.4095 140.437C52.317 139.974 52.1028 139.545 51.789 139.193Z" fill="#FFB573"/>
<path d="M101.052 190.165L105.067 187.903L100.794 178.098L96.7793 180.355L101.052 190.165Z" fill="#FFB573"/>
<path opacity="0.2" d="M98.8513 185.108L102.928 182.998L100.794 178.098L96.7793 180.355L98.8513 185.108Z" fill="black"/>
<path d="M104.546 185.844L99.3945 186.209C99.3073 186.213 99.2253 186.251 99.1657 186.315C99.1061 186.379 99.0737 186.464 99.0752 186.551L99.1145 190.648C99.1303 190.863 99.2293 191.063 99.3905 191.206C99.5517 191.349 99.7621 191.422 99.9768 191.411C101.763 191.254 102.491 190.805 104.737 190.485C106.12 190.283 109.441 190.093 111.306 189.576C113.17 189.06 112.862 187.331 111.339 187.41C109.362 187.5 106.719 187 105.353 186.074C105.117 185.91 104.833 185.829 104.546 185.844Z" fill="#263238"/>
<path d="M69.4401 143.172C69.4401 143.172 92.8929 141.769 94.8753 150.883C98.9073 169.405 102.799 179.692 102.799 179.692L96.5945 182.903C96.5945 182.903 87.4553 170.072 84.7617 156.928C75.2081 155.491 58.5089 160.559 54.5217 153.37C50.9937 147.028 54.0905 142.47 54.0905 142.47L69.4401 143.172Z" fill="#263238"/>
<path d="M96.7124 184.575L103.936 181.067L103.124 178.098L95.1836 181.836L96.7124 184.575Z" fill="#246DFF"/>
<path d="M106.226 186.534C105.814 186.55 105.401 186.524 104.994 186.455C104.973 186.453 104.954 186.444 104.938 186.43C104.922 186.416 104.91 186.397 104.905 186.377C104.899 186.356 104.9 186.335 104.907 186.315C104.914 186.295 104.927 186.277 104.944 186.265C105.084 186.152 106.316 185.17 106.893 185.35C106.958 185.371 107.017 185.408 107.064 185.458C107.111 185.508 107.144 185.57 107.162 185.636C107.2 185.734 107.211 185.841 107.196 185.945C107.18 186.05 107.137 186.148 107.072 186.231C106.836 186.43 106.535 186.538 106.226 186.534ZM105.274 186.276C106.109 186.382 106.708 186.315 106.91 186.085C106.951 186.031 106.978 185.966 106.987 185.898C106.996 185.83 106.987 185.761 106.96 185.698C106.951 185.666 106.934 185.637 106.912 185.612C106.89 185.588 106.862 185.569 106.831 185.557C106.518 185.462 105.784 185.9 105.28 186.276H105.274Z" fill="#246DFF"/>
<path d="M105.017 186.455C105.001 186.461 104.983 186.461 104.967 186.455C104.951 186.449 104.936 186.438 104.926 186.424C104.915 186.411 104.908 186.394 104.905 186.377C104.905 186.321 104.698 185.007 105.129 184.525C105.185 184.464 105.254 184.416 105.33 184.385C105.407 184.354 105.489 184.341 105.572 184.345C105.664 184.342 105.754 184.37 105.829 184.424C105.904 184.477 105.959 184.554 105.986 184.643C106.126 185.136 105.51 186.141 105.073 186.45C105.056 186.457 105.036 186.459 105.017 186.455ZM105.516 184.547C105.473 184.55 105.431 184.561 105.392 184.58C105.354 184.6 105.319 184.627 105.292 184.659C105.034 184.946 105.051 185.703 105.09 186.141C105.495 185.762 105.742 185.242 105.779 184.687C105.779 184.626 105.723 184.558 105.566 184.547H105.516Z" fill="#246DFF"/>
<path d="M74.5864 198.573L79.1448 198.354L79.8896 187.567L75.3312 187.786L74.5864 198.573Z" fill="#FFB573"/>
<path d="M79.6041 196.906L74.4465 196.743C74.3601 196.739 74.2751 196.768 74.2094 196.824C74.1437 196.88 74.1022 196.96 74.0937 197.047L73.7185 201.127C73.714 201.234 73.7306 201.34 73.7673 201.441C73.804 201.541 73.8601 201.634 73.9324 201.712C74.0047 201.791 74.0917 201.855 74.1886 201.9C74.2855 201.945 74.3902 201.97 74.4969 201.974C76.2945 201.974 77.0505 201.772 79.3185 201.845C80.7129 201.89 83.2385 202.115 85.5905 202.115C87.9425 202.115 86.9961 200.206 85.7417 200.027C83.7817 199.746 81.6537 198.276 80.3881 197.22C80.1699 197.03 79.8934 196.919 79.6041 196.906Z" fill="#263238"/>
<path d="M81.2002 197.759C80.7876 197.733 80.3787 197.665 79.9794 197.557C79.9589 197.552 79.9405 197.54 79.9265 197.524C79.9125 197.508 79.9036 197.489 79.901 197.467C79.898 197.447 79.9012 197.426 79.9101 197.407C79.9191 197.388 79.9335 197.372 79.9514 197.361C80.097 197.265 81.4298 196.412 81.9786 196.654C82.0416 196.68 82.0967 196.723 82.1388 196.777C82.181 196.831 82.2087 196.895 82.2194 196.962C82.2477 197.061 82.2486 197.165 82.222 197.264C82.1953 197.363 82.1421 197.453 82.0682 197.524C81.8193 197.71 81.5089 197.794 81.2002 197.759ZM80.2762 197.411C81.0938 197.597 81.6986 197.591 81.9226 197.383C81.9686 197.334 82.0011 197.273 82.0168 197.207C82.0324 197.141 82.0309 197.072 82.0122 197.007C82.0081 196.973 81.9951 196.94 81.9744 196.913C81.9538 196.885 81.9262 196.864 81.8946 196.85C81.609 196.721 80.8362 197.086 80.2874 197.411H80.2762Z" fill="#246DFF"/>
<path d="M80.0132 197.557H79.9684C79.9517 197.549 79.9376 197.536 79.9277 197.52C79.9178 197.504 79.9125 197.486 79.9124 197.467C79.9124 197.411 79.8452 196.087 80.3268 195.649C80.3886 195.594 80.4619 195.553 80.5413 195.53C80.6207 195.507 80.7043 195.501 80.786 195.514C80.8767 195.521 80.9627 195.558 81.0305 195.619C81.0983 195.68 81.1442 195.761 81.1612 195.851C81.2508 196.356 80.534 197.299 80.0412 197.535C80.0334 197.544 80.0239 197.552 80.0132 197.557ZM80.702 195.711C80.6149 195.709 80.5306 195.741 80.4668 195.8C80.1983 196.235 80.0765 196.745 80.1196 197.254C80.5284 196.929 81.01 196.21 80.9484 195.879C80.9484 195.817 80.9092 195.739 80.7524 195.716L80.702 195.711Z" fill="#246DFF"/>
<path opacity="0.2" d="M75.3314 187.792L79.8898 187.573L79.4586 193.741L74.917 193.735L75.3314 187.792Z" fill="black"/>
<path d="M58.7107 142.684C58.7107 142.684 87.1811 147.999 86.6267 156.013C85.6355 170.443 80.8083 191.063 80.8083 191.063L73.9706 191.159C73.9706 191.159 73.0354 169.713 73.881 159.274C65.341 159.274 48.5355 158.977 45.2483 154.571C41.6139 149.711 45.3491 142.072 45.3491 142.072L58.7107 142.684Z" fill="#263238"/>
<path d="M73.394 192.399L82.0236 192.276L82.4324 189.464L73.0356 189.739L73.394 192.399Z" fill="#246DFF"/>
<path d="M64.8257 105.933C62.0257 105.372 49.4145 105.546 49.4145 105.546C48.1531 105.514 46.9257 105.958 45.9749 106.789C45.0241 107.62 44.4191 108.779 44.2793 110.036C43.8369 113.931 45.1417 122.557 45.2313 127.002C45.3377 132.458 45.4553 134.759 45.3489 142.1L74.7097 143.643C75.8297 130.263 71.4785 123.809 68.8857 110.496C68.4993 108.459 67.6201 106.477 64.8257 105.933Z" fill="#246DFF"/>
<path opacity="0.3" d="M64.8257 105.933C62.0257 105.372 49.4145 105.546 49.4145 105.546C48.1531 105.514 46.9257 105.958 45.9749 106.789C45.0241 107.62 44.4191 108.779 44.2793 110.036C43.8369 113.931 45.1417 122.557 45.2313 127.002C45.3377 132.458 45.4553 134.759 45.3489 142.1L74.7097 143.643C75.8297 130.263 71.4785 123.809 68.8857 110.496C68.4993 108.459 67.6201 106.477 64.8257 105.933Z" fill="black"/>
<path d="M68.3985 110.238C69.7201 112.595 71.0809 115.07 72.4529 117.433C73.1305 118.628 73.8305 119.801 74.5361 120.946C75.2417 122.091 75.9697 123.191 76.6977 124.258L77.2577 125.015C77.4425 125.274 77.6217 125.476 77.8177 125.706L77.9521 125.88L78.0193 125.964L77.9745 125.919L77.8737 125.846C77.8737 125.846 77.8457 125.846 77.8737 125.88C78.0406 126.018 78.2165 126.146 78.4001 126.261C79.3577 126.884 80.6009 127.519 81.8049 128.158C84.2465 129.432 86.8001 130.695 89.2753 132.087H89.3089C89.7698 132.328 90.1295 132.726 90.3227 133.209C90.5158 133.693 90.5297 134.23 90.3617 134.723C90.1937 135.216 89.855 135.632 89.407 135.896C88.9591 136.16 88.4315 136.254 87.9201 136.162C85.0096 135.816 82.1288 135.253 79.3017 134.478C77.7994 134.081 76.3252 133.584 74.8889 132.991C74.4323 132.793 73.989 132.566 73.5617 132.312C73.4497 132.25 73.2873 132.138 73.1417 132.037L72.9121 131.868L72.6153 131.616L72.4697 131.487L72.3689 131.386L72.2569 131.273L72.0329 131.049C71.7473 130.751 71.4225 130.443 71.1649 130.145L70.3641 129.247C68.4435 126.922 66.6793 124.472 65.0833 121.912C63.5153 119.403 62.0705 116.922 60.7377 114.239C60.2396 113.232 60.1531 112.069 60.4964 110.999C60.8396 109.928 61.5858 109.034 62.5763 108.506C63.5668 107.978 64.7238 107.857 65.8014 108.17C66.8791 108.483 67.7926 109.205 68.3481 110.182L68.3985 110.238Z" fill="#FFB573"/>
<path d="M60.525 108.706C63.0506 104.743 67.161 104.687 70.5714 111.226C73.5002 116.838 73.3714 117.293 73.3714 117.293L65.4362 122.495C62.1882 117.265 57.9378 112.763 60.525 108.706Z" fill="#246DFF"/>
<g opacity="0.3">
<path opacity="0.3" d="M60.525 108.706C63.0506 104.743 67.161 104.687 70.5714 111.226C73.5002 116.838 73.3714 117.293 73.3714 117.293L65.4362 122.495C62.1882 117.265 57.9378 112.763 60.525 108.706Z" fill="black"/>
</g>
<path d="M91.3697 131.751L90.6753 131.621C88.6761 131.436 88.2897 131.958 86.9569 132.985L86.2681 135.466C89.3425 137.414 91.2409 135.752 91.2409 135.752L92.2321 135.848C92.4487 135.867 92.6669 135.832 92.8668 135.746C93.0667 135.66 93.2421 135.526 93.3771 135.355C93.5121 135.184 93.6025 134.982 93.6402 134.767C93.6779 134.552 93.6616 134.331 93.5929 134.125L93.3913 133.513C93.2431 133.064 92.9773 132.664 92.6216 132.354C92.2659 132.044 91.8334 131.835 91.3697 131.751Z" fill="#FFB573"/>
<path d="M29.781 139.648C29.2495 136.662 29.3853 133.595 30.1786 130.668L30.7386 130.819C29.9693 133.664 29.8392 136.645 30.3578 139.547L29.781 139.648Z" fill="#246DFF"/>
<path d="M30.7337 141.843L30.1816 141.937L30.7154 145.08L31.2674 144.986L30.7337 141.843Z" fill="#246DFF"/>
<path d="M87.6964 159.173L75.1748 158.674L71.8932 139.339C70.2132 129.377 61.6004 121.306 52.6796 121.306H44.8004C35.8796 121.306 30.022 129.377 31.7132 139.339L33.9532 152.685C34.7876 157.624 39.0548 161.632 43.4732 161.632H93.0556C93.16 161.618 93.2576 161.573 93.3348 161.501C93.4119 161.429 93.4647 161.335 93.4857 161.231C93.5067 161.128 93.4949 161.021 93.4519 160.924C93.4089 160.828 93.3369 160.748 93.246 160.694C91.5269 159.793 89.6339 159.274 87.6964 159.173Z" fill="#246DFF"/>
<path d="M90.6474 161.188H86.6714V160.161H90.6474C100.643 160.161 108.78 151.052 108.78 139.855V136.386H109.805V139.855C109.805 151.619 101.209 161.188 90.6474 161.188Z" fill="#263238"/>
<path d="M172.278 135.724H118.524V137.043H172.278V135.724Z" fill="#246DFF"/>
<path d="M154.397 135.067H136.399V135.729H154.397V135.067Z" fill="#E0E0E0"/>
<path d="M172.278 135.724H158.026V137.043H172.278V135.724Z" fill="#263238"/>
<path d="M150.332 202.574H149.52L146.132 167.748C145.846 164.858 143.97 162.697 141.77 162.697H135.05C132.843 162.697 130.973 164.875 130.687 167.748L127.327 202.574H126.504L129.92 167.591C130.25 164.173 132.468 161.592 135.078 161.592H141.798C144.407 161.592 146.625 164.173 146.961 167.591L150.332 202.574Z" fill="#263238"/>
<path d="M125.037 202.574H124.225L120.831 167.748C120.551 164.858 118.675 162.697 116.469 162.697H109.76C107.553 162.697 105.678 164.875 105.398 167.748L102.004 202.574H101.192L104.619 167.591C104.95 164.173 107.167 161.592 109.782 161.592H116.48C119.089 161.592 121.313 164.173 121.643 167.591L125.037 202.574Z" fill="#263238"/>
<path d="M113.607 121.956L112.526 129.92C112.185 132.575 111.832 135.23 111.574 137.84L111.49 138.811L111.451 139.299C111.458 139.219 111.458 139.138 111.451 139.057C111.439 138.981 111.42 138.906 111.395 138.833C111.363 138.736 111.318 138.643 111.261 138.558C111.177 138.451 111.166 138.468 111.188 138.491C111.236 138.543 111.291 138.588 111.35 138.625C111.549 138.764 111.759 138.886 111.978 138.99C113.103 139.509 114.265 139.942 115.455 140.287C117.942 141.061 120.551 141.69 123.127 142.335L122.836 144.58C120.081 144.491 117.336 144.206 114.621 143.727C113.182 143.484 111.768 143.109 110.398 142.605C109.995 142.447 109.604 142.26 109.228 142.043C108.996 141.912 108.775 141.762 108.567 141.594C108.274 141.365 108.017 141.092 107.806 140.786C107.656 140.559 107.536 140.314 107.447 140.056C107.4 139.902 107.363 139.744 107.335 139.585C107.325 139.422 107.325 139.259 107.335 139.097V138.569V137.52C107.447 134.747 107.699 132.036 107.99 129.331C108.282 126.626 108.623 123.937 109.049 121.243L113.607 121.956Z" fill="#FFC3BD"/>
<path d="M129.08 144.726L127.338 146.32C127.141 146.502 126.893 146.62 126.627 146.659C126.361 146.698 126.09 146.656 125.849 146.539L123.928 145.613C123.928 145.613 121.083 145.495 120.674 143.749L121.414 142.397L125.821 141.903C126.276 141.855 126.734 141.957 127.126 142.195L128.94 143.317C129.056 143.389 129.154 143.487 129.226 143.604C129.298 143.72 129.343 143.851 129.356 143.987C129.37 144.123 129.352 144.261 129.304 144.389C129.256 144.517 129.179 144.632 129.08 144.726Z" fill="#FFC3BD"/>
<path d="M118.675 105.59C119.123 108.324 119.504 113.319 117.555 115.07C120.628 116.786 123.312 119.121 125.44 121.928C128.8 119.279 126 115.322 126 115.322C122.998 114.509 123.144 112.264 123.732 110.17L118.675 105.59Z" fill="#FFC3BD"/>
<path d="M112.174 115.783C108.741 116.905 108.002 121.513 108.31 125.099L115.237 129.37C115.237 129.37 116.917 124.134 116.917 121.333C116.889 118.353 114.503 115.025 112.174 115.783Z" fill="#263238"/>
<path d="M133.985 122.484C133.7 126.413 132.821 133.086 130.659 144.283L112.112 143.722C112.599 136.858 111.865 131.745 110.185 119.734C110.117 119.214 110.152 118.686 110.29 118.181C110.428 117.675 110.666 117.203 110.989 116.791C111.312 116.378 111.714 116.035 112.171 115.781C112.628 115.527 113.132 115.367 113.652 115.311C114.839 115.188 116.194 115.087 117.572 115.059C120.374 114.944 123.181 115.029 125.972 115.311C126.879 115.423 127.809 115.564 128.699 115.715C130.263 115.981 131.672 116.822 132.65 118.074C133.628 119.326 134.104 120.899 133.985 122.484Z" fill="#263238"/>
<path d="M127.243 100.073C127.355 100.426 127.635 100.634 127.865 100.578C128.094 100.522 128.19 100.157 128.078 99.8091C127.966 99.4611 127.686 99.2478 127.456 99.304C127.226 99.3601 127.12 99.7249 127.243 100.073Z" fill="#263238"/>
<path d="M127.361 99.3548L128.122 98.8385C128.122 98.8385 127.904 99.6411 127.361 99.3548Z" fill="#263238"/>
<path d="M127.478 100.606C128.047 101.308 128.71 101.928 129.449 102.447C129.312 102.633 129.135 102.787 128.932 102.897C128.729 103.008 128.504 103.073 128.273 103.087L127.478 100.606Z" fill="#ED847E"/>
<path d="M126.672 96.9079C126.69 96.8754 126.7 96.8387 126.7 96.8012C126.7 96.7638 126.69 96.727 126.672 96.6946C126.637 96.6489 126.586 96.6187 126.53 96.6103C126.473 96.6019 126.416 96.616 126.369 96.6497C126.087 96.8474 125.857 97.1103 125.698 97.4161C125.54 97.7219 125.457 98.0616 125.457 98.4064C125.457 98.4347 125.464 98.4625 125.475 98.4882C125.487 98.5139 125.504 98.5369 125.525 98.5558C125.546 98.5748 125.571 98.5892 125.597 98.5982C125.624 98.6073 125.652 98.6108 125.681 98.6085C125.709 98.6077 125.737 98.6013 125.763 98.5896C125.789 98.5778 125.812 98.561 125.831 98.5401C125.851 98.5191 125.866 98.4945 125.875 98.4677C125.885 98.4409 125.889 98.4124 125.888 98.384C125.89 98.111 125.959 97.8427 126.087 97.6022C126.216 97.3617 126.401 97.1561 126.627 97.0033C126.651 96.9765 126.666 96.9433 126.672 96.9079Z" fill="#263238"/>
<path d="M114.839 102.414C116.519 106.645 117.079 108.469 119.991 109.985C124.336 112.263 129.158 109.3 128.8 104.659C128.48 100.483 125.832 94.2642 121.06 93.905C120.007 93.8141 118.948 93.9964 117.985 94.4346C117.022 94.8727 116.188 95.5518 115.563 96.4066C114.938 97.2613 114.544 98.2629 114.417 99.315C114.29 100.367 114.435 101.434 114.839 102.414Z" fill="#FFC3BD"/>
<path d="M124.981 101.437C125.798 101.201 127.221 99.5681 124.74 96.2792C126.067 96.0379 127.148 93.5964 123.508 92.1989C119.868 90.8014 115.898 91.4805 113.49 94.8256C113.49 94.8256 105.812 97.0986 112.067 105.018C118.322 112.937 126.263 109.71 124.981 101.437Z" fill="#263238"/>
<path d="M110.645 94.82C110.644 95.0435 110.699 95.2637 110.806 95.4599C110.912 95.6562 111.067 95.8222 111.255 95.9425C111.615 96.2465 112.064 96.4259 112.534 96.4542C113.004 96.4826 113.471 96.3582 113.865 96.0996C114.715 95.5385 115.492 94.8729 116.177 94.1184C116.38 93.8983 116.537 93.6398 116.638 93.358C116.74 93.0762 116.784 92.7769 116.769 92.4778C116.753 92.1786 116.678 91.8856 116.547 91.616C116.417 91.3464 116.234 91.1057 116.009 90.9081C115.907 90.8217 115.798 90.7429 115.685 90.6724C115.685 90.6724 111.289 90.8015 110.645 94.82Z" fill="#246DFF"/>
<path d="M111.266 94.2925C113.781 93.8884 115.119 91.8735 115.265 91.2729C114.705 89.7912 107.425 80.3735 101.22 87.26C94.6678 94.5562 107.492 101.892 102.9 110.675C110.88 107.987 117.387 102.453 111.266 94.2925Z" fill="#263238"/>
<path d="M123.166 102.313C123.593 103.155 124.336 103.793 125.233 104.086C126.42 104.462 127.058 103.407 126.761 102.262C126.498 101.229 125.563 99.7869 124.353 99.9104C124.09 99.9416 123.838 100.038 123.621 100.192C123.404 100.345 123.228 100.55 123.11 100.789C122.992 101.028 122.936 101.292 122.945 101.558C122.955 101.824 123.031 102.083 123.166 102.313Z" fill="#FFC3BD"/>
<path d="M153.177 195.441L157.556 195.025L154.605 184.216L150.226 184.631L153.177 195.441Z" fill="#FFC3BD"/>
<path d="M163.458 197.983C160.782 197.192 160.866 196.013 158.194 193.836C157.928 193.594 157.593 193.441 157.237 193.398L152.88 193.095C152.796 193.095 152.714 193.126 152.65 193.182C152.587 193.237 152.545 193.314 152.533 193.398L151.917 196.423C151.704 197.473 152.348 198.477 153.255 198.511C154.706 198.567 156.486 198.623 158.071 198.73C160.384 198.893 160.412 200.066 163.111 199.936C164.774 199.858 164.371 198.253 163.458 197.983Z" fill="#263238"/>
<path d="M169.473 181.533L172.441 178.951L167.474 171.391L163.761 174.916L169.473 181.533Z" fill="#FFC3BD"/>
<path d="M171.645 177.352L168.106 180.635C168.039 180.699 167.996 180.784 167.984 180.877C167.973 180.969 167.994 181.062 168.045 181.14L169.725 183.744C169.868 183.947 170.053 184.117 170.267 184.243C170.481 184.368 170.72 184.447 170.966 184.474C171.213 184.5 171.462 184.474 171.698 184.396C171.934 184.319 172.151 184.193 172.334 184.025C173.493 183.127 174.149 181.55 175.521 180.259C177.52 178.385 177.878 178.435 179.116 175.814C179.956 174.052 178.125 174.046 177.481 174.59C175.862 175.971 176.501 176.027 172.732 176.835C172.329 176.905 171.954 177.084 171.645 177.352Z" fill="#263238"/>
<path d="M124.191 143.963C124.191 143.963 154.218 139.506 157.326 147.224C162.736 160.643 170.564 175.763 170.564 175.763L167.036 179.007C167.036 179.007 153.596 166.935 148.937 153.448C143.376 155.255 125.675 161.058 119.19 161.058C112.268 161.058 109.44 155.143 111.944 145.343C112.053 144.917 112.301 144.539 112.649 144.271C112.997 144.002 113.425 143.858 113.864 143.862C118.221 143.862 124.191 143.963 124.191 143.963Z" fill="#246DFF"/>
<path opacity="0.5" d="M124.191 143.963C124.191 143.963 154.218 139.506 157.326 147.224C162.736 160.643 170.564 175.763 170.564 175.763L167.036 179.007C167.036 179.007 153.596 166.935 148.937 153.448C143.376 155.255 125.675 161.058 119.19 161.058C112.268 161.058 109.44 155.143 111.944 145.343C112.053 144.917 112.301 144.539 112.649 144.271C112.997 144.002 113.425 143.858 113.864 143.862C118.221 143.862 124.191 143.963 124.191 143.963Z" fill="white"/>
<path d="M127.069 147.881C127.069 147.881 151.709 147.134 151.922 155.884C152.264 170.359 156.693 191.057 156.693 191.057L151.838 191.512C151.838 191.512 144.48 175.017 142.548 160.857C133.767 161.418 125.675 161.036 119.19 161.036C111.91 161.036 111.35 153.038 118.401 143.71C122.724 143.733 127.069 147.881 127.069 147.881Z" fill="#246DFF"/>
<path opacity="0.5" d="M127.069 147.881C127.069 147.881 151.709 147.134 151.922 155.884C152.264 170.359 156.693 191.057 156.693 191.057L151.838 191.512C151.838 191.512 144.48 175.017 142.548 160.857C133.767 161.418 125.675 161.036 119.19 161.036C111.91 161.036 111.35 153.038 118.401 143.71C122.724 143.733 127.069 147.881 127.069 147.881Z" fill="white"/>
<path d="M111.871 142.633L111.345 144.283C111.277 144.412 111.423 144.546 111.641 144.552L130.726 145.113C130.894 145.113 131.034 145.04 131.051 144.939L131.264 143.256C131.264 143.143 131.141 143.037 130.956 143.031L112.173 142.47C112.113 142.465 112.052 142.478 111.999 142.507C111.945 142.536 111.901 142.579 111.871 142.633Z" fill="white"/>
<path d="M114.33 144.811H113.826C113.725 144.811 113.652 144.754 113.658 144.687L113.96 142.532C113.96 142.47 114.055 142.42 114.156 142.425H114.66C114.761 142.425 114.834 142.481 114.828 142.543L114.526 144.698C114.52 144.766 114.43 144.816 114.33 144.811Z" fill="#263238"/>
<path d="M129.31 145.259H128.806C128.705 145.259 128.632 145.203 128.638 145.141L128.94 142.986C128.94 142.925 129.035 142.874 129.136 142.874H129.64C129.741 142.874 129.814 142.93 129.808 142.997L129.506 145.147C129.5 145.214 129.41 145.259 129.31 145.259Z" fill="#263238"/>
<path d="M121.816 145.035H121.318C121.217 145.035 121.139 144.979 121.15 144.917L121.447 142.762C121.447 142.7 121.548 142.65 121.648 142.655H122.152C122.253 142.655 122.326 142.717 122.315 142.779L122.018 144.934C122.007 144.99 121.917 145.041 121.816 145.035Z" fill="#263238"/>
<path d="M134.691 124.617C134.764 125.015 134.87 125.531 134.966 125.992C135.061 126.452 135.178 126.946 135.302 127.417C135.542 128.36 135.811 129.297 136.114 130.223C136.418 131.122 136.768 132.004 137.161 132.867C137.54 133.687 137.988 134.474 138.499 135.219L138.589 135.359L138.555 135.314C138.532 135.287 138.506 135.262 138.477 135.241C138.43 135.195 138.38 135.154 138.326 135.118C138.188 135.018 138.029 134.952 137.861 134.927C137.71 134.927 137.794 134.927 137.917 134.927C138.299 134.886 138.675 134.8 139.037 134.669C139.945 134.354 140.835 133.989 141.702 133.574C143.511 132.727 145.354 131.773 147.162 130.824L148.478 132.687C146.885 134.122 145.188 135.435 143.399 136.616C142.464 137.238 141.485 137.792 140.47 138.272C139.871 138.557 139.242 138.773 138.594 138.917C138.103 139.025 137.596 139.04 137.099 138.962C136.675 138.889 136.272 138.725 135.918 138.479C135.811 138.405 135.71 138.323 135.615 138.233L135.475 138.087L135.369 137.974L135.229 137.795C133.768 135.99 132.619 133.952 131.83 131.767C131.435 130.725 131.097 129.663 130.816 128.585C130.676 128.023 130.553 127.507 130.435 126.963C130.318 126.418 130.228 125.896 130.144 125.279L134.691 124.617Z" fill="#FFC3BD"/>
<path d="M132.462 117.859C135.71 120.368 135.71 127.743 135.71 127.743L130.11 129.297C130.11 129.297 126.084 124.409 127.103 122.091C128.172 119.678 130.709 116.518 132.462 117.859Z" fill="#263238"/>
<path d="M151.95 130.695C151.901 130.693 151.853 130.679 151.811 130.654C151.768 130.628 151.734 130.592 151.709 130.549L147.28 122.046C147.263 122.014 147.253 121.98 147.25 121.944C147.247 121.909 147.252 121.873 147.263 121.839C147.273 121.805 147.291 121.774 147.314 121.746C147.337 121.719 147.366 121.697 147.397 121.681C147.461 121.649 147.534 121.643 147.602 121.664C147.67 121.685 147.727 121.731 147.761 121.793L152.197 130.296C152.213 130.328 152.223 130.363 152.226 130.398C152.229 130.434 152.225 130.469 152.214 130.503C152.203 130.537 152.185 130.569 152.162 130.596C152.139 130.623 152.111 130.645 152.079 130.661C152.04 130.683 151.995 130.695 151.95 130.695Z" fill="#263238"/>
<path d="M150.08 125.857L148.4 126.89C147.976 127.15 147.651 127.545 147.476 128.012L145.908 132.109L145.186 134.713C146.866 135.319 149.912 131.346 149.912 131.346L151.827 129.903C151.979 129.788 152.094 129.63 152.156 129.449C152.218 129.268 152.224 129.072 152.174 128.888L151.519 126.441C151.483 126.293 151.412 126.156 151.313 126.041C151.214 125.926 151.089 125.837 150.948 125.78C150.808 125.723 150.656 125.7 150.505 125.714C150.354 125.727 150.208 125.776 150.08 125.857Z" fill="#FFC3BD"/>
<path d="M148.069 159.173L135.52 158.656L132.238 139.321C130.558 129.359 121.951 121.288 113.03 121.288H105.173C96.2526 121.288 90.395 129.359 92.0862 139.321L94.3262 152.668C95.1662 157.607 99.4334 161.614 103.846 161.614H153.44C153.544 161.6 153.641 161.554 153.717 161.481C153.794 161.409 153.846 161.315 153.866 161.212C153.886 161.108 153.874 161.001 153.831 160.906C153.787 160.81 153.715 160.73 153.625 160.677C151.903 159.78 150.008 159.266 148.069 159.173Z" fill="#246DFF"/>
<path d="M151.02 161.188H147.044V160.161H151.02C161.016 160.161 169.153 151.051 169.153 139.855V136.386H170.172V139.855C170.172 151.618 161.582 161.188 151.02 161.188Z" fill="#263238"/>
<path d="M212.979 191.142L220.153 189.615L221.503 198.202L215.511 199.488L212.979 191.142Z" fill="#B55B52"/>
<path opacity="0.2" d="M212.979 191.142L220.159 189.615L220.915 194.425L214.396 195.817L212.979 191.142Z" fill="black"/>
<path d="M217.28 158.415C219.666 147.28 224.599 135.657 219.935 125.049L199.461 124.982C199.461 124.982 201.023 149.368 201.74 159.644C202.491 170.308 213.287 194.537 213.287 194.537L221.491 192.73C221.491 192.73 219.156 170.342 217.28 158.415Z" fill="#263238"/>
<path opacity="0.2" d="M217.493 157.355C218.96 150.912 221.144 144.317 221.716 137.874C213.954 129.388 214.934 146.691 217.493 157.355Z" fill="black"/>
<path d="M223.138 200.588L221.25 201.009L220.69 200.447L220.002 201.272L216.524 202.782C215.25 203.337 213.876 203.624 212.486 203.624H209.63C209.588 202.859 209.746 202.097 210.09 201.413C210.09 201.413 212.845 200.93 214.267 198.635C214.363 198.513 214.487 198.416 214.629 198.354C214.77 198.291 214.925 198.264 215.079 198.275C216.395 198.242 219.856 198.045 221.581 196.912C221.622 196.887 221.667 196.873 221.715 196.87C221.762 196.867 221.809 196.875 221.853 196.894C221.896 196.912 221.935 196.941 221.966 196.977C221.996 197.013 222.018 197.056 222.029 197.102C222.305 198.292 222.676 199.457 223.138 200.588Z" fill="#263238"/>
<path d="M229.6 192.203L236.942 192.276L237.261 200.953L231.129 200.902L229.6 192.203Z" fill="#B55B52"/>
<path opacity="0.2" d="M229.6 192.208L236.947 192.275L237.126 197.136L230.457 197.08L229.6 192.208Z" fill="black"/>
<path d="M237.586 158.415C238.179 147.28 238.986 130.617 235.262 125.498L212.397 124.982C212.397 124.982 218.753 149.368 221.127 159.644C223.591 170.308 229.639 195.564 229.639 195.564H237.575C237.575 195.564 240.571 171.128 237.586 158.415Z" fill="#263238"/>
<path d="M208.606 91.9298L208.264 92.2329L208.006 92.4518L207.508 92.8503C207.183 93.0972 206.858 93.3273 206.528 93.5518C205.883 93.9939 205.214 94.3987 204.523 94.7641C203.152 95.501 201.711 96.1007 200.222 96.5545C199.478 96.7846 198.71 96.9698 197.943 97.1157C197.176 97.2617 196.392 97.3739 195.608 97.4525C194.037 97.6004 192.454 97.5797 190.887 97.3908L190.294 97.3178C189.746 97.2518 189.221 97.0597 188.759 96.7565C187.472 95.9028 186.323 94.8582 185.349 93.6585C184.503 92.6211 183.754 91.509 183.109 90.3359C182.504 89.2327 181.976 88.0887 181.53 86.9122C181.311 86.351 181.121 85.7448 180.936 85.1555C180.751 84.5662 180.622 83.9881 180.471 83.3034C180.343 82.7328 180.402 82.1357 180.64 81.6018C180.879 81.0679 181.284 80.6258 181.794 80.342C182.304 80.0581 182.893 79.9476 183.471 80.0272C184.049 80.1068 184.586 80.3721 185.002 80.7834L185.282 81.064C185.606 81.3895 185.987 81.8217 186.34 82.1865C186.693 82.5513 187.062 82.961 187.415 83.3427C188.138 84.1004 188.843 84.8356 189.566 85.4979C190.229 86.1588 190.938 86.7721 191.688 87.3332C192.253 87.7621 192.872 88.1132 193.53 88.3771L191.408 87.7541C192.332 87.6911 193.249 87.556 194.152 87.35C195.056 87.1352 195.943 86.8557 196.806 86.5137C197.678 86.1565 198.527 85.746 199.349 85.2846C199.763 85.0545 200.161 84.8019 200.547 84.5606C200.743 84.4371 200.928 84.308 201.107 84.1902L201.359 84.0162L201.46 83.9432H201.499H201.466C202.525 82.995 203.917 82.5076 205.336 82.5881C206.754 82.6686 208.082 83.3105 209.028 84.3726C209.974 85.4346 210.461 86.8299 210.38 88.2513C210.3 89.6728 209.66 91.0041 208.6 91.9522L208.606 91.9298Z" fill="#B65B52"/>
<path d="M181.944 84.4707L184.078 82.2257C185.338 79.2286 181.211 78.2689 181.211 78.2689L178.64 76.3887C178.308 76.1878 177.916 76.1108 177.533 76.1714C177.149 76.232 176.8 76.4262 176.546 76.7199L175.045 78.2801C174.88 78.427 174.745 78.6052 174.648 78.8043C174.552 79.0035 174.495 79.2198 174.482 79.4409C174.469 79.6619 174.5 79.8834 174.573 80.0925C174.645 80.3017 174.758 80.4945 174.905 80.6598L177.05 82.6186C177.447 83.0114 177.936 83.2988 178.472 83.4549L181.944 84.4707Z" fill="#B55B52"/>
<path d="M210.997 79.6606C206.036 79.3687 198.767 85.0879 198.767 85.0879C198.078 86.9905 199.775 94.0679 202.81 97.1547C202.81 97.1547 206.293 97.9854 209.34 94.3036C212.655 90.2907 216.256 79.9637 210.997 79.6606Z" fill="#246DFF"/>
<path d="M211.983 79.4753C218.774 78.8304 225.616 78.9396 232.383 79.8008C233.31 79.938 234.199 80.2633 234.995 80.7569C235.792 81.2505 236.479 81.9019 237.016 82.6713C237.552 83.4406 237.926 84.3116 238.114 85.2309C238.303 86.1503 238.302 87.0985 238.112 88.0175C234.943 104.024 237.311 121.895 235.262 125.475C235.262 125.475 212.632 125.868 199.422 124.959C195.81 107.56 202.916 96.947 206.483 83.376C207.116 81.0805 209.603 79.7503 211.983 79.4753Z" fill="#246DFF"/>
<path d="M239.747 86.0868L240.251 86.721L240.699 87.2823C240.985 87.6639 241.259 88.0568 241.528 88.4441C242.088 89.2186 242.581 90.0212 243.074 90.8294C244.072 92.4783 244.951 94.1963 245.706 95.9704C246.521 97.8448 247.141 99.7991 247.554 101.802C248.043 104.053 248.125 106.374 247.794 108.655L247.727 109.115C247.668 109.492 247.541 109.855 247.352 110.187C246.683 111.359 245.935 112.485 245.112 113.554C244.325 114.577 243.482 115.556 242.586 116.484C241.696 117.393 240.783 118.258 239.82 119.071C238.848 119.897 237.825 120.66 236.757 121.356C236.257 121.685 235.663 121.841 235.066 121.797C234.47 121.754 233.904 121.514 233.458 121.116C233.011 120.717 232.708 120.182 232.595 119.593C232.483 119.004 232.568 118.395 232.837 117.859L232.96 117.64C233.442 116.675 234.024 115.648 234.545 114.66C235.066 113.672 235.603 112.684 236.096 111.702C236.589 110.72 237.054 109.749 237.507 108.806C237.961 107.863 238.308 106.909 238.655 106L238.213 107.527C238.185 106.4 237.997 105.283 237.653 104.21C237.456 103.569 237.226 102.94 236.964 102.324C236.706 101.684 236.404 101.033 236.085 100.382C235.43 99.0854 234.696 97.772 233.89 96.4868C233.498 95.8357 233.066 95.2015 232.652 94.5673L232.014 93.63L231.426 92.7937L231.23 92.5131C230.402 91.3751 230.055 89.9565 230.262 88.5638C230.47 87.1712 231.216 85.9164 232.34 85.0707C233.463 84.225 234.873 83.8563 236.266 84.0444C237.658 84.2324 238.921 84.962 239.781 86.0756L239.747 86.0868Z" fill="#B65B52"/>
<path d="M234.142 80.3173C238.823 82.001 243.236 89.9371 243.236 89.9371C243.04 92.8275 238.448 99.3717 235.2 100.803C232.933 98.8561 231.254 96.3136 230.351 93.4617C228.861 88.4554 231.734 81.0357 234.142 80.3173Z" fill="#246DFF"/>
<path d="M215.197 80.6767C215.645 79.8152 216.369 79.1294 217.252 78.7292C217.585 77.8663 217.611 76.9148 217.325 76.0352L227.36 72.8304C226.548 76.1587 225.91 78.7909 227.147 80.4073C225.17 81.6196 221.547 83.7748 217.627 83.6738C213.707 83.5728 214.553 82.0742 215.197 80.6767Z" fill="#B55B52"/>
<path opacity="0.2" d="M217.403 76.3495L224.946 75.9061C222.589 78.4318 219.016 79.3803 217.381 78.3532C217.561 77.6985 217.569 77.0081 217.403 76.3495Z" fill="black"/>
<path d="M217.381 83.6623L219.016 82.2816L221.206 83.4041C221.206 83.4041 219.806 84.7231 217.381 83.6623Z" fill="#246DFF"/>
<path opacity="0.3" d="M217.381 83.6623L219.016 82.2816L221.206 83.4041C221.206 83.4041 219.806 84.7231 217.381 83.6623Z" fill="black"/>
<path d="M222.942 62.419C222.818 59.3265 219.839 57.929 217.258 59.5398C214.676 61.1506 214.458 66.1289 216.356 68.7275C218.254 71.3261 222.942 62.419 222.942 62.419Z" fill="#F5F5F5"/>
<path d="M229.337 67.7341C228.139 72.0669 227.22 74.9854 224.101 76.3829C217.891 79.1499 215.141 76.2145 214.9 71.6347C214.704 67.5152 216.698 61.1225 221.682 60.1909C226.666 59.2592 230.535 63.3956 229.337 67.7341Z" fill="#B55B52"/>
<path d="M225.898 65.4781C224.56 66.7522 224.028 72.3871 226.05 72.2917C227.427 72.2128 228.796 72.0365 230.149 71.7641C230.149 71.7641 232.719 70.7876 231.314 66.9262C229.908 63.0648 225.898 65.4781 225.898 65.4781Z" fill="#E0E0E0"/>
<path opacity="0.2" d="M222.32 67.2066C222.889 67.06 223.492 67.1424 224 67.4362C223.431 67.4682 222.86 67.3903 222.32 67.2066Z" fill="black"/>
<path opacity="0.2" d="M222.264 67.6105C222.528 67.5962 222.791 67.6389 223.036 67.7358C223.282 67.8326 223.504 67.9813 223.687 68.1717C223.178 68.0893 222.693 67.8979 222.264 67.6105Z" fill="black"/>
<path opacity="0.2" d="M218.512 62.638C219.931 62.6313 221.346 62.774 222.735 63.0636C220.377 62.8956 218.512 62.638 218.512 62.638Z" fill="black"/>
<path opacity="0.2" d="M217.84 63.0082C217.84 63.0082 221.066 63.3618 222.561 64.0577C220.967 63.8099 219.39 63.4593 217.84 63.0082Z" fill="black"/>
<path d="M230.228 72.808C229.82 73.2475 229.329 73.6021 228.784 73.8515C228.239 74.1009 227.651 74.2403 227.052 74.2616C225.445 74.3009 225.02 72.7631 225.781 71.4554C226.47 70.2712 228.133 68.8231 229.589 69.4124C229.904 69.5451 230.181 69.7539 230.396 70.0201C230.611 70.2864 230.756 70.6018 230.819 70.9382C230.882 71.2746 230.862 71.6215 230.758 71.9478C230.655 72.2741 230.473 72.5696 230.228 72.808Z" fill="#B55B52"/>
<path d="M220.899 67.1454C220.968 66.7579 220.819 66.4069 220.567 66.3615C220.314 66.316 220.053 66.5932 219.984 66.9807C219.914 67.3682 220.063 67.7191 220.315 67.7646C220.568 67.8101 220.829 67.5328 220.899 67.1454Z" fill="#263238"/>
<path d="M216.9 66.5162C216.832 66.8979 216.569 67.1729 216.34 67.1224C216.11 67.0719 215.942 66.7239 216.015 66.3366C216.088 65.9494 216.345 65.6743 216.575 65.7249C216.804 65.7754 216.972 66.129 216.9 66.5162Z" fill="#263238"/>
<path d="M218.171 67.066L217.611 70.3213C217.222 70.3272 216.835 70.2722 216.463 70.1585C216.389 70.1313 216.324 70.0845 216.275 70.0231C216.226 69.9617 216.195 69.8881 216.184 69.8101C216.174 69.7322 216.185 69.6529 216.216 69.5807C216.248 69.5086 216.298 69.4464 216.362 69.4008C217.109 68.7468 217.724 67.9539 218.171 67.066Z" fill="#A02724"/>
<path d="M223.16 66.4378C223.196 66.4506 223.236 66.4506 223.272 66.4378C223.3 66.4247 223.324 66.4062 223.344 66.3833C223.364 66.3605 223.379 66.3339 223.388 66.305C223.398 66.2762 223.401 66.2457 223.399 66.2155C223.396 66.1852 223.387 66.1558 223.373 66.1291C223.217 65.7941 222.983 65.5015 222.69 65.276C222.398 65.0504 222.056 64.8983 221.693 64.8326C221.663 64.8287 221.632 64.8308 221.603 64.8389C221.573 64.8469 221.546 64.8608 221.522 64.8796C221.498 64.8984 221.478 64.9218 221.463 64.9484C221.448 64.975 221.439 65.0043 221.435 65.0346C221.43 65.0952 221.448 65.1554 221.486 65.2033C221.523 65.2512 221.577 65.2831 221.637 65.2928C221.921 65.3506 222.188 65.4747 222.416 65.6551C222.644 65.8355 222.826 66.0671 222.947 66.3311C222.969 66.3676 223 66.3971 223.038 66.416C223.076 66.435 223.118 66.4425 223.16 66.4378Z" fill="#263238"/>
<path d="M215.561 65.1747C215.598 65.1806 215.636 65.1775 215.672 65.1658C215.708 65.1541 215.741 65.1341 215.768 65.1073C215.959 64.8904 216.199 64.7222 216.468 64.6168C216.736 64.5113 217.026 64.4717 217.314 64.5012C217.373 64.511 217.434 64.4971 217.483 64.4625C217.532 64.4279 217.566 64.3753 217.577 64.316C217.587 64.2558 217.573 64.1942 217.539 64.144C217.504 64.0937 217.452 64.0588 217.392 64.0466C217.03 64.004 216.663 64.0491 216.322 64.178C215.981 64.3069 215.676 64.5159 215.432 64.7874C215.41 64.8084 215.392 64.8336 215.38 64.8616C215.368 64.8896 215.362 64.9197 215.362 64.9502C215.362 64.9806 215.368 65.0108 215.38 65.0388C215.392 65.0667 215.41 65.092 215.432 65.113C215.466 65.1486 215.512 65.1706 215.561 65.1747Z" fill="#263238"/>
<path d="M226.475 78.1621C226.475 78.1621 223.233 82.0909 219.016 82.3041C221.469 83.4715 221.883 86.2329 221.883 86.2329C221.883 86.2329 227.153 84.6277 228.144 79.0096C227.953 78.7461 227.702 78.5319 227.411 78.3845C227.121 78.2372 226.801 78.161 226.475 78.1621Z" fill="white"/>
<path d="M217.381 83.6625L215.533 81.9788L213.181 82.6803C213.181 82.6803 214.956 84.7233 217.381 83.6625Z" fill="#246DFF"/>
<path opacity="0.3" d="M217.381 83.6625L215.533 81.9788L213.181 82.6803C213.181 82.6803 214.956 84.7233 217.381 83.6625Z" fill="black"/>
<path d="M217.28 78.7288C217.28 78.7288 215.639 80.6315 215.561 82.0065C213.59 82.5678 212.638 85.4638 212.638 85.4638C212.638 85.4638 212.279 81.3162 215.376 79.0824C215.961 78.7766 216.624 78.6535 217.28 78.7288Z" fill="white"/>
<path d="M238.303 203.641H236.707L236.276 202.99L235.436 203.646H225.804C225.746 202.885 225.889 202.123 226.218 201.435C226.218 201.435 229.096 201.171 230.205 199.751C230.244 199.695 230.298 199.652 230.36 199.626C230.423 199.6 230.491 199.593 230.558 199.605C231.521 199.807 235.329 200.531 237.424 199.774C237.476 199.753 237.532 199.745 237.587 199.75C237.643 199.756 237.697 199.775 237.743 199.806C237.79 199.837 237.829 199.879 237.856 199.928C237.883 199.977 237.898 200.032 237.9 200.088C237.942 201.281 238.077 202.469 238.303 203.641Z" fill="#263238"/>
<path d="M217.471 85.1272C217.924 84.42 218.159 83.6679 217.65 83.3312C217.286 83.0954 216.194 82.7699 215.97 83.5051C215.746 84.2404 215.774 84.869 216.082 85.1889C216.174 85.2817 216.285 85.3543 216.407 85.4019C216.529 85.4494 216.659 85.471 216.79 85.4652C216.92 85.4594 217.048 85.4263 217.166 85.3681C217.283 85.3099 217.387 85.2278 217.471 85.1272Z" fill="#263238"/>
<path d="M217.7 83.4882C218.652 82.1637 221.452 81.6922 221.452 82.781C221.452 84.8745 221.385 86.9904 220.489 87.4843C219.593 87.9782 218.182 84.7398 217.493 84.6781L217.7 83.4882Z" fill="#263238"/>
<path d="M216.16 83.4041C215.6 82.0066 213.825 81.5127 213.534 82.551C212.974 84.5434 212.895 86.1935 213.534 86.766C214.172 87.3385 215.572 84.5996 216.138 84.622L216.16 83.4041Z" fill="#263238"/>
<path d="M184.873 81.5354C185.579 78.9705 183.792 77.3822 182.801 75.7209C182.627 75.4403 181.771 75.5918 181.726 76.1867C181.669 76.5493 181.686 76.9196 181.776 77.2754C181.865 77.6313 182.025 77.9654 182.247 78.2577C181.726 78.9088 180.953 81.1875 182.768 82.6692C183.584 82.5627 184.334 82.1592 184.873 81.5354Z" fill="#B55B52"/>
<path d="M233.363 79.9023C233.115 79.7477 232.838 79.6446 232.55 79.5993C232.261 79.554 231.966 79.5673 231.683 79.6385C229.936 81.6534 222.348 96.3188 225.467 123.5H227.242C224.106 96.3132 231.616 81.9172 233.363 79.9023Z" fill="white"/>
<path d="M227.411 125.722L227.254 123.719C227.241 123.613 227.188 123.516 227.105 123.449C227.023 123.382 226.917 123.35 226.811 123.36L225.955 123.404C225.85 123.409 225.752 123.454 225.68 123.531C225.609 123.608 225.571 123.709 225.574 123.814L225.731 125.823C225.745 125.929 225.798 126.024 225.881 126.091C225.963 126.158 226.068 126.191 226.173 126.183L227.03 126.132C227.082 126.131 227.133 126.119 227.18 126.097C227.228 126.076 227.27 126.045 227.306 126.007C227.341 125.969 227.369 125.924 227.387 125.875C227.405 125.826 227.413 125.774 227.411 125.722Z" fill="white"/>
<path d="M227.45 124.437H225.534C225.432 124.434 225.334 124.396 225.255 124.33C225.177 124.264 225.123 124.173 225.103 124.072L224.98 123.298C224.971 123.253 224.972 123.206 224.983 123.161C224.994 123.117 225.015 123.075 225.045 123.04C225.075 123.005 225.112 122.977 225.154 122.958C225.196 122.94 225.242 122.931 225.288 122.933H227.203C227.305 122.936 227.403 122.974 227.48 123.041C227.557 123.107 227.61 123.198 227.629 123.298L227.758 124.072C227.767 124.117 227.766 124.164 227.755 124.209C227.743 124.253 227.722 124.295 227.692 124.33C227.663 124.365 227.625 124.393 227.583 124.412C227.541 124.43 227.496 124.439 227.45 124.437Z" fill="#263238"/>
<path d="M212.447 79.4755C212.117 79.2117 211.075 79.3632 210.554 79.6607C208.723 81.6756 200.474 96.341 202.401 123.522H204.176C202.255 96.313 210.616 81.4679 212.447 79.4755Z" fill="white"/>
<path d="M204.26 125.722L204.193 123.719C204.189 123.667 204.176 123.616 204.152 123.57C204.129 123.523 204.096 123.482 204.056 123.448C204.017 123.415 203.97 123.39 203.921 123.374C203.871 123.359 203.819 123.354 203.767 123.36L202.905 123.404C202.799 123.41 202.7 123.455 202.626 123.531C202.552 123.607 202.51 123.708 202.507 123.814L202.575 125.823C202.584 125.927 202.635 126.023 202.714 126.09C202.794 126.157 202.896 126.19 203 126.183L203.863 126.132C203.969 126.128 204.069 126.083 204.143 126.007C204.217 125.93 204.259 125.829 204.26 125.722Z" fill="white"/>
<path d="M204.355 124.437H202.44C202.34 124.434 202.243 124.396 202.167 124.33C202.092 124.263 202.042 124.172 202.026 124.072L201.936 123.298C201.93 123.252 201.933 123.205 201.947 123.16C201.96 123.115 201.983 123.074 202.014 123.04C202.045 123.005 202.083 122.977 202.126 122.959C202.168 122.94 202.215 122.932 202.261 122.933H204.176C204.277 122.936 204.374 122.974 204.449 123.04C204.525 123.107 204.575 123.198 204.591 123.298L204.68 124.072C204.687 124.118 204.683 124.165 204.67 124.21C204.656 124.254 204.633 124.295 204.602 124.33C204.571 124.365 204.533 124.393 204.491 124.411C204.448 124.429 204.402 124.438 204.355 124.437Z" fill="#263238"/>
<path d="M222.219 56.6384C220.047 54.9042 216.446 59.5401 221.2 62.1162C227.159 65.349 226.442 70.5687 234.147 69.0421C230.849 66.7241 232.943 64.9562 231.549 61.6111C229.992 57.8563 225.742 59.4447 222.219 56.6384Z" fill="#F5F5F5"/>
<path d="M218.904 59.4163C219.61 62.0092 220.467 62.6154 221.262 63.2945C220.705 62.4021 220.306 61.4206 220.08 60.3928L218.904 59.4163Z" fill="#F5F5F5"/>
<path d="M215.723 71.5173C215.723 71.5173 217.403 71.3882 221.945 72.0785C221.211 73.3694 220.052 74.3235 217.723 73.9699C217.426 73.9536 217.136 73.8754 216.87 73.7403C216.605 73.6053 216.371 73.4163 216.183 73.1856C215.995 72.9548 215.857 72.6872 215.778 72.4C215.699 72.1127 215.68 71.8121 215.723 71.5173Z" fill="#263238"/>
<path d="M218.96 73.0377C218.073 72.853 217.15 72.9531 216.323 73.324C216.712 73.6716 217.199 73.8911 217.717 73.9526C218.603 74.1396 219.524 74.0394 220.349 73.6663C219.965 73.3143 219.478 73.0942 218.96 73.0377Z" fill="#A02724"/>
<path d="M215.936 71.5116C215.956 71.686 216.024 71.8515 216.132 71.99C216.239 72.1286 216.383 72.2349 216.546 72.2974C217.896 72.4953 219.26 72.5816 220.623 72.5555C220.838 72.567 221.053 72.5254 221.248 72.4344C221.443 72.3434 221.613 72.2058 221.743 72.0336C219.824 71.7101 217.882 71.5356 215.936 71.5116Z" fill="white"/>
<path d="M215.628 74.8564C215.673 76.0744 216.894 77.1014 216.574 77.8647C218.084 77.9792 219.593 77.6391 220.909 76.8882C221.007 76.8153 221.081 76.7155 221.123 76.6008C221.166 76.4861 221.174 76.3616 221.146 76.2425C221.119 76.1234 221.057 76.0148 220.97 75.9302C220.882 75.8455 220.771 75.7883 220.651 75.7657C219.691 75.6705 218.771 75.3346 217.974 74.7891C217.873 74.7036 217.745 74.6567 217.613 74.6567C217.481 74.6567 217.353 74.7036 217.252 74.7891C216.289 75.5468 215.628 74.8564 215.628 74.8564Z" fill="#F5F5F5"/>
<path d="M236.466 125.476L208.04 105.624L208.354 105.17L237.054 124.617L236.466 125.476Z" fill="#263238"/>
<path d="M234.013 117.315L236.768 118.712C238.963 121.114 235.391 123.404 235.391 123.404L234.119 125.2C233.875 125.503 233.532 125.709 233.15 125.781C232.768 125.853 232.373 125.786 232.036 125.593L230.099 124.628C229.893 124.545 229.707 124.422 229.549 124.266C229.392 124.11 229.266 123.925 229.18 123.72C229.095 123.516 229.05 123.296 229.049 123.075C229.048 122.853 229.091 122.633 229.175 122.428L230.015 120.705C230.257 120.2 230.621 119.764 231.073 119.436L234.013 117.315Z" fill="#B55B52"/>
</svg>
