<svg width="307" height="228" viewBox="0 0 307 228" fill="none" xmlns="http://www.w3.org/2000/svg">
<path d="M307 200.362H0V200.516H307V200.362Z" fill="#EBEBEB"/>
<path d="M273.39 207.37H242.137V207.523H273.39V207.37Z" fill="#EBEBEB"/>
<path d="M61.1974 205.559H32.2104V205.712H61.1974V205.559Z" fill="#EBEBEB"/>
<path d="M244.372 204.53H232.589V204.684H244.372V204.53Z" fill="#EBEBEB"/>
<path d="M203.369 208.588H194.724V208.741H203.369V208.588Z" fill="#EBEBEB"/>
<path d="M189.253 208.588H167.493V208.741H189.253V208.588Z" fill="#EBEBEB"/>
<path d="M154.857 206.005H119.865V206.158H154.857V206.005Z" fill="#EBEBEB"/>
<path d="M145.518 173.068H26.9607C26.032 173.067 25.1418 172.698 24.4856 172.043C23.8295 171.388 23.4609 170.5 23.4609 169.574V3.46382C23.469 2.54341 23.8411 1.66335 24.4964 1.0148C25.1517 0.366246 26.0373 0.0015767 26.9607 0H145.518C146.448 0 147.34 0.368161 147.997 1.02349C148.655 1.67882 149.024 2.56764 149.024 3.49442V169.574C149.024 170.501 148.655 171.39 147.997 172.045C147.34 172.7 146.448 173.068 145.518 173.068ZM26.9607 0.122397C26.0727 0.124018 25.2216 0.476774 24.5942 1.10324C23.9668 1.7297 23.6144 2.57868 23.6144 3.46382V169.574C23.6144 170.459 23.9668 171.308 24.5942 171.935C25.2216 172.561 26.0727 172.914 26.9607 172.915H145.518C146.407 172.914 147.258 172.561 147.887 171.935C148.515 171.309 148.869 170.46 148.87 169.574V3.46382C148.869 2.57811 148.515 1.72915 147.887 1.10286C147.258 0.476575 146.407 0.124015 145.518 0.122397H26.9607Z" fill="#EBEBEB"/>
<path d="M278.332 173.068H159.769C158.84 173.067 157.949 172.698 157.292 172.043C156.635 171.388 156.265 170.5 156.263 169.574V3.46382C156.273 2.54285 156.646 1.6628 157.302 1.01442C157.959 0.366032 158.845 0.00155951 159.769 0H278.332C279.255 0.00318506 280.139 0.368566 280.793 1.01695C281.447 1.66533 281.818 2.54447 281.826 3.46382V169.574C281.826 170.499 281.458 171.386 280.803 172.041C280.149 172.696 279.26 173.065 278.332 173.068ZM159.769 0.122397C158.88 0.124015 158.029 0.476575 157.4 1.10286C156.772 1.72915 156.418 2.57811 156.417 3.46382V169.574C156.418 170.46 156.772 171.309 157.4 171.935C158.029 172.561 158.88 172.914 159.769 172.915H278.332C279.221 172.914 280.073 172.561 280.701 171.935C281.329 171.309 281.683 170.46 281.685 169.574V3.46382C281.683 2.57811 281.329 1.72915 280.701 1.10286C280.073 0.476575 279.221 0.124015 278.332 0.122397H159.769Z" fill="#EBEBEB"/>
<path d="M239.687 18.7695H177.182V200.363H239.687V18.7695Z" fill="#EBEBEB"/>
<path d="M235.469 196.691V22.4417L181.4 22.4417V196.691H235.469Z" fill="#FAFAFA"/>
<path d="M175.309 18.7695H112.804V200.363H175.309V18.7695Z" fill="#EBEBEB"/>
<path d="M175.309 199.653H177.182L177.182 19.4856H175.309L175.309 199.653Z" fill="#E0E0E0"/>
<path d="M171.091 196.684V22.4348L117.022 22.4348L117.022 196.684H171.091Z" fill="#FAFAFA"/>
<path d="M268.238 17.4052H84.2531C84.0371 17.4036 83.8303 17.3173 83.6775 17.1651C83.5247 17.0128 83.4381 16.8067 83.4365 16.5913C83.4381 16.3759 83.5247 16.1698 83.6775 16.0175C83.8303 15.8652 84.0371 15.7789 84.2531 15.7773H268.238C268.454 15.7789 268.661 15.8652 268.814 16.0175C268.967 16.1698 269.053 16.3759 269.055 16.5913C269.053 16.8067 268.967 17.0128 268.814 17.1651C268.661 17.3173 268.454 17.4036 268.238 17.4052Z" fill="#E0E0E0"/>
<path d="M235.469 25.9116V22.4417L181.4 22.4417V25.9116L235.469 25.9116Z" fill="#E0E0E0"/>
<path d="M235.469 28.2854V22.4348L181.4 22.4348V28.2854L235.469 28.2854Z" fill="#E0E0E0"/>
<path d="M171.091 35.2191V22.4348L117.022 22.4348V35.2191H171.091Z" fill="#E0E0E0"/>
<g opacity="0.8">
<path opacity="0.8" d="M247.712 11.97H230.397V198.129H247.712V11.97Z" fill="#F5F5F5"/>
<path opacity="0.8" d="M243.144 11.97H234.972V198.129H243.144V11.97Z" fill="#F0F0F0"/>
<path opacity="0.8" d="M257.002 11.97H239.688V198.129H257.002V11.97Z" fill="#F5F5F5"/>
<path opacity="0.8" d="M252.434 11.97H244.262V198.129H252.434V11.97Z" fill="#F0F0F0"/>
<path opacity="0.8" d="M265.66 11.97H248.345V198.129H265.66V11.97Z" fill="#F5F5F5"/>
</g>
<g opacity="0.8">
<path opacity="0.8" d="M111.417 11.97H86.2856V198.129H111.417V11.97Z" fill="#F5F5F5"/>
<path opacity="0.8" d="M104.779 11.97H92.917V198.129H104.779V11.97Z" fill="#F0F0F0"/>
<path opacity="0.8" d="M124.894 11.97H99.7632V198.129H124.894V11.97Z" fill="#F5F5F5"/>
<path opacity="0.8" d="M118.257 11.97H106.394V198.129H118.257V11.97Z" fill="#F0F0F0"/>
<path opacity="0.8" d="M137.456 11.97H112.325V198.129H137.456V11.97Z" fill="#F5F5F5"/>
</g>
<path d="M74.3554 31.0461H33.813V122.029H74.3554V31.0461Z" fill="#F0F0F0"/>
<path d="M74.3552 122.035H75.6323L75.6323 31.0518H74.3552L74.3552 122.035Z" fill="#E6E6E6"/>
<path d="M70.6714 118.357V34.7175H37.497L37.497 118.357H70.6714Z" fill="#FAFAFA"/>
<path d="M76.9097 167.114H35.2928C34.3775 167.112 33.5001 166.75 32.8524 166.105C32.2046 165.461 31.8392 164.587 31.8359 163.675C31.8392 162.762 32.2046 161.889 32.8524 161.244C33.5001 160.6 34.3775 160.237 35.2928 160.235H76.9097C77.8239 160.239 78.6997 160.602 79.3461 161.246C79.9925 161.891 80.3571 162.764 80.3604 163.675C80.3571 164.586 79.9925 165.459 79.3461 166.103C78.6997 166.747 77.8239 167.111 76.9097 167.114Z" fill="#F5F5F5"/>
<path d="M45.3011 167.114H38.4673L30.7002 200.363H37.5279L45.3011 167.114Z" fill="#E6E6E6"/>
<path d="M58.9317 167.114H52.104L48.2788 200.363H55.1065L58.9317 167.114Z" fill="#E6E6E6"/>
<path d="M66.9014 167.114H73.729L81.5023 200.363H74.6685L66.9014 167.114Z" fill="#E6E6E6"/>
<path d="M153.5 228C219.249 228 272.549 224.898 272.549 221.072C272.549 217.246 219.249 214.145 153.5 214.145C87.7515 214.145 34.4517 217.246 34.4517 221.072C34.4517 224.898 87.7515 228 153.5 228Z" fill="#F5F5F5"/>
<path d="M193.146 148.931H140.753C139.76 148.931 138.954 149.734 138.954 150.725V152.781C138.954 153.771 139.76 154.574 140.753 154.574H193.146C194.139 154.574 194.945 153.771 194.945 152.781V150.725C194.945 149.734 194.139 148.931 193.146 148.931Z" fill="#263238"/>
<path d="M192.648 217.4H194.945L192.305 154.574H189.124L192.648 217.4Z" fill="#246DFF"/>
<path opacity="0.6" d="M192.648 217.4H194.945L192.305 154.574H189.124L192.648 217.4Z" fill="white"/>
<path d="M171.509 217.4H169.212L171.853 154.574H175.033L171.509 217.4Z" fill="#246DFF"/>
<path opacity="0.6" d="M171.509 217.4H169.212L171.853 154.574H175.033L171.509 217.4Z" fill="white"/>
<path d="M162.397 217.4H164.693L162.047 154.574H158.873L162.397 217.4Z" fill="#246DFF"/>
<path opacity="0.6" d="M162.397 217.4H164.693L162.047 154.574H158.873L162.397 217.4Z" fill="white"/>
<path d="M141.25 217.4H138.954L141.6 154.574H144.775L141.25 217.4Z" fill="#246DFF"/>
<path opacity="0.6" d="M141.25 217.4H138.954L141.6 154.574H144.775L141.25 217.4Z" fill="white"/>
<g opacity="0.3">
<path opacity="0.3" d="M192.305 154.568H189.124L189.272 157.242H192.415L192.305 154.568Z" fill="#246DFF"/>
<path opacity="0.3" d="M171.742 157.242H174.879L175.033 154.568H171.852L171.742 157.242Z" fill="#246DFF"/>
<path opacity="0.3" d="M158.872 154.568L159.02 157.242H162.163L162.047 154.568H158.872Z" fill="#246DFF"/>
<path opacity="0.3" d="M141.484 157.242H144.634L144.781 154.568H141.601L141.484 157.242Z" fill="#246DFF"/>
</g>
<path d="M160.917 208.165L155.722 210.919L147.532 199.897L152.732 197.143L160.917 208.165Z" fill="#FFB573"/>
<path d="M153.844 209.218L159.271 205.461C159.316 205.423 159.368 205.395 159.424 205.378C159.48 205.362 159.538 205.357 159.596 205.365C159.654 205.372 159.71 205.392 159.759 205.422C159.809 205.452 159.852 205.492 159.885 205.54L163.134 209.634C163.29 209.86 163.351 210.138 163.304 210.408C163.257 210.678 163.105 210.919 162.882 211.079C160.972 212.351 160.113 212.798 157.614 214.279C156.073 215.185 152.389 217.339 150.123 218.324C147.857 219.31 146.948 217.045 147.82 216.427C149.89 214.971 152.628 212.107 153.248 210.093C153.344 209.744 153.553 209.436 153.844 209.218Z" fill="#263238"/>
<path opacity="0.2" d="M152.738 197.149L147.532 199.897L151.48 205.209L156.564 202.296L152.738 197.149Z" fill="black"/>
<path d="M165.283 131.863C165.283 131.863 124.918 130.609 124.759 147.42C124.562 171.581 147.569 203.312 147.569 203.312L156.57 197.346C156.57 197.346 140.802 174.28 140.667 155.419C152.56 152.071 180.577 154.195 184.206 144.342C187.178 136.3 185.624 131.863 185.624 131.863H165.283Z" fill="#246DFF"/>
<path opacity="0.2" d="M165.283 131.863C165.283 131.863 124.918 130.609 124.759 147.42C124.562 171.581 147.569 203.312 147.569 203.312L156.57 197.346C156.57 197.346 140.802 174.28 140.667 155.419C152.56 152.071 180.577 154.195 184.206 144.342C187.178 136.3 185.624 131.863 185.624 131.863H165.283Z" fill="black"/>
<path d="M159.014 198.881L148.305 205.417L144.947 202.021L156.711 194.634L159.014 198.881Z" fill="#263238"/>
<path d="M152.72 211.243C153.149 210.934 153.54 210.577 153.887 210.178C153.905 210.159 153.917 210.134 153.921 210.108C153.926 210.082 153.922 210.055 153.911 210.03C153.899 210.006 153.881 209.986 153.858 209.972C153.836 209.958 153.809 209.951 153.782 209.952C153.555 209.952 151.541 209.952 151.111 210.607C151.062 210.68 151.032 210.764 151.025 210.852C151.017 210.94 151.032 211.028 151.068 211.109C151.109 211.236 151.183 211.349 151.282 211.439C151.381 211.528 151.502 211.589 151.633 211.617C152.029 211.63 152.416 211.497 152.72 211.243ZM153.463 210.234C152.72 211.005 152.063 211.415 151.682 211.347C151.597 211.329 151.519 211.287 151.456 211.226C151.393 211.166 151.348 211.089 151.326 211.005C151.303 210.968 151.291 210.925 151.291 210.882C151.291 210.839 151.303 210.797 151.326 210.76C151.572 210.417 152.659 210.264 153.463 210.234Z" fill="#246DFF"/>
<path d="M153.862 210.203C153.88 210.19 153.894 210.173 153.905 210.154C153.917 210.134 153.923 210.11 153.923 210.087C153.923 210.063 153.917 210.04 153.905 210.019C153.869 209.958 153.009 208.502 152.198 208.367C152.089 208.346 151.977 208.351 151.87 208.382C151.763 208.413 151.665 208.468 151.584 208.545C151.492 208.613 151.425 208.711 151.394 208.821C151.363 208.932 151.369 209.05 151.413 209.157C151.67 209.768 153.089 210.264 153.77 210.221L153.862 210.203ZM151.842 208.685C151.887 208.652 151.937 208.629 151.991 208.616C152.045 208.604 152.101 208.602 152.155 208.612C152.641 208.691 153.23 209.456 153.537 209.921C152.868 209.86 151.861 209.432 151.695 209.034C151.664 208.961 151.646 208.857 151.799 208.722C151.812 208.734 151.824 208.716 151.842 208.685Z" fill="#246DFF"/>
<path d="M151.308 214.922L145.475 214.646L144.517 200.92L150.35 201.195L151.308 214.922Z" fill="#FFB573"/>
<path d="M145.34 213.654L151.94 213.446C152.052 213.438 152.162 213.474 152.247 213.546C152.332 213.618 152.385 213.721 152.395 213.832L152.88 219.028C152.89 219.303 152.79 219.57 152.602 219.772C152.415 219.974 152.155 220.094 151.879 220.105C149.583 220.105 148.477 220.037 145.573 220.105C143.786 220.16 140.274 220.423 137.824 220.105C135.375 219.786 135.749 217.394 136.811 217.302C139.335 217.1 142.718 215.362 144.339 214.009C144.624 213.784 144.976 213.66 145.34 213.654Z" fill="#263238"/>
<path d="M143.289 214.738C143.817 214.71 144.34 214.623 144.848 214.481C144.874 214.474 144.897 214.46 144.915 214.441C144.932 214.421 144.944 214.397 144.948 214.371C144.952 214.345 144.948 214.318 144.937 214.294C144.926 214.27 144.908 214.25 144.885 214.236C144.695 214.114 142.994 213.012 142.288 213.33C142.207 213.366 142.137 213.42 142.083 213.49C142.03 213.56 141.994 213.641 141.981 213.728C141.945 213.856 141.943 213.992 141.977 214.121C142.01 214.25 142.077 214.368 142.171 214.463C142.496 214.692 142.895 214.79 143.289 214.738ZM144.462 214.297C143.418 214.536 142.62 214.53 142.362 214.267C142.302 214.203 142.26 214.125 142.239 214.04C142.219 213.956 142.221 213.867 142.245 213.783C142.25 213.741 142.267 213.7 142.292 213.666C142.318 213.631 142.353 213.604 142.392 213.587C142.773 213.422 143.768 213.881 144.462 214.297Z" fill="#246DFF"/>
<path d="M144.818 214.488C144.838 214.493 144.859 214.493 144.879 214.488C144.899 214.477 144.916 214.461 144.928 214.442C144.94 214.422 144.946 214.4 144.947 214.377C144.947 214.304 145.033 212.615 144.419 212.064C144.339 211.987 144.24 211.932 144.133 211.902C144.026 211.872 143.913 211.869 143.805 211.893C143.687 211.899 143.576 211.945 143.487 212.023C143.399 212.101 143.34 212.206 143.32 212.321C143.203 212.933 144.118 214.157 144.714 214.488C144.747 214.499 144.784 214.499 144.818 214.488ZM143.94 212.138C143.994 212.134 144.048 212.142 144.099 212.161C144.15 212.18 144.196 212.21 144.235 212.248C144.603 212.578 144.677 213.539 144.683 214.084C144.155 213.667 143.541 212.762 143.621 212.339C143.621 212.26 143.676 212.162 143.872 212.131L143.94 212.138Z" fill="#246DFF"/>
<path opacity="0.2" d="M150.356 201.195L144.517 200.92L145.064 208.771L150.884 208.765L150.356 201.195Z" fill="black"/>
<path d="M179.638 131.863C179.638 131.863 137.407 135.841 138.942 148.515C141.164 166.789 142.257 206.176 142.257 206.176L153.021 206.598C153.021 206.598 157.583 171.103 155.225 152.358C166.154 152.358 192.912 153.142 195.35 146.581C197.505 140.78 196.738 131.894 196.738 131.894L179.638 131.863Z" fill="#246DFF"/>
<path d="M154.212 207.26L141.294 206.623L140.827 201.018L154.998 201.991L154.212 207.26Z" fill="#263238"/>
<path d="M170.268 94.7405C170.188 95.7686 170.108 96.6621 169.992 97.6046C169.875 98.547 169.752 99.4405 169.605 100.395C169.316 102.231 168.948 104.067 168.518 105.946C167.681 109.828 166.32 113.579 164.472 117.096C163.92 118.084 163.286 119.024 162.575 119.905C161.78 120.9 160.84 121.77 159.787 122.488C157.761 123.829 155.417 124.618 152.99 124.777C150.865 124.915 148.731 124.709 146.672 124.165C145.7 123.917 144.745 123.61 143.811 123.247C143.344 123.069 142.89 122.873 142.442 122.635C141.993 122.396 141.576 122.2 141.06 121.925L142.675 117.831L143.848 117.977L145.076 118.1C145.898 118.167 146.709 118.21 147.532 118.21C149.023 118.235 150.512 118.064 151.959 117.702C153.118 117.425 154.191 116.868 155.084 116.08C155.467 115.723 155.808 115.325 156.103 114.893C156.466 114.336 156.79 113.756 157.073 113.155C157.723 111.751 158.254 110.295 158.663 108.804C159.13 107.256 159.505 105.634 159.842 103.981C160.18 102.329 160.456 100.658 160.733 98.9754L161.095 96.4418C161.205 95.6095 161.328 94.716 161.408 93.9939L170.268 94.7405Z" fill="#FFB573"/>
<path d="M170.305 89.7534C166.007 85.5981 160.665 88.0521 158.541 95.8733C157.339 100.048 156.517 104.323 156.085 108.645L169.759 111.46C172.245 104 174.726 94.0128 170.305 89.7534Z" fill="#263238"/>
<path opacity="0.3" d="M165.903 98.26C166.879 97.3848 169.654 101.32 171.349 106.173C170.87 108.009 170.323 109.777 169.765 111.436L161.537 109.741C162.194 104.894 163.711 100.231 165.903 98.26Z" fill="black"/>
<path d="M141.748 115.994L138.678 114.825L138.543 121.318C138.543 121.318 143.701 123.54 144.751 120.988L144.382 119.366C144.204 118.651 143.878 117.982 143.424 117.401C142.971 116.82 142.4 116.341 141.748 115.994Z" fill="#FFB573"/>
<path d="M135.055 114.996L133.244 120.443L138.568 121.318L138.703 114.825L135.055 114.996Z" fill="#FFB573"/>
<path d="M139.697 119.336C139.632 119.337 139.568 119.32 139.513 119.286C139.458 119.253 139.413 119.204 139.384 119.146L133.901 108.626C133.857 108.544 133.849 108.447 133.876 108.358C133.904 108.268 133.966 108.193 134.048 108.149C134.132 108.108 134.229 108.101 134.319 108.129C134.408 108.158 134.483 108.22 134.527 108.302L139.992 118.804C140.035 118.887 140.044 118.983 140.017 119.073C139.989 119.162 139.927 119.237 139.844 119.281C139.799 119.309 139.749 119.328 139.697 119.336Z" fill="#263238"/>
<path d="M169.795 85.5856L176.353 83.7497L184.777 83.358C186.056 83.2968 187.321 83.6567 188.375 84.3822C189.429 85.1076 190.214 86.1584 190.61 87.3726C192.212 92.2685 193.68 99.3185 194.767 105.42C195.995 112.268 196.609 122.555 196.738 131.894H165.282C164.564 112.403 162.077 100.879 160.984 94.5022C160.766 93.2524 160.966 91.9659 161.551 90.8396C162.137 89.7133 163.076 88.8094 164.226 88.2661L169.795 85.5856Z" fill="#263238"/>
<path opacity="0.3" d="M194.767 105.395C193.92 100.591 192.827 95.181 191.611 90.7074C186.005 89.765 183.291 102.017 184.955 108.094C186.619 114.171 195.492 110.487 195.492 110.487C195.283 108.657 195.037 106.937 194.767 105.395Z" fill="black"/>
<path d="M175.235 70.9885C176.586 74.2932 175.776 80.3518 173.111 78.6383C170.446 76.9247 174.413 68.9812 175.235 70.9885Z" fill="#263238"/>
<path d="M173.762 73.1064L171.214 76.9864L167.751 82.2678C168.198 82.7197 168.56 83.2483 168.819 83.8284C169.433 85.1013 169.98 86.0499 167.296 87.8736C167.008 88.0578 166.779 88.3207 166.636 88.631C166.494 88.9413 166.444 89.2859 166.492 89.6238C166.652 90.45 167.474 91.2517 170.366 90.7438C173.153 90.2119 175.697 88.8051 177.624 86.7292C178.588 85.7683 178.367 85.0462 177.44 84.0487C174.787 81.2336 174.001 76.7355 173.762 73.1064Z" fill="#FFB573"/>
<path opacity="0.2" d="M168.58 80.9646L170.704 77.2009C170.749 77.2988 170.798 77.4029 170.851 77.513C171.04 77.9779 171.192 78.4567 171.306 78.9451C171.693 80.6158 170.391 83.0025 168.96 84.1408L168.794 83.8165C168.537 83.2746 168.206 82.7701 167.812 82.3171C167.787 82.2922 167.758 82.2715 167.726 82.2559L168.58 80.9646Z" fill="black"/>
<path d="M155.827 68.542C155.035 70.3229 157.841 75.3656 161.052 73.3277C164.263 71.2898 157.227 65.3903 155.827 68.542Z" fill="#263238"/>
<path d="M171.306 91.8272C171.263 91.8278 171.222 91.8134 171.19 91.7865C171.157 91.7595 171.135 91.7219 171.128 91.6803C170.894 90.1687 169.9 89.2324 168.776 88.0941C167.352 86.7049 165.737 85.126 165.209 82.0355C165.201 81.99 165.211 81.9432 165.237 81.9054C165.264 81.8675 165.304 81.8416 165.35 81.8335C165.396 81.8254 165.443 81.8357 165.481 81.8621C165.519 81.8885 165.544 81.9288 165.553 81.9743C166.068 84.9546 167.64 86.4907 169.022 87.8432C170.158 88.9509 171.226 89.9974 171.478 91.6252C171.482 91.6482 171.482 91.6719 171.477 91.6947C171.471 91.7175 171.462 91.739 171.448 91.758C171.434 91.7769 171.416 91.7928 171.396 91.8047C171.376 91.8166 171.354 91.8243 171.33 91.8272H171.306Z" fill="white"/>
<path d="M172.614 66.7486C173.842 72.2932 174.799 75.4816 172.816 78.9882C169.82 84.2941 162.329 83.572 159.48 78.468C156.914 73.8782 155.385 65.5797 160.155 61.9996C161.223 61.2086 162.473 60.699 163.791 60.5179C165.109 60.3368 166.451 60.4902 167.693 60.9638C168.935 61.4373 170.038 62.2158 170.898 63.227C171.758 64.2383 172.348 65.4495 172.614 66.7486Z" fill="#FFB573"/>
<path d="M174.266 70.5549C172.35 73.266 167.327 68.2906 167.739 64.9492C162.753 67.7765 157.338 71.5525 154.053 68.3702C150.258 64.6983 151.296 59.4352 155.741 58.964C154.955 60.4939 159.425 61.1732 161.801 58.811C165.823 54.8454 172.178 55.6715 172.061 58.8844C175.125 57.6727 178.471 64.6003 174.266 70.5549Z" fill="#263238"/>
<path d="M171.472 59.7842C172.657 58.9029 171.871 55.7634 169.12 54.8455C171.736 55.182 174.443 57.122 171.472 59.7842Z" fill="#263238"/>
<path d="M176.04 70.3097C176.093 71.5775 175.678 72.8207 174.873 73.8041C173.817 75.0587 172.19 74.0612 171.803 72.4945C171.465 71.0931 171.901 68.9205 173.289 68.2474C174.677 67.5742 175.966 68.7308 176.04 70.3097Z" fill="#FFB573"/>
<path d="M164.632 71.2466C164.779 71.6933 164.669 72.1462 164.374 72.2502C164.079 72.3543 163.76 72.0789 163.582 71.6383C163.404 71.1976 163.545 70.7387 163.84 70.6285C164.135 70.5183 164.485 70.7937 164.632 71.2466Z" fill="#263238"/>
<path d="M159.597 73.0824C159.751 73.5352 159.634 73.9881 159.339 74.0922C159.045 74.1962 158.695 73.9208 158.547 73.4802C158.4 73.0395 158.517 72.5806 158.805 72.4765C159.094 72.3725 159.45 72.6356 159.597 73.0824Z" fill="#263238"/>
<path d="M161.322 72.825C161.342 74.1636 161.185 75.499 160.855 76.7967C161.758 77.1272 162.753 76.35 162.753 76.35L161.322 72.825Z" fill="#ED893E"/>
<path d="M164.018 78.8412C164.541 78.6699 165.023 78.3944 165.436 78.0315C165.849 77.6685 166.183 77.2257 166.418 76.7299C166.433 76.6958 166.433 76.6574 166.419 76.623C166.406 76.5886 166.379 76.5611 166.345 76.5463C166.31 76.5339 166.271 76.5352 166.237 76.55C166.203 76.5647 166.176 76.5918 166.161 76.6258C165.897 77.1603 165.513 77.6271 165.039 77.9901C164.566 78.353 164.014 78.6024 163.428 78.7188C163.409 78.7213 163.391 78.7277 163.374 78.7376C163.357 78.7475 163.343 78.7607 163.332 78.7763C163.32 78.792 163.312 78.8098 163.308 78.8287C163.304 78.8476 163.304 78.8671 163.308 78.886C163.312 78.9049 163.319 78.9229 163.33 78.9387C163.341 78.9546 163.356 78.968 163.372 78.9781C163.389 78.9883 163.407 78.9949 163.426 78.9977C163.445 79.0005 163.465 78.9993 163.484 78.9942C163.665 78.955 163.843 78.9039 164.018 78.8412Z" fill="#263238"/>
<path d="M165.092 69.3C165.135 69.2798 165.171 69.248 165.197 69.2082C165.236 69.1455 165.249 69.07 165.233 68.9979C165.217 68.9257 165.173 68.8628 165.111 68.8227C164.748 68.5783 164.33 68.427 163.894 68.3822C163.458 68.3374 163.017 68.4004 162.612 68.5656C162.578 68.5807 162.547 68.6025 162.522 68.6297C162.497 68.6568 162.477 68.6888 162.465 68.7236C162.452 68.7585 162.447 68.7955 162.449 68.8325C162.451 68.8695 162.46 68.9057 162.477 68.9389C162.51 69.005 162.568 69.0556 162.638 69.0796C162.708 69.1036 162.784 69.0993 162.851 69.0674C163.171 68.9442 163.517 68.8999 163.858 68.9383C164.199 68.9766 164.525 69.0965 164.81 69.2878C164.851 69.3163 164.899 69.3326 164.949 69.3347C164.999 69.3369 165.049 69.3249 165.092 69.3Z" fill="#263238"/>
<path d="M158.602 70.1815C158.614 70.1353 158.614 70.0869 158.602 70.0407C158.572 69.9729 158.517 69.9194 158.448 69.892C158.379 69.8645 158.302 69.8652 158.234 69.8939C157.825 70.0518 157.462 70.3084 157.177 70.6405C156.892 70.9726 156.694 71.37 156.601 71.7971C156.588 71.8694 156.605 71.9435 156.648 72.0031C156.691 72.0628 156.755 72.1032 156.828 72.1154C156.9 72.1275 156.975 72.1105 157.034 72.068C157.094 72.0256 157.135 71.9611 157.147 71.8889C157.227 71.5552 157.387 71.246 157.614 70.9879C157.841 70.7299 158.127 70.5308 158.449 70.4079C158.491 70.3863 158.528 70.3541 158.555 70.3145C158.582 70.2749 158.598 70.2291 158.602 70.1815Z" fill="#263238"/>
<path d="M189.523 87.5125C190.137 88.5039 190.628 89.3974 191.138 90.352C191.648 91.3067 192.139 92.237 192.618 93.1916C193.588 95.0949 194.46 97.0533 195.307 99.0483C196.154 101.043 196.897 103.1 197.536 105.242C198.234 107.49 198.703 109.803 198.936 112.145C199.06 113.512 199.012 114.889 198.794 116.245C198.654 117.139 198.381 118.008 197.984 118.821C197.524 119.741 196.885 120.561 196.105 121.233C195.403 121.841 194.601 122.325 193.735 122.665C193.008 122.949 192.253 123.154 191.482 123.277C190.18 123.48 188.857 123.515 187.546 123.381C186.375 123.282 185.214 123.095 184.071 122.824C182.98 122.576 181.902 122.274 180.841 121.918C178.757 121.23 176.732 120.375 174.787 119.36L176.341 115.241C180.16 115.963 184.261 116.631 187.706 116.422C188.459 116.383 189.205 116.256 189.928 116.043C190.542 115.859 190.855 115.584 190.831 115.498C190.806 115.413 190.794 115.498 190.782 115.437C190.77 115.376 190.782 115.37 190.782 115.058C190.82 114.37 190.779 113.68 190.659 113.001C190.365 111.255 189.907 109.54 189.29 107.879C188.676 106.104 187.933 104.311 187.128 102.537C186.324 100.762 185.458 98.981 184.58 97.2062C184.138 96.3168 183.682 95.4376 183.211 94.5686L181.824 92.0044L189.523 87.5125Z" fill="#FFB573"/>
<path d="M186.656 83.4193C180.724 82.5197 177.808 87.593 180.602 95.1694C182.044 99.2677 183.857 103.227 186.017 106.999L198.807 101.412C196.48 93.9148 192.722 84.3434 186.656 83.4193Z" fill="#263238"/>
<path d="M173.049 114.679L170.311 115.499L174.198 121.007C174.198 121.007 179.957 118.951 178.778 116.454L177.329 115.634C176.089 114.918 174.517 114.177 173.049 114.679Z" fill="#FFB573"/>
<path d="M167.886 119.293L170.63 122.023L174.198 121.001L170.311 115.499L167.886 119.293Z" fill="#FFB573"/>
<path d="M173.872 72.0599C174.361 72.0599 174.757 71.5831 174.757 70.995C174.757 70.4069 174.361 69.9302 173.872 69.9302C173.384 69.9302 172.988 70.4069 172.988 70.995C172.988 71.5831 173.384 72.0599 173.872 72.0599Z" fill="white"/>
<path d="M174.603 73.8101L174.093 73.7918L173.78 71.3377L174.75 71.1235L174.603 73.8101Z" fill="white"/>
<path d="M178.128 120.07C176.286 120.07 174.652 119.795 173.664 118.901C173.295 118.547 173.008 118.118 172.823 117.642C172.637 117.167 172.557 116.657 172.589 116.147C172.646 113.624 173.04 111.119 173.762 108.7C174.616 105.364 175.291 102.733 173.24 99.4832C169.974 94.3242 170.95 87.1089 173.24 82.5863C174.99 79.1286 174.376 75.2731 174.155 73.8533C174.124 73.6698 174.1 73.5229 174.088 73.425C174.085 73.402 174.087 73.3787 174.094 73.3566C174.101 73.3344 174.112 73.3139 174.127 73.2961C174.142 73.2784 174.16 73.2639 174.181 73.2534C174.201 73.2429 174.224 73.2368 174.247 73.2353C174.294 73.23 174.34 73.2431 174.377 73.2718C174.414 73.3004 174.438 73.3422 174.444 73.3882C174.444 73.48 174.474 73.6208 174.499 73.7983C174.732 75.2731 175.34 79.1837 173.535 82.7455C171.294 87.1823 170.336 94.2507 173.535 99.269C175.666 102.641 174.941 105.474 174.1 108.755C173.392 111.141 173.006 113.611 172.952 116.098C172.918 116.559 172.986 117.02 173.151 117.452C173.315 117.883 173.572 118.273 173.903 118.595C175.561 120.082 179.221 119.703 182.757 119.336C184.341 119.177 185.981 119.005 187.424 119.005C187.471 119.005 187.516 119.024 187.55 119.057C187.583 119.091 187.602 119.136 187.602 119.183C187.602 119.23 187.583 119.275 187.55 119.308C187.516 119.342 187.471 119.36 187.424 119.36C185.999 119.36 184.354 119.526 182.794 119.691C181.246 119.895 179.689 120.022 178.128 120.07Z" fill="white"/>
<path d="M194.773 118.76H187.786C187.582 118.76 187.417 118.925 187.417 119.128V119.617C187.417 119.82 187.582 119.984 187.786 119.984H194.773C194.977 119.984 195.142 119.82 195.142 119.617V119.128C195.142 118.925 194.977 118.76 194.773 118.76Z" fill="white"/>
<path d="M238.625 124.06H68.3752C67.8334 124.059 67.3143 123.844 66.9312 123.462C66.5481 123.08 66.3322 122.563 66.3306 122.023C66.3322 121.483 66.5481 120.965 66.9312 120.583C67.3143 120.201 67.8334 119.986 68.3752 119.985H238.625C239.167 119.986 239.686 120.201 240.069 120.583C240.452 120.965 240.668 121.483 240.67 122.023C240.668 122.563 240.452 123.08 240.069 123.462C239.686 123.844 239.167 124.059 238.625 124.06Z" fill="#246DFF"/>
<path opacity="0.3" d="M238.625 124.06H198.77C198.228 124.059 197.709 123.844 197.326 123.462C196.943 123.08 196.727 122.563 196.726 122.023C196.727 121.483 196.943 120.965 197.326 120.583C197.709 120.201 198.228 119.986 198.77 119.985H238.625C239.167 119.986 239.686 120.201 240.069 120.583C240.452 120.965 240.668 121.483 240.67 122.023C240.668 122.563 240.452 123.08 240.069 123.462C239.686 123.844 239.167 124.059 238.625 124.06Z" fill="#263238"/>
<path d="M236.746 220.081H240.67L236.157 124.061H230.729L236.746 220.081Z" fill="#263238"/>
<path opacity="0.1" d="M236.746 220.081H240.67L236.157 124.061H230.729L236.746 220.081Z" fill="white"/>
<path d="M200.649 220.081H196.726L201.238 124.061H206.666L200.649 220.081Z" fill="#263238"/>
<path opacity="0.2" d="M200.649 220.081H196.726L201.238 124.061H206.666L200.649 220.081Z" fill="white"/>
<path d="M106.357 220.081H110.275L105.762 124.061H100.334L106.357 220.081Z" fill="#263238"/>
<path opacity="0.1" d="M106.357 220.081H110.275L105.762 124.061H100.334L106.357 220.081Z" fill="white"/>
<path d="M70.254 220.081H66.3306L70.8435 124.061H76.2712L70.254 220.081Z" fill="#263238"/>
<path opacity="0.2" d="M70.254 220.081H66.3306L70.8435 124.061H76.2712L70.254 220.081Z" fill="white"/>
<path d="M202.921 129.171H71.9854V137.219H202.921V129.171Z" fill="#263238"/>
<path opacity="0.2" d="M202.921 129.171H71.9854V137.219H202.921V129.171Z" fill="white"/>
<path d="M93.531 114.576C93.3041 114.576 93.0864 114.665 92.9253 114.824C92.7643 114.984 92.673 115.2 92.6714 115.426V119.098C92.6714 119.325 92.762 119.543 92.9232 119.704C93.0844 119.865 93.303 119.955 93.531 119.955H121.376C121.45 119.955 121.521 119.926 121.573 119.875C121.626 119.823 121.657 119.753 121.658 119.679V114.82C121.657 114.747 121.626 114.677 121.573 114.625C121.521 114.574 121.45 114.545 121.376 114.545L93.531 114.576Z" fill="#246DFF"/>
<path opacity="0.9" d="M110.011 115.089H121.677V119.471H110.011C109.879 119.471 109.752 119.418 109.659 119.325C109.566 119.233 109.513 119.106 109.513 118.975V115.578C109.515 115.448 109.568 115.324 109.661 115.232C109.754 115.14 109.88 115.089 110.011 115.089Z" fill="white"/>
<path d="M108.095 114.574H79.9675C79.4928 114.574 79.1079 114.958 79.1079 115.431V119.133C79.1079 119.607 79.4928 119.99 79.9675 119.99H108.095C108.57 119.99 108.954 119.607 108.954 119.133V115.431C108.954 114.958 108.57 114.574 108.095 114.574Z" fill="#246DFF"/>
<path opacity="0.2" d="M108.095 114.574H79.9675C79.4928 114.574 79.1079 114.958 79.1079 115.431V119.133C79.1079 119.607 79.4928 119.99 79.9675 119.99H108.095C108.57 119.99 108.954 119.607 108.954 119.133V115.431C108.954 114.958 108.57 114.574 108.095 114.574Z" fill="black"/>
<path opacity="0.5" d="M94.2613 114.574H89.994C89.8007 114.574 89.644 114.73 89.644 114.923V119.641C89.644 119.834 89.8007 119.99 89.994 119.99H94.2613C94.4546 119.99 94.6113 119.834 94.6113 119.641V114.923C94.6113 114.73 94.4546 114.574 94.2613 114.574Z" fill="#246DFF"/>
<path opacity="0.5" d="M100.42 114.574H96.1586C95.9653 114.574 95.8086 114.73 95.8086 114.923V119.641C95.8086 119.834 95.9653 119.99 96.1586 119.99H100.42C100.613 119.99 100.77 119.834 100.77 119.641V114.923C100.77 114.73 100.613 114.574 100.42 114.574Z" fill="#246DFF"/>
<path d="M88.4958 107.904C88.383 107.904 88.2712 107.926 88.1669 107.969C88.0626 108.012 87.9678 108.075 87.888 108.155C87.8082 108.234 87.7449 108.329 87.7017 108.433C87.6585 108.537 87.6362 108.648 87.6362 108.761V113.718C87.6362 113.83 87.6585 113.942 87.7017 114.046C87.7449 114.149 87.8082 114.244 87.888 114.324C87.9678 114.403 88.0626 114.466 88.1669 114.509C88.2712 114.552 88.383 114.574 88.4958 114.574H118.662C118.735 114.573 118.806 114.542 118.857 114.49C118.909 114.437 118.938 114.367 118.938 114.293V108.173C118.938 108.099 118.909 108.029 118.857 107.976C118.806 107.924 118.735 107.893 118.662 107.892L88.4958 107.904Z" fill="#246DFF"/>
<path opacity="0.9" d="M104.994 108.424H118.956V114.06H104.994C104.862 114.06 104.736 114.008 104.642 113.915C104.549 113.822 104.497 113.696 104.497 113.565V108.932C104.495 108.866 104.507 108.8 104.531 108.739C104.555 108.677 104.592 108.621 104.638 108.574C104.684 108.526 104.74 108.489 104.801 108.463C104.862 108.437 104.928 108.424 104.994 108.424Z" fill="white"/>
<path d="M103.054 107.904H79.4026C78.9278 107.904 78.543 108.288 78.543 108.761V113.712C78.543 114.185 78.9278 114.569 79.4026 114.569H103.054C103.529 114.569 103.913 114.185 103.913 113.712V108.761C103.913 108.288 103.529 107.904 103.054 107.904Z" fill="#246DFF"/>
<path opacity="0.2" d="M103.054 107.904H79.4026C78.9278 107.904 78.543 108.288 78.543 108.761V113.712C78.543 114.185 78.9278 114.569 79.4026 114.569H103.054C103.529 114.569 103.913 114.185 103.913 113.712V108.761C103.913 108.288 103.529 107.904 103.054 107.904Z" fill="white"/>
<path opacity="0.6" d="M100.837 109.227H83.5165C83.2283 109.227 82.9946 109.459 82.9946 109.747V112.727C82.9946 113.014 83.2283 113.247 83.5165 113.247H100.837C101.126 113.247 101.359 113.014 101.359 112.727V109.747C101.359 109.459 101.126 109.227 100.837 109.227Z" fill="#246DFF"/>
<path d="M97.3435 104.716C96.8707 104.716 96.4839 104.942 96.4839 105.218V107.402C96.4839 107.678 96.8707 107.904 97.3435 107.904H125.195C125.348 107.904 125.471 107.831 125.471 107.745V104.881C125.471 104.789 125.348 104.716 125.195 104.716H97.3435Z" fill="#246DFF"/>
<path opacity="0.9" d="M113.713 105.016H125.471V107.598H113.713C113.612 107.598 113.515 107.558 113.444 107.487C113.372 107.416 113.332 107.319 113.332 107.219V105.383C113.335 105.284 113.377 105.191 113.448 105.122C113.519 105.054 113.614 105.016 113.713 105.016Z" fill="white"/>
<path d="M112.11 104.716H83.5779C83.215 104.716 82.9209 105.009 82.9209 105.371V107.256C82.9209 107.617 83.215 107.91 83.5779 107.91H112.11C112.473 107.91 112.767 107.617 112.767 107.256V105.371C112.767 105.009 112.473 104.716 112.11 104.716Z" fill="#246DFF"/>
<path opacity="0.2" d="M112.11 104.716H83.5779C83.215 104.716 82.9209 105.009 82.9209 105.371V107.256C82.9209 107.617 83.215 107.91 83.5779 107.91H112.11C112.473 107.91 112.767 107.617 112.767 107.256V105.371C112.767 105.009 112.473 104.716 112.11 104.716Z" fill="black"/>
<path opacity="0.5" d="M87.1638 104.716H86.2735C86.2023 104.716 86.1445 104.773 86.1445 104.844V107.782C86.1445 107.853 86.2023 107.91 86.2735 107.91H87.1638C87.235 107.91 87.2927 107.853 87.2927 107.782V104.844C87.2927 104.773 87.235 104.716 87.1638 104.716Z" fill="#246DFF"/>
<path opacity="0.5" d="M110.324 104.716H109.452C109.38 104.716 109.323 104.773 109.323 104.844V107.782C109.323 107.853 109.38 107.91 109.452 107.91H110.324C110.395 107.91 110.453 107.853 110.453 107.782V104.844C110.453 104.773 110.395 104.716 110.324 104.716Z" fill="#246DFF"/>
<path d="M92.3088 100.102C91.836 100.102 91.4492 100.328 91.4492 100.603V104.208C91.4492 104.489 91.836 104.716 92.3088 104.716H122.475C122.628 104.716 122.757 104.642 122.757 104.551V100.267C122.757 100.175 122.628 100.102 122.475 100.102H92.3088Z" fill="#246DFF"/>
<path opacity="0.9" d="M108.678 100.401H122.757V104.41H108.678C108.577 104.41 108.48 104.37 108.409 104.299C108.337 104.228 108.297 104.131 108.297 104.03V100.781C108.297 100.68 108.337 100.584 108.409 100.512C108.48 100.441 108.577 100.401 108.678 100.401Z" fill="white"/>
<path d="M107.069 100.102H83.0129C82.6501 100.102 82.356 100.395 82.356 100.756V104.061C82.356 104.423 82.6501 104.716 83.0129 104.716H107.069C107.432 104.716 107.726 104.423 107.726 104.061V100.756C107.726 100.395 107.432 100.102 107.069 100.102Z" fill="#246DFF"/>
<path opacity="0.1" d="M107.069 100.102H83.0129C82.6501 100.102 82.356 100.395 82.356 100.756V104.061C82.356 104.423 82.6501 104.716 83.0129 104.716H107.069C107.432 104.716 107.726 104.423 107.726 104.061V100.756C107.726 100.395 107.432 100.102 107.069 100.102Z" fill="black"/>
<path d="M159.591 118.97H134.251C134.115 118.97 133.985 119.023 133.889 119.118C133.792 119.213 133.737 119.342 133.735 119.478C133.737 119.613 133.792 119.742 133.889 119.837C133.985 119.932 134.115 119.986 134.251 119.986H159.591C159.726 119.986 159.856 119.932 159.951 119.837C160.047 119.742 160.101 119.612 160.101 119.478C160.101 119.343 160.047 119.214 159.951 119.119C159.856 119.023 159.726 118.97 159.591 118.97Z" fill="white"/>
<path d="M209.165 117.758H225.817L227.321 119.93H207.661L209.165 117.758Z" fill="#263238"/>
<path d="M234.88 80.6771C234.88 81.1189 234.748 81.5508 234.502 81.9181C234.256 82.2854 233.906 82.5717 233.496 82.7408C233.087 82.9099 232.636 82.9541 232.201 82.8679C231.767 82.7817 231.367 82.569 231.054 82.2566C230.74 81.9442 230.527 81.5462 230.441 81.1129C230.354 80.6796 230.398 80.2305 230.568 79.8223C230.738 79.4141 231.025 79.0653 231.393 78.8198C231.762 78.5744 232.195 78.4434 232.639 78.4434C232.933 78.4426 233.225 78.4998 233.497 78.6118C233.769 78.7237 234.017 78.8882 234.225 79.0958C234.433 79.3034 234.598 79.55 234.711 79.8213C234.823 80.0927 234.88 80.3835 234.88 80.6771Z" fill="black"/>
<path d="M218.044 119.226C217.927 119.226 217.812 119.197 217.709 119.142C217.606 119.087 217.519 119.007 217.454 118.911C217.389 118.814 217.349 118.703 217.337 118.587C217.325 118.471 217.342 118.355 217.387 118.247L233.431 80.4019C233.513 80.2439 233.653 80.1226 233.821 80.0623C233.989 80.002 234.174 80.0071 234.339 80.0765C234.504 80.1459 234.636 80.2745 234.71 80.4369C234.784 80.5992 234.794 80.7834 234.738 80.9527L218.695 118.792C218.641 118.919 218.55 119.029 218.434 119.106C218.319 119.183 218.183 119.225 218.044 119.226Z" fill="#263238"/>
<path d="M234.082 81.3928C233.929 81.3911 233.781 81.3419 233.658 81.2521L204.524 59.4716C204.374 59.3596 204.275 59.1929 204.248 59.0082C204.222 58.8234 204.27 58.6357 204.382 58.4864C204.495 58.337 204.662 58.2383 204.847 58.2119C205.033 58.1855 205.221 58.2336 205.371 58.3456L234.511 80.1138C234.629 80.2039 234.716 80.3285 234.759 80.47C234.802 80.6115 234.8 80.763 234.753 80.9033C234.705 81.0435 234.615 81.1655 234.495 81.2522C234.375 81.3388 234.23 81.3859 234.082 81.3867V81.3928Z" fill="#263238"/>
<path d="M236.323 80.6771C236.323 81.1189 236.191 81.5508 235.945 81.9181C235.699 82.2854 235.349 82.5717 234.939 82.7408C234.53 82.9099 234.079 82.9541 233.644 82.8679C233.209 82.7817 232.81 82.569 232.497 82.2566C232.183 81.9442 231.97 81.5462 231.883 81.1129C231.797 80.6796 231.841 80.2305 232.011 79.8223C232.181 79.4141 232.468 79.0653 232.836 78.8198C233.205 78.5744 233.638 78.4434 234.081 78.4434C234.376 78.4426 234.668 78.4998 234.94 78.6118C235.212 78.7237 235.46 78.8882 235.668 79.0958C235.876 79.3034 236.041 79.55 236.154 79.8213C236.266 80.0927 236.323 80.3835 236.323 80.6771Z" fill="#263238"/>
<path d="M204.947 61.1369C206.182 61.1369 207.182 60.1395 207.182 58.9093C207.182 57.679 206.182 56.6816 204.947 56.6816C203.713 56.6816 202.712 57.679 202.712 58.9093C202.712 60.1395 203.713 61.1369 204.947 61.1369Z" fill="#263238"/>
<path d="M201.816 69.092C201.115 69.7904 200.222 70.2661 199.25 70.4587C198.278 70.6514 197.271 70.5525 196.356 70.1746C195.44 69.7966 194.658 69.1565 194.107 68.3353C193.557 67.5141 193.263 66.5486 193.263 65.5609C193.263 64.5732 193.557 63.6077 194.107 62.7865C194.658 61.9653 195.44 61.3252 196.356 60.9473C197.271 60.5693 198.278 60.4704 199.25 60.6631C200.222 60.8558 201.115 61.3314 201.816 62.0298C202.754 62.9671 203.281 64.237 203.281 65.5609C203.281 66.8849 202.754 68.1547 201.816 69.092Z" fill="#246DFF"/>
<path opacity="0.7" d="M201.816 69.092C201.115 69.7904 200.222 70.2661 199.25 70.4587C198.278 70.6514 197.271 70.5525 196.356 70.1746C195.44 69.7966 194.658 69.1565 194.107 68.3353C193.557 67.5141 193.263 66.5486 193.263 65.5609C193.263 64.5732 193.557 63.6077 194.107 62.7865C194.658 61.9653 195.44 61.3252 196.356 60.9473C197.271 60.5693 198.278 60.4704 199.25 60.6631C200.222 60.8558 201.115 61.3314 201.816 62.0298C202.754 62.9671 203.281 64.237 203.281 65.5609C203.281 66.8849 202.754 68.1547 201.816 69.092Z" fill="white"/>
<path d="M204.947 58.909C203.951 57.915 202.768 57.1264 201.466 56.5884C200.164 56.0504 198.768 55.7734 197.358 55.7734C195.948 55.7734 194.553 56.0504 193.25 56.5884C191.948 57.1264 190.765 57.915 189.769 58.909L204.947 74.0495C205.946 73.0559 206.738 71.8759 207.278 70.5769C207.818 69.2779 208.097 67.8855 208.097 66.4793C208.097 65.073 207.818 63.6806 207.278 62.3816C206.738 61.0826 205.946 59.9026 204.947 58.909Z" fill="#263238"/>
<g opacity="0.2">
<path opacity="0.2" d="M189.763 58.9082L126.018 119.984H191.415L204.947 74.0425L189.763 58.9082Z" fill="#246DFF"/>
<path opacity="0.7" d="M189.763 58.9082L126.018 119.984H191.415L204.947 74.0425L189.763 58.9082Z" fill="white"/>
</g>
</svg>
