<svg width="80" height="208" viewBox="0 0 80 208" fill="none" xmlns="http://www.w3.org/2000/svg">
<path d="M140 208C199.966 208 248.579 205.166 248.579 201.67C248.579 198.175 199.966 195.341 140 195.341C80.0341 195.341 31.4219 198.175 31.4219 201.67C31.4219 205.166 80.0341 208 140 208Z" fill="#F5F5F5"/>
<path d="M50.1934 174.586L57.4286 166.177L61.2086 168.811L52.4558 177.136L50.1934 174.586Z" fill="#FFB573"/>
<path d="M53.0996 184.449C51.302 181.85 50.6468 180.832 49.678 179.322C48.8492 178.031 48.5076 177.88 47.8356 176.868C47.2756 176.012 47.97 175.28 48.9556 174.665C49.4372 174.352 50.6356 173.63 51.3916 173.094L53.7604 176.124C53.2732 177.634 53.9564 181.922 54.7852 183.577C55.586 185.109 53.8164 185.484 53.0996 184.449Z" fill="#263238"/>
<path d="M85.3331 110.147L94.6291 112.177C94.6291 112.177 113.848 132.512 115.198 139.854C115.881 143.555 105.163 167.989 105.163 167.989L100.582 167.866C100.582 167.866 103.382 146.949 106.714 142.062L83.6307 125.993C83.6307 125.993 79.4643 113.776 85.3331 110.147Z" fill="#246DFF"/>
<path opacity="0.5" d="M85.3331 110.147L94.6291 112.177C94.6291 112.177 113.848 132.512 115.198 139.854C115.881 143.555 105.163 167.989 105.163 167.989L100.582 167.866C100.582 167.866 103.382 146.949 106.714 142.062L83.6307 125.993C83.6307 125.993 79.4643 113.776 85.3331 110.147Z" fill="white"/>
<path d="M90.1607 110.846C90.1607 110.846 79.8511 107.346 79.4479 107.089C79.0447 106.832 73.4279 117.081 72.5151 123.913C71.6023 130.746 72.2631 146.949 72.2631 146.949C72.2631 146.949 66.6407 150.404 62.8215 155.727L54.1191 169.213L57.4063 172.803L77.7903 154.766C80.2166 152.831 81.8919 150.112 82.5279 147.078L90.1607 110.846Z" fill="#246DFF"/>
<path opacity="0.5" d="M90.1607 110.846C90.1607 110.846 79.8511 107.346 79.4479 107.089C79.0447 106.832 73.4279 117.081 72.5151 123.913C71.6023 130.746 72.2631 146.949 72.2631 146.949C72.2631 146.949 66.6407 150.404 62.8215 155.727L54.1191 169.213L57.4063 172.803L77.7903 154.766C80.2166 152.831 81.8919 150.112 82.5279 147.078L90.1607 110.846Z" fill="white"/>
<path d="M86.968 81.7272L82.572 81.3022L77.1512 82.0235C76.3267 82.1295 75.5603 82.5042 74.971 83.0896C74.3816 83.675 74.0023 84.4382 73.892 85.2608C73.4328 88.5765 73.892 108.336 74.8664 114.335L78.1032 114.671C83.4288 115.068 90.244 114.19 95.2224 112.25C95.2224 112.25 95.4968 90.5278 95.4576 86.3232C95.4513 85.4981 95.1739 84.6979 94.6681 84.0454C94.1623 83.3929 93.456 82.9242 92.6576 82.7112L86.968 81.7272Z" fill="#246DFF"/>
<path d="M79.5202 82.0349C79.4557 82.8277 79.6915 83.6158 80.181 84.2434C80.6676 84.8713 81.2321 85.435 81.861 85.9208C82.6282 86.5638 83.541 87.2459 84.5266 87.0726C85.5122 86.8992 85.9378 86.424 86.2626 85.3225C87.1026 86.547 87.1642 87.1732 88.0322 87.218C88.3114 87.191 88.5814 87.1035 88.8232 86.9615C89.065 86.8195 89.2729 86.6266 89.4322 86.396C90.0465 85.844 90.4187 85.0727 90.4682 84.249C90.6026 82.6443 89.2418 81.2185 87.7018 80.7209C86.1432 80.2768 84.5342 80.0326 82.9138 79.9941C81.497 79.8711 79.733 80.3854 79.5202 82.0349Z" fill="#246DFF"/>
<path opacity="0.6" d="M79.5202 82.0349C79.4557 82.8277 79.6915 83.6158 80.181 84.2434C80.6676 84.8713 81.2321 85.435 81.861 85.9208C82.6282 86.5638 83.541 87.2459 84.5266 87.0726C85.5122 86.8992 85.9378 86.424 86.2626 85.3225C87.1026 86.547 87.1642 87.1732 88.0322 87.218C88.3114 87.191 88.5814 87.1035 88.8232 86.9615C89.065 86.8195 89.2729 86.6266 89.4322 86.396C90.0465 85.844 90.4187 85.0727 90.4682 84.249C90.6026 82.6443 89.2418 81.2185 87.7018 80.7209C86.1432 80.2768 84.5342 80.0326 82.9138 79.9941C81.497 79.8711 79.733 80.3854 79.5202 82.0349Z" fill="white"/>
<path d="M68.578 81.2293C65.554 80.3067 63.7004 80.8603 63.1068 78.9648C62.5132 77.0694 61.8468 66.6193 62.3116 66.4963C61.4492 66.7647 60.6988 67.0555 59.842 67.3238C59.5284 70.1977 59.183 73.0698 58.806 75.94C58.5316 78.0367 58.1956 81.4362 59.0636 83.3651C59.8476 85.104 65.0164 86.1887 68.7572 86.9044C69.8548 85.8085 68.578 81.2293 68.578 81.2293Z" fill="#FFB573"/>
<path d="M78.1032 86.9828C80.7184 84.1033 78.6632 81.5313 73.5336 80.318C70.7943 79.6257 67.9978 79.1822 65.1784 78.9929L63.9912 87.0779C68.88 88.5148 75.4264 89.9238 78.1032 86.9828Z" fill="#246DFF"/>
<path d="M63.1624 68.9905L64.0696 67.4752L59.9872 66.5695C59.9872 66.5695 58.212 69.9242 59.7968 70.5616L60.7992 70.3324C61.6672 70.1479 62.72 69.8347 63.1624 68.9905Z" fill="#FFB573"/>
<path d="M63.5996 64.7243L61.1972 64.618L59.9932 66.5694L64.0756 67.4752L63.5996 64.7243Z" fill="#FFB573"/>
<path d="M54.0569 168.246C54.1857 168.297 58.7721 173.2 58.7721 173.2L56.9409 174.318L52.0801 169.599L54.0569 168.246Z" fill="#246DFF"/>
</svg>
